/* XPM */
static char *result[] = {
/* columns rows colors chars-per-pixel */
"84 84 154 2 ",
"   c #001200",
".  c #1F3B16",
"X  c #253E16",
"o  c #25421A",
"O  c #294219",
"+  c #374A1B",
"@  c #1C4525",
"#  c #1C4829",
"$  c #254724",
"%  c #234B27",
"&  c #2A4921",
"*  c #344D27",
"=  c #274D33",
"-  c #2C5234",
";  c #2F553D",
":  c #255D3A",
">  c #2F5F3D",
",  c #385532",
"<  c #3C5B33",
"1  c #315E3D",
"2  c #3B5C3A",
"3  c #34603F",
"4  c #475B27",
"5  c #4C5D2C",
"6  c #415A30",
"7  c #305640",
"8  c #365E43",
"9  c #395F44",
"0  c #355D49",
"q  c #3A5F49",
"w  c #2E6240",
"e  c #376044",
"r  c #396145",
"t  c #34624B",
"y  c #3A624A",
"u  c #3D694D",
"i  c #336751",
"p  c #396652",
"a  c #356952",
"s  c #3D6B51",
"d  c #3F745A",
"f  c #3F785E",
"g  c #3E7961",
"h  c #426545",
"j  c #486741",
"k  c #4D6A45",
"l  c #41644A",
"z  c #426C4E",
"x  c #4C6B4A",
"c  c #516C43",
"v  c #506C4B",
"b  c #46704F",
"n  c #567043",
"m  c #5A7344",
"M  c #52724E",
"N  c #5D754C",
"B  c #5D794A",
"V  c #436750",
"C  c #446D51",
"Z  c #496E53",
"A  c #476F59",
"S  c #4B6F58",
"D  c #467456",
"F  c #497356",
"G  c #4F7957",
"H  c #45745B",
"J  c #497359",
"K  c #41795F",
"L  c #4C7A5B",
"P  c #527152",
"I  c #587957",
"U  c #50775A",
"Y  c #51785B",
"T  c #5D7D5B",
"R  c #62724B",
"E  c #607C4E",
"W  c #727F4D",
"Q  c #607450",
"!  c #607C50",
"~  c #447560",
"^  c #437A63",
"/  c #66825E",
"(  c #68855E",
")  c #668261",
"_  c #6A8B66",
"`  c #6D8C69",
"'  c #708D66",
"]  c #719260",
"[  c #759269",
"{  c #7B9776",
"}  c #7AA175",
"|  c #82996B",
" . c #829A79",
".. c #8FA46D",
"X. c #8EA270",
"o. c #8FAB7B",
"O. c #92A573",
"+. c #AABB7E",
"@. c #98AF83",
"#. c #A7BD8F",
"$. c #ADBF89",
"%. c #ABC089",
"&. c #BAC98F",
"*. c #ACC591",
"=. c #ACC69B",
"-. c #B1C692",
";. c #B4C994",
":. c #BBCD95",
">. c #B5CB99",
",. c #BACE9A",
"<. c #B6CFA2",
"1. c #B6D0A0",
"2. c #C0CF9C",
"3. c #C6D295",
"4. c #C2D19F",
"5. c #C4D6A2",
"6. c #CAD7A1",
"7. c #C4D9A4",
"8. c #CCDBA3",
"9. c #C5D8A9",
"0. c #CBDDAC",
"q. c #D9E4AD",
"w. c #DBEBAE",
"e. c #D6E7B6",
"r. c #DAE6B7",
"t. c #D7E9B1",
"y. c #DBECB5",
"u. c #DFEFB8",
"i. c #DEF0B6",
"p. c #DEF0B8",
"a. c #ECF4AB",
"s. c #ECF9AD",
"d. c #F0F7AE",
"f. c #F1F8AF",
"g. c #E1EEB2",
"h. c #E1EDB9",
"j. c #E6F1B5",
"k. c #EBF4B4",
"l. c #E7FBB7",
"z. c #EFF9B5",
"x. c #E4F2B8",
"c. c #EAF5BB",
"v. c #E6F9BE",
"b. c #EEFBBA",
"n. c #F1F6B3",
"m. c #F1FAB6",
"M. c #F9FBB4",
"N. c #F2FBBB",
"B. c #F9FFBE",
"V. c #E4F6C0",
"C. c #ECF7C1",
"Z. c #F4FFC1",
"A. c #FBFFC3",
"S. c #F5FFC8",
/* pixels */
"m.m.m.m.m.m.N.m.N.m.c.N.m.M.n.N.m.n.M.m.f.m.m.m.n.m.n.m.z.m.m.m.m.m.m.m.m.z.m.m.m.m.n.m.n.m.m.n.m.m.n.m.z.n.n.m.n.m.m.n.M.m.n.M.m.M.m.m.m.m.N.N.n.N.m.m.m.m.m.m.b.m.m.N.",
"m.m.m.m.n.b.m.m.b.m.m.N.m.m.m.m.M.M.m.m.f.m.n.n.M.n.M.n.M.m.m.m.N.m.m.m.M.m.m.m.n.n.M.n.M.n.n.n.M.n.M.n.M.f.n.M.M.M.n.M.n.M.M.n.M.N.n.M.m.m.n.M.N.n.n.N.m.N.N.m.m.m.m.m.",
"m.N.b.m.m.N.n.N.n.m.m.m.m.n.m.N.m.m.z.m.n.m.m.m.b.m.b.b.z.b.m.m.m.m.N.b.m.z.m.m.m.m.b.m.b.b.n.m.m.n.b.b.b.b.b.z.b.b.n.b.b.z.b.m.N.m.m.m.m.M.n.N.b.m.N.m.m.m.m.m.m.m.m.m.",
"m.m.m.m.m.m.N.m.N.m.m.m.n.m.m.h.h.i.i.x.i.i.i.i.i.i.i.i.u.p.u.x.u.p.u.p.i.i.i.i.i.i.i.x.i.i.i.i.i.i.i.i.x.i.y.u.x.x.x.x.x.x.x.x.x.g.h.g.k.B.N.m.n.N.m.m.m.m.N.m.N.m.c.m.",
"m.N.m.m.m.m.m.m.m.b.m.m.k.N.q.W R ! ! E E E E ! / B E E ! E I E ! ! E T I E E E I E E E B E E I / B E E B m n m n n n c n n n n m m m 4 3.B.m.N.m.N.m.m.m.m.c.m.m.m.m.m.",
"m.b.m.m.m.N.m.N.m.m.m.m.m.m.h.R v Z Z Z b b z C b b C Z z D C Z C Z C Z b b x F Z Z b z D D x Z b b C Z z y 1 8 2 1 1 8 1 1 1 2 8 8 2 . &.B.z.z.m.m.m.m.m.N.m.m.b.N.m.m.",
"m.m.m.b.b.m.m.n.m.m.m.m.B.N.r.R J ~ J H J H H H D D D H J H D H H H ~ A A H D H H A D H D H ~ A D D H H H s t t q q y y y y q t y 0 p % &.N.N.b.m.m.m.m.b.m.m.m.m.m.m.N.",
"m.m.m.N.m.N.N.N.b.b.n.b.b.Z.y.R S ~ J J J J J H D D J J J J J J J J J J H D L D J J J J J J J J D D J J J y 9 9 q q r q q q 9 9 r e t @ :.N.m.z.b.n.m.b.m.m.m.N.m.m.m.m.",
"m.m.m.m.m.m.m.m.k.k.b.k.z.b.t.B F H J J J J J S J A H J J J J J J S J J J H J J A J J D J S H H S J S J A y 9 q r q q 9 q 9 9 9 9 e t @ ;.m.n.s.z.z.m.n.c.m.m.m.N.m.b.m.",
"N.m.m.b.m.n.n.b.m.m.z.z.n.m.w.B D D H S S H J H J H H S S J S A J J S ~ S H H H H J ~ S J S J S ~ S ~ S A y 0 y q q q q q q 9 h r t i @ :.N.m.z.m.m.m.m.n.m.m.m.m.m.m.m.",
"m.b.m.m.n.n.b.b.Z.S.Z.B.B.S.p./ F F D J H H H H H H H H ~ S F J S J A ~ J H J F H H H S J J J S S J ~ J A u 9 r t q r q r 9 9 9 e t p @ 4.A.A.N.B.N.A.N.N.M.m.m.N.m.N.n.",
"m.m.m.m.z.b.N.8.<.0.9.1.7.1.=.c G L J D H H J D J J J H J J J J J J J S D J J J J J J H S J J J J J J J C V z y u p s u Z r 9 9 9 0 0 - @.5.4.4.,.5.2.6.k.N.n.N.c.m.N.N.",
"m.N.m.b.z.m.b...* 2 < < , , j M F F F D D F F F J F F F F F F J J S J F Z J F J J A F F F F J F S J F A F F D z F F D F C e r e r r y 8 * O O X O O O + k.N.M.N.m.m.N.n.",
"m.m.m.n.s.s.Z.O.k ^ G G F G D D F D b D F F F F A F F F F P F Z F J F F F F F F F F F F P Z F F J F F J F F F G F F F D C e e 2 2 9 r q y r x h h h h c x.N.n.n.m.m.N.N.",
"m.m.m.b.m.m.b...e H H L D D D D b b b D b F F F F F F F F F J F F J F P P J F F F F F F F Z J J F F F F z b F F F F F F z e r 3 9 r r r r r r 8 r r 9 j j.M.m.m.m.m.N.N.",
"m.m.m.m.b.b.N.O.r ~ D D D D D D D G D F D F F F F F F F F F A J A J Z J J P F Z F F F J U G F x F F M F F F F D F F F G z r h r 9 r r r r r r r y r 8 k x.B.n.N.m.N.N.n.",
"m.m.m.m.N.b.N.O.r ~ D F J F D D D D D b D D D G F F D F F J F F J F J J J S A F d d D D L D G F F J A F F F F D J J F F V r y 9 r 9 r y 9 h 9 9 y 9 9 c c.m.m.m.M.N.M.N.",
"m.b.m.m.N.N.N.O.r ~ H F D F D D D D D D D D D F J F J F F F F G F F F J S J ~ ^ ~ ~ ~ ^ H D D D J J F F J F F D F F J F C 9 r 9 r 9 r 9 9 9 h 9 y 9 8 k x.M.n.m.c.N.c.N.",
"m.m.m.b.N.b.b.O.r ~ J F J J F D D b G D F F J F F F J J F D J D F A J J ~ S y e 3 3 e 3 e u d D J J J F D J D F F F F F Z r r 9 9 9 r r 9 y 9 r q 9 8 k k.N.M.m.M.N.N.c.",
"N.m.m.N.N.N.Z.O.r H J A F F F D D F D D A J Z 9 h y l l y l l y l y l y l I 5.8.4.7.8.4.8.o.t f D A A J F F J F D J D A Z 9 9 r q 9 h 9 9 9 9 r l 9 8 k j.N.n.m.c.N.N.N.",
"m.m.m.m.N.b.N.O.r ~ D F J D D H D G D D F P C 9 9 9 9 9 9 r 9 r r r 9 r ; ( N.M.B.B.B.B.A.%.e g J A S F F F D J F F F F V 9 r r 9 r r r r r r 9 q q 8 k g.M.n.m.M.N.N.c.",
"m.b.N.m.N.N.N.O.r ~ H F J D D D F b D D A J Z r h 9 9 r h r r r r r r r - / k.a.f.n.n.k.S.*.: ^ D S A A F F F F F F J F Z r r 9 r r 9 r 9 9 r r y 9 8 k x.M.n.m.n.N.N.N.",
"m.m.m.N.N.N.Z.O.r ~ D F J D D D b G D b A J z 9 r r r 9 9 9 q 9 9 9 9 r - / b.M.m.m.m.m.Z.*.w g A A J J F F F J J F D J C 9 r 9 r r r r r r 9 r l q 9 k x.M.n.M.M.N.c.M.",
"m.m.m.b.N.N.b.O.9 ~ J F J J D D D b D F F G z 9 r 9 r r q 9 9 9 9 h 9 r ; / k.f.m.b.m.m.Z.%.> f J J J A F J F D F F D J C e r r r r r r r r t r y q 0 x x.M.n.N.n.N.c.N.",
"m.m.m.m.N.N.N.O.e ~ D J J F F D G D D D D G u 3 e 3 r h r r 9 9 9 r r r ; ( k.m.n.b.n.n.B.%.> f J P Z J D F D F D J F D C 9 e e t e e e u 3 t r y e 0 x x.M.n.n.m.m.m.N.",
"m.b.m.m.N.N.Z.O.r ~ J D J D D D D b D D D G b 3 e r r 3 r 9 r h 9 r 9 9 ; ( b.f.m.m.m.m.B.%.> f F P J J J F J J F F F J Z 9 e e e e e e e r r r y 0 0 x j.M.f.z.b.m.N.N.",
"m.m.m.m.N.N.Z.O.r ~ J A J J D D D G D D G D b 3 r r r 3 9 r h r r r h q 7 ! k.m.m.b.b.m.B.%.> D F J J A F F F D D D J D C e t r e t e r r 3 r r y t 0 x j.M.z.n.z.b.m.m.",
"m.b.N.m.m.N.c.O.r ~ J F D J D H D b D D D G u 3 9 r 2 h 9 9 9 9 r 9 9 9 7 ( k.m.m.m.n.m.B.%.1 K J Z J F J D F J J F F F D e e r r e r e e u r r y e t x x.M.m.z.b.m.m.N.",
"m.m.b.m.N.N.b.O.r H J A J F D D b G / u d / b 3 r 3 9 9 r r r r h r 9 9 ; ) b.n.m.m.b.m.B.%.> f F J J S J F F D F F J J C 9 e r r r r r e r 9 t y q 0 Z j.M.m.m.b.m.N.m.",
"N.m.m.m.N.N.Z.O.e ~ D F F F D D D b D D d u d w 9 h 9 9 r 9 9 r 9 9 r y ; ) c.m.m.b.N.m.A.%.> H F P J F F F F F F F F J C e e r e r r r r e 9 q y y 0 x j.M.m.z.b.b.m.b.",
"m.m.m.N.m.N.Z.O.r ~ D A D F D D D D D b / / > 3 2 9 r 9 r 9 9 r 9 9 9 9 7 ! c.m.m.m.b.b.B.%.> f F P F Z D J J F F F J D C e r e r e r r e r 0 9 p 0 0 x j.M.m.z.n.m.N.N.",
"b.m.m.m.N.b.b.O.r ~ L D J F D D G b D D a d u > r r r h 9 h 9 9 q y q l 7 ( k.m.m.b.m.z.B.%.> H F F J J F F F F D F D D C e r r r r r r r t q q q p 0 x j.f.m.m.m.b.m.m.",
"m.m.m.m.N.N.Z.O.r ~ D F D J D D D D D D J J s 8 9 r r r r 9 9 9 r y 9 y ; ! C.M.m.m.N.b.B.%.> f D J F F F D J D J F F F V 9 r r 9 r r 9 9 r 0 r p p 0 x j.M.n.n.m.m.m.m.",
"m.m.m.b.N.N.b.O.r ~ D Z J J D H M D D D J J z 8 h r 9 r r r r 9 9 h l r ; ( c.M.m.b.b.m.B.%.> f D D J F J D F F D F F F Z 9 r r r r h 9 r r r r u q 0 x j.M.d.n.m.m.N.m.",
"m.m.m.m.b.N.Z.X.r ~ J F J F D D D D D D D G C 8 9 9 9 9 9 r 9 l q r l y ; ) c.n.m.N.b.m.B.%.> f F F F F F F F J J D J A C 9 9 r r r e r e r e r q p 0 Z x.M.n.m.m.m.m.m.",
"m.b.m.N.N.N.N.O.r ~ J A J D D D D D D D J J z e 9 q q 9 9 h r r r y 9 9 ; ) c.m.m.b.m.m.N.%.> f F J J F J D F D F F F J Z 9 9 r r r r r r e r t p q 0 v g.M.n.m.N.N.m.m.",
"m.N.m.m.N.N.N.O.r ~ D J J J D D D G b D D G C 8 r r r 9 9 r 9 9 y 9 r y ; / c.M.N.b.m.b.B.%.> f F F J F F F F F D F J F C 9 9 r e r r r r r r r q q 0 v x.M.n.m.N.n.c.M.",
"m.m.b.m.N.b.Z.X.r ~ D J D J D D M D D D J J s e 9 r r r 9 q r r r q h r ; / c.n.m.m.b.N.B.%.> f F F Z J F F F J J F F F C 9 r 9 r r r r e t r r p p 0 x j.M.n.n.N.N.M.N.",
"m.m.m.m.N.N.Z.O.r ~ J J D J H D D D D D J J C 9 r 9 9 h h 9 r 9 y 9 r y ; / c.m.m.m.b.b.Z.%.> f F F F F F F F F F F D J C 9 r 9 r r r r r r r r l p 0 x j.M.n.n.c.N.m.M.",
"m.m.N.m.N.N.b.O.r ~ D Z D D D D / b D D J D C 9 9 9 q 9 r 9 r r q h r q ; ) k.m.m.b.m.z.B.%.> f F F F F F F F F J D J D Z r r r r r r r e r e y q q 0 v j.M.k.n.N.n.N.m.",
"b.m.m.m.N.N.Z.O.r ~ H F F F D D u d D D D d 3 3 r r h q 9 9 9 r 9 y h 9 ; ( k.m.m.b.n.n.B.%.> f J Z F S F J F J F F J F V e r e e e r r e 3 r e y y 0 x j.M.k.z.c.b.m.m.",
"N.m.m.m.N.b.b.O.r ~ J J D F D D / b D D / d d 3 r 9 9 9 9 r 9 q y r q q - / c.M.m.z.m.n.B.%.1 H F P J J F D F D J D D F C r e r e u e e u r e r y r 0 x j.m.m.z.N.N.m.m.",
"m.m.N.m.N.N.Z.O.r ~ D D D F F D u / a b D G b 3 r r q 9 r r r 9 y 9 r y ; / k.m.n.m.m.m.B.%.1 g F P J F D J F F F J F F D e r e r e e r 3 h r e u y 9 x j.f.z.z.b.m.m.m.",
"m.m.b.m.m.N.c.O.r ~ J Z J J F D d b b d D G s 3 9 r 9 9 r 9 h 9 r q h r ; / c.m.m.m.b.n.B.%.> H F J A J F F F J F D D J C e r r e r e e 3 3 e r y y 9 k j.M.z.m.N.c.m.N.",
"m.m.N.m.N.N.Z.O.r ~ D F D G D D D D D D D D z e 9 r r h r 9 9 9 y h q 9 ; ) c.M.m.b.b.m.B.%.> g F P J F F F D F J D F F C e e r e r e r e e r r p q q x j.f.m.z.b.N.m.m.",
"b.m.m.m.N.N.b.O.r ~ L A D D D D M D D D L L z e r r r 9 r q 9 h q 9 9 h ; ( c.n.m.N.m.m.B.%.> H F Z J J J D A F J D D F C e r e r e u 3 e e e t y y q x j.M.f.z.b.b.m.m.",
"m.m.b.m.N.N.Z.O.r ~ F F D D D G D D D F D J s e r 9 9 h 9 r 9 r 9 l 9 y ; ) N.M.m.N.b.b.B.%.> f J Z S J J F J D F D F F C e e r r r r r e e e r y t 0 x j.M.n.m.m.m.m.N.",
"m.N.m.m.m.N.b.O.r H J F F D D D D D D D J J z e 9 q 9 9 r r r r y r y 9 ; T c.n.m.b.m.m.B.%.> f F F F F D F F F F J F F D r r r r r r r r 3 r r y 0 0 x j.M.n.N.N.b.m.m.",
"m.N.b.m.m.N.Z.O.r ~ J A F F F D D b D D G D u e r r r r 9 q 9 r 9 h r y ; ) k.m.m.N.n.b.B.%.> f F F F F J J F D D J J A Z e r r r 9 h 9 e r r e u r 0 x k.M.n.n.n.N.M.N.",
"m.m.m.m.b.N.b.O.r ~ D F J F D D D G D D D G z e r r r 9 9 9 r 9 q y r r ; ) c.M.m.b.m.m.B.%.> f D F F J D D F F F J F F V e 9 r r 9 9 9 r e e r y r 0 x j.M.n.N.N.C.n.M.",
"m.b.m.m.N.N.b.O.r ~ H F H D D D D b D D G D D 8 r 9 r r r h r r r y y q ; ) c.n.m.b.b.b.Z.%.> f F F F F F F F J F D D F V 9 r r r r 9 r 3 3 r e r q 0 x j.M.n.m.N.N.m.m.",
"m.m.N.m.N.N.N.O.r ~ J J J D D D D D D D D D z 8 r r r 9 r 9 r 9 l 9 r 9 ; / c.m.m.N.b.z.B.%.> f F P F J F F J D F F J A Z 9 h 9 9 r r r r r r r r t 0 k j.M.m.m.c.N.m.m.",
"m.m.N.m.N.c.Z.O.r ~ F A J F F D b G D D J J z 8 h 9 9 9 9 9 q r 9 y h q 7 ) c.M.N.m.b.m.Z.%.> f F F J F F F F F J D F J C 9 9 r r r r 9 e e r e y t 0 x g.M.m.m.m.N.n.N.",
"N.m.n.N.N.N.b.O.r ~ J F J F D D D G D b D J s 8 9 9 h r 9 y 9 9 y 9 r q 7 ) C.n.N.b.b.N.B.%.> f F F J F F F J D F F F F Z 9 9 r r r r h 3 r e r y y 0 x j.M.n.m.m.N.n.M.",
"m.m.m.m.N.N.N.O.r H J A J H D D D b D D G J C 8 9 r 9 9 9 r r 9 q 9 y q 7 T C.m.N.N.m.b.B.%.> f F F F F F F F F F D F F C 9 r r r r r r u 3 r e y t 0 x j.M.n.m.c.n.N.n.",
"m.b.m.m.N.N.Z.O.r ~ D F J D D D D G D D J J z e 9 r y 9 r 9 9 h y h r y 7 ) c.m.m.b.m.m.Z.%.> g F F F Z F F F F F J J D C e r r r e r e h 3 e r y r 0 x j.M.m.M.N.N.N.N.",
"m.b.m.m.b.N.Z.O.r ~ J F F J F D D b D D G D u e r r r r r 9 9 9 9 l y q ; ) c.M.N.N.c.m.A.$.> H J Z S J D D F F F D F F C 9 e e r e r e u 3 r e r t 0 k k.M.n.m.N.N.m.m.",
"m.N.m.N.N.N.b.O.r ~ D F F F D D D G D D D G z 8 h r 9 9 r r r 9 y 9 9 q ; ) c.M.m.N.m.m.A.%.> f F P J F J F F J F J F J C 9 e e e r e r r 3 3 u y t 0 x x.M.b.b.b.b.m.m.",
"m.m.m.m.N.N.Z.X.r ~ H D D J D D D b D D G D z 8 9 9 9 r r 9 9 9 9 9 y l 7 ) V.n.N.c.N.m.A.%.> H F J A F J F D J J F F J D e r t 3 e e r 3 3 r r y t 0 k x.f.n.m.b.m.m.b.",
"m.m.m.b.N.N.N.O.r ~ H D J J D D D D D D D D D e 9 q q 9 9 h h r r l r y 7 T c.N.N.N.N.m.B.$.> f F P F J F F D F F F D D z e r r u e r e r r r r r r 0 k k.M.z.m.b.m.m.N.",
"m.m.m.m.N.N.N.O.r ~ J F J D D D b G D D D D C e 9 r r 9 r 9 r r 9 l 9 q 7 T C.M.m.b.N.m.B.$.> K F P J A D D J F F J F J C e r r r e r y e e r r y t 0 x j.M.b.n.b.b.m.n.",
"m.b.m.m.N.b.N.O.r H J A F F D D G D b D D D C e r 9 r r r 9 r 9 y 9 y l 7 ) C.M.m.m.c.m.B.%.> f F J F J F F J F F D F F C r r e e r e e e e r r y y 0 x j.M.z.b.b.N.N.b.",
"m.m.m.m.N.N.N.O.e ~ D F D J D D F b D D J J C 9 t 9 h 9 r r r r 9 y q y 7 T c.n.M.b.m.N.B.$.> H F P F Z F F D F F J D F C e e r r r u e e e e r y 0 0 x j.M.n.m.b.m.N.m.",
"N.b.m.m.N.b.Z.O.r ~ J F J J H D F F D D F A z 8 r 9 9 9 e e 9 9 r r y q 7 ! N.M.m.m.m.N.A.%.1 K F F J J J F J F F F J D C e r r r 3 r r 3 e r y y r 0 x j.M.k.m.c.m.m.m.",
"m.m.b.m.m.N.Z.X.r H J J F J H D J F D D J F x u r r r r r t r r y y y r ; _ V.b.v.v.v.c.C.#.8 d D F F F F F F F F D J F V 9 r 9 r r 9 9 r e e r y y 0 x j.M.z.z.z.b.m.m.",
"m.m.m.N.N.N.Z.O.r ~ J D F F D D D F D D F F F C C Z C C F C C Z C Z F b u D ` ' _ _ _ _ ` T C J F b F F F F F F F F F J C 9 r 9 r 9 9 h r e r r y p 0 x j.m.f.m.b.m.m.m.",
"N.m.m.m.m.N.b.O.r ~ F F F D D D D D D b F F J J J F F F F J J F J J G J D D u y s s C s V C U A F F F F F F F D J F J F C 9 r r r r r 9 e e r r y y q x j.f.m.m.b.N.m.m.",
"b.m.m.m.N.c.Z.O.r ~ J Z F D D D M D D D J J J D D J J F F F J D F F F J F D D D D D D D F F F J D J D G D J D F F F F F Z 9 9 r r 9 9 y e e r y y t 0 x j.f.m.m.b.b.N.m.",
"m.m.z.N.N.N.N.O.r K J F J D D D D D D D D D D D J J D J F D D J D D D D D D D L K D D D D D F J S J J D J D J F J F F F C 9 r q r r r r e r u r u y q x j.M.z.z.m.N.m.m.",
"m.m.m.m.N.N.N.O.r K J J D J D J D D D D D D L D D D D D F D D D D D D D G D D J H D J J J J J P J S J J F F J D F F D J Z 9 r r r r r r e 3 r e y r 0 x j.f.m.z.m.b.m.m.",
"b.m.m.m.N.N.Z.X.e K D F F J J D M D G D D D D D D D D D D D D D D D D D D D D J J ~ S J F F P S P J J D F F F F F F F J C 9 r r r r r e e e e r y r t x j.m.m.z.b.b.m.m.",
"m.m.m.N.z.N.Z...- u u l l l V V H D D F D D D D J D J D J J D J D D G D D G J G J J J J G F J J J J D D F J J Z U J J J A q t y 9 r r e 1 % - - - - = 6 k.m.s.m.m.m.m.m.",
"m.N.m.m.c.N.N.+.] } } }  . .{ P J J F F D F F F J J F F F D J J D D J F J J J D G J J G J D J J J J J J F F z z V C C C C 0 9 r 9 r p 8 T [ ' [ [ [ ` | c.m.z.m.m.M.N.m.",
"m.m.m.b.m.n.B.m.j.b.l.b.N.S.e.Q P F J J J F J F F F J F F D F F F F D J J D J J J J D J J J G D J J F G z y 9 r r r e r u t 0 e r r t @ ,.Z.N.b.b.Z.c.m.m.z.m.m.m.n.N.m.",
"m.m.m.m.m.n.N.N.n.n.s.f.f.N.y.B M F D D F F D F D F D F F F F D F F D F J D J J D J D J G J G J J J F J F y e u r r r e r q q 9 8 t a @ 2.M.M.n.M.M.f.f.n.m.m.m.m.n.m.N.",
"b.N.m.m.M.N.C.N.m.m.n.b.s.b.y.N F J J D J J J J J J J J J J J J J J J F J J G J J J J J J J J J J F F F D u e r r y r y r r q q r r a # >.A.n.n.M.n.N.n.m.m.m.m.m.m.m.m.",
"m.m.m.m.N.N.C.N.N.m.b.b.s.b.y.N P J J D D F F F D F F F F F F F F F F F G D D D D G F F D D J D F F D C C y e e r r e e e r 9 l 9 e a # >.Z.N.N.b.m.N.m.b.n.m.m.m.m.m.m.",
"b.m.N.m.m.m.N.C.b.m.m.n.z.N.r.N P J F G D J F F F F F F F F D F J F F F J J J D J J J J J J J D F F Z A F y e r r t e 3 r r 9 9 9 t a # ,.B.N.N.N.m.N.m.m.m.n.n.n.m.m.m.",
"m.b.m.b.m.b.m.b.m.m.m.m.f.b.r.R M U F F G J U U J Y U U U U J Y U U U U U U Y Y Y Y Y Y Y Y Y J J U U U P l r h z u j u j h h h h l s % :.Z.m.N.m.b.m.m.N.m.m.b.m.N.m.N.",
"m.m.m.m.N.m.m.m.m.m.m.b.z.B.t.5 6 < 2 < 2 2 2 2 2 2 2 2 2 2 2 2 2 2 2 2 2 2 2 2 2 2 2 2 2 2 2 2 2 2 2 2 < & o o o o o o o O o o X X $   :.B.m.N.m.m.m.m.m.m.m.m.b.n.M.M.",
"m.m.m.m.m.m.m.b.m.m.m.m.N.B.c.:.:.,.<.<.<.<.1.<.<.<.1.<.1.1.1.1.1.1.1.1.1.1.1.1.1.1.<.<.1.<.<.<.<.<.<.<.,.-.-.;.-.-.-.-.>.-.-.>.*.*.>.-.q.A.m.N.m.m.N.m.m.m.m.n.n.m.m.m.",
"m.m.b.m.N.m.m.m.b.m.m.z.z.B.N.N.A.B.N.Z.Z.N.Z.Z.Z.Z.Z.N.Z.N.N.Z.N.N.Z.N.N.Z.N.B.Z.Z.Z.Z.Z.N.Z.Z.Z.Z.Z.Z.Z.N.B.Z.Z.B.B.N.Z.Z.S.A.Z.A.A.Z.N.N.m.N.m.m.m.m.m.m.m.n.n.m.m.m.",
"N.m.m.N.m.m.m.N.m.m.m.m.m.m.m.M.f.f.m.m.f.f.n.f.z.f.f.f.f.f.m.f.f.f.f.f.m.f.f.f.f.f.z.z.f.f.n.f.n.n.n.f.m.m.f.a.f.f.f.s.z.z.k.n.N.z.m.b.k.n.N.m.m.m.m.m.N.m.m.b.m.n.N.M.",
"m.m.m.m.m.b.m.m.m.m.m.m.m.m.n.m.z.m.z.z.m.m.m.m.z.m.m.m.m.n.n.n.n.n.n.m.n.n.n.m.m.z.m.m.m.m.m.m.m.m.m.m.m.m.m.m.m.k.k.z.z.z.k.b.n.b.m.b.m.m.N.b.N.m.c.m.m.m.m.m.m.n.N.M."
};
