/* XPM */
static char *result[] = {
/* columns rows colors chars-per-pixel */
"84 84 131 2 ",
"   c #001700",
".  c #072C0B",
"X  c #1F3E1B",
"o  c #2C3F12",
"O  c #25421E",
"+  c #2C4A1F",
"@  c #1D4525",
"#  c #1D4629",
"$  c #1E482C",
"%  c #1F4F36",
"&  c #224524",
"*  c #294724",
"=  c #214B2C",
"-  c #2E4D2A",
";  c #244F32",
":  c #2A5433",
">  c #385733",
",  c #375B32",
"<  c #3E5E34",
"1  c #31553B",
"2  c #345C3C",
"3  c #3A5C38",
"4  c #33613E",
"5  c #3A613D",
"6  c #495F2E",
"7  c #2F5C42",
"8  c #365E44",
"9  c #395F44",
"0  c #2E614B",
"q  c #376044",
"w  c #396145",
"e  c #3C6847",
"r  c #33644E",
"t  c #3B644A",
"y  c #3F684C",
"u  c #336650",
"i  c #356854",
"p  c #3B6851",
"a  c #356C5C",
"s  c #3E715B",
"d  c #406346",
"f  c #416846",
"g  c #41674C",
"h  c #416B4D",
"j  c #546F41",
"k  c #567041",
"l  c #5B7546",
"z  c #54714C",
"x  c #5D774A",
"c  c #436D54",
"v  c #476F59",
"b  c #4B6E59",
"n  c #467457",
"m  c #487356",
"M  c #4E7856",
"N  c #46735B",
"B  c #4A7459",
"V  c #41795F",
"C  c #4F785D",
"Z  c #507757",
"A  c #507853",
"S  c #50775A",
"D  c #517B5A",
"F  c #5E7E5F",
"G  c #647E4F",
"H  c #637F51",
"J  c #62825E",
"K  c #658463",
"L  c #688665",
"P  c #748F68",
"I  c #6F9467",
"U  c #6D9469",
"Y  c #729265",
"T  c #75936B",
"R  c #7F986B",
"E  c #7EA079",
"W  c #869A68",
"Q  c #9AA66E",
"!  c #83A37D",
"~  c #93A475",
"^  c #99A670",
"/  c #A6B985",
"(  c #A6BB8E",
")  c #B1BE8A",
"_  c #AEC186",
"`  c #AAC38F",
"'  c #A6C494",
"]  c #AAC293",
"[  c #AFC69C",
"{  c #B1C696",
"}  c #BAC591",
"|  c #B5CC97",
" . c #B9CE97",
".. c #B2C799",
"X. c #B3CB9D",
"o. c #B9CEA0",
"O. c #C0CF9A",
"+. c #C4D29C",
"@. c #CBDA9A",
"#. c #CAD7A1",
"$. c #C6DAA5",
"%. c #CADCA4",
"&. c #CCE1A6",
"*. c #D0E3A4",
"=. c #DEE5AC",
"-. c #DCEBAD",
";. c #DEEDB4",
":. c #DEF0B8",
">. c #E0EDAB",
",. c #EBF3A7",
"<. c #ECF4AD",
"1. c #F0F6AE",
"2. c #F5FAAF",
"3. c #E5EFB3",
"4. c #E5F2B4",
"5. c #ECF6B3",
"6. c #EEF9B4",
"7. c #E4F3BA",
"8. c #EBF7B8",
"9. c #EBFABA",
"0. c #F1F7B2",
"q. c #F8F7B7",
"w. c #F1FAB7",
"e. c #FBFEB2",
"r. c #F6F7BA",
"t. c #F8F6BA",
"y. c #F2FABA",
"u. c #F9FFBC",
"i. c #E4FAC2",
"p. c #F6FDC1",
"a. c #FAFFC3",
/* pixels */
"w.w.w.w.w.w.y.w.w.w.w.w.w.w.w.w.w.w.w.w.w.w.w.w.e.y.r.y.w.9.y.9.w.y.w.w.y.9.w.w.w.9.w.6.9.w.w.w.w.6.w.w.w.w.w.w.2.w.q.0.w.y.y.w.w.w.w.w.w.y.w.w.w.w.w.y.6.w.w.w.w.w.w.w.",
"w.w.w.w.w.w.w.w.w.w.w.w.w.w.w.w.w.w.9.w.w.w.w.w.w.w.y.y.w.6.w.w.9.w.w.w.w.w.w.w.6.6.w.e.w.w.w.w.e.0.w.w.w.w.w.w.w.w.w.w.r.y.y.w.w.w.w.w.w.w.w.w.w.w.6.y.y.y.w.w.y.w.9.y.",
"w.w.w.w.w.w.y.w.w.9.w.w.w.w.w.w.w.w.w.w.w.w.2.6.y.y.y.6.w.w.q.w.w.w.w.w.e.w.w.w.w.e.1.q.e.q.0.q.e.w.e.0.w.w.w.w.2.2.e.w.r.y.w.w.w.w.w.w.w.w.w.y.w.w.w.w.w.w.w.w.w.w.w.w.",
"w.w.w.w.w.w.w.w.w.y.w.w.w.w.y.w.w.w.w.w.w.w.6.6.9.9.9.y.w.w.6.9.w.9.w.w.9.w.w.w.6.w.w.w.w.w.w.w.6.w.w.6.w.w.w.w.w.w.w.w.r.y.w.w.w.w.w.9.w.w.w.w.y.w.w.w.w.w.w.w.w.w.w.w.",
"w.w.9.w.w.w.w.w.w.w.w.w.w.w.w.y.w.w.w.w.w.w.2.w.9.9.w.w.-.:.:.:.:.:.;.;.:.>.>.:.3.7.7.;.7.7.;.7.:.:.3.;.:.:.:.;.7.;.6.u.w.w.w.w.w.w.y.w.w.w.w.w.w.w.w.w.w.w.w.y.w.w.w.w.",
"w.w.y.w.w.w.w.w.w.w.w.w.w.w.w.w.w.w.w.w.6.w.6.w.w.w.w.4.W x H G H H H G J J G J G G G l j j j j k k k j k k x k j 6 ^ y.y.w.w.w.w.w.w.w.w.y.w.w.w.w.w.w.w.w.w.w.w.w.w.w.",
"w.w.w.w.w.w.w.w.w.w.w.w.w.w.w.w.w.w.w.w.w.w.w.0.w.w.e.p.T g m c m c m m h m z h m h h t 2 1 1 2 2 2 2 8 2 3 5 4 1 @ W y.5.w.w.w.w.w.y.w.w.w.w.w.w.w.w.w.w.w.w.w.w.w.w.w.",
"w.w.w.w.w.w.w.w.w.w.w.9.y.w.w.w.w.w.w.w.w.w.w.0.w.w.0.9.T p m N N N N N N N n n N B B y r w p p r y t t r y q t r = ~ a.u.w.w.w.w.y.6.w.w.w.w.w.w.w.9.w.y.w.w.w.w.w.w.w.",
"w.w.w.w.w.w.w.w.w.w.y.w.w.w.w.w.w.w.w.y.w.w.w.r.w.e.1.9.T h n M m m B B N B B b B N B y 8 8 t 8 8 8 8 t w w 8 t t @ ~ a.9.w.w.w.9.w.w.w.w.w.y.w.w.w.w.6.w.w.w.w.w.w.w.w.",
"w.9.y.w.w.w.w.w.w.w.w.w.w.w.w.w.w.w.w.w.w.w.w.r.w.w.w.9.I h m n m m m m m m m m m b b y t 8 8 t t t q w q 9 9 9 0 @ ~ p.w.6.w.w.y.w.w.w.w.w.w.w.y.w.w.y.w.w.y.w.w.y.w.w.",
"w.w.w.w.w.y.w.y.y.w.w.w.w.w.y.w.w.w.w.w.w.y.r.q.y.w.2.9.T y m n M m m m v m b m m B B p 8 8 q q q q q q w w 9 t u # ~ a.w.6.w.w.w.w.w.w.w.w.w.w.w.w.w.w.w.w.w.w.y.y.w.w.",
"w.w.w.w.w.w.w.w.w.w.w.w.w.w.w.9.w.w.w.w.w.w.r.w.y.r.2.9.T y M m n m n B B m m m m b B g 8 t w q q q 8 t w w t 8 u # ~ p.w.6.w.w.w.w.w.w.w.w.w.w.w.w.y.w.w.w.w.w.6.y.w.w.",
"w.w.w.w.w.w.w.w.w.w.w.w.w.w.w.w.w.w.w.w.w.w.q.r.w.w.0.9.T y n n m M m m m m B m b m B g 9 8 t 8 w q q w t 9 9 t r # ~ p.6.6.w.w.w.w.y.y.w.w.w.w.w.w.w.y.w.w.w.w.w.w.w.w.",
"w.w.w.w.w.w.w.w.w.w.w.y.w.w.w.w.w.w.w.w.w.0.q.q.r.w.q.6.T h m M m n m n B n m m B m b p t 8 8 t t q t q w 9 w t r # ~ p.6.6.w.w.w.w.6.w.y.w.w.w.w.w.w.9.w.w.w.y.w.w.w.w.",
"y.y.w.w.w.w.w.w.w.y.w.w.w.w.w.w.w.w.w.w.w.w.r.w.w.w.2.9.U h n n M m m m m B m m m b B y 8 8 t 8 w q q q t 9 9 t u = ~ p.6.6.w.w.w.w.w.w.w.w.w.w.w.w.w.w.w.w.w.w.w.w.w.w.",
"w.y.w.w.w.w.w.w.w.9.w.w.w.w.y.y.w.w.w.w.w.w.r.y.y.w.0.9.T y M M n n m m n m m B m m v y 9 8 8 t t q w q 9 9 d 9 r # ~ p.6.6.w.w.w.y.w.w.w.w.w.w.w.w.w.w.w.w.w.9.w.w.w.w.",
"y.w.w.w.w.w.w.w.w.w.w.w.w.y.y.p.9.w.w.w.w.0.w.w.w.w.e.9.U y M N m N m m N B n n m m m y w q q q q q w t w w w t u # ~ p.0.6.y.y.w.w.w.w.w.y.w.w.w.w.w.y.w.w.w.w.y.w.w.w.",
"w.w.w.w.w.w.w.w.w.w.w.w.w.y.y.y.w.w.w.w.w.q.w.w.w.w.0.9.U y n n B B m m m n n n m B m y q q q e q q q q w w w w u # ~ p.0.6.w.w.w.w.w.w.w.w.w.y.w.w.9.w.w.y.w.w.6.w.w.w.",
"6.w.w.w.w.9.w.w.w.w.w.w.w.w.y.9.w.y.w.0.2.6.e.q.q.2.2.9.Y y M M m B m N m m n n N m B y w q q q q q q w q w w t u # ~ p.w.5.y.6.w.y.w.w.w.w.w.6.w.w.w.w.w.w.w.w.w.w.w.w.",
"w.w.w.w.w.w.w.y.w.w.w.w.w.w.w.y.y.y.w.w.9.9.9.9.9.9.w.i.U y n n m B m m B m n n m m m y q q r q w t q q w w w t u # ~ p.6.5.w.y.w.w.w.w.w.w.w.y.w.w.w.w.w.w.w.6.w.w.w.y.",
"w.w.w.w.w.w.w.w.w.w.w.w.w.w.w.w.w.w.u.y.+.R ! E ! ! ! ! D M m m m n m m m m m n n N m y w q w w q w w w w w w w 8 # ~ p.6.5.w.w.w.w.w.w.w.y.w.w.w.w.w.w.w.w.y.y.w.w.w.w.",
"w.w.w.y.w.w.w.w.w.w.w.w.w.w.w.w.9.9.5.a.` - e e w w w w n h m m m B m B N m n n n m m y w q w w w w w q w w w t u # ~ p.6.6.w.w.w.w.w.w.w.6.y.w.w.w.w.w.w.w.w.w.w.w.w.w.",
"w.6.w.w.w.w.w.w.w.w.9.w.w.w.w.w.9.w.5.a.` , D M B m m m M m m n m m m N m m n n m v m y q q q q w q w q w w e t u # ~ p.6.6.w.w.w.w.9.y.w.w.w.w.w.w.w.w.y.w.w.w.w.w.w.w.",
"w.w.y.y.y.w.w.w.w.w.w.w.w.w.w.6.9.w.<.p.` , M M m z z m M m m m m m m m m N n n m m m y w q q t w w q r q w w q u # ~ p.w.6.w.w.w.w.w.w.w.w.w.w.w.w.w.y.w.w.w.w.w.w.w.w.",
"w.w.w.w.w.w.w.w.w.w.w.w.w.w.w.w.w.6.1.p.( 9 Z b b b b B m m m n n n A n n h n n n m m y 8 q q w w q t q 9 t 9 t r # ~ p.r.6.y.y.w.w.w.6.w.w.w.w.w.w.w.w.w.w.w.w.w.w.w.w.",
"w.w.w.w.w.w.w.w.w.w.w.w.w.w.w.w.6.2.,.a...2 S C C b b S B m m m m m n m n A n n n m B y w q q w q q q w w 9 9 t r # ~ p.5.5.w.w.w.w.w.y.w.w.w.w.w.w.y.w.w.9.y.w.y.w.w.w.",
"w.y.w.w.w.w.6.y.w.w.w.w.w.w.9.w.6.w.1.p.( 7 m v c c b b m m m n m m m m A n n n n m B g w q w q w q q q t 8 t 9 r # ~ p.w.5.w.y.w.w.w.w.w.w.w.w.w.w.w.w.y.y.w.w.9.w.w.w.",
"w.w.w.w.w.w.w.w.w.y.9.y.w.w.w.6.w.w.0.p...z L K K F K F A n m n m m n m n n n n N m m y q q q w q t 8 t w 9 9 t r # ~ p.6.5.w.w.w.y.w.w.w.w.w.w.w.w.w.w.w.w.w.w.y.w.y.w.",
"w.w.w.w.w.w.w.w.y.w.w.w.w.w.w.w.6.w.w.u.y.3.4.7.8.7.9.7.U e M n n h n n n m n n n n B y w q w w q q t q w w w 9 8 # ~ p.6.5.w.w.y.w.w.w.y.w.w.w.y.w.w.w.w.w.w.w.w.w.w.w.",
"w.w.w.w.y.w.w.w.w.w.w.w.w.w.y.y.6.w.w.w.q.w.w.0.q.q.2.7.U e n n n A n n n n n n n B m y q q w w q w q q w 9 t t u # ~ p.6.6.w.w.w.w.w.w.w.w.w.w.w.w.w.w.w.w.w.w.w.w.w.w.",
"w.w.w.w.y.y.w.w.w.w.w.w.y.w.w.y.w.w.w.w.w.y.w.r.0.6.w.9.U e n n n A n A n A n n n n n y w q w q w w w q 9 9 t 9 u # ~ p.6.6.w.w.w.w.w.9.w.w.w.w.w.w.w.6.w.w.w.w.w.y.w.y.",
"9.w.w.w.y.w.w.w.w.w.w.y.6.w.w.y.w.y.w.w.w.w.w.0.<.<.e.9.T y M n n n A n n n n n n n B e w q q w w r w q t 9 9 9 u # ~ p.w.6.w.w.w.y.y.w.w.w.w.w.w.w.w.w.w.w.w.6.w.w.w.w.",
"w.w.w.w.w.w.w.w.y.w.y.9.y.w.y.y.y.y.w.w.y.y.w.w.6.w.0.9.T y m m n n m m m n m m m m m g 9 9 w q q w w w w w w t u # ~ p.0.6.y.y.w.y.w.w.w.w.w.w.y.w.w.w.w.w.w.w.w.w.w.w.",
"w.w.y.w.w.w.y.w.w.w.w.y.w.w.6.y.y.y.w.w.y.9.w.w.w.6.0.5.T t B B n n m m m m n m m b B g 9 9 q w w w w w w w w t r # ~ p.0.6.w.w.w.w.w.w.w.9.w.w.w.w.w.w.w.w.y.w.w.w.w.w.",
"w.w.w.w.9.y.w.w.w.w.w.w.w.w.y.y.y.y.w.w.9.w.y.w.9.w.0.9.T g m m m m n M m m n m m m b g 9 9 w q w q q w w 9 9 t r # ~ p.6.5.w.w.w.w.w.y.w.w.w.w.w.w.w.w.w.w.w.w.w.9.w.w.",
"w.w.w.w.w.y.w.w.w.w.w.w.w.w.w.y.y.y.w.w.9.y.w.w.w.w.0.6.T d m B m m m m m m m m m m B g w 9 w w w q r q 9 9 t w u # ~ p.w.6.w.w.w.w.w.w.w.w.w.w.w.w.w.y.w.w.y.w.w.w.w.w.",
"w.w.w.w.w.w.w.w.w.w.y.w.w.w.y.9.y.y.w.w.y.w.w.w.w.w.2.9.T d m m m m m m m m N m b m m g w w q w w w e q w w w t 8 # ~ p.6.6.y.w.w.w.w.w.w.w.w.w.w.w.w.w.w.w.w.w.w.w.w.w.",
"y.w.w.w.w.w.w.w.w.w.w.w.w.w.y.y.q.y.w.w.9.w.w.w.6.w.1.9.T g m m m m N m m m m m m m B g w q w w w w w w w w t w u # ~ p.5.6.w.w.w.w.w.w.w.9.w.w.w.w.w.9.w.w.w.w.w.w.w.w.",
"w.w.w.w.w.w.w.w.y.w.w.w.w.w.y.w.y.y.w.w.w.y.w.w.6.6.2.9.T f m m m N m m m m m m B m B g w 9 w w q q w w w w w w u # ~ p.w.5.w.w.w.y.w.w.w.w.y.w.y.w.w.w.w.w.w.w.y.w.w.y.",
"w.6.y.w.w.6.w.w.w.w.w.w.w.w.y.y.y.y.w.w.w.9.w.w.w.6.1.9.T f m m m m N m m m m N m m B g w 8 w w q w w w 9 w w t u # ~ p.6.6.w.w.w.w.w.w.w.w.w.w.w.w.w.w.w.w.y.w.w.w.w.w.",
"w.w.w.w.w.w.y.6.w.w.y.w.w.w.w.w.w.r.w.w.6.6.w.w.w.w.2.9.T t m m m n n m n n n n n n M e w 9 9 9 9 9 9 9 9 9 9 t r # ~ p.r.6.y.y.w.w.w.w.w.w.w.w.w.w.y.w.w.w.w.w.w.w.w.w.",
"w.w.w.w.w.w.w.y.w.w.w.w.w.w.w.9.w.w.w.6.w.w.w.w.9.w.2.9.T e m m m n n m A n n n n n m h w 9 w w 9 t 9 9 9 9 9 t r # ~ p.5.5.w.w.w.w.w.y.w.w.w.w.w.w.w.w.w.w.w.w.w.w.w.y.",
"w.w.w.w.w.w.w.w.w.w.w.w.w.w.w.w.q.r.q.w.w.9.w.w.w.6.1.5.T d m m m n m m n n n n m m m h 9 9 9 w d 9 9 9 9 9 9 t r # ~ p.6.5.w.w.w.w.w.w.w.w.y.w.w.w.w.w.y.w.w.w.w.w.w.w.",
"w.w.w.w.y.w.w.w.w.w.w.w.y.w.w.w.w.w.0.6.w.w.w.w.w.6.1.9.T g m m m m m m n n n n m m m h w 9 w w 9 9 t 9 9 d 9 t r # ~ p.w.6.w.w.w.w.w.w.w.w.w.w.w.w.w.w.w.w.w.w.w.w.w.w.",
"w.w.w.w.9.w.w.w.w.w.w.w.w.w.w.w.e.w.w.w.w.w.w.w.6.w.w.9.T f m m m A n n n A n n n m m g 9 8 w 9 9 9 9 d 9 d 9 t 8 # ~ p.6.6.y.w.w.w.w.w.w.w.w.y.y.w.9.w.9.w.w.w.y.9.w.w.",
"w.w.w.y.w.w.w.w.w.w.w.w.w.w.w.w.w.w.w.w.w.9.w.w.w.6.2.9.P f m m n n n A n n n n n m b g w 9 9 w 9 t 9 9 9 9 9 t u # ~ p.5.6.w.w.y.w.w.9.w.w.w.w.w.w.w.w.w.w.w.w.w.y.w.w.",
"w.w.w.w.w.w.w.w.w.w.w.w.w.w.w.w.w.w.w.w.9.w.w.w.w.w.w.6.P h m m h A n n A A y n n m m y w 9 w w t 9 9 d 9 d 9 9 u # ~ p.w.5.w.w.w.w.w.w.w.w.w.w.w.w.w.w.w.y.w.w.w.w.w.w.",
"w.y.w.w.w.w.w.w.w.w.w.w.w.w.w.w.w.w.w.w.w.w.w.w.6.w.0.6.T d m m A n h n n n n n n m m y 9 9 w 9 9 9 9 9 9 9 t 9 u # ~ p.6.6.w.w.w.w.w.w.y.w.w.w.w.w.w.w.w.w.w.w.w.y.w.w.",
"w.w.w.w.w.y.6.w.w.w.w.w.w.w.w.w.q.w.w.6.w.w.w.w.w.w.2.9.T g B m m m m m m m m N m m B g 9 9 9 9 9 d 9 9 9 t 9 t r $ ~ p.8.0.r.y.w.y.w.w.w.w.w.w.w.w.w.w.w.w.w.w.w.w.w.w.",
"w.w.w.w.w.w.y.w.w.w.w.w.w.w.w.w.w.w.e.6.w.9.w.w.9.w.1.9.T w B m m N m m m m m m m B b g 9 9 t 9 9 9 9 9 9 9 d t r # ~ p.8.0.6.y.w.w.w.w.w.w.w.w.w.w.w.w.w.w.y.w.w.w.w.w.",
"w.w.y.6.w.w.w.y.w.w.w.9.w.w.w.w.w.w.w.w.w.6.w.w.6.w.2.9.T g b m m m N m N m m m m m B g 9 9 9 d d 9 t 9 9 9 9 t r # ~ p.w.5.y.w.w.w.w.y.w.w.w.w.w.w.w.w.w.w.w.w.w.w.w.w.",
"w.w.w.y.w.w.w.w.y.w.w.w.w.w.y.w.w.w.2.w.w.w.w.w.w.6.1.9.T y m m N m m m m m m m m m B g w 9 w w 9 9 9 9 9 9 9 t r $ ~ p.6.5.w.w.w.w.w.w.y.9.w.w.w.w.w.y.w.w.y.w.w.w.w.w.",
"w.w.w.w.w.w.w.w.w.y.w.w.w.w.w.y.q.w.w.w.9.w.w.w.6.w.1.9.T t m m m m m v m m b N m b B g w 9 9 9 9 9 9 9 9 9 d t u # ~ p.6.6.w.y.w.w.w.w.w.w.w.w.w.w.y.w.9.w.w.w.w.w.w.w.",
"9.y.w.w.w.w.w.w.w.w.w.w.w.w.w.w.w.w.w.w.w.w.w.w.6.w.1.9.T f m m m m m m m m m m m m B g w 9 w w 9 t d 9 t 9 9 t r & ~ p.6.6.w.w.w.w.w.w.w.w.w.w.w.w.w.w.w.w.w.w.w.w.w.w.",
"w.w.w.w.w.y.w.w.w.w.w.w.y.w.w.w.w.w.w.w.w.w.w.w.w.w.2.9.T g m m m m m N m m m m m B b g 9 9 9 w 9 9 9 9 9 9 d 9 r # ~ p.w.5.w.w.w.w.w.w.y.9.y.w.y.w.w.w.w.w.w.w.y.w.w.w.",
"w.w.w.w.w.w.w.w.w.w.w.6.y.w.w.w.w.w.w.6.w.w.w.w.9.w.2.9.T g m m N m m m m m m m m m B g w 9 w w 9 9 t 9 9 9 9 p r # ~ p.6.5.w.w.w.w.w.w.w.w.w.w.w.w.w.w.w.w.w.w.w.w.w.w.",
"w.y.w.w.w.w.y.y.w.w.w.w.w.w.w.w.q.w.w.6.w.6.w.w.6.w.0.5.T f n A m m A n n z n n n N m y 8 8 w 9 9 t 9 9 9 9 t 9 r # ~ p.0.6.6.y.w.w.w.w.w.w.w.w.w.w.y.w.w.w.w.w.w.w.w.w.",
"9.w.w.w.w.6.y.w.9.y.w.w.w.w.w.w.w.w.q.w.w.w.w.w.w.w.0.9.T 5 n m m m m m n n n n n m m y w w 9 w 9 9 9 t t 9 9 t r # ~ p.r.5.y.6.w.w.w.w.w.w.w.w.w.w.w.w.w.w.w.w.w.w.w.w.",
"w.w.w.w.w.w.w.w.w.w.w.w.w.w.y.w.w.w.w.w.6.w.w.w.6.w.1.9.T f m m m m m n n n s n m m m y q q w w 9 9 9 9 9 9 9 t r # ~ p.w.5.y.y.w.w.w.w.w.w.y.w.w.w.w.w.w.w.9.w.w.w.y.w.",
"w.w.w.w.w.w.w.w.w.w.w.w.w.w.w.w.w.w.w.6.w.9.w.w.6.w.0.6.T h m m m n m m n A n n m v m y q q w w d w 9 t 9 9 9 t u # ~ p.6.5.y.6.w.9.y.w.w.w.w.w.w.w.w.w.w.w.y.w.w.w.9.w.",
"w.w.w.w.w.y.w.w.w.w.y.w.w.y.6.w.q.w.w.6.w.w.w.w.w.w.2.9.T h m m A n n A A n n n n N m y w 9 9 w 9 t 9 9 9 9 d t r # ~ p.6.6.w.w.w.w.w.w.w.w.w.w.y.w.w.w.w.w.w.w.w.w.w.w.",
"w.w.w.w.w.w.w.w.w.w.9.w.w.y.w.w.w.w.w.e.9.6.w.w.9.w.1.9.T y m m n n n n n n n n m m m y q 9 d w 9 9 9 9 9 t d 9 r # ~ p.w.5.w.w.y.w.w.w.w.w.w.w.w.w.w.w.w.w.w.w.w.w.w.w.",
"w.w.w.w.w.w.w.w.w.w.w.w.w.w.w.w.w.w.w.w.w.w.w.w.6.w.2.9.T f A n n n A n n A n n m m B y w q w 9 d 9 w 9 9 9 9 9 r # ~ p.6.6.w.w.w.w.w.w.w.w.w.w.w.w.w.w.w.y.w.w.w.y.w.w.",
"y.w.w.w.w.w.w.w.w.w.w.w.w.y.w.w.w.w.w.6.w.w.w.w.w.6.1.9.I 5 n n A h h n n n n n m N B y q q 9 9 9 9 9 t 9 9 t 9 u # ~ p.6.6.w.w.w.w.w.w.y.w.w.w.w.w.9.y.w.w.w.w.w.w.w.w.",
"w.w.w.w.w.w.w.w.w.w.w.6.w.w.w.w.y.r.0.6.w.w.w.w.w.w.1.9.T h m m m m m m m m n n n m N y w q w 9 w w d 9 9 9 9 t u # ~ p.0.w.w.w.w.w.w.w.w.w.w.w.w.w.w.w.y.w.w.w.w.w.y.w.",
"w.w.w.w.w.w.w.w.w.w.w.y.w.w.w.w.y.y.w.w.9.w.w.w.w.6.1.9.T d m m m m N m N m n n n N m y q q w w w 9 9 w 9 t 9 t r # ~ p.w.5.w.w.w.w.w.w.w.w.w.y.w.w.w.w.w.w.w.w.w.w.9.w.",
"w.w.y.6.w.w.w.w.w.w.w.w.w.w.w.w.w.w.0.w.w.6.w.w.6.6.w.9.T w m m m N m N m m m n N m m g w w w w 9 9 w w t 9 d w r # ~ p.5.5.w.w.w.w.w.w.w.w.w.w.w.w.w.w.w.w.w.w.w.w.w.w.",
"w.w.y.y.w.y.w.w.y.6.y.w.w.w.w.w.w.w.w.6.w.6.w.w.w.w.2.9.T y m m m m m m m m n n m m m y w w 9 9 w w w 9 9 9 9 t u # ~ p.w.5.w.w.w.w.w.w.w.w.w.w.w.w.w.w.w.w.w.y.w.w.w.w.",
"w.w.w.w.w.9.w.w.6.y.w.w.w.w.w.y.w.q.w.2.6.6.w.w.w.w.0.7.T g B m N m m m m m n n m m m y 9 8 w w 9 9 t 9 9 t 9 t r # ~ p.w.6.w.w.w.w.w.w.y.w.w.w.w.y.9.w.w.w.w.w.w.w.w.w.",
"w.w.w.w.w.w.w.w.y.w.w.w.w.w.w.w.w.w.w.w.9.w.w.w.6.w.w.5.T g B m m m m m m N n n n m v y w q 9 w t 9 9 9 9 9 9 9 r # ~ u.6.0.w.w.w.w.w.w.w.w.w.w.w.w.w.w.w.w.y.w.w.w.w.w.",
"y.y.y.w.w.w.w.w.w.w.w.w.w.6.w.w.w.q.w.w.w.w.w.w.w.w.e.9.T d b m m m m m m m n n n m m y q q w 9 9 9 9 9 9 9 d t r # ~ p.6.6.w.w.w.w.9.w.w.w.w.w.w.w.w.y.w.w.w.w.w.w.w.w.",
"w.y.w.w.w.w.w.w.w.w.w.w.y.y.w.w.w.y.w.w.w.w.w.w.6.2.1.6.T t m m m N m m m N m m n N m y w q w w t 9 t 9 9 t 9 9 r # ~ p.6.0.w.q.y.y.w.w.w.w.w.y.w.w.w.w.w.w.w.w.w.w.y.w.",
"y.w.w.w.w.w.w.w.w.w.w.w.w.w.y.y.w.w.6.6.e.u.u.y.w.w.2.2.I e m m m m m m m m N m B n B y q 8 8 8 8 8 t t t q t q 0 @ Q a.y.u.u.a.a.a.r.y.6.6.6.6.w.w.w.w.w.w.w.w.w.w.w.w.",
"6.w.w.w.w.w.w.w.w.w.w.w.y.6.w.6.0.w.u.r.-.@.*.&.&.&.*.$.I y n m m N m b m N m m N n m y y w 9 9 t 9 t w w q q r r : W &.%.%.#.+.$.$.3.r.6.6.9.6.w.w.w.w.w.w.w.w.w.w.w.w.",
"w.w.w.w.w.w.w.y.9.y.w.w.w.y.w.y.w.w.w.a./ + e 5 4 4 e 4 y n m m m m N m m m N m m m m m n N m m m m c w w 8 9 8 r 2 1 $ $ ; $ ; % . +.y.w.6.9.w.w.w.w.w.w.w.y.w.w.y.w.y.",
"w.w.w.w.w.6.y.y.w.w.w.w.y.y.0.r.t.q.w.a.] 5 n V s s V V n s n m m m m m m m m m m m c m n B m m m m m c w 8 t 8 q r u u 0 r u i a = +.a.1.5.w.w.w.w.w.w.w.w.9.w.w.w.w.w.",
"w.w.w.w.w.w.w.y.w.w.w.w.w.y.p.y.t.t.q.p.' 4 M M n m n n V N N C m m B m m B m m B N m m m m B b b m m y 8 w 9 9 w q 9 3 w 9 w w t @ +.u.w.6.6.w.9.w.w.w.w.w.w.w.w.w.w.w.",
"w.w.w.w.w.w.w.w.w.w.w.w.y.y.y.r.t.r.0.p.` 5 M M m M n n n N m m m m m m m m m v m m m m m m m m m m m d w w t 9 w w 9 d 5 5 3 w t &  .u.6.6.w.w.w.w.w.w.w.w.w.w.9.w.w.w.",
"w.w.w.9.w.w.w.w.w.w.w.w.y.w.w.w.w.w.6.p.` 4 M M M n n n n n N m m m m m m m m B m m B B m m B C b m m g w y w 9 t 9 9 9 w w w e i @ O.u.6.<.w.6.6.6.w.w.w.w.w.w.w.w.w.w.",
"w.w.w.y.w.w.w.w.w.w.w.w.y.6.9.w.w.w.9.p.` < A m A n M n B m C Z Z Z Z B M C Z Z M Z M M Z Z Z Z Z Z b g w d d d d d d d d d t f y * +.r.6.6.6.w.w.w.w.w.w.w.w.w.w.w.w.w.",
"w.w.w.9.w.w.w.w.w.w.w.w.w.w.w.w.w.6.2.p.) O < 3 3 3 4 3 3 3 4 , 3 3 3 3 3 3 3 3 3 3 3 3 3 3 3 3 3 3 > * X O o & O O * O O O O O +   $.y.w.w.w.w.w.w.w.w.w.w.y.w.w.w.w.w.",
"w.w.w.w.w.w.w.w.w.w.w.w.w.w.w.w.2.2.9.y.=.} | | X.X.X.X.X.X.X.X.X.X.X.X.X.X.X.X.X.X.X.X.X.X.X.X.X.X.o.{ [ X.[ | ....{ ..{ { { X. ._ -.p.6.6.w.w.w.w.w.w.9.w.w.w.w.y.w.w.",
"w.w.w.w.w.w.w.w.w.w.w.w.w.w.w.w.w.w.6.u.9.a.p.p.9.y.p.p.p.p.y.p.p.p.p.p.p.y.p.p.p.u.p.p.y.p.p.y.p.p.u.p.p.p.u.p.a.p.a.p.p.u.a.u.9.y.y.y.9.w.9.w.y.w.w.w.w.w.w.w.w.w.w.w.",
"w.w.w.w.w.w.w.w.w.w.w.w.w.w.w.9.y.y.9.u.w.,.6.6.6.6.6.6.<.6.0.0.0.1.6.0.0.0.0.w.6.0.0.0.w.0.0.6.0.6.q.0.0.<.2.q.q.w.0.e.0.q.0.w.y.6.w.y.6.u.w.w.w.w.w.w.w.w.w.w.w.y.w.w."
};
