/* XPM */
static char *result[] = {
/* columns rows colors chars-per-pixel */
"84 84 181 2 ",
"   c #000C00",
".  c #001000",
"X  c #16330E",
"o  c #0F2F10",
"O  c #133B1C",
"+  c #1A431C",
"@  c #224016",
"#  c #284116",
"$  c #23421B",
"%  c #29421B",
"&  c #314A1D",
"*  c #3D501E",
"=  c #1C4424",
"-  c #1B4824",
";  c #244322",
":  c #214927",
">  c #294826",
",  c #224628",
"<  c #294D2F",
"1  c #3A5524",
"2  c #3B5529",
"3  c #3E5B2F",
"4  c #295232",
"5  c #2B5835",
"6  c #325632",
"7  c #365B35",
"8  c #395A35",
"9  c #31563C",
"0  c #335B3E",
"q  c #395E3C",
"w  c #36603D",
"e  c #38603E",
"r  c #405E32",
"t  c #4D6737",
"y  c #4F693D",
"u  c #506A3F",
"i  c #59723C",
"p  c #2E5B46",
"a  c #365740",
"s  c #355D43",
"d  c #3A5F45",
"f  c #3E5F49",
"g  c #2E6343",
"h  c #366144",
"j  c #3A6045",
"k  c #3F6946",
"l  c #35644C",
"z  c #3C644A",
"x  c #34694B",
"c  c #3E694C",
"v  c #376551",
"b  c #396755",
"n  c #366850",
"m  c #3D6951",
"M  c #3E775D",
"N  c #3E7862",
"B  c #416545",
"V  c #4D6642",
"C  c #466A45",
"Z  c #4E6941",
"A  c #42654A",
"S  c #426A4D",
"D  c #496E4F",
"F  c #506941",
"G  c #586F45",
"H  c #46704F",
"J  c #49704E",
"K  c #567042",
"L  c #5A7445",
"P  c #54734E",
"I  c #5D784F",
"U  c #446D52",
"Y  c #486E51",
"T  c #426C59",
"R  c #496E59",
"E  c #467356",
"W  c #497356",
"Q  c #45735A",
"!  c #497359",
"~  c #4F7959",
"^  c #507555",
"/  c #537855",
"(  c #5D7D57",
")  c #51775A",
"_  c #52795C",
"`  c #687A44",
"'  c #637D4D",
"]  c #637D51",
"[  c #627F59",
"{  c #447562",
"}  c #437A61",
"|  c #487A66",
" . c #547760",
".. c #5F805C",
"X. c #668254",
"o. c #6C8155",
"O. c #63815C",
"+. c #6D855A",
"@. c #718654",
"#. c #73865B",
"$. c #7A905D",
"%. c #598262",
"&. c #628262",
"*. c #658B67",
"=. c #6A8C65",
"-. c #6C8C6A",
";. c #738D60",
":. c #7C9567",
">. c #6B8A70",
",. c #839863",
"<. c #819869",
"1. c #8DA16D",
"2. c #89A47B",
"3. c #96AB73",
"4. c #9AAC74",
"5. c #95AB79",
"6. c #98AF79",
"7. c #97B077",
"8. c #97B27E",
"9. c #9BB17C",
"0. c #85A780",
"q. c #93AF84",
"w. c #96B186",
"e. c #9DB586",
"r. c #9BB58A",
"t. c #97B889",
"y. c #9FBB8B",
"u. c #9CBC92",
"i. c #A6B783",
"p. c #A5B983",
"a. c #A9BB85",
"s. c #A0B78B",
"d. c #A4BE8F",
"f. c #ABBD89",
"g. c #A2BE91",
"h. c #ADC08B",
"j. c #B1C185",
"k. c #B2C796",
"l. c #B3CB97",
"z. c #B6CD9A",
"x. c #BBCD9B",
"c. c #BCD19D",
"v. c #B6D1A1",
"b. c #B8D0A1",
"n. c #C0D096",
"m. c #C4D39D",
"M. c #C7D79D",
"N. c #C2D6A1",
"B. c #C4DAA4",
"V. c #C8D8A3",
"C. c #D4E2A7",
"Z. c #D3E4AD",
"A. c #D9E7AA",
"S. c #D7E7B0",
"D. c #D6E9B4",
"F. c #DAEAB3",
"G. c #DFF0B4",
"H. c #EDF6AE",
"J. c #EFFAAE",
"K. c #F2F7AF",
"L. c #F2FAAE",
"P. c #E3F2B5",
"I. c #EDF6B3",
"U. c #EEF9B4",
"Y. c #E3F2B9",
"T. c #E9F6BC",
"R. c #E7FABF",
"E. c #EDFBBB",
"W. c #F1F6B2",
"Q. c #F1FAB6",
"!. c #FAFDB3",
"~. c #F2F6B9",
"^. c #F3FBBB",
"/. c #FAFEBC",
"(. c #E4F5C2",
"). c #E8F5C1",
"_. c #EBFCC2",
"`. c #F4FFC1",
"'. c #FAFFC3",
"]. c #F3FFC9",
"[. c #FCFFC8",
/* pixels */
"Q.Q.Q.Q.Q.Q.^.Q.Q.Q.Q.Q.Q.E.Q.Q.^.U.U.U.U.Q.U.Q.Q.U.Q.Q.U.U.Q.U.U.Q.Q.Q.Q.U.Q.Q.U.Q.Q.Q.Q.Q.Q.Q.Q.Q.W.Q.U.Q.Q.Q.W.Q.Q.Q.W.Q.Q.Q.Q.Q.Q.Q.Q.Q.Q.Q.Q.^.U.^.E.Q.Q.Q.Q.^.E.Q.",
"Q.Q.Q.Q.Q.Q.E.Q.Q.Q.Q.Q.Q.Q.Q.Q.Q.U.W.!.!.W.W.!.!.!.!.W.!.Q.W.!.!.Q.W.W.W.!.W.W.!.Q.W.W.W.!.W.Q.!.W.W.W.!.Q.W.Q.W.!.Q.W.!.W.W.W.W.Q.Q.Q.Q.Q.Q.Q.Q.Q.Q.U.Q.Q.Q.Q.Q.Q.~.^.",
"Q.Q.Q.Q.Q.Q.Q.Q.Q.E.~.Q.Q.Q.U.Q.E.^.Q.Q.U.E.Q.Q.U.~.U.Q.Q.U.E.U.U.E.^.U.U.U.^.Q.U.U.E.U.U.E.U.U.U.U.^.Q.Q.U.U.U.U.E.E.Q.Q.E.^.U.Q.Q.Q.W.Q.Q.Q.Q.Q.Q.^.U.Q.Q.Q.Q.E.Q.Q.Q.",
"Q.Q.E.^.Q.Q.Q.E.Q.^.Q.Q.W./.P.G.G.Y.Y.Y.Y.Y.Y.Y.Y.Y.Y.Y.Y.Y.Y.Y.Y.G.Y.Y.Y.Y.Y.Y.Y.Y.Y.Y.Y.Y.Y.Y.Y.Y.Y.Y.Y.F.G.Y.G.G.G.G.G.G.G.G.F.Y.G.P.U.Q.U.Q.U.Q.U.^.Q.Q.Q.~.Q.Q.Q.Q.",
"Q.Q.Q.^.E.~.Q.Q.Q.Q.Q.Q.Q.^.j.i ' X.] ] ' ' ' ] ' ' ' ' ' ' ' ' ' ' ' ] X.' ' ' ' ' ' ' ' ' ' ' X.X.' ' L K G L K K u G K K K K u L t @.E.U.Q.U.Q.E.Q.Q.Q.Q.^.E.E.^.Q.Q.",
"Q.Q.Q.Q.Q.Q.Q.Q.Q.Q.Q.Q.!.'.p.8 D R E Y Y D Y Y D Y Y Y D Y Y Y H Y Y Y H H H H Y Y D D H Y Y Y D H Y Y k j 0 s q 0 q s e 0 0 0 0 j < ( _.U.Q.Q.Q.Q.Q.Q.Q.Q.Q.Q.Q.Q.Q.Q.",
"^.Q.Q.Q.Q.Q.Q.Q.Q.Q.Q.Q.K.'.d.q ! { ! ! R ! Q Q ! ! R Q ! ! ! Q ! ! Q R Q W ! ! { R R ! W Q ! W E W Q ! T l h l h z l l z z z l v l 0 ..R.I.U.U.U.Q.Q.Q.^.Q.Q.Q.Q.Q.Q.Q.",
"E.Q.Q.Q.E.Q.Q.Q.U.E.U.~.!.[.d.e ) ! ! R ! R R W R ! W R R ! R W R W W R ! ! ! ! ! ! ! ! ! ! ! ! E ! ! R U z d s f d f d d d d j z j 9 ..E.W.U.U.Q.E.Q.U.E.Q.Q.Q.Q.Q.Q.Q.",
"Q.Q.Q.Q.Q.Q.Q.Q.I.H.U.J.!.].s.8 ! ) ! R ! ! W R ! ! W W ! ! ! ! ! ! ! ! E E W ! ! ! ! ! E ! ! ! ! R ! R U z s s h f d f d d f d f f a [ P.J.U.H.U.I.U.U.Q.Q.Q.Q.Q.^.E.~.",
"Q.Q.Q.Q.Q.Q.W.W.W.W.L.W.H.`.r.q ~ ! ! ! ! ! W Q Q Q Q W Q ! ! Q W Q ! Q E M Q Q ! ! W W E E ! ! ! ! ! ! T l s d l d z j f f d f z f a O.E.L.L.I.U.U.L.W.Q.Q.Q.Q.Q.Q.Q.Q.",
"^.Q.Q.Q.Q.Q.E.E.`.`.^.^.^.[.g.e ~ ! Q E W Q Q E R Q Q Q E W E Q Q Q R Q Q %.E E Q Q W Q M H E E ! ! W W U j h h d d p d d d f d z d 0 O.R.^./.^.^.`.^.^.Q.Q.Q.Q.Q.Q.Q.Q.",
"Q.Q.Q.^.U.^._.c.B.B.B.B.M.b.0.c Q ! Q ! E W E Q Q W E E Q W Q E E E Q W E E E E E Q W Q M %.E E W ! ! E U m S S z z l c c z j p j d d D b.M.m.m.x.V.n.A.`.Q.~.Q.^.^.~.Q.",
"Q.Q.Q.^.^.^.Z.1 3 8 8 r 1 t c E ! ! ! ! %.E E E E E E Q E E E E E E E E E E E E Q E E E E E E E W W W W W E E W Y Y E Y z d d d j j j B # # # # % &   4.^.Q.Q.~.^.^.~.^.",
"^.Q.Q.Q.!.^.D.K / ) / / / ) Q Q ! ! { ! M E E E E E E E E E E E E E E E E E E E E E E E E E E E W W E W W W W W ! ~ ! ~ z z d d j j j e z B A A C C $ r.`.^.~.Q.^.~.^.^.",
"Q.Q.Q.Q.W.^.D.y J E E E E Q Q Q Q ~ Q Q c E E E E E E E E E E E E E E E E E W E E E E W E E E E W W E E E E E E W Y W Y z j d q q j j e j z j z j S + t.`.Q.Q.W.^.~.^.~.",
"Q.Q.Q.Q.!.Q.F.u W E E E W ! ! ! W W Q E E E E E E E E E E W W W E E E E ~ W W ^ W ^ ^ W ~ E E W W W W E W W W W W ! E W z h d j j j j j j h h h z S $ t.].!.W.Q.W.!.~.^.",
"Q.Q.Q.^.^.^.D.y ^ W E E E ^ E ! E ! Q Q W Q Q E Q E E E Q E W W W W W W W E H E Y R E E ! ! Q W E E E E W W W W W W W R l d d d j j d j d j h z z A ; r.].!.I.Q.W.^.~.^.",
"Q.Q.Q.Q.^.^.D.y J W E E W W ! ~ W ! W R W Q E Q Q W Q E ! E ! W W W W E T M M M { { } } } Q ~ Q W E ^ E W Q Q W Q W W W c d d d j d j j d j h d v A ; r.'.Q.W.Q.^.~.^.^.",
"Q.Q.Q.Q.Q.^.S.u ^ E / E E W Q Q W W W W E E E Q W W ! E W ! W R W W W W H S h 0 s s q 0 m E Q ! J W E W W W W W R W Q W z j d j j j j d j z d h v A ; e.`.Q.~.!.~.!.^.~.",
"E.Q.Q.Q.Q.^.S.u J E E E W W Q Q ! W Q Q E ! S z S S c S S S S S S z A D 6 t.V.M.m.m.M.N.b.I ^ Q E W W W W W W W W W W W z j d j j d j j f j j d f z ; e.'.W.~.W.^.~.~.!.",
"Q.Q.Q.Q.Q.^.F.u J W W E W Q W W W W W ! ! W A j j j h j d d j d f d j A @ l.[./././././.T.+.J E ~ W ! W W W W W W E W W z j j j B d d j d d j h z A ; e.'.W.W.^.W.Q.^.~.",
"Q.^.Q.^.Q.^.F.u ^ E W W W W E W W ! E ~ ! ~ z d h j h h q d d d d d d B @ k.^.H.^.Q.Q.^.(.X.S E W W ! R ! ! W W ! W ! W z j j j d j d d d d j j f A ; e.[.W.!.Q.^.~.~.!.",
"Q.^.Q.Q.Q.^.S.u J W W W W W W W W W E ! ! E z s j z j j j z j f d d d B # l.`.I.Q.^.E.E.Y.X.H Q W W ! ! ! ! E W E W W ! z j d j j j j j d d j j z A ; e.].W.I.Q.W.Q.^.~.",
"Q.U.Q.Q.Q.^.S.u ^ W W E W W W W W W E ! E E z s j j j j j d j j d d d B $ l.`.I.Q.Q.Q.U.Y.o.H Q W W W ! E W W W W ! W W B j s j d j j j d d j j f S ; e.`.!.W.^.!.^.~.^.",
"^.U.Q.^.^.^.F.Z W W W W E E W W W W W W ! Q S s j j d d j d j d d d d B @ l.^.U.Q.Q.U.U.T.o.Y Q E W ! W W E W E E W W ! z j d d d j j j d d e j B A $ r.`.W.!.^.~.^.~.^.",
"U.^.^.U.Q.`.F.y W W W W / E E E W W Q W E W k h j j j d j j j j j d j B # l.^.I.Q.W.W.Q.Y.o.E Q W W E W ! ! W ! E ! ! ! z j d j j j j d d t d j j A ; e.`.W.I.Q.Q.Q.Q.E.",
"Q.Q.Q.Q.^.^.F.y W ! W W E E W W W W E E ! ! z s j j d d j d j j j j j B $ l.`.W.Q.Q.U.^.Y.o.D Q W W ! E E W E W W E W Y z j d j d j j j d d d j z A ; e.].W.W.Q.Q.~.Q.^.",
"E.Q.^.U.Q.`.D.y Y ! W W W W W J W E E E E E z h d j d d j d j d j d j B # l.`.I.Q.W.U.Q.T.o.Y Q Q W W E ! W ! W W ! ! W z j s j j j d j d d d d A A ; p.`.W.Q.Q.Q.^.Q.Q.",
"Q.Q.^.E.Q.`.D.y ^ W ! W W W W W W W E E ^ W z h j j d d j j j j j d d k @ z.^.U.Q.Q.W.U.Y.o.E Q Q W W W W E W W E W W ! A j j j j j d d f d d j f A ; i.`.Q.W.Q.Q.Q.Q.Q.",
"Q.Q.Q.Q.^.^.F.y Y W ! ! W E W W E W E E W W k h d j d j d j j j j q d B $ z.^.L.Q.U.U.Q.Y.o.Y Q Q Q W W ! W ! E ! ! W Y z j d j d j j d d f d j f A ; e.`.W.Q.Q.Q.E.Q.Q.",
"Q.Q.Q.Q.^.^.D.Z ^ ! R ! E E W W E E E ^ E W c h B j j j j d j j j j j B # l.`.W.Q.!.!.Q.Y.o.Y Q Q W W W ! E ! E W E W W z j d j d d d d d d d d f f ; i.].L.I.^.Q.Q.Q.^.",
"Q.Q.Q.Q.L.^.D.Z P R R ! W W W W W W W W W ^ z 0 j j z j z z j z z j l C @ z.'.Q.W.~.I.W.T.[ U Q Q Q W W W E W W ! W E ~ z j s j d d B f d d d d z A ; e.^.W.I.Q.~.^.Q.Q.",
"Q.E.Q.Q.J.^.D.P _ _  . ._ ) _ _ _ ) _ _ ) ! S j C z c z z A S z c z z C & x.^.I.U.U.U.E.Y.X.D Q Q E W W E W W W ! E W ! z j d d j j j j d d j h z A ; e.`.W.I.Q.Q.^.Q.Q.",
"Q.^.Q.Q.I.E.Z.2 q a q 0 q 0 d q d q q s j q < = , , , , : , , = : , , > . h.'.K.U.U.J.U.P.o.U Q Q E W W ! W ! E W W W W z j d j d j d j d f d j z A ; e.`.W.L.Q.Q.Q.Q.Q.",
"Q.Q.Q.Q.W.^.F.6.e.r.t.t.t.r.t.t.r.w.t.t.r.y.w.w.q.q.q.q.w.q.w.w.w.w.q.r.1.C.^.Q.U.U.J.U.P.o.Y Q Q W W W W E ! W ! ! E R z j d j j j d j d d B d f A ; e.`.W.W.^.Q.Q.Q.Q.",
"Q.Q.Q.Q.Q.Q.E.E.`.^.`.`.^.`.`.E.^.`.`.^.`.^.`.^.^.`.`.`.`.^.`.^.`.^.`._.E.^.Q.Q.U.U.U.U.Y.o.Y Q Q E Q W ! E W E E W W W A j s j d j j j f d d d z A ; e.^.!.W.^.^.^.Q.Q.",
"Q.E.Q.Q.Q.Q.Q.Q.I.I.L.!.L.W.Q.!.Q.W.!.W.W.L.W.L.W.W.!.W.W.!.W.L.W.L.W.!.U.Q.Q.Q.U.J.U.E.Y.o.E Q Q T E Y W W ! W W W W W z j j j d j j j d d j j v A ; s.`.W.W.^.~.!.Q.Q.",
"Q.^.Q.Q.Q.Q.Q.~.I.Q.I.U.Q.Q.!.W.W.W.U.U.W.U.W.W.U.W.U.U.W.I.U.U.W.U.U.W.W.^.Q.Q.U.U.J.E.Y.o.D Q E E W W E W E W W W W W z j d j j j j d z d j j f A ; e.`.!.W.^.^.~.^.~.",
"E.^.Q.Q.Q.Q.^.~.^.Q.E.Q.U.U.Q.E.Q.U.Q.Q.U.U.Q.U.Q.Q.Q.Q.Q.^.E.^.Q.Q.W.W.!.Q.^.Q.U.J.U.U.Y.o.H Q E J W W ! ! W ! E W W W z j d j d j j d d d j e f z ; e.`.W.U.~.~.^.W.^.",
"~.Q.Q.Q.Q.Q.Q.Q.Q.~.E.^.Q.Q.Q.Q.Q.Q.Q.Q.^.Q.Q.^.U.Q.U.Q.Q.Q.Q.Q.^.Q.Q.Q.Q.Q.Q.L.I.J.U.U.Y.+.E Q W W W R W E W E E ! W W z j d j j j d d d d j j z A ; e.^.!.W.^.^.~.^.^.",
"Q.Q.Q.Q.^.Q.Q.Q.Q.^.E.Q.Q.Q.Q.Q.^.U.Q.^.U.^.U.Q.Q.U.Q.U.Q.Q.Q.Q.Q.Q.Q.U.Q.Q.^.^.^.Q.Q._.(.( S Q W W W ! W ! W ! W ! ! W z j d j j j j j d d j j z A $ e.^.K.W.^.~.~.Q.W.",
"Q.Q.Q.Q.E.~.Q.Q.Q.Q.Q.Q.Q.Q.Q.Q.Q.^.U.^.^.U.U.^.Q.E.U.~.Q.Q.Q.Q.Q.Q.U.^.^.Q.`.T.~.U.E.E.(.O.D Q W W W E E E W E E W ! ! z j d d d j d j B e j j z A $ e.`.!.W.^.^.^.~.!.",
"Q.Q.E.Q.E.^.Q.Q.Q.Q.E.Q.Q.E.~.Q.Q.Q.Q.Q.Q.Q.^.Q.U.Q.U.U.Q.^.E.Q.Q.Q.E.^.`.a.$.:.,.,.,.<.:.P R W W W ! Q ! W ! W W W ! Y z j d j d j d j d j d j z B ; s.`.!.W.Q.~.^.^.~.",
"Q.Q.Q.Q.Q.Q.Q.Q.Q.Q.Q.Q.Q.^.Q.Q.U.^.U.^.U.Q.^.U.Q.Q.^.Q.Q.Q.Q.Q.Q.Q.^.U.^.7.5 x k c C z H S E Q W W Y W ! E E W ! E E W z j d j j j j j q d j e j A $ r.`.W.~.^.^.~.^.^.",
"^.Q.Q.Q.Q.Q.Q.Q.~.Q.Q.Q.Q.Q.Q.Q.Q.Q.Q.Q.Q.Q.Q.Q.Q.Q.Q.Q.Q.Q.Q.Q.^.U.Q.^.^.8.g N Q Q Q Q Q E E W R W ^ R ! W W ! W W ! Y z j j j j d j j j e j h z B ; s.`.~.W.^.W.!.^.W.",
"E.Q.Q.Q.Q.Q.^.Q.E.^.Q.Q.^.Q.Q.E.E.Q.Q.Q.Q.Q.E.^.Q.Q.^.Q.Q.Q.Q.Q.U.^.U.^.^.w.l | M Q R W Q Q E E W W W W W E W E W W ! W A j s j j j j d j j j z z B $ e.`.!.~.^.^.~.~.^.",
"Q.Q.Q.Q.Q.Q.E.~.Q.Q.Q.Q.~.E.Q.Q.Q.Q.Q.Q.Q.Q.Q.Q.Q.Q.Q.Q.Q.^.Q.Q.Q.Q.Q.^.^.8.h N R W R R E W T E E E W E ! W E W W W E W z j d j j j j j j j h h j A ; r.].Q.~./.~.^.^.~.",
"Q.Q.Q.Q.E.Q.Q.Q.Q.Q.Q.Q.Q.Q.^.Q.Q.Q.Q.Q.Q.~.Q.I.I.W.~.~.U.U.Q.Q.U.Q.U.U.^.7.h M { R ! ! E W E Q Q E E E E W ! ! ! ! ~ E z j h j j j j c h x l l l S > r.'.Q.W.Q.^.~.~.^.",
"Q.Q.Q.^.Q.Q.Q.Q.Q.Q.Q.Q.Q.^.E.Q.^.Q.Q.Q.~.~.'.'.`.`.`.'.'.`.'.`.].'.`.'.`.8.s { ! ! ^ J E E E H E ! E E E E E E ! ! ! ~ j h j h d d j 0 4 4 4 4 4 7 X e.`.Q.Q.~.^.Q.Q.Q.",
"Q.Q.~.E.Q.Q.E.Q.Q.Q.Q.Q.Q.Q.Q.Q.Q.Q.Q.Q.K.^.Z.S.S.D.S.S.F.S.S.S.S.S.S.S.D.2.d  .! ~ E W E E E M E E E E E E E U Y W R E j j j j d z d B #.@.#.+.o.o.` f.^.Q.Q.W.W.^.^.Q.",
"Q.Q.Q.Q.Q.Q.Q.Q.Q.E.~.Q.^.Q.Q.Q.Q.Q.Q.Q.W.I.#.V V F V V u y u u y y V V C D R ! W R W W E E E %.! E E ! z z l c j j j j d j j j z z q _ ).T.T.T.R.E.I.Q.^.Q.~.Q.~.!.^.Q.",
"Q.Q.Q.Q.~.E.^.Q.Q.^.Q.Q.E.Q.Q.Q.Q.Q.Q.Q.Q.Y.-.U R ^ R Y Y P W W ^ R P Y ^ ^ ! ! W W E E E E E E E E ! E U j j h z j j z j j z j d j a [ E.W.^.^.E.E.E.Q.Q.Q.Q.E.~.^.U.^.",
"Q.E.Q.^.E.Q.^.Q.Q.Q.Q.Q.~.Q.Q.E.Q.Q.Q.Q.^.(.>.M ! ! Q Q Q Q ! ! Y ! ! ! ! ~ ! ! W R W W E W E E ~ W W W U j d d d z z h z d z d d z s [ E.L.Q.^.^.E.E.Q.^.Q.Q.Q.Q.Q.Q.^.",
"Q.Q.Q.Q.Q.Q.Q.Q.Q.Q.Q.Q.Q.Q.Q.Q.Q.^.Q.~.Q.).-.m ! ! Q Q E E ! E ! W ! ! Q Q ! ! P Y J W W E E E E E W ! U d d d f d f f d z z j j d 9 [ E.L.U.U.E.E.U.^.Q.U.U.U.Q.Q.Q.E.",
"Q.Q.^.Q.~.W.^.Q.Q.Q.!.Q.Q.Q.Q.Q.W.Q.!.~.!.T.-.m ! ! E Q Q E E E E W W ! ! ! ! R ! Y E W E W E E Q E ! ! U z f d z f z d z j z d h l s O.E.J.I.U.U.E.Q.U.Q.U.^.^.Q.Q.Q.Q.",
"Q.Q.Q.~.^.~.!.~.E.~.K.K.K.K.K.K.K.K.K.K.K.E.-.m ! ! W W E E ^ E W W E W ! E Y ! W W W W E ~ E E E ! ! W M p v v v v v v v v v v n b p %._.U.I.E.Q.^.Q.Q.Q.Q.Q.Q.^.Q.Q.Q.",
"Q.Q.Q.Q.Q.~.~.`.].].`.`.'.^.'.'.^.^./.^.^._.*.m W W Q Q E E E E W E E E ^ E H E R E E E W W E E W R ! ~ c O = - = = = = = = = = = = O G T.~.U.Q.Q.Q.Q.Q.E.^.Q.Q.E.~.Q.Q.",
"^.Q.Q.Q.T.^.Y.p.y.u.y.y.y.y.y.y.t.j.y.d.y.u.%.E Q W W E E E H E W E ^ E W H c D U m S c m S c k S c R z ;.f.f.f.p.r.i.i.i.i.i.i.a.f.9.n.U.~.U.~.Q.Q.Q.Q.Q.Q.Q.Q.Q.Q.Q.Q.",
"E.Q.Q.Q.U.].S.2 q q q w e w w w w w w w 7 e E k ^ E E E / H / E W W W E E z j h h h s h d d h e d s l , 9.'.^.`.`.`.'.`.'./.^./.'.^.'./.U.U.U.U.Q.^.~.Q.Q.Q.Q.Q.Q.Q.Q.E.",
"Q.Q.Q.Q.~.^.F.u W E E H J W J J E H P E E E E E E ! Q E ~ E J E W W E E ! S j h h z h z h j j d j j l - 5.Q.~.Q.Q.Q.Q.Q.Q.I.W.I.I.W.W.~.U.~.~.Q.Q.E.E.Q.Q.Q.Q.Q.Q.Q.Q.Q.",
"Q.Q.Q.Q.L.^.D.F E c E E E E / E E E E E H H E E E ~ W ! W E E ^ W W W W W S j d h j z h j j e j B z l - 3.^.W.~.Q.Q.Q.~.Q.U.U.E.U.U.U.I.U.Q.~.Q.Q.Q.Q.Q.Q.Q.^.Q.Q.Q.Q.Q.",
"Q.Q.Q.Q.J.^.Z.F W M %.E W W E E W W E W E E E J W W W W ^ E E E E W W E ! S j h z h h z j j j j j j x - 3.^.Q.Q.Q.Q.E.Q.U.U.E.U.U.~.E.U.U.U.Q.Q.Q.Q.^.Q.Q.Q.E.~.Q.Q.Q.E.",
"E.Q.Q.Q.L.Q.F.u W Q Q E W W E E E W E W E E W W J W W R E E E E E E E E ! m j h h z j j d j e j j h x - 3.Q.W.~.Q.Q.Q.Q.U.~.I.I.Q.Q.U.~.Q.E.Q.^.Q.!.Q.Q.Q.Q.Q.Q.^.~.^.Q.",
"Q.Q.Q.Q.J.^.A.u W Q E E W E W E W W W W W ~ W ~ W W W W W W W W E ^ ! E E c h s s h h q j d j j z h l - 4.^.!././.^.^.!.^.^.!.^.Q.^.^.!.Q.Q.^./.W.~.!.W.Q.Q.Q.Q.Q.E.Q.Q.",
"Q.Q.Q.Q.W.^.A.Z W W Q Q E E W W W W W W W W Q W W W W W W W W W W W W W Q m z z h h h h j j j j z h h - 5.T._.T.Y.T.T.T.T.Y.R.T.T.R.T.T.R.T.T.T.`.~.I.~.~.~.~.Q.Q.Q.Q.Q.",
"Q.Q.Q.Q.W.^.D.Z W W Q W W W Q W W Q W W W W W W W Q W Q W Q Q W W W T W E E U U E E c E E E E E E E Q R / =.=.-.-.-.-.-.&.O.O.O.O.O.O.&.O.O.O.O.[ [ G f._.Q.Q.Q.Q.Q.E.Q.",
"^.Q.Q.Q.W.Q.A.Z W W Q E W W W W W Q Q W W Q Q W W Q W W E R W W W Q Q W U E E ! W W E E Q ~ W ^ E W ! ! E S U c S c c c 9 0 0 9 p 9 9 9 9 a s 9 9 a o r.`.~.~.Q.Q.Q.Q.Q.",
"~.E.Q.Q.W.^.D.F W Q Q E W W W W W W W W W W W W W W W W E Q W W W W W W ! ! W E ! E W E E W Q E W W ! E E E E ! ! ! ! W z j h h d e j h h h d d f A , r.].U.U.E.Q.Q.Q.Q.",
"^.U.Q.W.W.^.S.u W W W Q ! W ! W W W W W W W W W W Q W W W W W W W W W W ! ! ! E E E E E E W ! E W R ! ! E W E ! ! ! ~ ~ h j h j j d h j h h h j d C , r.].U.U.Q.Q.^.Q.Q.",
"Q.^.Q.Q.W.^.S.u W Q Q Q E W E E W Q Q W W Q Q R W W W Q W W W W W W W W E E ! ! W W Q W E Q E E W W W R ! W E E E ! W E z j j j j j j j s d d d f C ; r.`.Q.I.Q.Q.E.Q.Q.",
"Q.U.Q.Q.W.Q.S.u W W W W W W W ! W W Q W W W Q W W W W W W W W Q W W W E E ! ! W E E E E E E E Q W W W W ! E Q E E ! E E k j j j j d j j d d z d d A ; r.].I.I.W.Q.Q.Q.Q.",
"Q.^.Q.Q.W.^.S.u W Q Q E E ! W E W W W W W W W W Q W W W Q W W W W W W W W ~ E W ! W ! E ! ! ! E W W W W E E ! E W W ! W z h h z j j d h j d d f z S ; r.`.U.I.Q.Q.Q.Q.Q.",
"Q.Q.Q.Q.L.^.A.y E ! Q E W W W ! W W W W ~ E E ! W W W W W W W W W W W W R E E ! ! E E E E ! ! ! W ! E Y E ! W W R W Y ! z h j h j j d j d d z d j S ; s.`.I.I.Q.Q.U.Q.Q.",
"E.Q.Q.Q.W.^.D.Z W ! Q E ~ E E W W W W W W ! E E W W W E W W W W W W W W E Q W W ~ E ! ! ! ! W E ! Y W W W W E ! E Y E R z h h j d j j j j d d d j S ; r.^.U.J.U.Q.Q.Q.Q.",
"Q.Q.Q.Q.W.^.S.u E Q Q E E E E E Q T W W W W E ! Q W W E W Q Q W W W W W R E E ! W W W ! ! E ! W W T W W E ! W W E R W R z h j h j j d j j d z d f A , s.`.U.U.W.Q.Q.~.Q.",
"Q.Q.Q.Q.L.^.S.u E Q E E E E E W E E W Y E E E E R E E Q W W R W ! E W E E E W E E W ~ E ! E W W W W W W W ! E W W W W W c h z h j j j j j d f d f f ; s.^.J.J.U.Q.Q.E.^.",
"^.U.^.Q.L.^.S.u J W Q E E E W W E E E W W E E E W W W W W W W Q W W ! W ! W W W W W W E W W W E W W W W W W W W W Y R W A j j z j j d j z d f l d A ; r.`.W.J.I.Q.Q.Q.Q.",
"U.^.Q.U.I.^.S.u E Q Q Q ! E Q W ! ! ! ! W Q Q ^ ! E ! W W W ! Q W W ! ~ ~ W W W ! ! ! ! W W ! ! ! Q W W ! ! W W ! ! ! ! c z z j j A f f j z z j d A ; r.'.W.J.W.W.Q.Q.Q.",
"^.^.U.Q.W.^.F.u / ~ ~ ! ^ W ^ W ^ ^ ~ W ~ W ^ ^ ^ ^ W ^ ~ ~ ! / ~ W ^ ^ W ^ ^ W / W ~ ~ ~ ~ ^ ^ ! / ~ ~ ~ ~ W / ^ ^ ^ ^ A A B z B B B B B B B f B C > s.'.W.W.^.Q.Q.Q.E.",
"U.Q.^.Q.I.^.Z.* 3 8 7 7 7 7 7 7 7 7 8 8 7 7 7 7 7 8 8 8 8 8 8 8 8 8 8 8 8 8 8 8 8 8 8 8 8 8 8 8 8 8 8 8 8 8 8 8 8 8 8 8 $ $ $ $ $ $ $ $ % $ $ $ $ ;   e.).~.Q.Q.Q.Q.Q.Q.",
"Q.Q.Q.Q.~.U.I.n.c.c.b.v.v.v.v.v.v.v.v.v.v.v.v.v.v.v.v.v.v.b.b.b.v.v.b.v.b.b.v.v.v.v.v.b.v.v.v.b.v.v.v.v.v.v.v.v.v.v.v.v.z.k.k.l.k.k.l.l.k.l.l.l.k.z.l.Z.E.~.Q.Q.Q.Q.Q.Q.",
"Q.Q.Q.Q.U.~.E.^./.`.'.`._.`.^.`.`.`.`.`.^.`.`.`.`.'.`.^.'.`.'.^.`.^.'.`.'.^.^.`.`.`.`.`.`.^.`.`.`.`.`.^.`.`.`.^.`.`.`.^.].`.`.^.^.`.`.^.`.`.^.^.`.].^.^.~.Q.~.Q.Q.Q.~.^.",
"Q.Q.Q.Q.U.^.Q.J.~.L.W.L.W.H.W.L.H.J.W.W.L.K.W.K.K.K.K.W.W.W.W.W.K.I.W.H.W.W.H.W.L.W.W.K.K.I.K.W.W.W.J.W.W.K.K.I.W.K.L.H.L.H.J.H.I.H.J.J.H.H.J.J.W.W.J.Q.~.Q.~.~.Q.~.^.~.",
"E.^.Q.Q.Q.W.Q.U.Q.Q.Q.^.Q.Q.Q.Q.Q.Q.Q.Q.Q.U.Q.Q.Q.Q.U.Q.Q.U.W.Q.Q.W.Q.Q.W.Q.Q.W.U.W.W.~.I.Q.U.U.Q.W.Q.W.W.~.I.Q.W.Q.Q.I.Q.W.W.Q.W.W.W.W.U.U.U.W.Q.Q.Q.Q.Q.Q.Q.E.^.^.~.Q."
};
