/* XPM */
static char *result[] = {
/* columns rows colors chars-per-pixel */
"84 84 177 2 ",
"   c #000F00",
".  c #001A00",
"X  c #1C3200",
"o  c #1A3308",
"O  c #25390A",
"+  c #273E15",
"@  c #243E1A",
"#  c #2A4412",
"$  c #23411D",
"%  c #2B441B",
"&  c #2E4C1F",
"*  c #364A15",
"=  c #1B4227",
"-  c #1E4228",
";  c #214222",
":  c #2B4622",
">  c #2D4C24",
",  c #21462C",
"<  c #23482D",
"1  c #2C4A2A",
"2  c #344E26",
"3  c #3C5526",
"4  c #325028",
"5  c #3C552A",
"6  c #3D592F",
"7  c #234A31",
"8  c #294F32",
"9  c #295033",
"0  c #355632",
"q  c #365C35",
"w  c #3A5C36",
"e  c #355C3C",
"r  c #3C5E3B",
"t  c #3D6036",
"y  c #37613E",
"u  c #3D613E",
"i  c #405529",
"p  c #435A2E",
"a  c #435C32",
"s  c #425E38",
"d  c #406034",
"f  c #4B6334",
"g  c #45653B",
"h  c #4A653D",
"j  c #4F6A3F",
"k  c #516A3F",
"l  c #355E43",
"z  c #3B5F45",
"x  c #3A5F49",
"c  c #366144",
"v  c #3A6145",
"b  c #3C6847",
"n  c #366149",
"m  c #3B634A",
"M  c #3E694C",
"N  c #3D735D",
"B  c #416344",
"V  c #4C6641",
"C  c #4B6843",
"Z  c #42654B",
"A  c #426A4D",
"S  c #486F4E",
"D  c #546E41",
"F  c #506F4A",
"G  c #45714E",
"H  c #4A734F",
"J  c #577143",
"K  c #5C7849",
"L  c #446D52",
"P  c #496E54",
"I  c #4B6F58",
"U  c #467256",
"Y  c #497357",
"T  c #4E7857",
"R  c #46735A",
"E  c #4A7459",
"W  c #4D795B",
"Q  c #517756",
"!  c #537A56",
"~  c #51765C",
"^  c #527A59",
"/  c #437665",
"(  c #427962",
")  c #5B7F63",
"_  c #668253",
"`  c #6B8352",
"'  c #738956",
"]  c #738B5D",
"[  c #658463",
"{  c #6D8E66",
"}  c #668868",
"|  c #7A8F62",
" . c #6E916C",
".. c #729066",
"X. c #7C9263",
"o. c #7E9963",
"O. c #75956C",
"+. c #7D9669",
"@. c #779A6E",
"#. c #739472",
"$. c #7D9B7A",
"%. c #7EA27D",
"&. c #819965",
"*. c #849A6C",
"=. c #849E76",
"-. c #819D7A",
";. c #90A26C",
":. c #8DA670",
">. c #86A37C",
",. c #89A47D",
"<. c #91A470",
"1. c #97A973",
"2. c #9DAD73",
"3. c #97AD7A",
"4. c #87A680",
"5. c #8AA781",
"6. c #94AF84",
"7. c #97B186",
"8. c #9AB68A",
"9. c #9BB88C",
"0. c #AABE93",
"q. c #B1C58F",
"w. c #AAC497",
"e. c #ADCB93",
"r. c #B1C597",
"t. c #B2CB96",
"y. c #BBC891",
"u. c #B5C79A",
"i. c #B4CB9C",
"p. c #B8CB9E",
"a. c #B4D09B",
"s. c #BCD29B",
"d. c #BED5A2",
"f. c #BED9A4",
"g. c #C3D39C",
"h. c #C3D89C",
"j. c #C8D99D",
"k. c #C2D5A3",
"l. c #C4DAA5",
"z. c #CADAA5",
"x. c #C6DBAA",
"c. c #CBDDAA",
"v. c #C2DBB3",
"b. c #C9DEB0",
"n. c #CAE1AC",
"m. c #D4E5AC",
"M. c #D8E5AF",
"N. c #D7E8AE",
"B. c #DAE8AF",
"V. c #DAE7B1",
"C. c #D6E8B1",
"Z. c #DDEEB6",
"A. c #D6EAB8",
"S. c #DEEFB8",
"D. c #DEF0B6",
"F. c #DEF0B8",
"G. c #ECF4AD",
"H. c #EDFAAF",
"J. c #F1F6AE",
"K. c #F3FBAE",
"L. c #E1EEB3",
"P. c #E5F2B5",
"I. c #EDF6B3",
"U. c #EFF9B3",
"Y. c #E4F4BB",
"T. c #EBF6BB",
"R. c #EEFBBC",
"E. c #F1F6B2",
"W. c #F1FAB6",
"Q. c #F9FAB2",
"!. c #F2FBBA",
"~. c #FAFEBB",
"^. c #EDFCC3",
"/. c #F5FFC2",
"(. c #F9FFC3",
"). c #F7FFCC",
"_. c #FBFFCA",
/* pixels */
"W.W.W.W.W.W.R.W.W.W.R.W.W.W.W.W.W.W.W.W.W.!.W.W.!.!.!.W.W.W.W.!.!.!.!.!.E.T.W.!.W.W.!.!.W.W.W.W.W.W.W.W.R.W.W.W.W.!.!.!.E.E.!.!.W.!.!.E.!.Q.W.W.W.U.W.U.U.!.W.W.W.W.W.W.",
"W.W.W.W.W.W.W.W.W.W.W.W.W.W.W.W.W.K.W.W.!.W.W.W.W.W.W.W.W.W.W.W.E.!.!.!.!.E.!.E.!.W.W.W.W.W.E.W.Q.W.W.W.W.Q.W.!.W.W.~.E.!.Q.Q.E.W.W.Q.Q.!.E.W.W.E.Q.W.W.W.W.R.W.W.W.W.W.",
"W.W.R.W.W.W.R.W.W.W.W.W.W.W.W.W.U.W.U.U.!.R.W.R.!.W.!.!.R.R.W.W.!.R.!.W.R.W.!.!.R.W.W.R.!.W.W.R.W.R.W.W.W.R.R.R.!.T.!.T.T.^.!.E.W.Q.Q.W.!.!.E.W.W.U.W.W.W.W.W.W.W.R.W.W.",
"!.W.W.W.W.W.W.W.!.R.W.W.W.W./.L.B.D.D.D.F.F.S.S.S.A.S.S.S.S.S.Z.S.S.Z.Z.Z.S.S.S.Z.S.Z.Z.S.Z.S.Z.D.Z.Z.S.Z.Y.Z.S.L.Y.L.Y.L.L.L.Y.Z.Y.Y.V.P.E.W.W.W.W.W.W.W.W.W.R.W.W.W.W.",
"R.W.W.W.!.R.W.W.W.!.W.W.W.!.R.:.K _ _ _ _ _ _ _ ) ` _ _ _ _ _ _ _ _ _ _ K ` ` _ _ _ _ _ _ ` _ _ _ _ _ _ _ K D D J D J J J D D J J k k f <.R.W.W.W.W.W.W.W.U.W.W.W.W.W.W.",
"W.W.W.W.W.W.W.W.W.W.W.W.W.W.!.@.y G G G G S S U S S S P S P S P S S P P P P P P H U P S H A S S S G G H H u e e l r z l z r r r r l B $ =.R.W.W.W.W.W.W.W.W.W.!.W.R.!.W.",
"W.W.W.W.W.W.W.W.W.!.W.W.W.Q.^.$.M R U U R R E E E R E R R R R R R R R R R E R R R E E R U R T E U R E R U M n x m n n n m n x x x l L 7 4.^.Q.W.U.W.W.W.W.W.!.U.W.W.W.W.",
"W.W.W.R.R.W.R.W.W.I.E.W.W.W.R.%.b Y Y T R R U U U E R E E R E R R E E R E R R R R E R U E U U U U E U E U M m l m x l m z z z x z z Z < -./.E.E.W.W.W.W.!.U.W.W.W.W.W.R.",
"W.W.W.U.W.W.W.W.W.I.H.H.E.E.R.-.m E Q E P E U U U U U E U U U U E E U U U U E U U E U E U U U Y U U U E U A v z m z z z z z z z z z m , >.~.J.I.U.H.I.I.W.R.R.W.W.W.W.W.",
"R.W.W.W.W.Q.E.W.W.I.U.U.K.K.T.=.B E E U U U U U U E U Y E U U U U U U E E U U U U E U U E Y U U U E U U E m m v m z v z v v v v v z Z , >./.K.I.W.W.W.W.W.W.W.!.W.R.W.W.",
"W.W.W.W.W.Q.W.R.W./.R.!.!.~.R.>.A T E R E U U U Y Y E U U U U U U U E U U U U U U U E U U U U U E E E U E Z v c m v z v v v z v v c M - 4.)./.!.!./././.!.W.W.W.W.W.!.W.",
"W.W.W.W.W.R.~.L.s.l.f.d.d.k.f.O.A E R U U E E U U E U E U E E U E U E U U E U E E E U E Y U E U E U U E U Z M m Z A M A M v c v v n m e  .d.g.k.d.l.k.y.L.~.W.I.W.W.W.R.",
"R.W.W.W.W.I./.r.# d w w 6 g g Z E U U U E U E T U Y E U E U E U U E U U E U E U U E Y U E U Y E U U E U U P P U P U U U E c v c v c l m r @ + + @ @ :   z./.U.I.W.W.W.W.",
"W.W.R.W.U.Q.(.s.d ! ^ Q E ^ ) I E E E E U E U Y E U Y Y U E U E U U E U U E U U Y U U E U E Y Y U E Y E E E U E E U U U P c c n c c c m l B V B Z Z F 2 x./.W.I.!.W.W.R.",
"R.W.W.W.Q.I.(.t.d Q E R I R R L U U E I E E E U Y Y U E E U E E E T E U U E U U Y U E Y Y Y U U U U U E E U E T U E E E E c c c c m l l x l z z x Z x : x./.W.I.R.W.W.W.",
"W.W.W.W.Q.J.(.i.w E R I L R R R U E U E E U U U E U E U U E U U U U U E T E E R U U P Y U E E Y E E E U E U U U U U U U E v c v v v c v z l z z x z Z : x.~.W.I.W.W.!.!.",
"W.W.W.W.!.E.(.r.r E E U P U E U E U E U Y E U Y U E U U E U E U U E U E U R N R R R L R R R U U E E E U Y U U U U Y E E U v v v v v v v c y y v v n Z & c.(.W.J.~.!.!.!.",
"W.W.W.W.!.E.(.u.r Q E P U U U E U E U E Y Y E Y E U E E Y E U U E U E U U U N N N / / ( ( R R U U U U E U U Y U Y Y P Y P v c v v v v v v v v v c n Z % z./.W.W.W.T.!.E.",
"W.E.W.W.W.E.(.u.r E E U P U E U U Y E U Y Y Y Y E U U E Y E U E U E E U U U M c l l l l c b P U U E U E Y U U U U Y Y Y U v v v v v v z v v y v x m Z % z./.W.I.!.!.!.!.",
"!.!.W.R.W.I.).u.r E E I U U U E E U U Y Y U Y Z b Z Z m B Z b M b b A b m g w.l.h.s.g.g.z.w.C F E E E U E E U E Y Y P E U b v c v z v v l v v v l x m % z.(.W.W.W.!.W.T.",
"W.W.W.U.W.J.(.u.w T E U U Y Y Y U E U E Y P P Z m m v v v c v v v m c m z 3 m.~.!.~.~.~._.M.s Q U E E E Y Y U U E P P E U m m v v v v v v v u z z n z % z.(.W.W.!.!.W.!.",
"W.W.W.W.W.E.(.u.s E E U H R Y Y Y U E U Y P P m z l l l l c l l z c c l r 5 M.I.H.W.I.Q.~.c.h Q T U U U Y Y E U E U U P P m c v v v l v z v l m z m B % z.(.W.W.!.!.W.T.",
"!.W.W.W.W.I.(.i.t E E U U U U U E U U E P E P z l z v z v v v c c v v c v 3 m.~.G.W.T.E./.n.g ^ U U U U Y E U E U U U U E m v c v v v v v v v l v m b % z.(.Q.U.~.W.!.!.",
"R.W.W.W.W.I.~.i.t E E U G E E U E U E U U U U m v z m z m z v v v v c v y 3 m.!.W.W.W.Q.~.n.g ! U U U U H U E U E U U U U b v v v v z l m r u z z n B % z./.W.U.W.!.W.W.",
"W.W.W.W.W.G./.i.w E E U U U U E U U Y U U U U m c v m z z z z z z v v c y 3 m.!.W.W.W.W.(.c.g ^ U U G N U U U U U P U P E M c v v v l v v r y v v v B % z./.W.W.!.W.W.W.",
"W.W.R.!.W.K./.t.t E U H U R E U Y E U E E U U m v v m x m v v v v c c v u 3 m./.W.W.!.E.~.c.g ^ U R H U U U E E U E P E P m v c v v v v m v v u v m B % z.~.K.U.!.!.W.W.",
"W.W.W.W.W.H./.i.t T R U U H Y Y U E Y E U U U m l m z z v z z v v v c v u 6 m.!.W.W.E.Q./.n.g ! U U U U H R E U E P E U U m c v v v v v l v u v v v B % z.~.W.K.!.Q.!.W.",
"W.W.W.W.W.G./.t.q T R U U Y Y Y E U Y U U U U v v z m z z v v v v z v v u 3 m.!.W.W.E.W./.n.g ^ U U U U H E U U U U P U E M v c v v z z v z z z m v B % z./.W.H.!.!.!.W.",
"R.W.R.W.W.J./.e.t E H U U R R R U Y U E U U U v v v z z z v v z z v v v u 3 N.!.!.W.W.W.~.n.g ! U U U U U U E E E P U U P M z c y v l v m u z z z z v % l.~.U.U.W.!.W.W.",
"W.W.!.W.W.G.~.i.t E R U U H U R E Y E U E U P m v v z z z v v z v v z z u 3 m.!.R.W.W.W./.n.g ! U U U U U E U U U E P I U m c v v v m z z v l m z m B % z./.W.U.!.W.R.W.",
"W.R.W.W.W.G./.i.t U R U U U U U U E U U E U U m v z m z z z z l v l v v r 5 m.!.W.W.U.W./.n.g ! U U U U U U E U E U U U U m v c v v v z l v r z z z B % z.~.W.K.!.W.W.W.",
"!.!.W.W.W.I./.e.t H H U U U U U E U U U U E U m l z z z z m v m z m x z B 5 C.(.U.W.R.W.!.n.g ! U U U U E U U U E U U U E m v v v z v v v v v z z m B % l.~.W.W.W.W.W.W.",
"W.!.!.!.U.W./.a.g ! T Y T E W W W W W W E ~ Q Z Z Z Z Z Z B Z m Z Z m Z B i m.!.W.W.!.W.(.c.g ! U E U U U R R U U E Y Y E v v v v v v v v v r z v m B % z./.W.K.W.W.U.W.",
"!.W.R.W.R.I.~.q.& u y y y e y c e y c e l z 0 1 ; ; ; ; ; - ; = - ; ; - $ O m.R.W.!.P.E.!.c.g E A U E R H R R T U U Y Y Y v v v v v l v v y v z z m B % z./.W.H.!.U.W.W.",
"!.R.R.W.W.K.!.m.3.9.9.8.8.8.8.9.9.9.8.8.9.7.8.6.7.7.6.6.7.6.7.6.6.6.6.6.7.1.B.!.~.T.E.E./.n.g ^ U R U H H R E R E E U Y U c v c v v z m z v v v x m B % l.~.W.K.W.W.W.R.",
"W.W.!.W.W.U.!.U.R.~./.!.^././.!.R./.^./.!.(././.(.(./././././.~./././././.!.R.W.T.E.!.Q.~.x.g T U U U U U U U U U U U E U v c v v z v l v v c v x x Z % c.!.W.I.!.W.W.W.",
"!.W.W.!.W.W.!.W.U.U.K.H.W.K.Q.W.W.W.Q.W.W.Q.W.Q.W.E.Q.W.Q.W.W.W.K.W.W.W.U.U.U.U.W.!.E.W.~.n.g ! U U R H R R U U Y Y P E E v v v v v v v v v v v z x Z % z./.W.I.W.!.!.W.",
"!.R.T.!.R.R.R.R.U.U.U.H.E.E.U.U.W.W.U.U.W.U.U.H.E.E.E.E.U.U.H.U.W.U.H.H.U.H.U.!.!.!.W.W./.n.g ^ U U R H H R U T Y Y E Y E v v c v v v v v c v v x x z % k./.W.W.!.W.R.W.",
"!.!.W.!.!.!.R.R.W.R.!.U.W.W.!.E.U.U.U.U.U.U.W.U.W.R.W.U.U.U.W.U.W.U.W.U.W.K.W.W.W.W.W.W./.n.f ! U U U U R R Y R E Y Y Y U c c v v v m v v v c v z x x % c./.W.I.!.!.!.W.",
"E.!.E.W.W.U.W.!.!.!.!.W.T.!.E.E.W.W.W.W.!.W.W.W.W.W.W.W.W.W.W.W.W.W.U.W.W.Q.W.W.U.W.H.W.!.l.k Q U U E U H R T R Y E Y E E v c v v l e v m v v m m m Z % l./.W.I.W.!.!.W.",
"!.E.E.~.E.!.E.!.T.~.T.T.~.E.!.!.W.!.W.!.R.W.W.W.!.R.W.W.W.W.W.W.W.W.K.U.W.Q.W.!.W.R.I.U./.z.g Q T U E U U U R R P U U U P v v c v m c m v B C B Z r S % l.!.W.W.R.W.!.!.",
"!.!.!.E.!.!.!.!.E.!.~.E.T.!.E.!.W.W.W.W.W.W.W.W.W.W.W.W.W.U.W.W.W.W.W.W.W.R.P.!.R.T.P.T.^.c.h E P P E E U U U R U U U U U v c v v v l m r & > > > > 2 X z.!.W.W.W.W.!.!.",
"!.E.!.!.~.T.E.T.!.~.!.!.~.!.E.E.W.R.W.W.W.W.W.R.W.W.W.R.W.W.W.W.W.W.U.W.R.I.2.o.*.o.o.&.:.] F Y E U U U U m m b b m m m m v v v c l m 9 #.n.n.n.n.n.n.j.L.W.W.W.!.!.!.!.",
"!.Q.E.!.E.Q.T.~.E.!.!.!.T.Q.!.!.W.W.W.W.W.W.W.W.W.W.W.W.W.W.W.R.U.W.W.W.U.^.' q M b b b B S F U U E E U E b c c l z v v c m c v v m m < >.).!.~./.!.!.W.W.W.R.W.E.!.T.!.",
"(.Q.E.~.~.~.T.Q.!.!.!.!.W.W.W.W.W.W.U.W.!.W.W.W.W.W.W.W.W.U.W.W.W.W.K.U.R.R.+.b ( N R N R E U U R R U E R b l c c v m c c v c v v v m < >./.K.K.W.U.K.W.Q.W.W.W.!.T.!.!.",
"E.Q.T.T.E.T.E.(.!.E.!.E.!.W.W.W.W.W.W.W.R.W.W.W.U.W.W.W.W.W.W.W.W.W.W.W.!.R.+.M [ R R R R E U U U P E E R M l c c c c v v c c v v m Z < >.~.J.H.U.H.H.W.W.W.W.W.W.!.!.T.",
"E.T.!.Q.E.(.T.Q.!.!.W.Q.!.W.W.W.W.W.W.W.W.W.W.W.W.W.W.W.W.W.W.W.W.U.W.W.U.R.*.m N N N U R R R R R E P E R M l c c c c v c v v c c m m 7 >./.K.H.U.H.U.U.U.W.W.W.W.T.!.!.",
"!.!.Q.T.T.Q.T.(.W.I.R.I.U.E.G.W.E.U.J.W.U.Q.W.W.E.K.W.K.W.U.U.U.H.K.U.W.U.^.X.M N N N N R N N R L R I E U R m c c c v c v v c v v m m < 5.!.W.H.H.H.H.W.U.U.W.W.W.!.E.!.",
"E.!.!.E.W.W.W./._.~./.!.!.!.!.!.W.!.!.!.!.!.~.!.~.~.!.~.!.~.~.!.~.!.!.~./._.| e A A Z Z M U U R R E I E E M c l e l e l c v c v v e Z = >.).(.!.~.!.R./.~.U.R.W.W.W.!.W.",
"!.E.E.!.W.W.!.I.m.C.V.V.C.C.C.C.B.B.V.V.C.C.V.V.V.V.C.C.m.V.C.C.C.C.C.C.C.m.;.' | | | | X.} A R R E R R R M c m b m m m m v v v v v m 9 $.A.B.m.m.m.V.m.P.W.W.W.W.R.!.W.",
"!.!.!.!.W.H.~.0.3 k k V k k D j k k k h D k a a 5 5 5 5 5 5 5 5 3 5 5 5 3 * m./.T.R.T.!.^.v.B E E E E U U E S U R R E E E c c v v v m z e p 5 5 3 5 p O l.W.W.W.W.!.!.R.",
"E.E.!.E.W.K.~.t.a Q Q F P H U U Y S Y P U Q F B B z B B B B z B z v B z s 3 m.~.W.W.R.R./.b.C E E R U U U U U E U R U U U M v c v l z v v z u u r m B % x.~.W.I.W.R.W.W.",
"!.!.W.!.!.I.(.u.s ~ E / E R R R R R R N I E I m x x x x Z x x n n x n n v 3 m.W.J.W.I.W./.c.h E E R Y Y Y Y E E E U P E U m v v v v v v v c v v v n z : x./.W.G.W.!.R.!.",
"T.E.W.W.W.J.(.u.s ~ E R U U R R R P R R R I I m x x x x x x m x m m x m b 3 m.!.K.Q.W.W./.c.h E / R Y Y Y Y U E U U R P P M c v v v l v l v v v x n m : c./.W.I.W.!.!.!.",
"E.!.W.!.W.J.(.y.r ~ E E R R R L R R I R R I I x x Z x Z x x x m m x m x u 3 n.!.E.W.W.W./.c.f Q E E P I Q U E U E U U U E b v v v v v z m v v v z x B % l./.W.I.!.!.T.W.",
"!.W.W.W.W.J.(.u.s ~ E R P U P R U U U R I E P m z z z z x Z m x z m x m v 3 m.~.W.W.W.W./.c.h E E P U E P U P U U P I U U m v c v z v v v l z z z m B % z./.I.I.E.!.W.W.",
"W.W.W.W.W.E.(.u.r ~ E E E U U U U U P R P E U m v m m z v z m z m z z v u 3 m.!.Q.W.!.!.(.c.V I E E Y U P U U U E P E P U M v v v v v v z v z z z m v % z./.W.I.W.!.W.W.",
"W.!.W.!.W.W.(.i.r ~ E E P R U U U I E P U U U v m v v m m m z m z m m m g 3 m./.!.W.E.E.(.c.V F U P E E E U E U E U P E U m v c c z z v z v z z z v g % z.!.W.U.E.R.W.T.",
"!.W.W.W.W.E./.u.s ~ E E U U U U U U U P P E P m c x m z z m m z m m z v y 3 n.~.W.W.E.W.(.c.s Q E Y E P E U U Y U U P P U m c v v v z v v v z z z z B % z./.W.G.W.!.R.!.",
"W.W.W.W.W.E.(.u.r ~ / E R U P E U P E U E U U m m v v z m v c m m z v v u 3 m.!.W.W.E.Q.(.c.V Q E Y P E Y U E U E U E U E m v c c v v v v z z z B z u % x./.W.I.W.!.!.!.",
"W.W.W.!.W.E.(.u.r E E E U P R U U U P R U U U v v v m z v v m c c m c m u 3 m.!.W.W.W.W.(.c.V F Y Y P Y E U U Y U E E U U m z c v v z z z z z z z z B % z./.U.I.!.!.!.W.",
"!.W.E.R.W.E.(.u.s ) E U U U U U U I E P P E U m v m m v m v c m m c m c u 3 m.!.W.U.W.W.(.c.h Q E U U Y E E E U U P E P U v c v v v v v z z z z z z B % z./.U.I.!.W.!.!.",
"R.W.W.W.W.W.(.u.r ~ / E P E U U U U I U E U U m m v v m v m m v v n m m d 3 m.R.W.Q.W.Q.~.c.h I E R U E E U E U E E E E U c v v c v z v z z z B z z s % l./.W.I.E.W.!.T.",
"W.W.!.W.W.W./.u.r W E R U U U U U U U U P E P l l c c z v c c v c v c v s 3 m.!.K.W.Q.Q.!.c.k I W E E U U U U U P E U U E z v v z v v v z v z z z z B % x.~.E.I.I.W.W.W.",
"W.W.W.R.!.E.(.u.r W E E U U U U U U U U U P P m m m c m c c v c c n v c m 5 c.^.T.T.P.I.Y.x.C F U E E U R U U U U E P E P z v z v v v z v v z B B z B % z.~.U.G.W.W.W.!.",
"W.W.W.W.E.E./.i.r ~ / E U U E U E U U U U U U P S U P P P R P P P P U P P S }  .{ { { { { [ Y Y T U U E T U U U H E E U U m v z v z v v v z z z z z B % x.!.U.H.W.W.W.W.",
"W.R.W.W.W.W./.i.r W E R U U E U E U U U U P U U E U P P U P R P P U P P P R L m m L L A U P R _ P U U U Y U H U P U P Y E v z v v v z l l z z B z z g % z.!.U.U.W.W.W.W.",
"W.!.W.W.W.I./.i.r W E R U U U E U U E E U U U E U U U U U U U R U U R U P U U I U E E U R R N U G H H U H Y E U Y E E Y P z v v z v v v z z z z z z v % x.~.U.U.W.W.U.!.",
"W.W.W.W.W.E.).i.r E E R E U U U E U U R R E E U E U P E P U U U U P U U P E F E E E U E U R R U G H H U U T U U Y Y Y E U v v v v v v v z v z z z z B % x.!.W.I.W.R.W.W.",
"W.!.W.W.W.E./.i.r E / E U U E R E U H U U E U U U U U U R U U U U U E U P I Q E I E T H U R U U U H U U H R U E Y E E P Y v z z z z v l z z z z z z B % z.~.U.E.W.W.W.!.",
"W.R.W.W.W.E./.i.s ) E E E E I E E U U U H R Y T E P U U U P U U U U U U U E U E E U U U U U R U U _ U G T Y U U Y P E U E z z v v v z z z m z z z v g % z./.W.I.W.W.W.U.",
"W.W.W.W.W.E._.w.1 Z m m m A x L E U Y T R R Y R U E U U E E U U E P E E U U E E E U E U H R U T N N U U U E E T E Q E Q E z z m v z z r l 9 9 9 9 8 0 o x.^.I.W.W.W.W.W.",
"W.!.W.R.!.E.(.k.| -.-.-.-.=.$.) Y U U U U R T U E U E U U E E U E Y Y U E U U U E U U U U E E U G H U U U L L L L L A P S z v l z Z z z ^ @.O.@.O...+.` m.R.T.I.U.W.W.U.",
"W.W.W.W.E.E.E.^.^.^.^.(./.!.^.$.Z T T G _ H N R R U U E E U E U U Y P E U E E U U U U E E U U E U R U U U m m v m l l l z l l m v l z , ,.R.U.R.R.R.T./.I.W.W.W.W.W.!.W.",
"R.!.W.W.E.!.E.!.E.E.E.E.W.Q./.-.Z E N G N M R U U E U U U U U U U E E E E U E U H U U U U U U E E U E U U m m m m z z z z v m l z l Z - >.W.K.K.W.U.!.W.W.W.W.W.W.W.W.W.",
"W.W.W.W.!.!.~.E.~.E.Q.E.W.W./.-.b Y N N _ N R R U E E E E E U E E U P U U Y U E R R E U U E E E U U U U U M l m v z m m z m v z z z Z < ,.!.Q.W.W.U.R.U.W.R.W.W.U.!.!.U.",
"W.W.!.R.W.!.!.!.!.E.E.!.T.E.^.>.A U U R R R R U U U U U U E U U R E E E Y Y Y R R E R Y E E U E E E P U P A l v v v z z z v z m m z Z < ,./.Q.U.U.U.R.W.W.W.R.W.W.W.R.W.",
"W.W.W.W.W.W.!.W.!.!.!.!.W.!./.-.M E E E R U U R R E E E E T T Y T E E E E W Y E T Y Y W E E E E E E E P U L l m v v m v v m m m z z Z < >./.Q.Q.!.!.!.!.!.W.!.W.W.!.W.W.",
"W.R.W.W.W.R.W.T.(.~.E.E.W.E.~.=.B ^ W W W T H U U ! W ^ ^ T T W Q T T ! ! T T T T T T ! T Q Q Q Q E Q E E S z b b b B Z m B B m B Z Z 1 ,./.Q.!.W.!.!.W.!.!.!.W.U.W.W.W.",
"W.W.W.W.!.W.W.W.E.!.E.^.W.Q.T.X.4 w q y q y q q t q w q q q q w q w w q w w q w q q q w w w w w w 6 6 w 6 : : $ @ $ @ @ @ $ $ @ @ @ : . *./.!.W.W.!.!.!.W.W.W.W.W.W.W.W.",
"R.!.W.W.W.R.W.W.W.W.W.W.W.W.U.l.p.i.d.a.a.i.a.i.d.i.i.i.a.a.i.i.i.i.i.i.i.i.i.i.i.i.i.p.i.i.p.i.p.i.i.i.a.i.i.i.r.i.i.r.r.u.u.u.u.u.p.0.z.^.!.!.!.!.!.!.W.W.R.!.W.W.!.R.",
"W.W.W.W.W.!.W.W.W.W.W.R.W.Q.U.~./././.^./.~./.^./.^./././././.)./././.(./.(./.~././.(././././.(./././././.!./.!./././.~././.(./.(.(./.(.!.~.W.E.!.!.Q.!.!.W.W.W.W.W.W.W.",
"W.W.R.W.W.W.W.W.W.!.W.W.R.E.W.E.I.E.W.E.J.J.J.J.U.U.J.J.G.K.I.I.W.J.J.J.E.E.J.W.E.G.W.E.G.J.J.G.E.E.E.I.I.G.G.J.W.W.W.W.W.E.W.W.E.Q.W.G.E.~.E.~.!.!.!.!.!.W.W.W.W.R.W.W.",
"W.W.W.W.W.W.R.W.W.W.W.Q.W.W.K.W.E.W.E.U.E.W.W.W.U.W.W.!.!.U.W.W.W.U.U.W.W.W.W.U.W.W.W.W.W.W.W.W.U.W.U.W.U.I.W.U.W.W.W.W.W.Q.W.W.W.W.W.W.W.W.W.W.Q.!.!.!.!.W.W.W.W.W.W.W."
};
