/* XPM */
static char *result[] = {
/* columns rows colors chars-per-pixel */
"84 84 154 2 ",
"   c #061D00",
".  c #173517",
"X  c #1F3F17",
"o  c #224016",
"O  c #25431D",
"+  c #2B4719",
"@  c #2E4A1C",
"#  c #1E4D2D",
"$  c #244222",
"%  c #2A4923",
"&  c #2A472B",
"*  c #244B2B",
"=  c #2A4D2D",
"-  c #3E5828",
";  c #264D31",
":  c #2C4B32",
">  c #2F5039",
",  c #2F5E3F",
"<  c #325332",
"1  c #375934",
"2  c #3D5D36",
"3  c #375B3D",
"4  c #3A5C3B",
"5  c #31603E",
"6  c #3C603D",
"7  c #435929",
"8  c #476335",
"9  c #4B6435",
"0  c #43623C",
"q  c #4C643B",
"w  c #4F693A",
"e  c #526B3E",
"r  c #56713F",
"t  c #63703C",
"y  c #355E42",
"u  c #3A5E43",
"i  c #375F48",
"p  c #2E644D",
"a  c #366144",
"s  c #3A6045",
"d  c #35634A",
"f  c #3B634A",
"g  c #3F684B",
"h  c #316650",
"j  c #3B6753",
"k  c #3D6850",
"l  c #3D755C",
"z  c #406545",
"x  c #4A6641",
"c  c #41664C",
"v  c #41694E",
"b  c #486F4F",
"n  c #526C41",
"m  c #586F43",
"M  c #4C734E",
"N  c #567142",
"B  c #5B7246",
"V  c #5A7D4F",
"C  c #456E53",
"Z  c #486E52",
"A  c #436F59",
"S  c #467356",
"D  c #487357",
"F  c #4A7856",
"G  c #45745A",
"H  c #497359",
"J  c #48785C",
"K  c #517655",
"L  c #557C56",
"P  c #597D53",
"I  c #51755A",
"U  c #567C58",
"Y  c #587B58",
"T  c #657E4F",
"R  c #657E51",
"E  c #417760",
"W  c #447962",
"Q  c #4E7C61",
"!  c #658057",
"~  c #6C8259",
"^  c #6A8D6B",
"/  c #718D6F",
"(  c #759165",
")  c #76956E",
"_  c #7C926E",
"`  c #7B9772",
"'  c #7C9C73",
"]  c #7B9C78",
"[  c #869263",
"{  c #879865",
"}  c #8A9E6F",
"|  c #819C75",
" . c #8AA16C",
".. c #98A96F",
"X. c #8EA97E",
"o. c #93A472",
"O. c #94A872",
"+. c #92AB7A",
"@. c #9AAE79",
"#. c #A4B27B",
"$. c #8BA881",
"%. c #96AF85",
"&. c #95B085",
"*. c #A0B383",
"=. c #A0B78B",
"-. c #A0B889",
";. c #A1BD93",
":. c #B6C98C",
">. c #A4C293",
",. c #AEC590",
"<. c #B0C593",
"1. c #B3CA96",
"2. c #BACE97",
"3. c #B5C79A",
"4. c #B3CA9A",
"5. c #BACF98",
"6. c #BBD394",
"7. c #B7CFA0",
"8. c #BFD9AB",
"9. c #C2D49C",
"0. c #C1D6A3",
"q. c #DAE7AD",
"w. c #D7E9AD",
"e. c #DCE8AE",
"r. c #CCE3B7",
"t. c #D1E4B0",
"y. c #DAE7B1",
"u. c #DAEBB1",
"i. c #DBECBA",
"p. c #DEF1B4",
"a. c #E1EEAD",
"s. c #EDF5AF",
"d. c #EBF8AA",
"f. c #F1F7AD",
"g. c #F4FAAF",
"h. c #E1EDB6",
"j. c #E2EFBB",
"k. c #E2F2B6",
"l. c #EDF6B3",
"z. c #EEFAB4",
"x. c #E2F0B9",
"c. c #E8F4BB",
"v. c #EEFCBC",
"b. c #F1F6B2",
"n. c #F1FAB7",
"m. c #F8FDB7",
"M. c #F2FBBB",
"N. c #FAFEBC",
"B. c #E5F7C1",
"V. c #EEFDC1",
"C. c #F4FFC2",
"Z. c #F8FFC3",
"A. c #F0FFCC",
"S. c #FDFFC8",
/* pixels */
"n.n.n.n.n.M.v.n.n.n.n.n.n.n.n.n.n.n.n.n.n.n.n.n.n.M.M.b.b.b.b.n.b.M.n.M.b.n.n.n.M.M.b.n.n.n.M.n.n.n.n.n.b.n.n.b.m.b.b.M.m.b.N.b.m.b.b.n.n.m.m.b.n.n.n.n.v.n.n.n.n.n.n.n.",
"n.n.n.n.n.n.n.n.n.n.n.n.n.n.n.n.M.n.v.n.n.n.v.M.n.n.M.m.m.g.m.g.m.m.n.n.n.m.n.n.b.M.M.b.b.m.b.M.n.b.m.b.m.b.m.g.b.m.M.m.b.m.b.b.m.n.n.n.b.m.b.m.b.n.n.n.n.n.n.n.n.n.n.n.",
"n.n.n.n.n.n.n.n.n.n.n.v.n.n.M.c.n.n.n.n.n.n.n.n.M.M.M.M.n.n.M.m.M.n.M.n.n.n.M.b.b.M.M.M.M.M.n.n.n.n.n.n.n.m.n.b.n.m.n.n.M.b.Z.N.M.b.z.z.n.n.M.n.n.M.n.n.n.n.n.n.n.n.n.n.",
"n.n.n.n.n.n.n.n.n.n.n.n.n.n.n.n.n.n.n.n.n.n.n.n.M.M.j.j.h.j.h.c.h.h.j.j.x.j.x.j.j.h.j.j.j.h.j.j.k.k.k.k.h.j.j.h.j.h.h.h.h.h.h.h.j.j.u.p.u.x.j.h.Z.n.n.n.n.n.n.n.n.n.M.c.",
"v.n.v.n.n.n.n.n.n.n.n.n.n.n.n.n.n.n.n.n.n.n.n.n.b.M...B ! ! R R R R R R R R R R R R R R R R R R R R T T T T T T R B m B m m m m N N N r N N e t q.n.n.n.n.n.n.n.n.n.n.n.",
"n.n.M.n.n.n.v.n.M.n.n.n.n.n.n.n.n.n.n.n.n.n.n.n.M.C. .6 D M Z Z Z Z Z H Z Z Z Z Z Z Z Z Z Z Z H Z b Z Z b b b Z I > u > > u 4 u 3 3 2 3 3 3 6 - q.n.n.n.M.n.n.v.M.n.n.n.",
"n.n.n.n.n.n.n.n.n.n.n.M.n.n.n.n.n.n.n.n.n.n.n.n.b.M.o.3 G H H G G G A A G E G G W A H A A G A A G G G A G G H H Z f j i i j i j f g s s d d a w u.v.n.n.n.n.n.M.n.n.n.n.",
"n.n.n.n.n.n.n.n.n.n.n.n.n.n.n.M.n.n.n.v.M.l.n.n.M.N.o.3 E G G G G H H H G H A H W H H A H H H G G D D D G S A H Z i i j i i i i s s a d f f 6 9 u.M.n.n.n.n.n.n.n.n.n.n.",
"n.n.n.n.n.n.c.n.v.n.M.c.n.n.n.n.n.b.b.n.z.z.z.n.l.N.O.5 E S D D H H H A H H Z H Z G H H H H H G H G H H G H A H A i f f i f i i s s 5 s s g 6 9 u.v.n.n.n.n.n.n.n.M.n.n.",
"n.M.n.n.n.n.n.n.n.n.n.n.n.n.n.n.n.z.b.n.b.z.z.z.n.C.X.a G G Z D Z H H H H H H H G H H H H H Z H H Z H H H D Z D Z f i u u s a y a s a s s d a 8 u.M.c.n.n.n.v.M.n.n.n.n.",
"n.n.n.n.n.n.n.n.n.n.n.n.n.n.n.n.n.z.z.n.z.M.C.M.V.A.X.a G G F D H Z H Z D H D D H H H Z D H D D Z H D H H Z Z D Z i u i a s s a s a a a d d 6 9 u.v.n.n.n.n.n.n.n.n.n.n.",
"n.n.n.n.M.n.n.n.n.n.n.n.n.n.n.n.v.n.k.9.0.0.8.5.8.0.) g J S S S A H H H D D D Z H G Z H D D D D H H D Z H H S D Z i i i d a a a a s s a s g 6 9 u.v.n.n.n.n.n.n.v.M.n.n.",
"M.n.n.n.n.n.n.n.n.n.n.n.n.n.n.n.n.N.:.@ 0 0 7 0 2 2 c F G S S S D D D D D D H H Z H A D D D H Z H A D D D S Z G C a a a a d a a a u y 6 u f u 9 u.M.n.n.n.n.n.n.n.n.b.M.",
"n.n.n.n.n.n.M.n.n.v.n.n.n.n.n.n.n.n.6.5 Q H I I F H I H D D S S D D D D D D H H Z H H Z D D H H Z H H D D D D Z C s a s s a s a a 6 s s y f u 9 u.v.n.n.v.n.n.n.n.n.n.n.",
"n.n.n.M.v.b.n.n.n.n.n.n.n.n.n.M.n.n.1.y E A H H H H H H F D S F G D D D H D D D H H Z H H Z D D D D Z D D Z S S C a s s a a s d s s s a u f 0 9 u.c.n.v.n.n.n.n.n.n.n.n.",
"n.n.v.n.n.M.n.n.n.n.M.n.n.n.n.n.n.n.6.y A W D H D D D D D S S S S D D D Z D D D H H H H D D D D D D D D D D D S S a s s s s s s s s u s a f u 9 u.M.n.n.n.n.n.n.n.n.n.n.",
"n.n.n.n.n.n.n.M.n.n.n.n.n.n.n.n.n.N.5.5 l F S G D D G D S D S G D D D D D D D D D D D D D D D D D D D D D D D D C i u u s u f u s u s s s s u 9 h.M.n.n.n.n.n.n.n.n.b.v.",
"n.n.M.b.n.n.n.n.n.n.v.n.n.n.v.M.z.C.5.5 l J F S D D S D D D D D D D D D D D D D D D D D D D D G D D H D D D D D Z s f s s s f u s 6 s s a g 4 9 e.n.n.n.v.n.n.n.M.n.n.n.",
"n.n.n.v.M.n.v.b.n.n.n.n.n.n.n.n.n.N.2.5 G S S F D D D D D D D D D D D D D D D D D D D D D D D D D D D D D D D D C u s u s u u u u s s s s f 4 9 u.M.n.n.n.M.n.n.n.n.M.n.",
"n.n.n.n.n.n.n.n.n.n.n.v.n.n.n.n.n.C.1.5 l G S D D D D D D D D D H H c f g c c c g k D G H D D D D D D D D G D D C f s s s u f s s s s 6 s f u 9 u.v.n.n.n.n.n.n.n.n.n.n.",
"n.n.b.v.n.n.n.n.n.n.n.M.n.n.n.n.n.C.1.5 l l F S D D G D D H D H H H u f f s s u f v G D D D D D D D D D D D D D Z i u u s u u f s 4 s s u f 0 9 u.M.n.n.n.n.M.n.n.n.M.v.",
"n.n.n.M.n.n.M.n.n.n.n.n.n.n.n.n.n.M.5.5 J G S S D D D D H F H D H Z u u s s u f u v D S F D D D D H D D D D D D Z f s f u f s u s s s s s f u 9 u.M.n.n.n.n.n.n.n.n.n.b.",
"n.M.n.n.n.n.v.b.n.n.n.z.n.n.n.n.n.N.5.5 l S S S H Z D D D H D H H Z f f f s s s f g D S H G D D G D D D G D D D C a u u s s u f u s u a s f s 9 u.c.M.n.n.n.n.n.n.M.n.n.",
"n.n.n.n.n.n.n.n.z.z.z.v.n.v.z.v.v.C.5.5 l F S F G H H D D D Z H D Z f u s a s s i g D D H D D D D D D D D D D D C s f u s s u u s s s s a f 4 9 u.M.n.n.n.M.n.n.n.n.n.n.",
"n.n.n.c.M.v.n.n.n.z.z.l.z.l.l.c.l.N.2.y l S S S G S S S H H Z H D Z s a s a f a d v S S F D D D D D D D D D F S C s u u f s f u s s s 6 a f s 9 u.c.n.n.n.n.n.n.n.n.M.v.",
"n.n.n.M.n.n.n.n.n.l.b.m.m.m.m.m.N.N.2., l S F S S F S G Z H D H D C f a a s s a s k S S F D D H D D D D D D D D C s f u u u s u a 6 s a a d 6 9 u.M.n.n.n.n.n.n.b.v.n.n.",
"n.n.n.n.n.n.M.n.b.m.z.a.w.w.w.q.w.c.1.y G F M S D D S S D H D D H C i s a f a s s g D Z D D D D D D D D D D D D C s s s u u s s s s a 6 d f s 9 u.v.n.n.M.c.n.n.n.n.n.n.",
"n.n.n.n.n.n.n.n.n.b.k.V M M M M M M M S S F F S S F H H D H Z Z H C f u s a s a s k D S D D D D D G D D D G D D C s s s f f u s s s s s s s 6 9 u.v.n.n.n.n.n.n.n.M.n.n.",
"n.n.n.n.M.n.n.n.n.n.p.! l l J S G G S S S S S S D D H S Z H D D S Z f s a s a s s k F S D D D D D D D D D D D D C u s s u u u s s s 6 s s f 4 9 u.M.n.n.n.M.b.n.n.n.n.n.",
"n.n.n.n.n.n.n.n.n.m.k.P l S F S S S S S S S S F S D S K D H Z D S S a a s a s s a g G D F D D D D D D D D D D G C u f s u f s s s s s s s f u 9 u.M.n.n.n.n.M.v.n.M.n.n.",
"n.M.n.n.n.n.n.n.n.m.k.P C F S S S S S S S S S D S D D D D H S Z Z C s s s a s d i g D D D D D D G D D D S D D D C f u u u f s u s s s s s f u 9 u.v.v.n.n.n.n.n.n.n.n.n.",
"n.n.n.n.n.v.n.l.b.m.k.L l S S S S S F D S F F S D F D D Z D D H D G f s f s s s f g D G H D D D D D D D D D D G C u f u s u u f s 3 s a s f u 9 u.M.n.n.n.n.n.n.v.n.n.b.",
"n.n.n.n.n.b.n.n.z.m.k.U A G H D S D D D D D D D D H F D D H D D H Z f u u u u f s v D S D D D G D D D D D F G D C u s s s f u u u s s s s g u 9 a.M.n.n.n.n.n.n.n.n.n.n.",
"n.n.n.n.n.v.n.l.z.N.k.Y A G H A S D D D D D D G D H D Z Z D D D H Z f u u f u u s k D D F D D H D D D D D D D D Z i u u s u u f s s 6 s s s u 9 u.n.n.n.n.n.n.v.n.n.b.v.",
"n.n.n.n.n.v.n.b.b.m.h.Y A G H H S S D D D D D F D Z C v C C Z C C Z u u u f s s f c D G D D D D D D D D D D D D C u s f s s u f s s s s a f u 9 u.c.n.n.n.n.n.n.n.n.b.M.",
"M.c.n.n.n.b.v.n.z.m.j.Y A G H G S D D D G D D D H H g i i u s u u u i f u u s s u c D D D D D D G D D D D D D D C f s u s u s u u s 6 s s f 4 9 u.M.M.n.n.n.n.v.n.n.M.n.",
"M.n.n.n.n.l.n.n.z.m.k.L A A H H S S F D D D D S D I c u u s s f f u u s f f u u u C S C D D D D D D D G D D D G C s u f s s u s s s s s u f 0 9 u.M.M.n.n.n.n.M.n.n.n.n.",
"n.n.n.n.n.n.n.l.n.m.k.U A H H H S S G D D D D D D H f u u s u u u u f s u u s s i g S S D D G D D D D D D D D D C s u s i s s s s 3 s 6 s f u 9 u.M.n.n.n.n.n.n.v.n.n.M.",
"n.n.n.n.n.v.l.n.z.m.k.U A G Z H S S D D D D D F Z I c u u u s s u s u u u s s s u g D D D D D D D D D D D D D D C f s u u f f u s s s s s f s 9 u.M.n.n.n.M.n.n.n.n.n.n.",
"n.n.n.n.n.n.n.n.z.m.k.L A H G H S S S S D D D S D H f i s s s s u f f s s s s i i C D D H D D D D D D D D D D D C u u f u u s u s s u a s f 4 9 u.M.n.n.n.n.n.n.n.n.n.n.",
"n.n.n.n.n.n.c.n.n.m.k.Y A H G H S F F S S S S F S D z s s a s s s s s s s s s s s g G C H G D D D D D D D D D D C s s u f s s s s s s 6 a f s 9 u.M.n.n.n.n.n.M.n.n.n.n.",
"n.n.n.n.n.n.n.n.b.m.k.Y A H Z H S S S M S F S M S D c a s s d s s u i s s u u s s C D D H D D D D D D D D D D D Z s u f u u u f s a s s a d 6 9 u.c.v.n.n.n.v.n.n.n.M.n.",
"n.n.n.n.n.b.n.n.m.m.k.Y A H H H S S S S S F S S S D g a s a a d f s s s i s u s u v D S F D D D D D D D D D D D C s u u f u u s s s s a d f u 9 u.v.n.n.n.n.n.n.n.n.b.M.",
"n.n.n.M.n.v.n.b.b.m.k.Y H G H H F S F S F S F S S D f a f a s s u s s u u f s u i v D S D D D D D D D G D D D G S u f u u u f u u s s s s f 3 9 u.v.n.n.n.n.n.n.n.n.n.v.",
"b.n.n.n.n.b.n.l.n.m.k.Y A H D G S F S S S S S F S H c u f a f a s s u s u f u f u C D Z D D D D G D D D D D D D C u u f u f u i s s u s i c u 8 u.M.n.n.n.n.n.n.n.n.n.n.",
"M.n.n.n.n.v.n.n.b.m.k.Y A G H F S S F S M S S S D D g y s s a s a s f u u u u f u g D G F D D G D D D D D D D D C f u u s s u s s u f s i i u 9 u.v.n.n.n.n.n.n.n.n.n.n.",
"n.M.M.n.n.b.b.n.b.m.j.Y A G H H S S D M S F F S S F g a s d s a s s s u s f u u i g G S H D D H D D D D D D D D C s f u s s s s f u u s i f u q u.M.n.v.n.n.n.n.n.n.v.n.",
"b.Z.n.n.n.b.b.f.f.m.c.I A A H S S S D D S D D D S S f a s s a s a s u f s s u s u C C D D D D D G D D D D G F D C s u s s u s s u u f i f i u 8 y.n.l.n.v.n.n.n.n.n.b.M.",
"M.M.Z.n.M.n.n.n.n.C.B.I A A W H S S F D D D G D D D g i f a s a s u s s s s s u u v D D H D D D D D D D D D D D Z u f u s u u f u u u f f i 4 q y.M.b.M.l.n.n.n.n.n.n.n.",
"b.c.M.h.w.w.u.u.u.u.r.I G D H D G D D G D D D D D D g y d s a s s f u u i s u f s c D G D D D D D D D D D D D D C s u s u f u u f i u i i f u 9 y.b.M.b.n.n.n.n.n.n.n.n.",
"M.b.C.@.- e e e n n x Z D S D D S D D D D D D D D D f u s a s a s s f u s s u u u C D S H D D D D D D D G D D D C u u s s s s s u u u u f i u 9 y.M.c.b.n.n.n.n.n.n.n.n.",
"b.M.C.%.6 F F b S Z K Z D D D G G D D D D D D D D D g y s f a s s s s s u s f u i g D G H D D D G D D D D D D D C f s s u i s s u f f u i j u q y.M.n.n.v.n.n.n.n.n.n.n.",
"M.m.C.&.a J l S S S D D Z H H D G F D D D D D D D D g y s s s a s u s u s s s u u C S S F D D D D D D G D D D D C u s s s f u u f u i u i f u 9 y.v.n.l.n.n.n.n.n.n.n.n.",
"m.f.M.&.a F F S S S G D H D D D G D D D D D D D D D g y f a a s a f f s u u u f u k S S H D D G D D D D D D D G C f u s s s u s u u f f f i u q u.c.n.n.l.n.n.n.n.n.n.n.",
"b.g.M.%.6 F F b S S S Z H D H D G D D D D G D D D D g i s s a s s u u u u f s i u c G Z D D D D D D D D D D D F C s u u u s f u f u u i f f u 9 u.M.n.l.n.z.n.n.n.n.n.M.",
"b.g.N.%.a F S F S S H H H Z H D D D D D D D D D D Z f u f s f s f f s f s s f u f C A F F D D D D D D D D D D D Z f f s f s i u u u i i i i 3 8 e.b.l.d.d.g.s.l.M.n.n.v.",
"n.g.C.&.s F S S S S D D Z D D D D D D D D D D D D H c s i u i u y u u i u y u a i g G H F D D D D D F D D D D D C s s u s u s f u i s s d d 6 8 i.C.Z.M.M.C.Z.n.M.n.n.n.",
"b.m.M.&.s F S S S S D D D D D D D D G D D D G D H Z Z c c c c c c g v v g g g g g Z S S D D G D D D G D G D D D S g v c v g v v f i u s s a s z $.=.=.=.=.*.*.9.Z.n.n.n.",
"m.g.M.&.s K S D S S S D D D D D D D D D D D D D D Z Z I H H H I H H I H H H H H H S D G C D D D D D D D D D D D C D H H H D D D v i u u s s d f * $ O $ $ &   [ C.b.M.M.",
"n.g.m.%.s F D D S S S S D D D D D D D D D D D D D D H H H H D D D D D D H D D F D D D D D D D D D D D D D D D D S G D D D D D D C u i u s a d d s v c c c A : o.Z.M.n.n.",
"n.g.n.&.6 F F A S D D D D G D D D D D D D D D D D D D H D D H D D D D D D D D D D D D D D D D D D D D D D G D D D D D D D D D G g i u u s d a d d d s s i j ; } V.M.n.n.",
"m.g.M.&.s H F H D G D D D H D D D D G D D D D D D D D D G D H Z H D D D D D D D D D D D D D D D G D D D D D D D G D D D D Z D D g u i u s a a a a y 6 s u i # | V.M.n.n.",
"n.g.N.&.u F F C C D D D D G D D D D D D D G D H D D D D D D D D G D D D D D D F D D D G D D D D D D D D D D D D D D D D D C D S v a a s s a a 6 6 s s z i p ; } Z.b.n.M.",
"n.b.C.&.u F G S D S D D D D D D D D D D D D D D D D D D D D D D D D D D D D D D D D D D D D G D D D D D D D D D D D D D D H D Z c a a s a a s s s u u 3 i h # } V.M.n.n.",
"m.g.M.&.s F S S S Z D D D D D D D S F D D D D D D D G D D D D D D D D D D D D D D D D G D D D D D D D D D D D D D D D D D D H C c i a a a a s s s u u s s h #  .V.M.n.n.",
"n.g.C.&.s F S S S S D D D D D D D D D D D D D G D D D D D D D D D D D D D D D D D D D D D D D D D G D D D G D D D D D D G H H H v y a 3 6 s s 6 s u u u s h #  .M.n.n.n.",
"n.g.N.&.s F F D b D S H D D D D D D D D S D D D D D D D S D D D D D D D D D D D D D D D D D G D D D D D D D D D D D D D Z H H C v y s a a s s s u u u u i h #  .C.M.n.n.",
"b.m.M.&.s F S S S S H S D D D D D G D D D D D D D D D D D D D D G D D D G D D D D D D D D D D D D D D D D D D D D D D D D D Z H v a 6 a s s 6 s f u u f d h #  .M.n.v.n.",
"b.m.M.&.6 F H F S S S D D F H S D D D D S D D D D S D D D D D D D D S D D D F S D D D D D D D D D G D D D D D D D D D D Z H D Z v a 6 s 6 s s s z u u u f h #  .C.v.n.M.",
"m.b.C.&.6 H H D S S D D D F S S D D D D D D S D D D D D D D G D D D D D D D D S D D H D S H H D D D D D D G D D D D D D D H D D v a y s a s 6 s u f u c f h #  .M.n.n.n.",
"b.m.N.&.u D H G S S D D D D S S D D D D D D D D D D D D S D D D D D D D D D S S D S H D S H D D D D D D D D D F D D D D G H D D v y u u s s s s u f g s d h *  .C.n.n.n.",
"n.d.Z.+.= C j c c c g g g c g g g g g g g g g g g g g g g g g c g g g g g g g g c v D D Z H D H G D D D D D D G H H H H D Z D D c s u u u s y c > : = ; ; y . { C.n.n.n.",
"b.b.z.,.( ] ] ' ' ' ' ' ' ' ' ' ' ' ' ' ' ' ' ' ' ' ' ' ' ' ' ' ' ' ' ' ] ' ] ] ] ^ c Z H H D D G D D D D D D D D C C v C S b C c s s s s c s s / _ ` _ ) ' ~ #.C.n.n.n.",
"n.z.n.v.v.v.v.v.C.v.v.v.v.v.z.v.v.v.v.z.v.v.v.M.v.z.v.v.v.v.v.v.v.v.v.v.V.v.V.v.V.;.u I I G H D D D D D D D D D D i i u a f a s a s s s d s 2 q i.V.n.c.v.v.v.v.v.n.n.n.",
"n.n.n.z.b.b.b.g.g.g.g.b.b.b.m.b.g.g.b.m.g.b.b.b.b.m.g.b.g.m.b.b.g.b.m.b.b.m.g.g.v.;.3 I I H D D D D D D D D D D G a a s s s i s s a s a d 5 6 9 y.m.b.m.b.z.z.n.n.n.n.n.",
"n.n.v.M.n.b.b.z.g.n.n.n.n.n.b.n.v.z.n.n.n.n.n.n.n.n.z.n.z.n.n.n.n.b.z.n.n.b.z.z.C.;.0 I I H D Z S S S D G D H D S s s s d s s f s a a d d s 0 9 a.n.n.n.n.b.g.n.n.n.v.n.",
"n.n.n.n.M.v.z.z.z.z.n.v.n.M.n.v.v.n.n.v.n.v.n.n.n.v.n.n.v.z.n.v.v.n.z.z.z.v.z.z.C.>.s K K Z Z D D D D D D D D D C y a u a a s a a a a a a a s 9 q.b.M.n.n.b.b.b.l.n.n.n.",
"n.n.n.n.v.z.z.z.z.n.z.n.n.v.n.v.n.z.v.n.z.n.n.v.n.n.v.v.n.n.n.n.n.n.n.n.n.z.z.z.V.>.6 K K D H F D D F S D D F D S a a s a s s s a s 6 5 a d s 9 y.M.b.l.n.n.b.z.n.n.n.n.",
"n.M.n.v.z.z.z.z.z.n.v.n.z.n.v.n.n.z.n.n.v.n.n.v.z.n.v.n.n.z.z.n.z.z.n.n.z.z.z.z.M.>.6 K K D K F K F K K I F K K S z z z c z s z z z z g g g z w i.M.n.n.n.n.n.b.z.n.n.n.",
"n.n.n.n.z.v.z.n.n.n.n.n.n.n.n.n.n.n.n.n.n.n.n.n.n.n.n.n.n.n.n.n.n.n.n.n.n.n.n.n.M.-.% 0 0 2 2 2 2 2 4 4 4 1 2 1 < O O O O O O O + O O O o X o + t.M.n.n.n.n.n.n.n.n.n.n.",
"n.n.n.n.n.n.n.n.n.n.n.n.n.n.n.n.n.n.v.n.n.n.n.M.n.n.n.n.n.v.n.n.n.v.n.n.n.n.n.n.V.t.3.7.4.4.4.4.4.4.4.4.4.7.7.5.3.3.3.3.3.3.3.3.3.3.<.3.3.3.2.;.B.n.n.n.n.n.n.n.n.n.n.n.",
"n.n.M.n.n.n.n.n.n.n.n.n.n.n.n.n.n.n.n.n.n.n.n.n.n.v.n.n.n.n.n.n.n.n.n.n.n.n.n.n.n.v.V.Z.C.C.C.C.C.M.C.C.C.Z.S.S.C.Z.Z.S.N.Z.N.Z.N.Z.Z.Z.C.C.Z.S.M.n.n.M.n.n.n.n.n.n.n.n.",
"v.n.n.n.n.n.n.n.n.n.n.n.n.n.n.n.n.n.n.n.n.n.n.n.n.n.n.n.n.M.n.n.n.n.n.n.n.n.n.n.n.n.l.l.z.s.s.g.z.s.b.b.l.z.b.b.s.b.b.b.b.f.b.b.l.b.b.b.f.n.M.b.N.n.b.M.n.n.n.n.n.n.n.n.",
"n.n.n.b.v.M.n.n.n.v.v.M.n.n.n.v.n.n.n.n.v.n.n.n.n.n.n.n.n.n.n.n.n.n.n.z.n.M.v.n.n.m.n.n.m.n.n.n.m.n.n.n.n.z.n.n.n.b.b.n.b.b.M.b.n.n.M.n.n.b.n.n.n.M.n.n.n.M.b.M.n.n.n.v."
};
