/* XPM */
static char *result[] = {
/* columns rows colors chars-per-pixel */
"74 84 147 2 ",
"   c #143A14",
".  c #193E22",
"X  c #24441E",
"o  c #2B4119",
"O  c #2A4A1F",
"+  c #1D4325",
"@  c #1C4A25",
"#  c #1C472B",
"$  c #254724",
"%  c #2C4C22",
"&  c #224B2F",
"*  c #2D4E2A",
"=  c #344E21",
"-  c #2D512D",
";  c #36532E",
":  c #2E5636",
">  c #2A5937",
",  c #26563D",
"<  c #2E553B",
"1  c #2B5A3B",
"2  c #315635",
"3  c #365935",
"4  c #3A5B37",
"5  c #31553C",
"6  c #335A3C",
"7  c #395D3A",
"8  c #34603F",
"9  c #445E2C",
"0  c #4A6030",
"q  c #2F5740",
"w  c #2E5942",
"e  c #365E44",
"r  c #3A5E45",
"t  c #375E49",
"y  c #3A5F49",
"u  c #366144",
"i  c #396145",
"p  c #36644B",
"a  c #3B634A",
"s  c #356A4E",
"d  c #3F6A4E",
"f  c #356352",
"g  c #3B6552",
"h  c #336854",
"j  c #3F765E",
"k  c #3E7663",
"l  c #3E7861",
"z  c #426444",
"x  c #4C6946",
"c  c #42674A",
"v  c #426B4C",
"b  c #4B6948",
"n  c #546D42",
"m  c #586D44",
"M  c #506C49",
"N  c #5C7346",
"B  c #53704B",
"V  c #5B7248",
"C  c #446D52",
"Z  c #467255",
"A  c #487356",
"S  c #45745A",
"D  c #497359",
"F  c #46785E",
"G  c #5F7F57",
"H  c #517859",
"J  c #5E7E59",
"K  c #607C4E",
"L  c #6B7F4B",
"P  c #657C50",
"I  c #687F53",
"U  c #617E5C",
"Y  c #417461",
"T  c #4D7760",
"R  c #437962",
"E  c #4A7A61",
"W  c #437B69",
"Q  c #447C70",
"!  c #5F805C",
"~  c #6D8253",
"^  c #64825D",
"/  c #718958",
"(  c #7C8E5D",
")  c #79905F",
"_  c #638462",
"`  c #6B8C66",
"'  c #6F916A",
"]  c #7A9164",
"[  c #889D66",
"{  c #889C6A",
"}  c #93A56F",
"|  c #8FA675",
" . c #8EA976",
".. c #92A673",
"X. c #91A874",
"o. c #9BAB73",
"O. c #93AA7A",
"+. c #96AD80",
"@. c #9AB88C",
"#. c #AAC186",
"$. c #ACC18A",
"%. c #B4C38D",
"&. c #BCCA8E",
"*. c #AEC693",
"=. c #ABC598",
"-. c #B4C692",
";. c #B4CA94",
":. c #B9CC95",
">. c #B1CD9E",
",. c #BFCD9D",
"<. c #B3CDA0",
"1. c #B6D0A0",
"2. c #BBD3A2",
"3. c #B8D3AA",
"4. c #C4D49D",
"5. c #CCDA9C",
"6. c #D4DE9F",
"7. c #C5D5A2",
"8. c #CAD7A1",
"9. c #C3DBA5",
"0. c #C8D8A2",
"q. c #C6DFA9",
"w. c #CBE4AE",
"e. c #D5EAB1",
"r. c #DEEDB4",
"t. c #DFF0B6",
"y. c #EBF6AE",
"u. c #EFF9AF",
"i. c #F2F7AF",
"p. c #F1F8AF",
"a. c #E1EEB8",
"s. c #E4F1B7",
"d. c #EDF6B3",
"f. c #EFF9B4",
"g. c #E4F2B9",
"h. c #EAF6B9",
"j. c #EEFBBB",
"k. c #F0F6B4",
"l. c #F1FAB6",
"z. c #F8FDB7",
"x. c #F2FBBA",
"c. c #F9FFBC",
"v. c #E4F6C0",
"b. c #ECFBC0",
"n. c #F3FFC2",
"m. c #FCFFC4",
"M. c #F8FFC9",
/* pixels */
"l.f.x.l.d.d.d.d.d.u.l.u.u.u.f.p.u.u.f.u.f.f.f.f.f.f.f.f.f.d.f.f.d.l.f.f.f.f.f.u.f.f.f.f.u.f.f.f.f.f.f.u.k.l.k.p.f.f.f.l.f.f.u.f.f.f.d.f.u.u.f.l.f.l.",
"x.x.l.l.j.f.l.l.l.p.p.l.p.l.p.l.l.u.p.l.p.l.l.l.l.p.p.l.l.x.l.l.l.l.l.l.p.l.l.l.l.l.p.l.p.l.l.l.l.p.l.l.k.k.l.l.p.l.l.l.p.l.p.l.l.f.l.l.l.l.l.l.l.l.",
"j.x.x.j.n.M.n.n.x.n.n.b.n.n.n.n.n.n.n.x.n.n.n.n.n.n.n.n.n.n.n.n.n.n.n.n.n.n.x.n.n.n.n.x.n.n.n.n.n.n.x.n.n.n.n.n.x.n.n.b.n.n.x.n.n.n.c.m.x.c.n.x.f.z.",
"x.x.x.0.=.3.<.>.>.>.>.>.>.>.>.1.<.<.<.:.>.>.<.<.<.<.<.>.<.<.<.:.>.<.<.<.<.<.<.<.<.<.>.>.>.<.<.<.<.<.<.<.<.<.<.<.2.*.;.*.*.;.;.;.;.-.*.-.:.*.*.,.d.x.",
"x.x.j.[ * r 3 ; 3 3 3 3 7 3 7 7 8 8 4 8 3 8 8 8 7 7 4 8 4 4 8 8 4 8 4 8 7 7 7 7 8 8 4 8 8 8 8 8 7 7 4 4 8 0 4 4 - X X X $ $ X X X X X $ $ X X = s.x.",
"h.h.n.X.z D H H A H A A H H H A H A B H A ! B A H A H A H A A H H A H A A H H A H A B H H B H A H A A A H A H H A d c a c c c c c c c c c c z M g.x.",
"j.j.b. .8 S F D A H H A Z Z Z Z Z B Z Z Z Z Z Z Z Z C Z Z Z Z M B Z Z Z M Z Z Z Z B Z Z B Z Z Z Z Z Z Z Z Z Z Z v a y e y y y y y y y y y y e b g.x.",
"f.j.b. .u l Y D A A A A A A A Z Z Z Z Z Z Z A A A A A A Z A A A Z Z A A S Z Z Z Z Z Z Z Z Z A A Z A A A A A B D C r y e r r r r y y z y y r r x g.z.",
"j.j.j.O.u j F S A A A A A A A A A A A A H A S Z A A A A A A A A Z A A A A A A A A A A A A A A A A A A D D A D B C r u r r r r 7 r r i r c r 6 x s.z.",
"x.x.n.X.u j F A A H A H H A A H Z Z A Z Z Z d ! A A A A Z Z A Z Z Z Z A Z A A A A A A A s ! A Z A A Z A A A A A C i u r r r e i r i i r a r e b s.z.",
"x.x.n.X.8 j A A A H A A A A Z Z A A A A Z Z Z Z A A A Z Z Z A A A A A A A Z Z A A A A A A Z Z A A A C Z A B A A C i i e i r i r r i i r i r e b g.x.",
"x.x.x.X.8 j S A A A A A A A A A A A A A A A A A A A A A A A D D A A A A A A A S Z A A A A A A A A A D D D D A A C r i e e e r e u y i r a y e b g.x.",
"x.x.x...8 F A A A D D A A A A A A A S A A A S A A A A A A A Z Z A A A A A A A A A A A A S Z A A Z A Z D A D A A C i i e y e r y a t i p p t t b g.x.",
"h.x.n...8 j S A F A D A A A Z Z A A Z A A A A A A A A A A A Z D A A A A A A A A A A A A A A A S A A Z A A D A A C u i e e y r e e r t i a t t b h.x.",
"x.x.x...u F F A A A D A A Z Z Z A A A A A A A A A A A A A D D A A A A A A A A A Z A Z Z A A A A D Z D A Z Z A A C i i u y r t r a p r p a t t b g.z.",
"x.x.x...8 F A A A A A S A A A A S A A A A S A A A A A A A A A A A A A Z A A S A A A A H A A A A A A D Z D Z A A A a a i y a a a a a a a g a a b a.c.",
"x.x.x...u S S S A D A A A A A S A A A A S A A A A A A A A A A A A Z S S S Z D S Z Z D Z D Z D Z Z D A D D D Z D C a a r a a y a a a a a g a t v g.x.",
"k.x.x...u S S A D A F A A A A A A A A Z A A S A D A A D A A A D A Z Z d C C Z d C C C C C C C C C C C C C C C C a 6 5 < < 5 q 5 w w w 5 q w w 0 v.x.",
"x.x.x...u S S A D D D D A A S A A A A Z A A A A A A A D D A A A C H _ ' ` ` ` ` ` ` ` ` ` ` ` ` ` ` ` ` ` ` ` ` ` U U J J U U U J U ^ ! ^ J J ` g.x.",
"k.x.n...u F S A A A A A A A A A A D Z u i i i i i r r i r r r r < ^ v.h.b.j.j.j.b.b.b.j.b.b.j.j.j.j.j.j.j.x.h.j.x.j.j.j.j.j.b.j.j.b.j.j.b.j.b.h.x.z.",
"x.x.c.X.u S D D A D Z Z A A Z Z A D C i i i r z i y i i z i i r < U h.p.l.l.f.p.k.k.k.i.k.k.k.p.k.k.k.i.k.k.l.i.i.k.k.l.k.l.l.l.l.p.l.p.l.u.u.l.k.k.",
"x.x.x.X.u F F A Z D A D D Z Z F A D C i i r r r r r i r r r i i < ^ s.p.l.l.l.u.l.l.l.k.d.x.z.l.l.k.l.l.l.l.l.l.l.l.l.k.k.k.l.k.f.l.l.p.f.l.f.l.k.z.",
"l.x.x.X.u F D A Z A A A Z A A A C D C i r r r r r z i i r r i i 2 ^ h.p.l.l.l.f.f.f.l.l.d.l.x.x.l.f.f.f.l.f.j.j.l.x.f.j.j.f.l.f.l.f.l.f.l.f.l.f.z.l.",
"l.x.x.X.u S F A D A A A A S A A A D C i r r z r i i r r i i i a 5 ^ h.i.l.l.l.l.l.f.f.f.x.h.x.h.j.j.j.j.x.j.j.j.j.j.j.j.x.l.j.l.f.l.f.l.l.l.l.l.k.x.",
"x.x.x...u j F A A A A A A A S A A S C u i i r r r i i r z r r z 5 ^ h.k.k.l.l.l.k.x.x.h.x.x.k.k.j.f.l.j.x.x.x.j.x.j.h.x.x.j.x.d.l.f.x.l.l.l.d.l.l.x.",
"f.x.x...u j S A A A A A A A A A A A C i r i z r r r i i i i i a 5 ^ x.i.z.l.l.l.x.b.x.x.k.x.n.x.x.x.x.x.x.h.x.l.l.x.x.j.x.l.x.x.j.x.x.j.l.l.x.l.l.l.",
"x.x.n...8 ! Z Z A A A A A A A A A D C r r r z r i i r i i i u a 5 ~ h.i.k.l.l.l.x.k.b.k.b.k.b.x.x.d.x.l.h.x.x.x.x.x.x.x.x.x.x.h.x.f.x.x.x.x.f.l.j.l.",
"f.j.x.| 8 j S j A A S A A S A A A A C u r r y r r i i i i u u d 5 ^ h.k.k.l.l.l.x.k.x.m.x.x.x.k.f.x.j.l.l.l.x.k.d.x.f.l.l.l.l.l.x.l.k.l.f.l.x.l.l.l.",
"x.x.n.X.u F ! j A A A A A A A A A A C i i i r r i i u i i u i a 1 ^ f.p.z.l.l.l.k.z.k.k.x.k.k.x.x.l.l.l.k.z.x.k.x.k.z.k.l.k.x.l.k.x.l.x.f.x.l.f.x.l.",
"l.j.j.X.u j S Z F A A A A A S A A A C u i r r z i i i i i i i a 5 ^ h.l.l.l.l.l.x.k.z.k.x.x.x.z.x.x.x.x.x.x.x.x.x.x.x.x.x.x.x.x.x.k.l.l.x.f.x.x.l.l.",
"j.x.j.X.u j j S A A S A A A A A A D C i i i r r i i i i u u i a < ^ h.f.l.f.l.l.x.z.x.z.z.k.x.k.k.z.k.k.z.k.z.x.k.z.z.k.k.x.k.x.l.z.l.x.k.x.l.l.x.d.",
"l.x.j.X.u ! j Z A A Z A S A A A C S C i i i a i a a i a a i a a 1 ^ j.p.l.f.f.f.i.z.k.k.z.k.l.z.k.l.k.l.k.k.k.k.k.k.k.k.z.k.k.k.k.l.l.l.l.f.x.l.l.x.",
"j.x.j.X.8 j ! s Z A A D A D D Z C A c e r r z r u i i i i i y y < ^ j.l.f.j.f.f.h.f.j.x.l.l.l.x.x.j.f.x.j.f.x.j.x.x.x.x.c.x.x.x.f.l.l.f.x.l.f.x.l.l.",
"l.x.j.X.8 j j j D D Z Z Z Z A A Z A C a u r r r i i u i i i i y w _ v.k.j.j.j.j.j.j.j.j.j.j.j.h.h.j.h.j.j.j.j.h.h.j.j.j.j.j.h.h.d.d.f.x.l.l.l.l.x.f.",
"f.x.j. .s j d ! A Z D A D A Z D Z Z A C C C C C C C C C C C C A g D ] ( ( ) ] ) ( ) ) ) ) ( ) ) / / / / / / / / / / / / ~ ~ I L 5.f.d.f.j.x.l.l.x.f.",
"j.x.f.o.8 j j j A D Z A D Z A D Z D A A D D A A D D D D D D A D T Z v z z v v v d d d d d d d d v 1 1 > : : : : : : 2 2 : 6 5   :.n.j.f.x.f.j.x.l.x.",
"l.x.b.X.u j j ! Z Z D A D A Z Z D D Z D A A D D A Z D A D D D D D D D D D D D D S k S S Y S S F D s s p p p a p p p a y u f h # >.c.j.j.j.x.x.j.l.x.",
"f.x.j.X.u j j Z D A D Z Z A D A D Z D Z A A Z A A A D Z A D D A D A T T D D D T T S S T D D F D D u u u u u u u p t t r e p f + ;.c.k.l.l.l.k.l.x.d.",
"x.x.x.X.u ! F S A A A Z Z D D Z S Z D A A D A A A D A Z A A Z D D D D D D D D D D T D D D D D D D a i u u u u u y r r r e a f + :.c.f.l.l.x.x.l.l.f.",
"f.x.b.X.u F A A S A A D D Z A A A A A A Z D A D Z Z A D A D Z A D A D D B D D D Z D Z D D Z A A A i u a a z i v a y z r a t g + :.m.d.l.d.x.d.x.l.x.",
"j.x.j.X.a j A A A A A A A A Z D A A A A A A A Z A D A A Z D A A D A A M A A A A A Z Z Z S A A A Z i 6 u 7 r e r a r z r r c g . 7.M.j.n.b.n.x.n.l.z.",
"f.x.x.X.u F ! S A A A D Z A A D A D A A A A A S A A A A A A A A A A Z D Z Z A A A A ! Z A A S D Z d d u a a i y a i r z 7 a g & @.w.9.q.q.w.q.e.j.z.",
"x.x.x. .u j j j A A A A D A Z Z A A A A A A A A Z A A A A Z D A Z Z C D S Z A Z Z Z j Z A A S S Z Z Z S S Z A C v a i i e u p e 3 O % % % % % 9 j.x.",
"l.x.j. .u j F S A A A A Z D D A S S S S S S S S D D D A Z D Z D S S Z Z A A A A Z Z Z Z A A A A Z Z A A A A A A C r u i r r a a z i i i z a i n d.k.",
"k.x.b.| u j F D A Z A A A A Z Z Z Z Z Z A Z A A Z D A A A A A A A A A A A A A A A A A A A A A A Z A A A C D D A C e u i i i i r a a y a c a y M s.k.",
"x.x.n...s F D D Z Z A A B A A Z A Z Z Z Z A A A B A A A A A A A A A A A A A A A B Z Z Z A S A A D S S D D D D D C e a u i r r a e r y r y a r x s.z.",
"x.n.n...y W T D j j S j A A j Z Z Z j j Z A Z Z A Z A A A A Z S Z S Z S S S S F Z Z Z Z D A A A D Z D D D D D D C t i y a y r r r e e r r y e x s.z.",
"k.d.M.O.t Q k W j ! l l l ! l l l ! ! l R F F F R R R R R R R R R R R R R R R R ! j j A Z A A A Z A A A D Z A D C e i i r i i r r e r r y a r n s.z.",
"k.k.j.{ $ w , 1 1 1 1 > > < > > 1 > > > > > 1 1 1 > 1 > , < 1 1 1 1 1 > 1 1 1 1 > v Z j Z Z Z Z D A Z A B D Z A b r u i r i r i r u r r a i y x a.z.",
"x.d.z.5.%.:.;.;.;.;.;.;.;.:.;.;.;.;.*.;.;.*.;.;.*.;.;.;.;.;.;.;.;.;.;.:.;.;.;.:.&.X.8 j Z Z Z Z D A A A D D A D C r i r r i r z r r r e a a y x s.z.",
"y.f.d.c.m.x.c.c.x.c.n.c.m.n.c.n.c.c.c.c.c.c.x.c.c.c.c.c.c.c.c.c.x.c.x.x.x.x.x.z.m.%.> ! B v d Z A A A A D A A A C r r i i r r r r r r r y a y b a.z.",
"l.l.x.j.l.d.x.f.l.l.l.l.l.f.l.f.f.f.j.d.j.f.j.l.f.j.f.f.l.f.j.l.f.f.f.f.f.f.f.l.z.$.> l d ! ! Z A A A A Z D Z D C r e i i i r r i r r a r y r x y.i.",
"l.l.l.x.d.f.l.x.x.f.x.f.d.l.f.l.l.l.f.x.l.d.d.l.j.f.d.l.l.d.j.k.f.f.f.f.f.f.f.f.z.$.1 R Z Z Z Z D A D Z D D D A C u i u i i i i z r r i y y t x s.z.",
"l.l.f.x.l.l.l.l.d.l.d.l.l.l.l.h.d.x.x.d.l.x.l.x.d.l.x.f.f.x.l.f.f.f.f.f.f.f.f.l.c.$.1 l Z Z Z Z A A Z D A A Z D C u i i i i i i 8 r i r y r t x y.z.",
"x.x.l.f.h.l.x.x.l.j.d.l.x.d.l.l.d.f.x.d.f.x.l.d.x.d.l.f.x.d.x.d.f.f.f.f.f.f.f.l.z.$.6 l Z Z Z Z A A A Z A Z D Z C r u i i i i u r r r r y y t x a.i.",
"l.f.l.x.l.l.l.l.l.l.x.l.l.l.x.l.x.l.l.l.x.f.l.l.l.x.x.l.l.l.l.x.f.f.f.f.l.f.l.l.c.$.1 R j Z Z Z D A A Z A Z Z D C u i i u u i i r r r r y y t b s.z.",
"l.l.l.x.x.f.l.l.l.x.f.l.x.l.l.l.l.l.x.f.l.x.l.j.x.l.l.l.x.f.f.x.l.f.l.f.l.f.l.l.c.$.6 l S Z Z Z D Z Z A Z A A D C e i i u u i i r r i i r y t x d.z.",
"x.x.k.l.l.x.f.x.x.k.x.l.f.x.f.x.x.l.f.x.l.l.l.l.l.k.j.x.l.l.x.k.f.l.f.l.f.l.f.l.c.$.8 l A Z Z S A A D D D D Z Z C u u i i i i u z 8 r i y y t x s.k.",
"j.l.l.z.l.x.x.f.l.l.l.k.l.l.x.f.x.f.x.l.j.l.x.x.l.x.l.l.x.f.k.x.x.l.l.l.l.l.l.l.x.$.u l Z A Z Z Z D A Z A Z D A C e i i u a i u i r r a y y y b s.z.",
"x.x.l.l.x.f.f.x.x.j.x.x.x.h.x.x.l.l.d.l.k.l.d.l.x.d.x.k.x.h.x.d.f.x.l.l.l.l.l.l.x.#.1 l Y D Z S Z A D Z A D Z A C r i u i u i i i u i i a y y b y.z.",
"k.x.k.l.l.l.l.x.x.j.x.x.x.x.j.x.j.l.l.j.d.l.j.f.h.d.x.h.k.x.x.x.l.k.l.k.l.k.l.k.z.#.1 l F A Z S D D A Z D A Z D C i i i u u i i 8 i i i r p t b s.k.",
"x.x.l.l.u.l.f.l.d.x.f.x.x.f.x.h.f.f.f.f.j.f.l.f.l.x.k.x.j.l.d.j.x.k.x.l.l.l.l.l.x.#.1 l Z Z Z Z A Z A D Z A D Z C u u u i i i u u i i i a t t b s.z.",
"l.l.l.l.l.l.l.l.x.x.j.h.x.j.l.l.f.x.f.f.l.f.f.x.f.j.j.l.x.h.j.l.f.f.x.l.l.l.l.l.l.#., l Z Z A S Z A Z D Z D A D C e i i i i i u u u e a t t t b s.z.",
"u.k.l.z.z.x.x.z.z.x.c.c.c.c.c.z.c.c.c.c.c.c.c.c.c.c.c.c.c.c.c.c.c.c.c.z.c.c.c.z.c.*., ! S Z Z Z D D Z A A D Z Z C r u i i i u a u u i u t a r x s.z.",
"l.p.x.6.4.0.4.4.4.7.7.8.0.0.7.4.8.8.8.0.8.0.0.0.0.0.0.0.0.0.0.0.8.8.8.8.8.8.8.8.8.+.a S Z Z Z Z Z Z ! j Z Z Z Z C u u i i a i i i u i i a e t b s.x.",
"f.l.x.} - p 8 u e e r r e e r e r u u u e r e u u i y e e a u u i r r u r i u u i v H E j Z Z Z Z Z Z A Z Z A Z d u u i i r r i u i u i y a t b s.z.",
"x.x.j.O.h ! S F k Y Y Y j k Y k Y k S Y Y Y Y Y S Y Y Y Y Y Y Y Y Y Y Y S Y Y Y S S F A Z j Z Z Z A Z A A A A A C u i i r i i i i i i i r p t b s.l.",
"d.l.c.| w R d Z Z S S S Z S Z S S S S Z S S S S S S S S S S S S S S Z F S S S D S S A A Z S S A Z A A A A A A A C u i i r r i r i u u i u e e b s.z.",
"k.x.n...w R S Z Z Z Z Z Z Z Z A Z Z Z D A A D Z Z D Z Z Z D C D A Z D Z D Z Z A S Z A D Z A S Z A A A A A A S A d u u i z r i r r i i r i r r x g.z.",
"k.k.m...p l S Z Z C D Z A A Z A C D Z C A A Z Z Z Z Z Z D C C D D Z Z D A A D D D A Z D Z D A Z S A A S A A A A Z u u i r r i i i i r y i i r x s.x.",
"k.b.n...u R Z Z A A Z Z C Z A A D C D A C Z Z Z Z D A C A A D A D A Z A Z D A Z Z Z A A A A D D A A A A A A A A C i r r r r u i z 7 0 c z z z m g.z.",
"k.k.x...u R Z Z A D D D S Z Z A D Z D D Z Z D D D Z Z A A A D Z Z A D D Z A D Z A D D Z D Z Z A F Z Z A A A S A a i i r 7 r u a ; o o o o o o 9 j.l.",
"k.h.m.| w W S Z Z D Z A A A D A Z Z A A D Z D Z D Z D A A Z D A Z D D Z D A D A D Z Z A D Z Z Z Z d a d d d d d a i i i r a i - +.7.7.7.7.7.,.7.x.k.",
"k.m.m.} p ! S Z Z A Z D A A A A D A A D D D Z D Z D A A A A D Z D Z Z D D Z Z A A A D A Z D D Z C d u u p u u u i i z r c i u @ 4.m.x.n.m.m.j.n.z.x.",
"k.k.b.| i E A A A A A D A D A A Z D D A A A Z D D D A D A D A Z Z D A A A A A D Z D D A D A A A A v u u u u u u r r r z a e u X %.c.k.k.k.z.k.k.k.x.",
"k.k.n.| i D D D A A A Z A A A A Z Z Z D C A Z Z C D Z Z Z D C D Z C A A A A C D C A D C A A A C A u s a u u u i r r y y a u s @ :.c.k.k.x.l.l.k.x.k.",
"k.k.m.| e F S A A A A A A A A A D Z Z Z A A Z Z Z Z C A Z Z Z Z Z Z Z A Z Z A A D Z Z Z Z Z Z A A d a a a a i a y y y y y y h @ :.c.l.f.x.l.f.x.l.l.",
"k.x.n...e k S A S Z A A Z S S A Z Z Z S Z S S C S S Z Z Z Z Z S S S S Z Z Z Z S Z Z Z S S S A A Z s p p u u p a y y t t y y f & :.c.x.l.x.l.x.f.l.x.",
"k.k.c.} 6 S C v C Z B Z Z A B Z A b Z Z Z B Z b Z A B Z Z C Z B Z M M Z C A Z B b Z A Z C B M Z v 4 4 7 8 8 8 8 r e r r y t r   :.x.d.d.f.x.l.x.l.l.",
"k.z.h.o.N K ~ K P P K P K I P P L P P P P P P P P L P P P P P P P P P P P P P P I L P K K G ~ ~ K K m N 0 N 0 N m m m m m V n 0 4.z.l.k.x.f.l.l.x.l.",
"u.l.x.s.r.s.s.h.s.s.s.s.s.s.s.s.a.s.a.s.s.s.s.s.s.s.s.s.s.s.s.t.s.s.s.s.s.t.s.s.s.s.t.s.s.t.s.t.s.t.t.t.r.r.r.r.t.r.t.s.s.s.s.t.x.x.x.x.l.l.f.x.x.l.",
"y.l.l.x.j.c.z.z.j.j.j.f.j.x.x.l.x.j.f.j.j.f.j.j.f.j.j.f.j.j.f.j.j.f.j.j.f.j.f.f.j.j.j.j.j.f.j.f.f.x.x.x.x.n.x.x.x.n.n.x.j.j.x.x.f.l.l.f.x.x.l.f.l.l.",
"f.l.k.k.c.c.p.p.l.l.l.l.l.l.l.l.l.l.l.l.l.u.l.p.f.l.f.l.l.l.l.l.l.p.l.l.l.l.l.l.p.l.l.l.p.l.l.l.y.l.z.f.f.f.f.f.x.f.l.f.x.f.f.l.x.l.x.x.f.x.l.x.l.x.",
"l.l.x.d.x.j.l.l.l.l.l.l.l.l.l.l.l.l.l.l.l.l.l.l.l.l.l.l.l.l.l.l.l.l.l.l.l.l.l.l.l.l.l.l.l.l.l.l.l.l.l.l.l.l.x.l.l.x.l.l.l.j.x.l.x.l.l.x.l.f.l.x.f.l."
};
