/* XPM */
static char *result[] = {
/* columns rows colors chars-per-pixel */
"84 84 178 2 ",
"   c #001800",
".  c #0F2800",
"X  c #0E2A0C",
"o  c #1A3919",
"O  c #223E1E",
"+  c #254416",
"@  c #24421C",
"#  c #28441A",
"$  c #2B4C1C",
"%  c #1C4423",
"&  c #1F4A2B",
"*  c #244425",
"=  c #294726",
"-  c #2E4C22",
";  c #244628",
":  c #2B4729",
">  c #294A28",
",  c #314F23",
"<  c #2C512E",
"1  c #335224",
"2  c #38572F",
"3  c #2B4E33",
"4  c #2B5134",
"5  c #275B36",
"6  c #2A5937",
"7  c #2C5339",
"8  c #275A3A",
"9  c #2E5A39",
"0  c #305035",
"q  c #3D5E36",
"w  c #355939",
"e  c #345B3C",
"r  c #395D3A",
"t  c #3E613E",
"y  c #435A30",
"u  c #4F693A",
"i  c #536D3D",
"p  c #2E5B42",
"a  c #355D43",
"s  c #3A5F45",
"d  c #395E48",
"f  c #2D634C",
"g  c #366144",
"h  c #3A6145",
"j  c #35644B",
"k  c #3C644A",
"l  c #37694F",
"z  c #3E6A4C",
"x  c #316653",
"c  c #386750",
"v  c #336856",
"b  c #3E6E52",
"n  c #3D785D",
"m  c #3F7461",
"M  c #3F7B63",
"N  c #426545",
"B  c #436946",
"V  c #42654A",
"C  c #426B4D",
"Z  c #4B6E4C",
"A  c #556F43",
"S  c #586F41",
"D  c #4D704D",
"F  c #567143",
"G  c #597042",
"H  c #537348",
"J  c #5D764C",
"K  c #436D51",
"L  c #486D52",
"P  c #477256",
"I  c #487357",
"U  c #46735A",
"Y  c #497459",
"T  c #487A5D",
"R  c #537553",
"E  c #587755",
"W  c #547957",
"Q  c #5B7B55",
"!  c #50775A",
"~  c #5D7B5A",
"^  c #647E4E",
"/  c #6A7F4F",
"(  c #667E52",
")  c #687F53",
"_  c #637D5B",
"`  c #437561",
"'  c #497661",
"]  c #427A60",
"[  c #4A7963",
"{  c #6D824C",
"}  c #648052",
"|  c #6C8353",
" . c #708553",
".. c #758D5C",
"X. c #7B915E",
"o. c #658763",
"O. c #6A8762",
"+. c #6D8C66",
"@. c #6A8E69",
"#. c #718B65",
"$. c #708D68",
"%. c #7A9160",
"&. c #73926B",
"*. c #78926E",
"=. c #779A71",
"-. c #7B9B71",
";. c #7BA17D",
":. c #83935C",
">. c #849A6C",
",. c #8A9F6E",
"<. c #899E70",
"1. c #93A66D",
"2. c #80A077",
"3. c #8EAD7E",
"4. c #94AA77",
"5. c #94AB7E",
"6. c #94AC81",
"7. c #9AAF84",
"8. c #9AB383",
"9. c #97B589",
"0. c #9FB68A",
"q. c #9EBB8D",
"w. c #A3B783",
"e. c #A0B78B",
"r. c #A1BB8D",
"t. c #A4BE91",
"y. c #AEC18D",
"u. c #B6C98E",
"i. c #ABC697",
"p. c #B1C695",
"a. c #B5C992",
"s. c #BACC92",
"d. c #B3CC9E",
"f. c #BACC9E",
"g. c #BDD39C",
"h. c #B4CEA1",
"j. c #B8CCA3",
"k. c #BBD3A3",
"l. c #C4D59D",
"z. c #C9D49C",
"x. c #C1DA9F",
"c. c #C8D89F",
"v. c #C3D5A1",
"b. c #C5DAA6",
"n. c #CCDDA3",
"m. c #C6DBA9",
"M. c #C9DEA9",
"N. c #C5E0A5",
"B. c #D8E6AA",
"V. c #D7E8AE",
"C. c #DAEBAE",
"Z. c #D6E7B4",
"A. c #D6EAB5",
"S. c #DDEDB4",
"D. c #DEEDB9",
"F. c #DFF0B5",
"G. c #DEF3BA",
"H. c #EDF3AD",
"J. c #F0F7AC",
"K. c #F3FAAE",
"L. c #E0EEB5",
"P. c #E2F1B7",
"I. c #EEF6B3",
"U. c #EEF9B4",
"Y. c #E3F2BA",
"T. c #EAF6BA",
"R. c #EDFABB",
"E. c #F1F7B3",
"W. c #F1FAB5",
"Q. c #FAFBB5",
"!. c #F2FBBA",
"~. c #FAFEBD",
"^. c #EBF6C0",
"/. c #E7FBC4",
"(. c #EDFCC1",
"). c #F3FFC2",
"_. c #F9FFC3",
"`. c #FAFFC8",
/* pixels */
"W.W.W.!.!.W.W.!.E.E.W.W.W.E.U.W.U.W.W.W.W.W.W.!.W.W.!.W.W.W.W.W.W.W.U.W.W.W.!.W.W.W.W.W.W.W.W.W.W.W.W.W.U.W.W.W.W.W.W.W.W.W.W.K.W.W.W.W.W.W.W.W.W.W.W.W.W.!.W.!.!.E.R.W.",
"W.W.W.W.W.W.!.!.W.R.E.E.U.U.I.I.U.J.J.U.U.U.W.W.E.E.U.U.J.U.U.J.J.U.J.U.U.U.U.U.U.U.U.E.J.U.J.U.U.J.U.U.J.U.U.U.U.J.U.J.U.J.U.U.J.U.U.U.U.U.R.W.W.W.R.!.W.W.W.!.W.R.!.W.",
"!.W.R.W.W.W.W.W.W.W.W.E.W.W.E.U.U.W.U.U.W.U.W.W.U.W.W.W.U.W.U.U.W.U.W.W.W.U.E.W.W.W.W.U.W.U.K.W.U.W.K.U.W.K.K.W.K.U.W.W.W.W.U.K.W.W.W.W.W.U.W.W.W.!.R.E.!.R.W.W.R.W.W.W.",
"W.W.!.W.R.!.W.W.W.W.!.).R.(.(.).R.).(.(.!.).).).).).).!.).!.!.R.).!.!.).).).).).(.).).).).).).R.!.).).!.(.).).R.).!.!.).!.!.!.!.!._.!.!._.).).).!.W.W.!.E.!.W.W.E.W.W.!.",
"R.W.R.W.W.W.W.W.U.!.Y.p.d.h.h.h.d.d.h.h.h.d.d.d.h.h.d.d.d.d.d.d.d.i.d.d.h.h.h.h.d.h.h.d.d.d.d.d.h.h.d.d.d.d.d.d.k.p.p.p.p.p.p.p.p.p.p.p.f.j.j.j.T.Q.!.Q.!.E.W.W.W.W.W.W.",
"W.W.!.W.!.W.R.W.I.!.Z.y t t t 9 t t 9 t 9 t t t r r t t t t t t t t t t r r r r t 8 t 9 t 9 t t r t t t 9 t 9 t < * * @ @ * @ @ O O @ @ O O O y Y.Q.E.E.W.E.W.W.E.W.W.W.",
"!.W.W.W.!.!.!.W.E.`.D.J I I T P Y ! ! Y } n ! I ! I R I P R I R Y I I W R R Y R D } W I Y R ! W Y ! Y Y T I } P I z k V V k V k V V V k V L s _ T.W.E.Q.W.W.W.R.R.W.W.W.",
"R.R.W.W.R.W.R.W.U.!.D.F D P n U P P P P P b P D P P P P P P P P P P P P P P P P P P P P P P D P P P P P P P n b C k k d s d s s a d s s d s a W Y.Q.R.W.W.W.W.W.W.W.W.W.",
"!.W.U.!.!.W.U.W.E.^.Z.F I Y U U U U U U U P I I P P Y Y I P I I P I I I I I P I I I I I I I P Y P P n b I I P I C k h s s s s s V d s s d h a R T.W.E.!.W.W.W.W.W.W.W.W.",
"U.!.W.!.W.W.U.U.E.!.A.F I Y U U U U U U U I I I Y Y P Y I I I I I I I I P P P P I Y I I P P P P P P P } I P P I C s h r s s s s s s V d h h a R P.W.W.W.W.W.W.E.W.W.W.W.",
"!.U.U.U.W.K.U.U.J.!.C.F I Y Y Y U Y Y I I P I I P I I D I I I P P P I I b n I I I I I I b n I I P I I P P P P U C g s a s d s s k s s s k j d R U.U.E.E.W.W.Q.E.W.W.W.W.",
"U.!.R.R.R.R.R.R.T.R.A.H D I U Y Y L U I I P I I D I I I I P I P D T D I } P P I I Y D I } P P I P P I I I P P Y K k g s s s d N d d s V g k a R G.U.!.^.).^.^.~.W.W.W.E.",
"!.U.).w.*.;.=.=.-.;.@.D I I I I I I I I Y Y I I Y I I I I I I I T P P Y I P Y P I I P Y P Y Y P I I I I I Y P P P P K L L K K K V s d h k k h h &.&.$.&.*.*._ t._.E.U.E.",
"R.U.T.>.7 c z k V k K I I Y I Y Y I Y Y Y L ! I Y Y Y I I Y Y I Y P I I P Y P Y I I P Y Y P P P I I I I P Y I P P P P I P P L U V V d s s s h s 5 4 4 4 0 w X 6.).E.U.W.",
"U.R.(.2.k [ Y ! W W Y L P P I P I I I I L I L I I I P I I I I I P P I P Y P Y P I I I P P P Y P P n I I I I P Y P P P P P P Y L C h d k s V s k B k k k V V = 7.).E.U.W.",
"U.R.!.,.V [ Y Y I Y I I Y I I I I I I I I I I I I I I Y I Y Y Y Y Y Y Y ! P Y P I Y ! P ! P Y Y P n } I I Y Y P Y P I U P U L Y V h d s s s k k a a a a d V : 5.).E.J.W.",
"R.U.(.2.h Y Y I I L I I Y I I I I Y I U I I L Y L Y Y Y Y Y I I I I P P Y Y Y Y Y I Y P P U Y Y P Y Y I Y Y Y Y I P P Y I P I Y V g s s s N s s k s s d d N : 5.).K.U.W.",
"U.R.R.,.h T Y I R I I I I I I I I U I I I I Y I I Y Y L Y L I Y ! Y Y Y Y Y Y Y ! T Y Y Y ! Y Y Y Y I Y Y Y Y I P Y Y P P Y P P k s s s s s k s s s g a d V : 5.).W.U.W.",
"U.R.R.,.k ` Y L ! L I I I I I Y I I U I Y L I L L Y I I Y Y Y I P C z z C K C c z z C K K z z z P P Y Y Y Y Y I I P I I I P Y I k k s s V s s s g s s s d V : 5.).E.J.U.",
"R.U.R.2.h U Y U L I I I I Y I I I I I I Y Y Y Y I I I I L Y I I P W o.&.+.+.#.O.+.@.+.@.+.@.+.+.} R P Y Y Y I I I Y Y P Y Y I I V s s s s s V d h s g a d V : 5.).E.U.W.",
"R.U.R.<.h U Y Y I R L I I Y P I P Y b g d s s s h s h h g a t g 4 +./.U.R.!.!.!.!.R.R.R.^.R.R.R.G.} C Y Y I I I I P Y P P R P P k k r s h h s d s h t s s V : 5._.W.U.W.",
"U.T.(.<.k Y U Y I L Y I P P Y I P I K k d s h s h s h s g k g g 4 O.R.K.Q.E.E.E.E.Q.E.K.E.E.K.E.F.J L ' Y I I I I Y P P I P I P k k d s N h s V s s h s s V ; 5.(.W.U.W.",
"U.R.(.<.k ` Y I I R I I Y P I I P Y K g h h s h h h h h g h t g 4 +.R.K.E.W.E.W.W.W.E.E.Q.E.E.E.G.} C [ U U U U Y Y P U U U Y I k g d d V d d s h s h s s s : 5.).W.U.!.",
"R.U.!.<.h U U L I I I I Y I I I P I L h s s h h h s h h h g h g 4 +.R.K.E.!.W.E.R.W.E.!.^.E.Q.E.F.Q L Y U U U U P P T P U P T I k k d s d s V h h h k s a N : 5.).W.U.U.",
"U.R.R.2.k U U L Y I I L I I Y U P Y K k h s h h h h h s h h g g 4 +.R.W.W.!.R.!.!.T.!.!.^.Q.!.!.G.} P n Y P I U T Y P P Y P T P k k r s a a d s s s s g g V * 6.).R.!.!.",
"!.U.!.,.k U Y P I I Y Y P Y P I P Y C a h h h s h s h h s h t s 4 +.R.K.W.R.R.!.!.!.^.W.!.!.!.!.D.} I } ! ! ! ! ! ! ! Y ! ! ! ! C V k V V N h V N N V V V Z - 7.).W.!.!.",
"W.U.R.<.k U U P L I I I P I P I P Y K g h s h s h h h s h h g t 4 $.!.K.W.W.!.!.!.!.!.E.E.!.Q.^.G.u t 9 t e r r t t t t w t t t > * @ * O O = O * = * ; @ *   5.(.!.R.^.",
"W.R.R.<.k U Y P ! R Y L Y P Y I P Y z k h s h h s s h h s h h s 4 #.R.Q.W.R.W.W.!.E.!.!.W.W.E.!.Y.y.9.q.q.q.r.q.9.q.9.q.q.q.q.9.t.0.0.0.e.e.e.e.e.e.0.q.9.9.9.g.R.!.!.!.",
"W.R.^.,.k U U P I I I I I I I I P Y K g k g h h h h h h s h g h 3 $.^.Q.W.!.W.Q.W.!.E.!.!.Q.Q.W.~._.).).!._.!.~._.!._.!.W.!.).!.!._.)._.)._.).).!.).(.).).).).).W.W.E.R.",
"E.U.R.,.g T U P I I I I I I I I P I C g g s s h s h s h s t g h 3 $.^.W.!.W.W.W.Q.W.!.E.E.W.W.R.E.W.R.U.E.K.E.K.K.K.E.E.K.K.K.W.E.E.W.E.E.E.W.W.W.E.W.U.U.W.U.W.R.W.E.U.",
"U.U.R.<.k T U P I I I I I I I I P Y K k s h h h h h h h h h h s 3 #.^.Q.W.!.!.R.R.W.!.!.!.!.!.!.T.U.E.U.U.I.U.U.E.I.U.E.U.U.U.U.U.W.E.U.U.U.E.U.E.E.U.J.W.W.U.E.E.W.U.E.",
"W.U.R.<.h T U P I I I I I I I I P Y K g h s h s h s h s h r k g 3 +.^.E.W.W.W.W.E.T.I.!.!.!.W.W.E.W.W.R.W.E.R.W.W.W.W.W.W.W.W.R.W.!.!.W.!.W.!.W.W.W.W.U.W.W.W.E.W.U.E.I.",
"E.R.!.<.g T U P I I I Y I U L U P Y K g s k k s h h h h g g h h 3 +.!.E.I.I.I.I.U.U.I.U.U.U.U.U.U.!.U.W.W.W.W.W.W.Q.E.W.E.W.W.E.U.W.!.W.!.W.!.!.!.Q.W.W.U.W.U.U.U.W.E.E.",
"E.E.R.,.h T U P I I P P I Y Y I P P z a s s d k h h s g t g k g 7 O.^.W.R.U.R.U.R.U.U.U.U.U.R.U.U.R.!.!.!.!.!.!.!.!.!.!.W.!.W.W.W.W.W.!.!.!.!.Q.!.W.!.W.W.U.W.K.W.U.Q.E.",
"W.E.!.<.h T U P I I I I I I I I P P z k s g s s h h k s g g k g 7 #.T.J.T.T.T.R.T.T.T.T.R.T.T.T.(.R.R.T.R.R.R.R.!.W.R.U.U.R.R.U.U.U.R.R.!.!.!.!.!.!.!.R.W.W.W.W.W.U.W.W.",
"W.R.R.,.h ] U P I I I I I U I I I P P K L L L L L L L C P Z C P L L >.X.X.%.%.X.%.%.%.%...%.%.%.%...| { |  .| |  . .|  .|  .| { c.R.R.R.!.~.!.!.!.!.W.R.W.W.K.E.U.W.E.E.",
"W.U.R.<.j T U P D P Y P I I I I U I I I I I I I Y I Y L I I I I Y L N t z z z z z z z B C z z z z 9 9 9 < 4 < 4 < 4 < < 6 6 4 o l.!.R.U.W.!.W.R.Q.!.!.!.R.E.E.E.W.W.W.W.",
"W.U.R.,.g T U P I P P Y I U I U I I Y P I I Y P I I Y Y I I I I I I I U P n T n T ` T n T n P T U l l l j j j j f j j k h j v & l.Q.R.R.W.W.W.!.!.!.W.!.W.W.W.W.!.R.W.W.",
"E.U.R.<.h T P I I I I Y I I I U I P I P I I P Y Y I P Y I P I I Y Y Y Y Y Y T T T Y Y T T Y T Y U g g g g j g j g j k g k j v & z.W.W.T.W.W.W.W.!.!.!.!.!.!.W.W.!.U.U.W.",
"R.U.R.,.h T U I D I I P I I I I I Y P Y U I I I P P Y P I I Y P Y Y U U U Y P P Y I I P P P P P P g g h g t g t t g s g g g x & z.Q.W.U.!.W.W.R.W.!.Q.!.!.W.Q.W.W.!.W.U.",
"W.U.^.<.k ` U P I I I Y I I I I Y P Y I P Y P I I I Y Y P Y P Y Y Y Y I Y U P P P I U I I P I I ! h r g h h h g g h g h g a x & l.Q.W.U.U.W.!.W.W.!.W.W.W.W.E.W.W.W.U.!.",
"W.U.R.<.k U U U I I I Y I I I I Y I P I Y P P Y P Y P P P I Y P L Y I I Y Y T U P P I I I I I I D k a t t a t s s r s s g j f % m._.R.!._._.).).`.).`.).!.!.!.U.U.U.W.U.",
"U.U.R.<.k ` U U I I I U I I I U P U I I P Y I I P I Y P Y Y P I U I Y I P Y n b Y P I I I P I I P z k k k z V k k B C V z b c 5 y.N.g.n.N.m.N.M.M.M.M.M.Z.N.b.C.R.U.U.W.",
"W.U.R.<.s ` U U I I I Y Y U I I I I I I I I P Y Y I P Y P P Y I I I I I P P P n P Y P I Y P I P P P I P Y I ! Y Y Y Y Y Y I P P t $ $ , $ - - - - , - , - 1 . 4.R.U.W.W.",
"W.T.R.<.k ` U U I I Y U I P P Y I I I U P Y I P I I I P L I L Y I I Y P P P P } Y Y P P P I Y U U U I I I I I I I I I I P I P P V N N N N N N N N N N N s B = 6.R.U.U.W.",
"W.I.R.<.k U U U Y I Y Y I Y I I I I I I Y P P Y I I Y P P U Y Y I I P Y T P P P P P P P I I I Y Y P I P I L L Y I I I I P I P P V V s V V V V V s k s s s V * 6.R.W.W.U.",
"W.U.R.<.s ` U U I I Y U U I Y P P Y Y P Y I I Y I Y Y P P P U U P P P P P P P I Y P P P Y I Y I Y P I I I I Y L I I I I I I P P V d d N d s h h d d s s d V : 6.U.K.U.!.",
"W.U.R.<.k ` U U I I Y Y I I I P Y P I I P I I I I P P I D P U Y P P n n n P P I T U P T Y Y Y U P T D I I I Y I I Y I I I I I I V s s s s s s s s V s s d V : 6.R.W.U.W.",
"W.U.R.<.k ` ` U I I Y Y L Y Y Y Y I P P I Y Y ! L Y Y Y Y Y Y I U b n M ] ] ] T ] ] ] ] n M ] ` n n P P I Y Y I ! L I I I Y I L k k r s s s s d s d d s s V : 6.!.K.E.R.",
"W.U.R.<.d ` ' I Y I U Y ` L L U P Y Y I I L L I L Y L Y L L L Y I P 9 5 8 4 5 7 6 6 6 5 5 5 p 7 g P P D Y L I Y ! Y I I I I U I V s s s s s s N s N s s s V O 6._.Q.U.W.",
"E.U.R.<.k ` U I Y Y ' ' Y I Y U L Y L b K C K V L V L V V L K L k ~ p.u.a.a.a.a.a.a.a.a.a.a.a.a.i.J P P Y I I I I I I I U I U L V g s s s h h s s s N d s V : 6.).E.U.W.",
"W.T.R.<.d ` U U L Y L Y U I I I U I b 9 s s s a s d d d d d s d 4 #.`.~.~.~._.~._.~._.~.~.~.~._.P.} C U Y I I Y I ! I I I I I I k s s s h h h s s s s s d V * 6.!.W.W.W.",
"W.T.R.2.k U U U Y L Y Y I U I I P Y K a s s s h s s h h s h s s 0 #.!.W.W.R.W.R.W.W.W.R.E.!.E.^.G.} K U U U I P I U I I I I I I B d k s s h h h s N V d s V * 6._.W.E.W.",
"U.U.R.,.k T U U I I U U I I I I P Y C a s h h h d d s h h h t s 4 #.(.Q.W.W.W.E.W.E.W.E.!.E.E.E.Y.} D U U I Y I I I I I I I I I k a k s h h s h s d s t s V * 6._.E.U.U.",
"U.R.R.,.g T U U Y I Y Y I I I I P I K a s g s h s s s h h h t h 3 #.(.W.R.E.W.U.R.W.R.E.!.E.Q.^.Y.} C U P P P P I I I U I U I I V d h s h s h s s s s h s V = 6._.K.W.W.",
"U.U.R.2.k ` U U Y L I U I I I U P Y b r s h h h s s s h s s s h 3 #.).Q.E.R.W.E.W.E.R.W.E.Q.E.E.Y.} C T U P P P I I I I I Y I I V s k h h h h s s s s h s V * 6.!.Q.U.U.",
"U.U.T.<.d ` U U Y Y Y Y U U I I P Y K a d g h s h s s V s s h s 4 $.R.W.W.!.W.W.R.W.W.R.W.W.E.!.P.} C U U L U I U I I I I I U I k s h h h h h h s h h h d V * 6._.E.E.!.",
"U.R.R.<.s ` U U Y L U Y L Y I I P I z a s g h h h s s s h s t h 4 #.).!.W.W.E.!.R.!.W.W.R.Q.Q.!.P.} C U U Y I I I I U I I I I I k d h h h s h s h h s h d V : 6.!.Q.E.W.",
"U.U.R.<.k ` U Y Y Y Y Y I I I U P Y z a s h s s h s s s h h h h 0 #.(.Q.E.E.!.W.W.W.!.W.W.W.Q.!.Y.} C T U Y I I I U I I I I I I k s k s h h h h h h h s s N * 6._.Q.U.U.",
"U.R.R.<.k ` U I L Y Y U I I I I P Y b a s g h h h h s s t h s h 0 #.!.W.W.!.!.!.W.W.R.W.W.W.E.!.G.^ C U U P I U I I I I I I I I C s s k h s s h h s s s s V * 6.).E.U.U.",
"U.U.R.2.k ` U U Y L Y U U I I I L Y K a s s s N s s h h h s h s 0 #.E.Q.W.W.W.!.W.W.W.!.R.W.W.!.G.^ C P I I I I I U I I I I U I k s s s N s s h h h s h s V ; 6.!.W.U.W.",
"U.U.!.,.k ` U Y Y I U Y I I I U I Y K a d s s s s s h s h h h s 0 #.!.Q.W.!.R.W.E.R.!.W.W.R.Q.W.L.( C P U I I I I I I I I I I I C s s s d h h h s h h h s V ; 6._.K.W.R.",
"W.U.R.<.d ` U U I L I Y I U I I Y Y C a s s s h d t h V d d d d 0 $.).W.W.W.W.!.W.!.W.R.W.!.W.W.Y.} D U U I I I I I U I I I I I V s h h s s s h h h s h s V ; 6._.E.U.W.",
"W.W.W.2.s ` U Y Y Y U Y I I I I L Y C a s s s s h s d d d d s d 7 $.^.W.W.R.W.R.W.W.!.W.R.R.W.W.G.} z U U I I I U I I I Y I I I V s h s h h h h s h s h g B ; 6.!.U.U.U.",
"W.U.R.,.k ` U U Y L Y Y Y U I I Y P C a k s s s d a k s d d s s 3 +.).~.~.~.!.~.!.!.~.~.~.Q.~._.R.) C Y L Y I P Y P Y I P I I I C a s s s s s g h h s s s V * 6.).E.U.!.",
"U.U.R.,.k U U U Y Y Y U I I I I Y P K k k V V k k k k k k c k k s o.v.c.l.l.c.x.c.c.x.l.c.z.z.z.f._ L ' Y Y P Y P I P Y P Y I I V s k s k s s g h s h h s C % 6.).W.U.U.",
"W.U.R.,.k ` U U I L Y U Y Y P U Y P P K I Y I P I I L L U U U U Y I g h h g g h g g g h s g g g s L Y ! P Y I I I I U I I I I I k s k s h h h s h h s s s V * 6.!.K.U.U.",
"U.R.R.,.k ` U L I P Y Y P I I I P P Y U I I I P I I I I L U U U I U ` m n T m m ] m m T ` n T T [ U Y ' I I P Y I I I I Y P U I k s s k h s h h s s s d s C * 6.).W.U.R.",
"W.U.R.,.j ` Y I U Y U I I I I Y I I Y I P Y I I I U I I I Y U Y I Y U U U U U U U U U U U U U T U Y Y I Y P Y P I Y P P I P Y Y V a k s h g h s s k s k g B > 3.).W.U.R.",
"W.R.W.,.k n U L Y Y Y I Y I I I P Y P Y I P I I I I I I I I Y U I I U I U I U I U U I P Y U I I I I P I P I I Y P Y I Y U Y I L z s a k g h t h s d s s d z % 3.!.W.U.R.",
"U.U.W.<.k T Y I I Y U Y I I I I I I Y P Y Y P U I I I U I I Y U U I I P I I I I I Y P Y P U I I P Y I U I P P Y I P P I I I I Y k s k s s h g s N s h g g C * 3.).W.U.W.",
"W.U.W.,.B [ W R D I I I P I I I Y P P I P I I I I I I I I U Y I I P Y Y I I I U I I I I I I I I Y P I P Y Y I P Y P Y I I I I Y V g h h h h g t B N B B V Z - 8._.E.U.W.",
"U.R.U.:.- q y 0 q 2 q L I I I I Y P P U P I I I U I I I I I U I I I I I P Y I I I P I P I I I P P P I Y I I Y U I P P Y I Y I Y k s k s k k a s O @ # + + +   1.!.W.U.!.",
"U.U.W.n.f.v.m.v.l.m.i.H I Y Y I P I P L Y I I I I I U I I I I I U I I I Y P P Y Y Y I Y I U I Y I Y I P P Y P I K z z C z z z z k s s s d d a C g.l.g.g.g.x.s.B.!.W.W.U.",
"!.W.W._._._._.^.~.`.D.i R I Y I I P I P P Y I U I U I I U Y I I Y P P Y P P I I P I Y P I I I I I I Y P P I I U z j a g g g a k h h s g s d p R (.!.!.R.!.R._.I.W.W.U.U.",
"I.R.!.I.Q.E.E.E.H.!.V.G L I I I Y P P P P P P U I I I I I Y L U I P Y Y I Y Y P I U P I Y P I Y I U I I Y P I U C g a a k g g k s h h s e k a E T.K.W.H.~.E.H.E.W.U.U.U.",
"U.R.E.R.W.Q.!.!.I._.Z.A I Y I I I L I I U U L U Y U I U U Y U U L U Y L L U U L P P U L U Y U U Y L L Y I I U L L d d d s d d d h h d k r h p E P.K.W.U.!.W.!.E.!.!.W.R.",
"W.W.R.R.!.E.E.E.I.).Z.H L L U Y U U I U U K U L U L U I L U U L U P U U U Y U Y Y U Y U L U U L U U U I U U P P U g j k k k k k k k j k k B a Q P.K.W.U.R.W.E.!.W.!.!.!.",
"U.W.W.W.!.!.!.!.I.).A.A I Y U Y U U U U U U U L U U U U U I U U Y U U U U U P U U U U U P P U P U U U U U U U U U a j g k d d d k d k d g k p W T.U.W.W.W.W.Q.Q.Q.!.W.Q.",
"W.U.R.E.!.!.!.E.I.!.V.A H L I L L L L L Z I L I L L Z I L I I L I Z I L I L I Z I L I L I I L I I L I Z L I L P z 9 w 9 e e a e e e a e e a 5 H P.U.W.U.E.W.W.W.E.E.Q.W.",
"!.W.!.W.U.!.W.!.U.W.B.{ / | | } ) ) ) ) | | ) | ) ) } | ( ) ( ) | } ( ) ( ) } | ( ( ( ( } | ( ( ( ) } } } } } } J F A A S A A F A F F F i i F { R.R.W.W.W.W.W.W.E.E.E.E.",
"U.!.U.!.R.U.R.!.W.W.!.P.S.C.S.P.L.L.S.L.F.F.D.S.S.S.F.P.L.L.Y.L.P.P.P.P.L.L.P.P.P.P.Y.L.P.Y.P.P.P.P.P.P.P.P.P.P.P.L.S.P.L.S.S.F.S.F.S.P.G.F.C.P.!.E.W.W.Q.E.Q.W.Q.!.E.E.",
"W.!.W.U.U.U.R.W.U.W.W.!.!.!.W.!.!.!.!.!.!.!.!.!.!.!.!.W.R.!.!.R.U.R.R.U.!.U.R.U.R.U.!.R.U.U.R.U.W.!.W.!.!.!.W.!.!.!.!.~.!.~.!.~.!.!.!.!.!.!.I.R.E.E.W.W.W.W.!.W.Q.!.W.E.",
"!.W.!.W.U.R.!.!.W.U.!.W.U.W.U.U.W.U.U.W.K.W.W.U.U.W.U.U.W.U.K.W.U.W.W.W.W.W.W.W.W.U.K.W.W.W.W.W.W.W.U.K.W.W.W.W.E.J.E.Q.K.E.K.E.K.E.E.J.U.U.E.E.W.R.W.W.W.W.Q.W.W.E.E.W."
};
