/* XPM */
static char *result[] = {
/* columns rows colors chars-per-pixel */
"84 84 168 2 ",
"   c #000500",
".  c #1E3D18",
"X  c #233101",
"o  c #233F1C",
"O  c #183F22",
"+  c #233F21",
"@  c #1D431D",
"#  c #2C4314",
"$  c #23421D",
"%  c #28431C",
"&  c #394C1D",
"*  c #174226",
"=  c #1A4223",
"-  c #1F4B27",
";  c #1E4C28",
":  c #244323",
">  c #2A4722",
",  c #214B26",
"<  c #224429",
"1  c #2E472C",
"2  c #214A2B",
"3  c #284B28",
"4  c #2A5028",
"5  c #3D5626",
"6  c #3D5629",
"7  c #3F582D",
"8  c #2A5435",
"9  c #2C5835",
"0  c #355737",
"q  c #355A35",
"w  c #395B36",
"e  c #31553B",
"r  c #365A39",
"t  c #395B3B",
"y  c #3A613F",
"u  c #405529",
"i  c #455C2E",
"p  c #44633D",
"a  c #4A633B",
"s  c #4F683E",
"d  c #516B3D",
"f  c #58703F",
"g  c #2D5F45",
"h  c #365E44",
"j  c #3B5F45",
"k  c #365F49",
"l  c #3A5E48",
"z  c #366144",
"x  c #396045",
"c  c #3E6947",
"v  c #34644B",
"b  c #3B6249",
"n  c #33684D",
"m  c #3F6B4A",
"M  c #2F6750",
"N  c #356651",
"B  c #396653",
"V  c #366851",
"C  c #3D6B52",
"Z  c #3E765E",
"A  c #3C7564",
"S  c #3E7864",
"D  c #406346",
"F  c #496240",
"G  c #416944",
"H  c #426549",
"J  c #416A4D",
"K  c #4A6A4A",
"L  c #556B42",
"P  c #46704D",
"I  c #4D734F",
"U  c #597046",
"Y  c #5D774A",
"T  c #426B52",
"R  c #467355",
"E  c #497356",
"W  c #4B7854",
"Q  c #46745A",
"!  c #497359",
"~  c #44785C",
"^  c #4F7A5C",
"/  c #527453",
"(  c #52775B",
")  c #597F5C",
"_  c #657B4F",
"`  c #667D53",
"'  c #677E5B",
"]  c #437660",
"[  c #457A63",
"{  c #62865D",
"}  c #758A55",
"|  c #798951",
" . c #748B5B",
".. c #77905A",
"X. c #7A925D",
"o. c #6C8C66",
"O. c #698A68",
"+. c #7B9262",
"@. c #7C9966",
"#. c #829863",
"$. c #84A77B",
"%. c #89AA7D",
"&. c #98AC75",
"*. c #97AD7B",
"=. c #9CB27C",
"-. c #9BAD81",
";. c #95B181",
":. c #9CB486",
">. c #94B48A",
",. c #9DB68A",
"<. c #9FBB8F",
"1. c #9CB690",
"2. c #9CBE92",
"3. c #A9B780",
"4. c #A0B887",
"5. c #A0B78D",
"6. c #A2BA8D",
"7. c #B1BF86",
"8. c #A2BB90",
"9. c #AFC18B",
"0. c #B1C28D",
"q. c #B9C48C",
"w. c #ABC092",
"e. c #AFC799",
"r. c #ACCB9B",
"t. c #B3C592",
"y. c #B7CA96",
"u. c #B2C79B",
"i. c #B2CC9C",
"p. c #BACE9D",
"a. c #B4CEA1",
"s. c #B4D0A2",
"d. c #CFDA9D",
"f. c #CBDBA5",
"g. c #D3DDA2",
"h. c #D3DFAC",
"j. c #D0DFB1",
"k. c #CEE1AB",
"l. c #D2E0A7",
"z. c #D4E5AC",
"x. c #D7E8AE",
"c. c #DDECAE",
"v. c #CDE6B2",
"b. c #D7E7B1",
"n. c #DAE6B4",
"m. c #DAEAB3",
"M. c #DFF0B6",
"N. c #DFF1B9",
"B. c #EBF5AC",
"V. c #EEF9AE",
"C. c #F2F7AD",
"Z. c #F3F9AD",
"A. c #E1EDB3",
"S. c #E5F3B4",
"D. c #EDF6B2",
"F. c #EFF8B4",
"G. c #E3F1BA",
"H. c #EBF7BD",
"J. c #ECF9BC",
"K. c #F2F7B5",
"L. c #F1FAB6",
"P. c #FBFCB3",
"I. c #F2F7B9",
"U. c #F3FCBA",
"Y. c #FAFEBD",
"T. c #EDFCC2",
"R. c #F3FFC2",
"E. c #FAFFC1",
/* pixels */
"L.L.L.L.F.F.F.F.F.D.V.V.F.V.V.F.F.V.F.F.F.F.F.F.F.V.F.F.I.F.I.F.D.F.F.F.F.F.F.F.K.F.F.F.F.F.F.F.F.F.F.F.F.F.F.V.K.F.F.F.F.F.F.F.Z.F.F.F.F.F.V.F.F.F.F.F.K.F.F.V.L.L.L.L.",
"L.L.L.L.L.J.F.K.L.K.L.L.Z.L.L.Z.Z.K.Z.F.Z.L.F.K.L.L.Z.L.L.I.L.L.L.K.L.K.L.Z.L.F.K.K.L.Z.Z.L.L.L.Z.F.Z.L.L.F.L.L.Z.L.L.F.L.Z.Z.L.L.K.L.Z.L.L.L.L.L.P.L.L.L.L.L.L.L.L.L.L.",
"L.K.L.J.T.R.R.R.U.R.T.U.R.T.U.R.R.R.R.R.R.R.R.R.R.R.R.R.R.R.R.R.R.R.R.R.R.R.U.R.R.R.R.R.R.R.R.R.R.T.R.R.T.R.R.R.R.R.R.R.R.R.R.U.R.R.R.U.U.U.R.R.E.R.R.R.R.R.Y.U.L.L.L.L.",
"P.K.H.y.s.a.a.a.s.s.s.s.s.s.s.s.a.a.a.a.s.a.a.a.a.a.a.a.a.a.a.a.a.a.a.a.a.a.a.s.a.a.a.a.s.a.a.a.s.s.a.s.a.a.s.s.s.a.a.a.a.i.a.i.i.i.i.i.i.y.y.e.u.u.i.u.e.p.q.S.L.L.L.L.",
"L.Y.h.& 7 t 0 t 0 t 0 w q t w q 0 0 0 t w 0 t q t t t q t 0 0 0 t w 0 0 t w t q 0 w 0 t t q t q t q q r r 9 9 r t 0 0 0 w w w 0 $ $ @ $ $ $ % : + + : + : o X g.U.L.L.L.",
"K.Y.n.s / ( / / W W / W W E W E W W / / E W E W E W W / E W I W E E / W E W W E / W W E E W E W W E E W W W W W E W / I W E / / H b c b H b H H H H b H H K i m.U.Z.L.L.",
"L.E.n.L / ! ! E E E E R T E E E R E R R E R R R R T R R E E E E R R E E T E E E E T E E R R R R R R R R R R R R R R E E E E E E b b b b x b H l j l l x x D u x.J.L.L.F.",
"K.R.n.L E ! ! ! E E E E E E E E E E E E E E ! R E E E E E E E E E E E E E E E E E E E E E E ! E E E R Q E E Q E E E E E E ! ! E x x x x x l j j j j j x x D 5 x.U.L.L.K.",
"K.R.b.L ! ! ! ! E E E E R E E E E R E Q E E E ! E E E E E E E E E E E E E E E E E E E E E R R E E E E ~ R ! E E E E E E E E / ! b x x x x j j j y x j x j p 5 x.Y.L.L.K.",
"F.U.b.L ! ! ! E E E E E E E E E E E W R E E W R E E E R E E E E W E E E R E E R E R E E W R E E R R R R E E R E E E R E E R E E z x x x x x x j D j j x x D 6 b.U.U.L.L.",
"K.U.b.s / ! E E E E E E E E E R E R E E R W R E R W R W E E E E R R E R E E E E R E W E E E E R R R R R R R T R R E W E E E E W x z z x x j x x j j x x x D 6 x.R.L.V.F.",
"L.U.n.L K ! E E E E E E E E E E E E Q E E E R E Q R E E R E E E E E E E E E E R E E E E E Q E E Q W E E E E ! ! E E E E E E E E z x x z x x x x j j x x b D 6 b.Y.L.L.F.",
"L.U.m.s W E R W E ! E R E R E E E Q R E E R E E E E Q E ! R E E E E E E ! ! ! ! E E E E R E E E R E Q E E E R E E ! T E E E E E x z x x x x x x j j j l b H 6 x.R.U.L.F.",
"L.U.x.s I E R R E R ! ! E E ! E E E E E E Q E Q E E E E E E ! E E E E R ! R E R E E E Q E E E ! E E E E E E E E E ! ! E E E E ! z x z x D j x j j j j b l b 6 x.U.I.L.F.",
"U.U.x.d R R E E E E R E R ! R E R E E E E E E E E E Q E ! R ! ! E ! E E R E E ! R E E E Q E E R E E Q E E E E E ! E ! E ! E E E z x x x j j x x j j j x k H 6 x.E.I.L.F.",
"F.U.m.s W E E E E E ! E E R ! ! ! Q E Q E E E E Q R E E R ! R ! E T E E R R ! R R R Q E R E Q R E Q E E E E E E E E E E E E E ! x z x x x x x x j j x x l H 6 x.R.U.L.K.",
"L.U.m.s R E E W E E E E E E E E ! E E E E E E E E E ! ! R ! E ! ^ R R ! E ^ ! ! ^ W ! E ! W ! W E E Q E R R R R W E E E E E ! E z x z b x x x x j j x x b H 6 x.U.I.L.H.",
"U.U.m.s I E R R E E E E ! E E E ! E E E E E E E E T ! ! E R E E R T J C C m T m C J J J T C T T R R E E E E W R E E E T E E E E x z x z x x x j j j x x l b 6 x.R.L.L.F.",
"L.R.m.s E E E E ! E ! ! ! ! E E ! E E E E E ! ! ! ! E E E E ! E J ) O.o.o.o.o.o.o.o.o.o.o.o.o.o.) W R Q R W R W E E E ! E ! ! ! x x x z x x x x j j x j b H 6 x.E.U.I.F.",
"F.U.b.s I R R R I E E E E E E E E E j j h j j h l l l l l k l H $ u.T.H.T.T.J.J.J.J.J.J.F.F.L.T.a.r E E E W R R E E E E E E ! ! z z b x x x x x j D x x l D 6 x.R.I.L.F.",
"K.U.b.s E E ! ! E ! E T ! E E E ! ! b h j j h j j l l l l l j H % t.I.K.I.I.K.P.Z.Z.Z.Z.Z.Z.Z.P.i.t E E E R W R E E E E E E E E z x x z x x x x j j x j b H 6 x.Y.I.L.K.",
"F.U.b.s I E E T ! ! ! ! ! ! ! ! ( E b j h h j h j h h l l j x H o y.R.K.I.I.I.L.K.K.Z.K.L.V.Z.L.i.q ^ E W R R R E ! E ! ! E E ! x z z x D x j x j j j b l H 6 x.R.U.L.F.",
"L.U.x.d E R T E ! ! ! ! ! ! ! ! ! E b j j j h l j j j x x h x H . u.E.I.U.I.L.J.L.L.K.D.F.F.F.U.i.q W E R E E R ! E ! ! ! K E E z x x x j j x j j j x x l b 6 x.R.U.L.F.",
"L.U.x.s K E W E ! ! T ! K E ! ! ( ! H l l l l j b l b l j j j H o e.R.F.J.I.L.L.L.J.U.L.F.F.F.T.i.r W E W I E R E E ! ! ! E E ! x x z x j x x x j j x j b H 6 x.U.U.F.F.",
"L.L.x.d / W W W W ! W ^ ! / ( / ( ( H H H H H H H H H H H x H K % p.E.K.I.I.I.I.J.L.U.U.F.F.F.R.i.w E E R W R W ! T ! ! T E E E z x x z x x j x j j j b l H 6 x.E.U.L.F.",
"L.L.z.5 w z y r r r t t t t t t t t 1 : : : : : : % % % $ $ % >   t.Y.K.K.K.K.P.L.L.U.L.F.V.L.R.i.w W E R P W R E E ! ! E E ! ! x z z x x x x x j j x x b x 6 x.U.U.L.F.",
"V.U.B.=.2.2.2.2.<.<.<.1.<.6.6.6.,.8.,.,.<.<.<.<.6.6.,.4.,.:.:.w.*.z.U.K.P.L.P.K.P.L.L.L.L.V.Z.J.s.q E E W R R R E E E E E E ! ! b z z x x x x x x j x l l b 6 x.R.I.L.F.",
"L.L.U.J.T.R.T.R.R.R.R.R.R.R.R.R.R.R.R.T.U.T.U.U.J.J.U.R.T.U.R.U.U.U.K.K.K.K.K.F.L.L.L.L.F.V.F.U.s.r W E R R R R E E ! E E ! E E x z x x x x x x j j j b l H 6 x.E.U.L.F.",
"L.L.L.L.L.J.L.F.F.L.L.Z.Z.F.F.Z.F.Z.V.Z.F.Z.Z.V.Z.Z.K.V.L.L.L.L.K.K.L.L.K.K.L.L.L.L.L.L.L.V.L.T.s.y W R R P R R ! ! E E E E E ! x z x z x j x j j j x b b H 6 x.R.L.L.F.",
"L.L.L.L.F.K.D.D.F.V.Z.L.F.F.F.K.V.F.K.Z.F.F.F.F.F.F.F.F.L.V.F.F.L.L.L.L.F.J.K.L.I.L.I.L.Z.L.Z.R.s.q ~ R R R R R E ! T E ! E E E x z z x x x x x x j x j b D 6 x.R.L.L.F.",
"L.L.L.L.L.L.L.L.L.L.P.L.L.L.L.P.L.L.L.U.U.U.U.U.U.U.U.L.L.L.L.U.L.L.U.L.J.F.F.L.L.L.K.L.P.V.Z.U.r.y W ~ R R T E E ! E ! ! ! E ! z x x x D j x x j j j x b b 6 x.E.I.H.K.",
"L.L.L.L.L.L.L.L.L.L.L.L.U.L.U.U.U.U.U.L.U.U.U.U.U.U.U.U.L.F.F.F.U.U.F.F.F.F.F.F.V.F.F.V.V.B.V.J.r.r W R T E E E E E E ! ! ! ! K x z x x x j x x j j j b b D 6 m.U.U.L.F.",
"L.L.H.U.L.L.L.U.U.U.U.U.U.U.I.I.U.U.L.Y.U.U.U.U.U.U.U.U.F.L.F.F.F.U.U.U.U.U.U.U.H.J.L.J.L.L.F.R.s.q ^ W Z P E R E E E E ! R E E x z x x x x x j j j x x b H 6 x.R.I.H.K.",
"L.L.L.L.L.L.L.L.U.U.I.U.U.U.U.U.L.L.U.L.U.I.U.L.U.U.U.L.L.L.J.L.J.J.H.H.J.J.J.J.T.T.H.H.J.D.J.J.r.9 ^ ~ R R E E R E Q E R ! E E z x z x x x x x j x j x l D 6 x.E.I.L.F.",
"L.L.L.L.L.U.L.L.U.U.U.U.U.U.U.U.Y.K.U.U.L.Y.L.Y.L.U.L.L.L.F.F.J.R.3. .+.+.+.+.+.+.+.+.+.....X.@.{ P R Q Z P E ! E E E E E E E E x x x x x x x x x j x x l D 6 x.U.U.L.F.",
"L.L.L.L.L.L.L.L.L.K.L.U.K.I.L.L.L.U.L.U.U.K.U.U.U.U.U.U.L.L.L.L.L.&.9 C P J m m H H H T m G P m R R R Q Q Q E E E Q R R ! E E E x x x j j j j x x x j D l D 6 b.E.U.L.F.",
"L.L.L.L.L.L.L.L.L.U.K.L.L.L.L.L.U.Y.K.U.U.U.U.K.U.U.I.L.L.L.Z.U.U.=.g A ~ ~ ~ ~ ! ! ] ! ! ] ] ! Q Q Q Q R R E E ! ! E E ! E ! E x x j x x j j j x z y y b D u b.U.U.K.F.",
"L.L.L.L.L.L.L.L.L.L.L.L.J.I.L.L.U.L.L.U.I.U.U.U.U.U.L.L.L.F.F.F.Y.=.g [ E E R E T ! ! ! ! ! ! E ! R ! ! E E E R E T E E ! ! E E x x x x j j j j x x z z b x 6 b.E.I.J.F.",
"L.L.U.I.L.L.L.L.L.L.U.L.L.U.L.L.U.L.U.U.U.L.L.L.U.L.L.P.F.K.L.L.U.=.y ~ ! W W E ! ! ! ! ( ! E E ! ! ! ! E R ! ! E E E T ! ! T ! x j j j j D j j j z z z z c 5 n.R.U.F.F.",
"L.L.L.L.L.L.L.L.U.L.L.L.L.L.L.L.L.Y.L.L.L.L.L.U.U.K.L.L.C.V.C.L.J.*.z ~ W P P R E ! ! ! ! ! E E R ! ! R E Q R R E E E E E T E E x x j j j j j l b v M v n m 7 b.R.L.L.L.",
"L.L.L.L.L.L.L.L.L.L.U.L.L.L.L.U.U.U.U.L.L.L.L.L.F.U.R.R.U.U.L.J.R.;.h ~ R R R P W R E E R R E E T ! E ! E E T E ! ! ! ! E ^ E E x x x x D j j e 8 8 8 8 9 4 # m.U.I.F.L.",
"L.L.L.L.L.L.L.L.L.L.J.L.L.L.L.L.Y.L.U.L.L.L.L.L.J.S.k.b.j.j.j.h.v.$.v ] R R R R R E E E R R E E E ! E E ! E ! E T T T R T T K E x j j x j H h / } }  . . . .| c.L.L.L.L.",
"L.J.L.L.L.U.L.L.L.L.L.L.L.L.L.L.K.L.U.L.L.J.F.F.J.l.6 p F F F a p I W Z E Q ! T W E E R R R E E E E E E E T E E j x z z z x h h x x x j x H O 1.T.L.U.T.G.T.U.U.L.J.L.L.",
"U.I.L.L.L.L.L.L.L.L.L.L.L.L.L.L.L.L.L.L.L.L.L.L.U.k.z Q ! E E E R E E Q ! ! ! ! R E E E E E E Q ! E E E ! E E E b x x x j x x j x j x b j H < 1.R.L.L.J.F.J.F.L.L.L.L.L.",
"L.L.L.L.L.L.L.L.L.L.L.L.L.L.L.U.L.L.F.F.L.H.L.L.Y.k.z S ! ! ! T E E Q ! ! Q ! ! E E Q E E E E E ! ! R R E E E T b z z x x x x j x x x j x H < 1.R.L.K.L.L.L.L.L.L.L.L.L.",
"L.L.L.L.I.L.L.L.L.L.L.L.L.L.L.L.L.L.L.L.U.R.F.L.L.k.z ~ E E ! ! E E ! ! ! E Q ! E Q E E E R E R T E R ! E E E E c x x x j x x x j l x x x H : ,.R.J.D.L.L.L.Z.L.L.L.I.L.",
"L.U.L.L.L.L.L.L.U.L.L.L.U.L.L.L.Z.L.L.L.L.L.F.L.P.l.h Q E E E E ! ! ! E ! ! ! ! E E E E E E Q E E E R E E E ! ! c z z z z x z x v l b v x H : 4.R.L.F.L.F.L.L.L.L.L.L.L.",
"L.I.L.L.L.L.J.U.F.U.L.L.L.L.L.L.L.V.V.K.F.F.Z.Z.P.g.x Z ! E ! E ! Q ! Q Q ! Q E C E E R Q E E E E E E T T T ! R V V V v n B n n B B V V v K 1 5.R.F.K.K.Z.L.L.L.L.L.L.L.",
"L.L.L.L.L.L.L.L.L.L.L.U.I.L.L.L.K.F.J.R.R.R.R.Y.E.x.b Z ! ! ! E ! Q E Q ! ! ! ! E E R E R ! E E E E E ! ! ! ^ R 8 O * * = = = = O = * * O <   -.R.F.L.L.L.L.K.L.L.L.L.L.",
"L.L.L.L.L.L.L.L.L.L.L.L.J.L.L.L.Y.H.w.>.>.>.>.:.6.%.c E R E E E ! ! ! ! ! ! ! ! ! m b T C T m J H C T b m m C t ;.t.7.t.0.0.0.9.0.0.t.7.t.t.7.d.K.K.K.L.L.L.F.L.L.L.L.L.",
"L.L.L.L.L.L.L.L.L.U.L.L.L.L.L.I.Y.U.' e z y y p q c E R R ! ! ! E ! Q ! ! Q ! ! E v h x x x x x z x h j r h z 3 l.U.E.E.Y.R.Y.U.E.Y.E.E.Y.E.U.E.F.L.K.F.L.L.L.L.L.L.L.L.",
"L.J.I.U.L.J.I.L.L.L.L.L.L.L.L.K.I.H.o.H E W R I R E R R ! ! ! ! E E E T ! ! E E E x x x x x x x x h j j y z n , f.Y.K.K.L.L.L.U.L.L.I.U.I.L.L.L.L.L.L.L.L.L.L.L.J.U.L.L.",
"L.L.L.L.L.L.L.U.L.U.L.L.L.L.L.I.K.J.o.T ! E K E R E E Q ! Q ! ! ! R ! R E E E E E H j j j x j x z x x j t z n ; f.Y.L.L.L.L.F.U.L.L.L.L.L.U.L.L.L.L.U.L.L.L.L.L.L.L.L.L.",
"L.L.L.L.I.U.L.L.L.L.L.L.L.L.U.I.K.H.o.T E E E E E E E Q ! ! ! ! ! ! R ! E E E E E x j b j D x x z y x x x z n , f.Y.K.K.L.U.J.F.L.L.L.L.L.L.L.L.L.L.F.U.L.L.L.L.L.L.L.L.",
"L.L.L.L.L.L.L.L.L.L.L.L.L.L.L.K.K.I.O.T E E E / E E E E ] ! ! ! ! ! E ! E E E ! E x x x x x x x j j x x x x n - f.Y.L.K.L.F.F.L.L.L.H.U.L.L.U.L.U.L.L.L.L.L.L.L.L.L.L.L.",
"L.L.L.L.L.L.L.L.L.L.U.L.L.L.L.L.K.H.O.T / E I E E E E E ! ! ! ! R E E R ! E E E E b j b x j x j x y j j t x n - f.Y.L.L.L.L.L.J.L.L.L.L.L.L.L.L.L.L.L.L.L.L.L.L.L.L.L.L.",
"L.L.L.L.L.L.L.L.L.L.L.U.L.L.L.I.P.H.O.C E E / E ! E E R ! Q E Q ! R E E E E E ! E b j x x x x x y x j j j z N , f.Y.K.K.U.L.L.L.L.L.L.U.J.L.L.L.L.U.F.U.L.L.L.L.L.U.J.L.",
"L.L.L.L.L.L.U.L.L.L.L.L.L.L.U.K.K.J.O.m E E E E R E E Q ! ! ~ E ! E E E E E ! ! E b j x x x x x y x x j j z n , f.Y.L.U.L.L.F.U.L.L.L.L.L.L.L.L.L.F.U.L.U.L.L.L.L.L.I.L.",
"L.L.L.L.L.L.L.L.L.L.L.L.L.L.L.L.K.J.o.T E E E E R E R R ! ! E E R R ! E E E Q R E x x x j x x x D j j x t x N ; f.Y.K.K.U.L.J.L.L.L.L.L.L.L.L.L.L.L.U.L.L.L.L.L.L.L.U.L.",
"L.L.J.I.U.L.L.L.L.L.L.L.L.L.L.L.F.H.O.T E E E E E E E Q ! ! R E E ! E E E R ! R E b z b x x x x j j x j j x N 2 f.Y.K.K.L.L.F.L.L.L.L.L.L.L.L.L.J.F.F.L.L.L.J.F.L.L.L.L.",
"L.L.L.L.L.L.L.I.L.L.L.L.L.L.L.L.L.H.O.C E E E W E R W R E E E E R Q E E E E E E E x x x x x x x j j l j j h n 2 f.Y.K.K.L.L.F.J.L.L.L.L.F.U.L.F.L.L.F.U.L.L.L.U.L.L.L.L.",
"L.L.U.L.L.L.L.L.L.U.L.L.L.L.L.L.L.J.O.C ! E I R E E R R Q E Q E E E E R E E E Q E b z b x x x x j j x x j z N 2 f.Y.L.K.L.L.L.L.U.F.L.L.U.F.U.U.L.L.J.F.J.F.L.F.L.L.L.L.",
"L.L.I.L.L.L.L.L.L.L.L.L.L.L.L.L.L.H.O.C ! ! R R R W W R E E E R E E Q ! R ! E E E x z b x x x x j j b j j j N 2 f.Y.L.L.F.U.L.L.F.U.U.L.L.L.U.L.U.F.L.L.F.U.J.L.L.L.L.L.",
"L.L.L.L.L.L.L.J.U.L.L.U.L.L.L.L.L.T.O.B ! ! W R E R R E Q E E E E E E E E ! Q E E b x x x x x x j j x j j h V 2 f.Y.L.L.U.L.U.F.U.L.F.L.L.L.F.U.F.L.L.L.U.L.L.U.L.L.L.L.",
"L.L.L.L.L.L.L.L.L.L.L.U.I.L.L.I.I.J.O.T ! ! ! E E E R E R E E E R E ! E ! ! ! E E b j x x x j j D D l l j j V 2 f.E.L.L.L.L.U.L.L.L.L.L.L.L.L.L.J.L.L.F.U.F.L.L.L.L.L.L.",
"L.L.L.L.L.L.U.L.L.U.L.L.L.L.L.L.I.J.O.C ~ E R E R R W R E E R E ! R R E R R E R E l j x x x x j j j j l j j V 2 g.Y.K.I.L.L.J.L.L.L.L.L.L.L.L.L.F.U.L.L.L.J.J.F.L.L.L.L.",
"U.L.L.L.L.L.I.L.L.L.L.L.L.L.L.L.K.T.O.C E E E R W R W R E E R W ! ! R ! E E E ! E b x b x j x j j F l j j k N 2 f.Y.K.K.L.L.L.L.L.L.L.L.L.J.L.L.L.F.U.J.L.L.L.U.L.L.U.L.",
"H.L.L.L.L.L.L.L.L.L.L.U.L.L.L.I.K.T.O.T E ~ E R E R R R E E R R E E R ! ! E E ! E H x x x x x j j j l l j l N 2 f.Y.U.K.L.L.L.L.L.U.L.L.L.U.L.L.L.L.L.L.L.L.U.F.U.L.L.L.",
"L.L.L.L.L.L.L.U.L.L.L.L.U.L.L.U.K.T.O.B E ! E E E E R R E E W R E E E ~ E ! E E E D j l j j j j j j b l h j V 2 f.Y.I.I.U.F.U.F.L.L.U.L.L.L.L.L.L.L.L.L.F.U.L.L.F.L.U.L.",
"L.L.L.L.L.L.L.L.L.L.L.L.L.L.L.K.K.H.O.T ! ! E R E W R R E E E R E ! E E E E E E E l j D j x j j j j j j h l V 2 f.Y.K.K.L.U.F.L.L.J.I.L.L.L.L.L.L.L.L.L.U.L.L.L.L.U.L.F.",
"L.L.L.L.L.H.L.L.L.L.L.L.L.L.L.L.K.T.O.T Q ! R E W E R R E Q W R E ! T ! E ! ! T E l j l x x x D D j j b j l N 2 f.Y.L.L.L.L.L.L.L.L.L.L.U.L.L.L.L.L.L.L.F.U.L.L.L.L.L.U.",
"L.L.L.L.L.U.L.L.L.L.L.L.L.L.U.K.I.U.O.C Q Q Q E R R W R E E E R E E E ! ! E ! E E j j D j j j j j j l j j l N 2 f.Y.L.L.F.U.L.J.L.L.L.L.L.L.L.L.L.L.L.L.U.F.U.F.L.L.U.F.",
"U.L.L.L.L.L.L.I.L.L.L.L.L.L.L.I.K.T.O.T R Q R E R W E E E E R E T E E E E Q ! E E x j b j x j j j j l l j k V 2 f.Y.I.K.L.L.L.F.L.L.L.L.L.L.L.L.U.L.L.L.L.L.L.U.L.L.L.L.",
"I.L.L.L.L.L.L.L.L.L.L.L.L.L.U.I.K.H.O.C Q ~ R E E R E ! E E R E ! ! E E E E ! E E H j x j j j x F l l j j h V ; f.E.K.I.L.U.F.U.L.L.L.L.L.L.L.L.J.L.L.L.L.L.U.F.U.L.L.L.",
"I.U.L.L.L.L.U.L.L.L.L.L.L.L.L.K.K.I.O.C Q R E E R E E E R ! W Q E ! ! ! E E ! E E D j l j j j j j j j j t b N 2 f.Y.K.K.L.L.L.J.U.L.L.L.I.L.L.L.L.L.L.L.L.L.L.L.L.L.L.L.",
"J.L.L.L.L.L.J.L.L.L.L.U.L.L.L.I.K.T.O.C Q W R R E E E E ! ! ! E R ! ! E ! ! ! ! E l j b j l h h j j j j j z n ; f.Y.K.I.L.L.L.F.I.L.L.L.L.L.U.L.L.L.L.L.U.L.L.L.L.L.J.F.",
"L.L.L.L.L.L.L.L.L.U.L.L.L.L.L.K.K.T.O.T E E E R ! ! ! ! ! ! ! ! E ! ! ! ! ! ! ! ! l l b b b b b l l j x j b n ; f.Y.K.F.L.L.F.U.L.L.L.L.L.L.L.L.J.U.F.J.L.L.F.J.L.F.J.L.",
"L.L.L.L.L.L.L.L.J.I.L.L.L.L.L.L.I.I.O.T Q E ! ! Q ! ! E Q ] Q Q Q Q ! ] Q ! ! ! ! l k l k k k k k l v z h v M ; f.Y.K.F.L.L.L.L.L.L.J.I.L.L.L.L.L.L.U.F.L.L.U.F.F.U.L.L.",
"L.L.L.L.L.L.L.L.L.L.L.L.L.L.L.L.P.H. .H E I K / ! E E E E E E E / I E E ! T E I H t t h t e t t h e t q 0 0 h @ f.Y.K.K.L.L.L.L.L.L.L.U.L.L.L.L.F.J.L.L.F.J.L.L.L.L.L.F.",
"L.L.L.L.U.I.L.L.L.L.L.L.L.L.U.I.Z.S.#.Y ` ` ` _ _ _ ` ` ` ` ` ` ` ` ` ` ` ` ` ` ` U U L L L L U L L L f d f d i d.I.K.K.L.L.J.L.L.L.L.L.L.L.L.L.U.F.L.L.U.F.L.L.L.J.F.U.",
"L.L.L.L.L.L.L.L.L.L.L.L.L.L.L.L.L.P.S.N.G.G.S.G.G.G.G.G.G.G.G.G.G.G.G.G.G.G.G.G.G.m.m.N.m.m.m.m.M.c.M.c.S.A.G.x.I.Y.U.I.L.U.L.L.L.L.U.F.L.L.L.L.F.U.L.L.L.J.F.L.L.L.L.L.",
"L.L.L.L.U.L.L.L.L.L.L.L.L.L.L.L.Y.K.U.J.J.U.U.U.U.U.J.U.U.T.U.U.U.J.U.J.U.U.U.U.R.U.R.U.U.U.E.U.U.J.J.F.Y.U.U.U.I.I.K.L.L.F.U.L.L.U.F.U.L.L.L.U.J.F.L.L.L.F.U.L.J.L.F.L.",
"L.L.L.L.J.L.L.U.L.L.L.L.L.U.U.L.I.K.L.Z.F.V.D.P.L.K.F.F.F.F.F.F.F.F.F.F.F.F.F.F.K.K.L.L.L.P.K.F.F.F.F.V.L.B.L.K.U.L.L.I.L.L.L.J.L.L.L.L.U.L.L.L.L.L.F.J.L.L.L.L.J.F.U.F.",
"I.U.L.L.L.L.L.L.L.L.L.L.L.L.L.L.I.L.L.L.L.L.L.L.K.U.L.L.L.L.L.J.U.L.L.L.L.L.L.L.L.L.L.L.L.L.L.L.L.L.F.F.K.L.L.L.L.L.L.L.L.L.L.L.L.L.L.L.L.L.L.L.L.L.L.U.L.L.L.L.L.U.F.U."
};
