/* XPM */
static char *result[] = {
/* columns rows colors chars-per-pixel */
"74 84 178 2 ",
"   c #000E00",
".  c #1E3E16",
"X  c #223F1B",
"o  c #1D411C",
"O  c #2A4216",
"+  c #24421D",
"@  c #234323",
"#  c #294522",
"$  c #2A4F25",
"%  c #294728",
"&  c #374E22",
"*  c #2A522F",
"=  c #3D5A27",
"-  c #3A5A2F",
";  c #294F37",
":  c #2B5133",
">  c #2B543B",
",  c #24593A",
"<  c #2D5C3B",
"1  c #335534",
"2  c #375934",
"3  c #395C36",
"4  c #365A3D",
"5  c #3A5C3A",
"6  c #3A623D",
"7  c #455D2F",
"8  c #465F32",
"9  c #495F30",
"0  c #435F3C",
"q  c #456132",
"w  c #496334",
"e  c #43623B",
"r  c #4C6A3C",
"t  c #546D3E",
"y  c #5B6E3F",
"u  c #365E43",
"i  c #3B5F44",
"p  c #375F48",
"a  c #395F49",
"s  c #366144",
"d  c #396145",
"f  c #356149",
"g  c #3B634A",
"h  c #3F694D",
"j  c #3F6750",
"k  c #3E6A51",
"l  c #3D775F",
"z  c #3E7861",
"x  c #426445",
"c  c #466A45",
"v  c #4B6B43",
"b  c #42664A",
"n  c #416A4C",
"m  c #4C6F4B",
"M  c #566E40",
"N  c #5A6F43",
"B  c #4D724F",
"V  c #567146",
"C  c #5B7145",
"Z  c #56764B",
"A  c #5A784A",
"S  c #446D52",
"D  c #496E53",
"F  c #456C58",
"G  c #467356",
"H  c #487357",
"J  c #4E7857",
"K  c #467359",
"L  c #4A7359",
"P  c #41785C",
"I  c #4D785C",
"U  c #517555",
"Y  c #517957",
"T  c #597B57",
"R  c #50765B",
"E  c #52795C",
"W  c #617750",
"Q  c #667D51",
"!  c #4B7761",
"~  c #497862",
"^  c #527862",
"/  c #587960",
"(  c #5D825F",
")  c #62835E",
"_  c #68805C",
"`  c #7E8B57",
"'  c #768D5D",
"]  c #788D5C",
"[  c #739059",
"{  c #7C935C",
"}  c #638562",
"|  c #688762",
" . c #648863",
".. c #6A8D66",
"X. c #6B8D69",
"o. c #6E916C",
"O. c #729265",
"+. c #7C9966",
"@. c #73916A",
"#. c #749370",
"$. c #7C9E76",
"%. c #849563",
"&. c #829865",
"*. c #84A57E",
"=. c #96B17F",
"-. c #9FB17F",
";. c #93AC81",
":. c #98AD84",
">. c #99AF8A",
",. c #96B285",
"<. c #98B486",
"1. c #99B887",
"2. c #96B58E",
"3. c #9AB68B",
"4. c #9BB98E",
"5. c #9CB491",
"6. c #ABBC87",
"7. c #A6BD8C",
"8. c #A7BE94",
"9. c #AABD91",
"0. c #ADC28E",
"q. c #B5CA8D",
"w. c #A7C095",
"e. c #ABC192",
"r. c #ACC898",
"t. c #B2C694",
"y. c #B3CA94",
"u. c #B2C799",
"i. c #B3CC9C",
"p. c #BBCF9B",
"a. c #B8D39E",
"s. c #AFCDA1",
"d. c #B2CEA0",
"f. c #B3D2A4",
"g. c #BBD3A3",
"h. c #BDD8A1",
"j. c #C4D59C",
"k. c #C8D89F",
"l. c #C2D5A2",
"z. c #C8D8A2",
"x. c #C5D8A9",
"c. c #CCDEA8",
"v. c #CDE2AE",
"b. c #D4E3A6",
"n. c #D6E6AE",
"m. c #DAE6AD",
"M. c #D4E8AF",
"N. c #DAE9AF",
"B. c #CBE3B0",
"V. c #D9E6B0",
"C. c #DEEDB3",
"Z. c #D8EEBC",
"A. c #DBF1B6",
"S. c #DFF4BD",
"D. c #E4F1AE",
"F. c #EDF7AE",
"G. c #F2F3A7",
"H. c #F3F6AE",
"J. c #F4F9AD",
"K. c #E1EEB4",
"L. c #E5F2B5",
"P. c #EEF6B2",
"I. c #EEF9B2",
"U. c #E4F2B9",
"Y. c #EEFCBA",
"T. c #E9F8BC",
"R. c #F1F6B2",
"E. c #F2FAB5",
"W. c #F9FDB6",
"Q. c #F2F7BA",
"!. c #F2FCBB",
"~. c #FBFFBC",
"^. c #E8F7C1",
"/. c #EBFCC2",
"(. c #EBFFC8",
"). c #F3FFC2",
"_. c #F9FFC4",
"`. c #F6FFCA",
/* pixels */
"E.E.E.!.Q.E.Q.Q.E.E.E.E.E.E.E.E.E.E.J.E.E.E.E.J.I.E.E.J.E.E.E.I.E.I.Y.E.E.E.I.E.E.E.E.I.E.E.I.E.J.J.E.J.R.R.R.R.R.E.E.E.E.E.E.J.E.E.E.E.I.E.!.Q.Y.E.",
"E.E.E.Y.E.Q.E.E.W.E.Y.Y.Y././.!./.).)./.).!.)./.!.).).Y.).).).).).).).).!.).).).).).).).).!.).).)./.).)._._.).).).!.).).!.).).!.!.E.E.I.E.E.E.E.E.E.",
"E.E.E.E.E.E.E.E.E.F.!.a.f.i.f.i.i.f.s.i.i.i.i.i.i.r.i.i.i.i.d.d.i.d.i.i.i.i.i.d.i.i.i.i.i.r.i.i.i.i.i.u.9.l.d.d.p.i.i.p.p.u.i.t.b.I.J.E.Y.E.E.E.E.Q.",
"E.Q.Y.E.E.W.Q.E.E.J.L.Z : 6 3 5 2 6 2 2 2 6 5 3 4 5 5 5 4 4 5 5 4 5 4 4 4 3 4 4 3 4 4 4 5 5 5 5 4 # # + + + + + + X + X X X +   6.I.J.Y.E.E.Y.E.E.Y.",
"E.Y.E.E.Y.Q.W.Q.Q.Q.Q.X.G Y Y Y Y J J J J J Y Y I I J J I L ! R I ^ I I I I I I I L Y I I I I Y R n b b b x x x x x x x x c 0 # e.!.E.!.Y.Q.E.E.E.E.",
"E.E.E.E.E.Q.Q.Q.W.E.K.} S H H H G H B G G H H G G G H H H L F H F F F H K G L D H H D L H D H H H g a i u i i i a i i i i g x X 7.!.I.I.Q.!.!.Y.Q.Y.",
"Q.E.E.E.E.Q.W.Q.E.Q.U.| S G H H H H H H H G G G G G J H H L L L I H L H H D H H L H H H H D H H L b x i i i i i i i x i i g x + e.).E.P.Y.E.E.E.E.E.",
"Y.Q.Y.E.E.E.Q.R.Q.E.U.} S G H H G G H H J G B G G G H H D L D L H H L H H H H H H H H H H H G B D b d i i i x i i i g i i i x + 0.!.J.Q.E.E.E.E.E.E.",
"E.E.E.Y.E.J.J.E.W.J.U.} S H H H H H H H B H G G G G G G H G G G H H H L G J H G G G B G G G G J H b i i d i i d i i i a i b x X 0.~.J.J.J.E.E.E.E.E.",
"Y.E.E.Y.Y.Y.Y.Y./.Y.S. .S H H H H H H H H H G G B G G H J L L G H H H K H H H G G G G J H H G G H n f s d i d s i a i a i a b X e.).E.Y.).!.^.Q.Y.Q.",
"E.R.!.y.O.$.$.$.$.*.o.I H H H H H G H K H H G H G J H H H P G G K H L K L G H H H H G G L H H K H n n S S S G h D i i i i g x i E @.@.@.@.#.@.] N.E.",
"W.Q.).,.* g g g g g h G G H H H L K L L H H H H H H H H H H G G G H H H G G G H H H J G G H H G G H P G H H H H F i i i d i i i 4 : ; : ; > ; & n.E.",
"R.W.).<.6 I I I I L H H H K L L K L K K L H L H H H P G L H H G K G H H G L H H H H L H H H H G G P G I I P H H G d d d i d i u 4 g d g g j b 8 V.!.",
"E.W._.<.5 G G G G D G H H L L K L K L L L H H H H H H H G H P H K H H G H G H H H H H G G H L G G G P H G H H H S d d d d i d g u i i u i u x w n.Y.",
"E.R._.<.6 J L L G H H G G K K L L L L K K H D L H H H H H H L K L L L H L I L L H J H L L H H G H H G H H H G G G g d d d i d d i g d g a a i 8 n.!.",
"E.R._.<.6 H H L H H G G H L K L K L K L L H H H H H H H L L G L L L G G I L H L H L L L K L G L H G H H H P G G H g d d i d d i d i g a g p i 8 n.!.",
"E.R._.<.6 L J H H H G H G L K L K L L L K D L L L H D G D L L G H G k S k k k k n S H L L H G L H H H H K H H H G g d d d d d i d d g g i g 5 w m.!.",
"E.W.).<.6 L H H H H G G D K K G L K L L L H D H H L L L H K L K G J  .X.........X.T L H K H H H G H H G H G H H H g d d s i d d i g d d g a i 8 n.!.",
"E.H.).<.6 H L L H G G H H H H G G L S d d d d d d d i d d d f f 4 V Z./.Y.T.T.T.(.s.5 R K H H H L G L G H H H H G d d d d d i d i d i g a a i 8 n.Y.",
"E.H.).<.6 J L H H H H H K G H G L L S d d d d d d d d d i d g f 4 M C.!.F.I.F.I.!.i.5 R L H H H H H H H H K H H G d d d i d i d d d i i i g i 9 n.!.",
"E.R.).<.6 J H H H H H H G G P G H L n i d f d d d d i i d d g f 4 M C.!.P.E.I.J.).s.6 Y L L D H G L H L G H K H S d g i d d d i i d d d i g i q n.!.",
"E.H.).<.6 H H H G H G H G G G G H L S u d d s f d d d d d f g f 4 t N.!.H.E.F.E.!.i.5 R L L L K G H L L H H H H H i i d d i d d d d i d g g 5 9 M.!.",
"E.H.).<.6 J H H P G H H J P G G H L D i i d s s d i i i d d g p 4 C K.W.F.E.I.J.!.i.5 Y L L H H H H H D L G H H S d i d i d i d i d d d i a i 9 M.!.",
"E.R.).<.6 H L H H H H H H H G H L L S i d d i s d i i d d f g g 4 t C.!.E.I.I.I.).i.0 R F H L H H L H H H H L G D d d d d d i d d d i i a g i 9 M.).",
"E.R.).<.6 J H H G H H H H H G H H L m i d d d d d d d i i d g p 4 t D.Q.E.E.E.E.!.i.5 R L L H H L G H L L G H H D d d i d d d i d d d d i g 5 w n.!.",
"W.H.).<.6 H H H G H H K H L P H H L S u d d d s i d d d d d g g 4 y K.Q.H.E.E.J.).p.6 R L L K H H H H G H G H H S d d i d i d d d s d d i a i q n.Y.",
"E.R._.:.6 J L H G H H H H H G G H L S i d s d d d d i d d d g g 4 M K.E.F.E.I.J.!.i.5 L F L K L H H G L G L L L H d d d d d d d g s s d g a i 8 n.).",
"E.H.).<.6 H H H G L G H H P G G H L S u d d d s d d i d i f g p 4 M K.Q.J.E.I.E.!.u.0 R L L L K G G G H H H G L S d i d d d d d s s s d i f i 9 n.!.",
"E.H._.,.5 J H H G H H H L G G P H L S s s d s s d d d d d d g g 4 t K.Q.F.E.F.W.).i.3 R K L H H G P H H H H G G D i i d d d d d s s s s g i i 8 n.Y.",
"E.R.).<.6 L H H G H H G K G G G H L S u d d s s d d s s s s g f 5 y C.!.J.Y.P.J.~.i.0 U L G H P G G G H H H G G G d d d d d d d f d d d i g i 8 n.!.",
"E.R._.<.6 J H H H H H L H G G G H L S i d d d f d d d s s s g g u M D.E.F.W.F.E.!.i.0 R K L H G H H G G H H H H S d d i d s d d d d d d u g i 8 n.!.",
"E.H.).<.6 H H H G H H G H G G G H L S i d s d d d d f s s g g f 4 M K.Q.F.E.E.J.!.i.5 R F K L G G H L L H H H H D d d d s s s f f d d d p p i 8 n.!.",
"E.R.).<.6 L H H H L H H G G G P L L S s f d d d f d d d d d g a 4 M C.Q.R.E.E.J.).i.3 R H L H H H H H H L H H G S i d d i d d d d s d s d g i 9 m.!.",
"E.H.).<.6 J H H H G G L H G G H L L n s s d d d s d d d d d g f 4 M C.!.H.E.J.E.!.i.5 R H L H H K H L G H H H H S d i g d d d d d s d i i i i q n.!.",
"E.H.).3.6 L L L H H H G H H P H H L S u s d i d s d d d d f g d 5 M K.!.P.E.R.E.!.p.5 L F L L K H G H G H H D L H i i i i d i s d i d i d d 6 q M.Y.",
"E.E.).3.5 J U H H H G H H H H P L L S s s d d d s d i d i g g d 2 M K.Q.R.E.E.J.!.u.0 J K L K L H L H H L H L L D i i i i i d d i i e i d i 5 q n.Y.",
"P.I.).2.g L R U B U L H L H H G H L m i d d d i i d d d i p g d 4 M C.).R.Q.Q.W.).i.5 I K K H H L G H H H H L D D i d i d i d s s s d 6 6 s 6 9 n.!.",
"E.P.(.2.d I R D L L I F G H G G H L S u d d d d d i d i i a g d 3 M K.!.R.Q.R.R.).i.5 I K L G L G H H H H L H H D i i i d d d 6 s f d d s d 6 9 N.E.",
"E.E.).4.s I ~ K K ~ F L n H H P G L S d d d d i i i d i i a g i 2 y m.W.H.H.G.H.!.i.3 ^ ! K D L L D L H D D L H D d d i s g s g s g k g g f s q n.!.",
"E.E.!.=.$ n n n b h S L G H G H H L n u u u u u u u u i u i i u 1 N ^.).!.~.E.~._.d.2 R S L H L H I I L I I I L U i d d s s 6 s < * * * : , ; & b.E.",
"E.E.W.y.[ +.+.&.%.{ +.J G L H H L L S g g g g g b i g b g b h g i v g.B.n.v.c.c.n.4.5 I G G D H G G S G G S H S S i i i d 4 6 5 T ..] ] ] ' ' ` m.!.",
"E.E.!.Y./.Y.!.E.E.E.A.( h H H P H G S S D H H J L L L L L D J G n B e e v e 0 w r c H G G L H H G d d d d d d d i i i i d x x @ 8.(.Y./.)./.Y.Y.).!.",
"E.E.E.E.Y.Y.Y.Q.E.~.U. .k L L H H G D H L F L H L L F I D G H G G G H H D U H B H H H H H H H L H h d u d d s s i i i i i a b + 9._.Q.R.Q.R.E.Y.Q.Q.",
"J.E.E.W.Q.E.E.E.E.E.U.| k G I H H G G G L H H H L F I F L L P G G H G H L D L H H L L G H L D H D h d s d d s u u i a i a g b + 9._.Q.R.Q.W.I.I.Y.T.",
"E.I.E.R.E.W.Q.!.Q.W.L._ S L L H H H G H D L K L F L L L G G P H G G G J H H J H H H G G H H H H L h d u g s s s i i i i i g x X 0.).Q.R.Q.E.Q.Y.Y.!.",
"I.Y.E.W.E.Q.E.Q.R.W.K.| k H L L H H G L K L L L L L L L G H H G G G G P H G H L H m B H H H H D H b d u d s s s d i i i g g c + w._.Q.R.Q.E.E.E.E.E.",
"I.I.I.Y.E.Q.R.W.W.G.K.} k K L H L G S L H H K L L L L L K G G G P G l z z l l P K H G H n L L L H g f g d g f d g i i i i i x X w.).!.E.Q.P.P.Q.P.E.",
"E.F.I.Y.`.).).!.!.~.^.} S L H L L S K L L K K H F H K L G G G D B G 6 , < < < < 4 n B B H L L U H g g d g f d d i i i i i i x X w.`._.).Y._.)._.Y.Y.",
"E.E.!.h.=.<.2.<.<.7.5./ D F I L H H G S h k h k k k S j S h h h b m 8.p.q.q.q.t.u.*.m U D L L L J n n S b S S S b i i i i d g 1 X.>.:.;.;.>.,.-.N.Y.",
"E.E.`.;.% x i i i 5 i D F L D L H L h u 4 f f d u u p u u i u a i M ^.~.W.W.W.W.).f.6 E D L L L H I L L L H H D L a g i d d g s 1 % # @ @ @ # O b.!.",
"E.I.).4.d T I L D L L I L K L L H L n g d d d s d i d d i a g g 5 V C.).W.R.R.E.!.i.3 E H L L G H G H H G L H H S i d i i x d d i b b b g g x w V.Y.",
"E.E.).<.d ! L L L K L L L H H G G L S d f s d s d d d i a a j g 5 t C.!.E.E.R.J.).i.3 E D L H H H D G G H H H H S d d i i d i d d d d d g g 5 9 V.E.",
"E.H.!.4.s Y ! L L K L L L H H L H L n g s g s s d d d i g i j a u M C.Q.E.E.R.E.!.i.6 E L L L G H G S L H L G H D g i g g i i i i u u i a a 5 7 n.E.",
"E.I./.3.s I L L L L K L L K H G H L S d s s d s d d d d g i g a u t C.!.Q.E.R.W.).i.3 E S H G L H G G G G L H H S i i g i i i i i g g d i i 4 7 m.!.",
"E.E.!.3.d E L K K K L K K L G L H L n g s s f s d d d d i i g j u M C./.E.Q.E.E.!.i.3 E K H L H L H H H H L L I D d g i i i i g i u u i a a 5 7 M.I.",
"E.F.).3.6 Y L L L L K L G H G H H J n g d s d d d d d u i g g g 4 M C.).E.E.H.E.!.p.0 E K H G H G H L G H L H L D d g i i i i i g u i a a a i 7 m.I.",
"E.E.).3.6 I L L K L L K L H H G H L n d d d s d d d d d d f j g 4 M C./.Q.Q.R.W.!.i.5 E L H G H G G H H H H L L H d d i i i i g d s i u i g 5 9 m.E.",
"E.E.Y.3.s L L L L K K L L K L H H L S g d d d d d d i i d g g g u M C.!.E.E.I.I.).d.6 E K L L L G G H H H I H L D g d i i i i i d s u d a a i 9 N.E.",
"E.F.).3.d J H L G L H H H H G H H L n g d f s d d d d d g g g g 4 t C.Y.I.Y.P.Y.(.i.5 ^ F L F L L L H H H I G L S d i i i d d i s s d s p g i 9 V.E.",
"E.E.!.3.6 H L H H L G H G G L H H L S d d d s s d d i d a p g g 4 t C.Y.E.I.F.I.).d.5 ^ L L L L H H H H H L H H H d d d d d d d d d d s g g 5 9 N.Y.",
"E.F.).<.d J H H H H L L L G H H H L S d d d d s d d u d s d g g u M C.E.E.E.F.E.).i.4 E H H H H L H H L H G L I G d d d d d i g d f d s a g i 9 m.E.",
"E.J.).4.6 L H H H H G H H L K H H L n g d d s s d d d d s g g g 4 M Z.!.J.E.I.J.).d.4 Y H D L H H H H H H I L G S f i i i d i d d d d f i a 5 9 N.E.",
"E.J.Y.4.6 J L H G G H H H L H H H H n d d s u s d d u d 6 s 4 s 5 t U.~.W.~.W.~._.g.3 U F H H H H H D L H L L H G d d d i d d d d d d a a j 0 9 V.E.",
"E.E./.3.d H G H H L G G G G H H G G G n g h h h g g h h h g g g x V p.z.z.k.z.z.x.2.c L L L H H H H H L H L H H G d d d d d d d d d d a i a i 9 C.E.",
"E.I.).<.s J H H I H H G H H G L G H H D D L L L L L L L U H H H H B 5 s s 6 s s s h G S P H H H H H L H H L L L G s s s d d s s g s d d d g i 9 N.E.",
"E.R.).3.d J H H L G P G H G L L L G H L I L L L U L L L L H H H G I I l z z z z P G G k P G D H D H H H G L H L S s s d s d 6 g s d d d d g i 9 V.E.",
"E.R.).1.6 H L I H G P P G P G G H G H H H H H G D L H L H H H H H G G G G K P G G H G G H G G H H H L H H I L H S g g s d 6 s s d g d d i a i 9 N.E.",
"!.Q.!.3.6 J L L H H G P G G K L H H L G H G L H H H H D D H G H L G L H G G L H G H J G H H L H H H H H H H L H S s s s s s s d d i s 6 i i 4 7 n.E.",
"Q.R.).<.x L L L L L H L K L G L L G G H H G G L H H H H H H H L H H H H K D L H G G H H H G G L G H H H H G G L k s g s d s d d i i x i a a i 8 m.I.",
"Q.R.).6.0 U U U G J G J L G H H H H L H H L H G H H H H H H H G H H K H L L K K J G L G L G H L G H H H H H I H k d s s d i d d i c x r c b x w A.Y.",
"J.Q._.:.X 8 3 3 3 - e H L L H H G G L H G G H L H H L G L G H L H K L H H G H H H G L H H H H G G L H H G P H H G s s d d g d g 1 X X X O X X . b.E.",
"W.Q.!.V.p.l.l.l.h.j.f./ S H G L L H H G H L H H H L H G H H H G H H G G H L H H G G G L G L H G L h h n h h h h h s s d s i d : ;.l.j.j.j.j.k.k.D.!.",
"R.Q.~.).`.).).W.!.!./. .K K L H H H H H L G K H H L K H H K H H H H L G L H K H L L H H H K H H H g s g g s f g s s s s d g x o w.).~.~.~._._.Q.W.E.",
"W.P.Q.!.Y.E.E.E.I.J.U. .S K H G H H K H S H L H L S H H H H H H H K G H H G H H K L F H H H H K H f g s s d g g s s s s d d b + 7.Y.J.H.H.R.J.R.H.E.",
"E.Q.Q.E.E.!.E.!.E.E.T.( l L F L H H L H L H H H L H H H F H K D D L K D H H H D L S H D H H L L L h g s g a i a d d g g d d g + 9.~.H.W.Y.E.E.E.E.E.",
"E.Q.Q.Q.E.E.!.!.E.E.T.( F L L L L F S F K K G H K K K H L K L F K K L G K K K H K L K H K K K K K k h s g g g a g d d s f g g @ 9._.R.Q.Y.I.E.I.E.E.",
"E.Q.W.Q.E.E.I.E.E.E.T.) S G L L F K K F G K K K K G K K K K K K K K K G K K K K K K K K K K K K K S f f g f a p g i a a a p b @ 9.).H.Y.F.E.Y.E.E.E.",
"W.E.E.Q.E.E.I.J.J.E.U._ D L L D H H m H D D S H D H D D H D H D D G D H D m H D H D D H B S G m D i 4 4 5 4 5 u u 5 5 i 5 u d o 7.).F.P.P.Y.E.I.E.E.",
"E.E.!.E.E.E.Y.E.J.W.D.] W Q Q Q Q Q Q Q Q Q Q Q Q Q Q Q Q Q Q Q Q Q Q Q Q Q Q Q Q Q Q Q Q Q Q _ Q C C C C N C C N N N N N v A = t.Y.Q.E.Y.Y.E.E.I.E.",
"E.E.Q.Q.E.E.Y.E.E.E.E.L.U.U.T.U.U.U.U.U.U.U.U.U.L.L.U.U.U.U.K.U.U.U.K.U.U.U.L.U.U.K.U.U.L.L.L.U.U.C.C.K.U.C.C.C.C.C.C.V.V.U.A.A.T.E.Q.Q.E.I.Y.E.E.Y.",
"E.Q.E.E.E.Y.I.!.!.E.E.I.!.!.!.!.!.!.!.!.E.Y.!.I.Y.Y.Y.Y.!.I.Y.Y.I.Y.Y.Y.E.Y.Y.I.Y.Y.Y.E.I.Y.Y.Y.I.!.!.!.!.!.!.!.!.E.Q.!.E.W.!.!.!.R.Q.E.I.I.E.E.E.I.",
"E.E.Q.E.E.I.I.I.E.I.!.E.I.I.I.I.E.I.I.I.I.F.I.I.I.I.I.I.I.I.I.I.I.I.I.I.I.I.I.I.I.I.I.I.I.I.I.I.I.I.I.I.E.I.I.P.I.H.E.P.P.E.E.E.E.Q.E.I.I.E.I.Y.E.!.",
"E.E.!.!.!.I.I.!.E.E.E.!.E.E.I.E.I.E.E.E.Y.E.E.E.E.E.E.I.I.E.E.E.I.!.E.I.E.E.I.E.E.E.E.E.E.E.E.E.E.E.I.E.E.E.Y.E.E.E.E.E.E.E.E.E.E.E.E.E.!.!.E.E.!.I.",
"E.E.I.E.E.!.!.E.E.!.E.Y.E.E.!.E.!.E.!.I.!.!.I.E.E.E.E.E.!.E.E.E.E.E.!.E.E.E.!.E.I.!.I.E.E.Y.E.!.!.E.E.E.E.E.E.E.E.E.E.E.E.E.E.!.E.Y.Y.!.E.E.E.Y.E.!."
};
