/* XPM */
static char *result[] = {
/* columns rows colors chars-per-pixel */
"84 84 177 2 ",
"   c #021D00",
".  c #1A380E",
"X  c #16391B",
"o  c #263F22",
"O  c #23421D",
"+  c #2A411B",
"@  c #334713",
"#  c #1D4A2C",
"$  c #264020",
"%  c #2C4325",
"&  c #2B4823",
"*  c #224A29",
"=  c #2B4F2A",
"-  c #27512A",
";  c #2C4E33",
":  c #2D5235",
">  c #2F5C36",
",  c #27513C",
"<  c #2E5D3D",
"1  c #395736",
"2  c #3A5B34",
"3  c #32563E",
"4  c #395738",
"5  c #355C3C",
"6  c #395C3A",
"7  c #37613D",
"8  c #38623F",
"9  c #4B6335",
"0  c #41623C",
"q  c #4D653C",
"w  c #516637",
"e  c #50663B",
"r  c #556D3D",
"t  c #5B6D39",
"y  c #65753E",
"u  c #2B5E41",
"i  c #2F5D49",
"p  c #355D44",
"a  c #3B5E45",
"s  c #375F48",
"d  c #3A5F49",
"f  c #2E644C",
"g  c #366144",
"h  c #396145",
"j  c #34634D",
"k  c #3B634A",
"l  c #3E694D",
"z  c #336351",
"x  c #3A6250",
"c  c #3E6C53",
"v  c #3E755D",
"b  c #3B7861",
"n  c #3F7668",
"m  c #435E43",
"M  c #436445",
"N  c #4C6741",
"B  c #416846",
"V  c #42664B",
"C  c #416B4E",
"Z  c #566E40",
"A  c #586F43",
"S  c #44714E",
"D  c #4D724F",
"F  c #5E7645",
"G  c #5E7649",
"H  c #5D784F",
"J  c #426C51",
"K  c #496F55",
"L  c #446E59",
"P  c #467256",
"I  c #487357",
"U  c #46735A",
"Y  c #497359",
"T  c #44785E",
"R  c #4D785C",
"E  c #517552",
"W  c #597A56",
"Q  c #50765C",
"!  c #567B5C",
"~  c #5A7C5A",
"^  c #627646",
"/  c #687445",
"(  c #63744A",
")  c #647D4E",
"_  c #667D52",
"`  c #437662",
"'  c #467B63",
"]  c #487962",
"[  c #5A815C",
"{  c #77874B",
"}  c #6A8656",
"|  c #6C875E",
" . c #64885F",
".. c #708953",
"X. c #778D5C",
"o. c #7A925D",
"O. c #658662",
"+. c #688560",
"@. c #658863",
"#. c #6B8D66",
"$. c #6D8F69",
"%. c #6F916A",
"&. c #769264",
"*. c #7A9262",
"=. c #76926A",
"-. c #7D956B",
";. c #779876",
":. c #7B9E77",
">. c #819665",
",. c #869F6A",
"<. c #899F6B",
"1. c #86A16B",
"2. c #88A06C",
"3. c #87A170",
"4. c #8AA070",
"5. c #89A778",
"6. c #91A474",
"7. c #A5B57C",
"8. c #93AE85",
"9. c #95AF89",
"0. c #94B086",
"q. c #96B18A",
"w. c #A3BC88",
"e. c #B3C48C",
"r. c #B9C98F",
"t. c #AEC695",
"y. c #ADCA97",
"u. c #B2C793",
"i. c #B3C991",
"p. c #BBCE97",
"a. c #B3C69A",
"s. c #B4CD9E",
"d. c #BDCE9D",
"f. c #BCD195",
"g. c #BBD19C",
"h. c #B4CFA1",
"j. c #B6D0A0",
"k. c #BDD6A0",
"l. c #C3D39C",
"z. c #C2D3A1",
"x. c #C2D8A7",
"c. c #CDDBA2",
"v. c #C2D7AA",
"b. c #D6E6AF",
"n. c #DDEBAD",
"m. c #DEF1A9",
"M. c #DBEAB3",
"N. c #DFEFB8",
"B. c #DEF1B5",
"V. c #DEF3BB",
"C. c #E1EDAB",
"Z. c #E3F0AE",
"A. c #ECF5AF",
"S. c #EEFAAF",
"D. c #F0F5AD",
"F. c #F2F8AD",
"G. c #E1EFB6",
"H. c #E1EEB8",
"J. c #E3F2B5",
"K. c #EDF6B5",
"L. c #E2F8B6",
"P. c #EFF9B3",
"I. c #E4F4BA",
"U. c #ECF6BC",
"Y. c #E6FCBF",
"T. c #EBFABC",
"R. c #F2F7B5",
"E. c #F1FAB6",
"W. c #F8FEB4",
"Q. c #F2F7BA",
"!. c #F2FCBB",
"~. c #F9FFBC",
"^. c #E9F7C1",
"/. c #EDFCC2",
"(. c #F2FEC1",
"). c #FAFFC1",
"_. c #F7FFC8",
/* pixels */
"E.E.E.E.E.E.E.!.E.~.E.E.E.E.E.P.E.P.E.P.E.E.E.E.P.E.P.E.P.E.P.P.E.E.E.P.E.S.E.P.E.E.E.E.E.E.P.K.E.E.E.E.E.E.E.E.E.W.E.E.E.E.E.E.E.P.E.P.R.P.K.!.E.E.E.E.E.!.E.Q.E.E.E.E.",
"E.E.E.!.E.E.E.E.!.K.E.P.E.E.E.E.E.E.E.E.E.E.E.E.E.E.E.E.E.E.E.E.E.E.E.E.E.E.E.E.E.E.E.E.E.E.E.E.E.E.E.E.E.E.E.E.E.E.E.E.E.E.E.E.E.E.E.E.E.E.E.E.E.E.E.E.U.!.!.!.!.E.!.E.",
"E.E.E.E.U.E.E.E.E.P.S.P.E.P.S.S.E.P.P.P.S.P.P.P.P.P.S.S.P.P.P.E.S.P.P.E.P.P.S.S.P.E.S.E.E.E.S.P.P.P.E.E.E.E.E.E.E.E.F.E.E.P.S.F.E.P.P.P.S.P.P.E.E.E.U.E.E.E.E.E.U.E.E.E.",
"E.U.E.!.Q.!.E.E.E.E.E.!.(.!.(.!.T.(.(.!.!.!.!./.T.(.(.!.(.(.!.!.!.(.T.(.!.(.(.!.!.(.(./.!.(.!.(.!.(.(.~.(.(.!.(.(.(.(.(.(.(.!.(.(.!.(.!.!.(.(.!.!.E.E.E.E.!.E.!.E.E.E.!.",
"E.!.E.!.!.E.!.!.R.W.Q.j.s.s.s.s.h.h.s.s.s.h.s.s.s.j.s.s.s.g.s.s.s.s.s.s.h.s.s.s.s.s.s.s.s.h.s.s.s.j.s.s.s.g.s.s.s.y.s.u.y.a.a.a.a.a.a.i.y.t.u.r.Z.E.!.E.E.E.E.E.E.E.E.E.",
"E.!.E.E.!.!.E.!.Q.~.G.N 5 2 2 5 6 2 6 6 6 2 6 6 6 6 6 6 5 6 5 5 6 6 6 2 6 6 6 6 6 2 6 4 6 2 6 6 6 7 6 6 6 6 2 1 4 O O O O O $ O + o o + O $ . @ n.!.E.E.Q.!.!.E.!.E.E.E.",
"E.E.E.U.Q.E.E.E.R.).U.~ Y E E E Y Q Q Y R Y R Y Y R Y Y Y Y Q E R Y R Y Q Y I R Y Y Y I Y Q Y Y Y Y R R R Q Y Y I l l h l B B B V V V M M V M r M.!.E.!.U.E.E.E.E.E.Q.U.",
"E.!.!.Q.U.E.E.E.R.~.I.W P P P P I I I I I I K I I I I I I I I I I I I P I U P I I P I K P I Y Y I R I I I P I I P h h h h h k h h h a p 5 h 6 e M.T.E.E.E.E.E.E.!.E.!.E.",
"E.E.E.E.E.E.E.E.E.~.I.! L Y U L U Y L I L Y Y I K I K I Y Y I I I I I Y I Y I I Y Y Y Y Y I Y I Y K K Y Y K K Y K p h 8 h h h M h h 8 8 8 h 6 w n.!.E.P.P.E.E.E.E.E.E.E.",
"F.E.E.E.E.E.E.P.E.W.L.~ L Y Y Y Y Y Y I Y Y K I Y Y I I Y L I Y I I K Y I I K Y K Y Q Y Y I Y K Y I Y I Y Q Y Y K h h 8 M h h h h h 8 h h h 0 w n.E.S.E.E.F.E.E.E.E.E.E.",
"E.E.E.E.F.E.E.F.E.W.L.W L Y Y Y Y U Y P Y I I I I Y I I I I P P I Y I I I I I P I I Y I I I Y P I I I I K Y I I K h 8 h h h h h h 8 7 h h k 0 w M.P.E.P.S.F.E.F.E.E.!.E.",
"E.E.E.T.T.T.T.T.T.!.V.W L Y Y Y Y P I Y I I I I I I I I I I P R I I I I I I U P I I I I I U I I I I I Y Y Y I Y C h h h h h h M h h h p h B 6 N N./.T.T.T.T.T.P.E.U.!.E.",
"E.F.K.t.=.:.:.:.;.5.$.R L Y I I Y P R P Y P P Y I I I I P Y P P I I R P P P R P I I Y U I I I I I I I I P Y P P I P P P I K S C k h g g s a a M $.=.=.=.=.;.| 7.!.E.K.!.",
"W.F.!.8.: l l k l k J P L I I I P I P P P Y I I I Y U I I Y Y I P Y P Y I I I P I I P P P I I I I I I I Y I I Y I I I I I I Y Y J s h k a d s a 3 ; ; ; ; , X >.!.E.!.E.",
"R.W.(.q.h Y U R U Y Y R R I U I P P I I I U I I U I I I P P I P Y Y P I Y P I Y I I P K P I I I Y P I I P I P I I I I I I K Y I C a s s s l h k V V V B k c * 2.K.!.P.E.",
"E.E.!.q.p P P Y U U P I I I I I P R I I I I I I I I I I P P R Y P I Y P P Y Y P I P P I P Y I U P I I I P P R I I I I I I K Q I c k a s a p d d a k a a h g # ,.!.!.!.E.",
"E.W.!.9.p Y R Y R P P I I P Y I P R Y I P P P I P P P P P Y Y P P R I R I P R I I R I R I P R I R P I I I I U I I I P P P I Y K J s a s s a k s a h a h a j # ,.!.E.E.Q.",
"E.W.~.q.p I U Y Y I U I P Y P Y P P P Y R P P Y R P R P I P I P P P I R R P P P P P P P P P P P P P P P I I I I Y I R I I P Y I C s g k s k a a h k k h k f # ,.(.T.E.!.",
"E.F.Q.8.5 R U R Y P P Y Y Y P P P Y P P Y P Y P I I I I Y I I Y P P J l C l l C C J C J P l l C C I Y Y I I P P P I I I I I Y K J a s g s k a k a k h m h f # 1.!.T.E.E.",
"E.W.~.8.a I U U U R I P I P Y I Y P Y I I I Y I I I I I I I Y P I D @.%.@.#.#.#.#.#.#.#.$.#.#.#.#.I P Y U I I P I U I I Y K Y I C s k k g a s h h h k h g f # 2.(.E.!.E.",
"R.W.(.9.5 Y U Y Y P Y Y P Y I P I I J h a a g g g g h h p h p j 6 r V.Y.T.T.T.T.T.T.T.T.T.T.L.P.Y.$.J P P R P R P I Y P I I L I C g h g h h h h h h h a h j # 2.(.E.E.!.",
"E.R.(.8.a I R I I P P I I P Y Y I I J p h h h h g h h h h h s k 5 F Z.E.F.E.E.P.E.F.F.P.E.F.F.F.L.#.C I P P Y I Y Y P I I I I K C h g h h a h a h a h m k j * <.(.E.E.E.",
"E.W.(.8.p I U I R P P R Y P P I R P J a h h h h g h m 8 8 h s k 5 ) Z.T.E.Q.~.E.E.R.E.E.Q.R.F.D.T.#.S I P R P I P Y I Y Y I I K C g g h h h h h h h a a h j # <.(.!.E.!.",
"R.W.~.0.p P U R Y P P I P Y P P I I J a h h h g g h h h h a p k 5 F J.~.U.Q.Q.E.!.E.E.Q.E.R.E.R.T.$.C R P P P P I P I I I I I K C h h g h h h a h a a a h z # <.(.E.E.Q.",
"R.F.~.9.p R I I Y P R P P P Y R I P J a h a h h h h h h a h p k 3 F H.(.E.Q.Q.(.Q.E.~.Q.Q.Q.R.R.U.$.J P P Y Y P Y P I Y P I I K J s p g h h h h a a s m k z # ,.(.E.E.U.",
"R.W.!.9.6 Y U R Y P P P P R P I I R J p h h h h g h h 8 h h h k 5 G I.(.U.Q./.Q.U.~.Q.Q.Q.Q.R.R.Y.$.C R P P I Y P Y I P Y I U K J g h h h h a h h k a a s z # 2.(.U.!.E.",
"R.R.(.9.p R U Y R Y Y P P P I I I I J p h h h h h h h h h a s d 5 G H.~.E.Q.Q.Q.E.E.Q.~.!.Q.K.R.T.#.J Y P Y Y P Y Y P P P Y I K l h g h g h h h h s d a d z # 3.~.E.E.E.",
"E.R.(.9.p Y U R P I P Y P R P I I I J h p h h h h h h a h a s j 5 F J.~.E.R.Q.Q.E.K.Q.!.~.K.R.D.T.%.J Y P I P Y I P R P I I I K J h h g h h h h h h d s s z # ,.(.U.E.E.",
"W.W.T.q.5 Y ] U P P I I U I I I I R J g h h h h h h a a a h s k 4 ^ H.~.P.R.R.E.E.E.E.E.E.E.P.F.T.#.l P P P P P P P P Y Y I I K C h g h g h h h a a a a s z # 1.(.T.E.E.",
"R.R.(.9.g Y U Y U Y P P I I I U P I J g h h h a h h k a a h s k 5 ^ H.~.R.R.R.R.E.E.!.Q.E.P.E.F.Y.#.C U P K P P P Y I P P Y U K C g h g h a h a h k k a j z # 1.(.!.E.E.",
"E.F.~.8.8 U T T P I I P I R P I I P J g g h h a p h a a a a s j 3 ( H.~.R.W.Q.Q.R.~.Q.!.E.E.E.E.T.#.l R P U I P P Y I Y Y I I K J s h g g h h h a g a a k z # 1.(.E.E.E.",
"W.R.(.9.5 Y U Y U I I R I I P P I R J g h h h a h h h h a k s k 5 ^ K.~.R.R.R.R.Q.!.R.Q.R.E.E.K.T.%.C P K P P P P I P Y P I I K J h g h h h h a g s k a j z # 2.(.E.E.!.",
"E.E./.0.7 T T I U Y Y I P Y I P I I l p p a p a p s a p s p s s 5 ^ J.~.E.R.R.E.P.K.E.K.K.E.F.E.T.@.P P R P P I P R I Y P I I K J g g h h h h h a s k a s z # 2.(.E.E.!.",
"W.E.(.0.7 U U T P I P P I P Y Y I I C h h h h a a h k h a k k k 5 G J.U.E.W.~.!.!.!.!.!.!.E.!.E.T.%.l I I P P I P P I P Y I U K C h h g g h h a h h a a s z # ,.(.T.E.E.",
"E.W.(.0.7 R T I U I P P Y P P I P R C h h p p a p a s p p s a k 5 G N./.U.U.Q.T.U.Y.^.U.T.T.T.L.Y.@.P P P R I U P Y P P P Y I K C g h g h h a h a k a a k z # 2.(.E.E.!.",
"R.F.T.0.8 P I P U I R I P Y I I P R I C K I K K K K L K K P L Y J E =.&.X.o.*.*.o.&.&.*.o.o.o.o.&.I c P U P I P Y P R P I I I K J h g h h h h h a a d a h j # 2.~.U.E.E.",
"E.E.!.0.7 I P T I I I P Y P I I I I I I I I Y Y Y I I I I K I L P c c C C l l l C l C C S l S B S P P U L P P P Y P P Y Y I I K C h h g h h h h h h h m h j # 2.(.U.E.E.",
"E.E.~.5.7 I I E I I P R Y U Y I I I I D I U I I I I I I I I I U U U v U U T T T U ` Y U U P P P P P U P U P P R P Y I P P Y U K C g g h h h a h h a p m h z # 1.~.!.!.E.",
"E.E.!.0.7 I E E I I I I Y Y Y Y R S I D U U U U I Y Y I I I I U U U U ` U U U U Y Y K Y P R R I U I I P P U I I I Y I Y Y I I K C h h h h h h a h h a h k z # 2.(.U.E.E.",
"E.W.!.0.7 P T I I U T U L Y ` U I P T P U U U U P I I I I I I P Y L U U U Y U U Y Y Y L Y I I I P P I I P P I I Y P P Y P I I K C g h h h h h h h a a a a j # 2.!.!.E.U.",
"E.S._.0.8 I T T U ` ` ` ` Y L ` T T T l S P I I I I T I I I P I Y Y Y L K Y Y Y Y Y Y K P I I I I P I I P I Y P P I P I I I I K C s g g h h h a a a a a s z # <.(.T.E.E.",
"E.E.(.5.= h l l l l M k k V l V l S S S P R v [ I I I I [ I P T Y U Y Y Y I Y L K Y I I P E P P I I I I R Y P I P Y P P U I I K C h h h h h h h a a a a d s # <.!.!.E.E.",
"E.E.!.e.o.>.>.-.>.-.-.>.>.>.>.>.*.>...l v [ S T I U I R v I I I P Y Y Y I I I Y D I I I T S D S I I I P P P P Y Y Y P R P I Y K C s g h g h h h a a a m a z # <.(.E.E.E.",
"E.D.E.U.(.!.!.T././.T.T.^./.^./.!.(.g.7 b S T S P P I I I P I I I P U P I I I I P I I I E P P T I I I I I P Y P P I Y P Y Y P K J g k g h h p h h a a m d j # <.(.!.!.E.",
"E.E.K.R.U.E.E.!.!.U.!.E.E.!.E.E.E.!.p.> T v v v P I I I I I I I U Y Y I I I Y I I I T S S E [ c D I I I P P Y I I Y P Y I I Y K C h g h h h h h h s a m d x # 4.(.E.E.E.",
"E.E.E.E.E.E.E.E.E.E.E.E.E.E.E.E.E.E.f.5 [ v P S P I I I K Y I I I I Y I K Y I I I I c [ P P S S P I I I P R P Y P P Y P P Y P K J g h g h h a a h a d a d z * 4.(.!.E.E.",
"E.U.U.E.U.E.E.!.E.P.E.E.E.E.E.E.E.~.f.< ] I I I K I E I Y I I I Y I K I Y I K I I S P P [ v S c P P I I Y P P Y Y P Y I I I Y K l h h h h h h h a d m d d z # <.(.E.E.Q.",
"E.E.E.E.E.E.E.Q.E.E.E.E.E.E.E.E.E.!.g.5 ' U I P U P K I Y I I I I I Y I Y I Y I I T T S v c [ v T T I I P I Y P I Y P I I I U K J h g g h h h a h s m a d z # <.(.E.E.!.",
"E.!.E.E.E.E.E.E.E.E.E.E.E.E.E.E.E.~.s.j [ n ` n v v b T v v v v v v T v v ` T b v v b b v v b b v P P P P P P I R P P P P Y I K C h g h g h a h h d a m d x * <.(.!.E.E.",
"E.E.E.!.E.E.!.U.E.E.E.E.E.E.E.E.E.~.p.* f f i p 3 5 < 5 < 5 < < < < < < < < < u < < f < f < f < < T P I R P P P P P R P I I U K C g h g h a h h h a a d d z # 4.(.!.E.E.",
"U.!.E.E.!.Q.E.E.E.E.E.E.E.E.E.E.E.E.n.e.a.a.a.u.i.i.i.i.i.i.i.u.e.i.i.i.i.i.i.i.y.i.i.i.t.e.i.i.y.[ P I P P R I I P Y Y I I I K J s k g g h h h a d d m d z # <.(.Q.E.E.",
"E.E.E.!.E.E.!.E.E.E.E.E.E.E.E.E.E.S.W.~.(._.(.~.).).(.).(.(.~.~.!.~.!.~.~.~.~.~.!.!.!.!.!.P.~.!./.#.c [ R P P I I Y P I I Y P K C h g h h h h a h a d a d z # <.(.E.E.E.",
"Q.Q.E.E.E.!.E.E.Q.E.E.E.E.E.E.E.E.E.E.E.K.R.U.P.E.E.E.E.K.E.E.E.U.E.T.E.E.E.!.P.E.E.!.E.E.E.S.D.Y.$.l P P I I I P I Y P P Y K K C g h g h h h h a a a m s j # <.(.!.E.E.",
"R.Q.R.R.E.Q.E.E.E.E.E.E.E.E.E.E.E.E.K.E.E.E.R.E.K.R.E.K.U.E.U.E.E.!.E.E.E.T.P.!.P.!.!.E.K.E.P.S.Y.%.P P I I I I Y Y P Y Y I Y P J h g h h a h a h a a a a z * <.!.E.Q.!.",
"E.!.Q.~.!.~.E.E.E.E.!.E.E.T.E.E.E.U.U.E.U.E.P.U.U.K.E.P.E.P.T.P.E.E.!.P.!.P.E.E.E.E.T.E.E.P.E.S.T.%.l P U I I U P Y I P I I I K C g h g g h h h h a a m d j * <.(.!.E.E.",
"E.!.E.R.R.!.E.E.E.E.!.E.E.E.E.E.!.E.E.K.E.E.P.P.E.E.E.E.E.P.E.E.P.T.P.!.P.!.E.T.E.!.!.E.P.E.S.S.T.$.B P I I I I P I Y P I I U K C h g h h h a h h a m a a z # <.(.!.E.E.",
"E.P.!.E.S.E.F.W.E.W.E.E.E.W.E.E.E.~.E.E.E.W.E.~.W.E.R.W.E.E.E.Q.!.~.W.P.E.E.P.E.E.E.!.!.E.E.F.P.T.$.l P P P P P P Y P Y P I I K C h h g h h h h h a a a d j # <.!.!.E.!.",
"E.E.!.T.L.L.L.J.K.L.I.I.T.I.T.J.L.U.J.B.J.J.J.G.J.J.J.G.J.J.J.H.J.Z.E.!.P.P.E.P.U.!.E.E.E.K.P.P.T.$.c K P P P P P I Y I I Y I P C g g h h h a h h a a m a j # <.(.Q.E.E.",
"E.E.T.w.H  . . . .+.O.+.O.+.+.O.O.@.~ W W W W W W W E W W W E W H { C.E.P.P.T.E.E.!.Q.!.E.E.K.F.T.%.l P Y I R P Y P Y P P Y I K c h h h g h h h a a a a d j # <.!.!.E.E.",
"E.E.(.5.> c c J J J J L c c L J J P k p 5 p p i p p u p p p p p 2 t J.!.!.E.!.E.E.E.T.E.E.E.E.E.U.%.J P I I P Y P Y P Y P I Y K J h g g h h a h h a a m h z # <.(.E.U.E.",
"W.F.!.0.h E U R Y Y Y Y I I I R Y Y V k h k d k a k s k k d a k 4 / ^.!.P.P.E.P.E.E.!.E.E.P.E.P.T.%.c P P R P I I Y Y I Y Y Y K C h g h h h a h h k a a s z # <.(.E.!.E.",
"E.F.!.0.h I U R Y Y I I R I Y Y Q Y V k h M h h s a h d h k h V 4 ( ^.(.P.E.P.!.E.!.!.E.E.E.P.P.Y.%.C I P P P P I I Y Y Y Y Y I J h h g h h h h h h s m d z # 4.(.T.E.E.",
"R.D.(.8.h I I I Y Y Y Y I Y Y Y Y Y J h h k k h a k h k h h k x 4 ( U.!.P.P.P.T.E.T.!.!.E.P.P.P.Y.%.C I P R I Y I I Y Y Y Y Y K J g h h h h a h a s d a d z # <.(.E.E.!.",
"E.E.(.8.h R I R Y Y I Y Y K Q Y I R l h h k a k h d M h d k a m 4 / U.!.P.P.E.E.U.!.P.T.!.P.P.P.T.%.J I U R E I Y I I Y Y Y Y I C h g h h h h h h a s m d z # ,.(.!.E.E.",
"E.F.!.8.a I U Y Y Y R Y R I Y Y Y K V h h p 6 p p p p p p p p h 6 / ~.~.~.).).).).).).~.~.~.~.W.(.$.C P I R P P I I I I I I I I B h h h g h h h a h a a d z # 3.(.E.E.E.",
"E.W.Q.8.h R U Y Y I P I I I Q Y Q I K C V V C V B V C V V k V B M ^ l.l.l.z.l.l.l.l.l.l.l.l.l.l.g. .P I P I I P I P P P I Y I I J h g h h h h h a k s a d z # 2.(.U.E.E.",
"E.W.~.9.h R I R R I Y Y Y Y Y Y Y Y Y Y I I K I I K K K K K I Y I S g 7 8 h h 8 8 s a g g g 7 h g P S I P I P I P P P P I I I I C h h g h h h h h a a a d z # ,.(.!.E.E.",
"E.F./.9.h I P U Y I I Y I Y I Y Y I K Y I Q I I Y Y Y Y Y Y Y Y P v T P U ] T T T ` ` ` ` ] U ` U P S I S I I I P P D I I I I D C h h h h h h h h a k a k j # 2.(.T.E.!.",
"R.R.(.8.8 E I P Y L Y I I U I I I I I I I I I I K I K I I K Y Y I P U P P P U I P U Y U U U U U P I I I I I I I I I I I I I I I C g g p k h a h g h h h g f # 3.(.E.E.!.",
"R.R.(.8.h I P P J I Y Y R U P I I I I I I I I I Y Y Y I Y I K I I I I I I I I Y R P I Y I I Y I I I I I I I I I Y K I I I I I I C s g g s h h h s a a g g f # 2.(.E.E.E.",
"Q.E.(.8.a Q R P K U P Y P R I I I I I I I D I I I I D I I Y Y Y K Y I I I I L Y U L Y L Y Y L Y I Y L Y P R I I Y Y L Y I I L L J p h 8 8 h p h h k M h j f # 2._.E.E.!.",
"R.R.~.8.m ~ Q R Q I K Y I I I I Y I I I I I I I D I I I I I Y K Y Y K I P R Y Y I Y Y Y Y Y Y Y Y Y Y Y U I R I Y Y Y Y Y I Y U J g h 7 6 h h a m V V B B S - 6._.U.E.E.",
"W.R.).6.O 6 6 6 0 2 0 K P I I I P P I I P I I I I I I I P I I I U I I I I Y Y U L Y Y U U Y Y P Y Y U Y Y U Y Y U L I U U U R U J p 6 g 7 p M m % o + + + &   o.(.!.E.U.",
"E.R.U.c.k.x.v.v.z.z.k.~ S I I I P P I I I I I I I I I I I I I P I I I I I U U Y Y U Y Y Y U Y I U Y Y U Y Y Y U Y l l l k c l k h s p 7 p k a q a.z.z.z.z.z.d.c.T.E.E.Q.",
"E.!.~.!.T._.(._.).~.I.~ v P [ S P P Y U I Y Y U I P U I U Y R U U Y I I Y Y P I I I I I I P I I P Y I P I I I I P g s s g g g k a h h h a s a 9 I.(.~.~.)._./.(.!.E.E.!.",
"E.K.~.K.A.E.R.Q.R.F.Z.W l v v S S T U Y Y U Y Y I R Y U Y Y U P Y P I I P I Y P Y I I U I Y I I Y P I Y I I I I P g g g g u g g g h h m a s a w n.P.F.R.R.J.(.K.!.E.E.E.",
"E.E.U.E.E.E.E.E.R.W.L.[ c T T S P P I I L Y L I K I K P K I K U P K Y K K P Y K P K K P P P I I I J K P P P Y Y I g g j h k k k k a d d d x a 9 M.U.E.E.E.E.E.E.E.E.E.E.",
"E.E.E.E.P.E.E.U.E.W.B.[ c P P P P I U U Y L I Y P U P P P P K U K U U U U Y L I U I I P P P P P I I P P P P L Y R k k k k k k j k s k d d x a q M.!.!.!.R.!.E.E.U.E.E.E.",
"!.E.E.E.Q.E.K.E.E.E.V.[ v I T P I P U U Y U U P U U P P P P U U P U U U U U P P P P U U P P U P U U P P P P I L U k j j j j k k k a d m d d a q M.!.E.!.E.E.E.U.E.E.!.E.",
"E.U.E.K.K.E.E.E.K.E.m.[ l P D D D I I I K I K I K K K D I K I K K D K I K K I K I K I K D I S D D D P D I K K D K 5 5 5 7 5 5 6 p 5 6 6 a a 4 9 b.U.E.K.E.E.E.E.E.!.E.E.",
"E.!.E.!.E.E.E.!.P.S.m...} H ) } ) _ _ _ _ _ _ _ _ _ _ _ _ _ _ _ _ _ _ _ _ _ _ _ _ _ _ _ _ ) _ _ _ ) ) } _ ) ) } _ Z r r r Z Z Z Z r r Z Z A w y C.!.E.E.!.E.E.E.E.E.E.E.",
"E.E.E.E.P.!.E.E.P.S.P.L.N.B.B.B.J.N.H.H.J.B.H.H.H.G.G.L.G.G.H.H.J.B.H.H.H.H.N.I.N.H.H.H.J.J.J.N.G.N.G.B.G.G.G.B.B.B.B.N.N.I.J.J.G.H.H.H.H.G.J.J.P.Q.!.!.!.E.E.U.!.U.E.E.",
"E.E.E.U.!.E.E.E.P.!.P.!.T.!.E.!.!.!.!.!.!.!.E.!.!.!.E.E.E.!.!.!.!.!.E.!.!.(.!.!.E.!.!.!.E.!.!.E.E.!.E.!.E.!.E.E.!.T.!.!.T.!.!.(.~.Q.!./.(.Q.~.~.E.E.!.E.Q.E.E.!.E.E.!.E.",
"E.E.E.E.E.!.!.E.T.P.!.S.E.E.E.E.E.E.P.P.E.P.P.P.P.P.E.S.P.E.P.P.E.P.P.E.P.P.P.E.P.E.P.P.P.P.F.P.P.F.F.E.S.P.P.F.E.E.R.U.P.E.E.E.R.R.R.R.R.R.E.E.E.!.!.E.~.E.E.E.Q.!.E.E."
};
