/* XPM */
static char *result[] = {
/* columns rows colors chars-per-pixel */
"32 32 4 1 ",
"  c #333C24",
". c #586335",
"X c #7F8E44",
"o c #ADB834",
/* pixels */
"X.o.X.X..o...XX.XX.o..X.X.o..XX.",
"..X..o.o.X.Xo..o.X.X.o.o.oX.o.XX",
"o...o.oX.Xo..X.X..o..X.X.X...o.X",
"..o.Xo..o.X.o.o.Xo.o..o.o.Xo.X.X",
".o...X.o.o.oX.Xo.X.Xo.X.Xo.X.X.X",
".Xo.o.oX.X.X.oX.Xo..X...XX.Xo.XX",
"o.X.X...o..X...o.X.o.oXo...X.o.X",
".o.o.Xo.X.o.Xo.X..oX...X.o..oX.X",
".X.Xo...X.X..X.X.o...o..o.o..X.X",
"o.o...o..o..o.o..X.o.Xo.X.X.o.XX",
"X.X.o.X..XX.X.Xo.X.X.XX...X.Xo.X",
"X.X.X..oX..o.o.X..o.o..o.o.o.X.X",
".o.o.Xo.o.oX.Xo.o..XX.XX.X.Xo.oX",
".X.Xo.X.X.X...X.X.o..o..o.o...XX",
"o...Xo.o.o.Xo..o..Xo.Xo.X.X.o.XX",
"Xo.o.X.X.Xo.Xo.Xo..X.X.o.o.oX..X",
".X.Xo.o.o.X.X.o..oX.o.o.X..X..oX",
"o...X.X.X..o..X.X..oX.Xo.o...oXX",
"X.oX.o.o..o.oX.o.o.X.o..oX.o.X.X",
"X.X.oX.X.oX.X.oX.Xo.o.o.X...o.oX",
".oX.XX...X..oX.Xo.X.X.Xo.o.oX.XX",
"o.X...oXo.o.X.o...X..o...X.X...X",
"Xo..o.X...Xo..X.oX.o.X.oX.o.o.oX",
"...o.o..o...o.X.X..X.X.X.oX.X.XX",
".o.X.X..X.o.Xo...oX.o.o.oX...o.X",
".Xo.o.o.X.X..X..oX.oX.X.X.o.oX.X",
"o.X..X.o.o.Xo..o.X.X.o.o.oX.X.oX",
".X..o.oX.Xo..X.X..o..X.X.X...o.X",
"o.o.Xo..o.X.o.o.Xo.o..o.o.Xo.XXX",
"X.Xo.X.oX..oX.Xo.X.Xo.X.Xo.Xo.XX",
"XXXXXXXXXXXXXXXXXXXXXXXXXXXXXXXX",
"                                "
};
