/* XPM */
static char *result[] = {
/* columns rows colors chars-per-pixel */
"32 32 64 1 ",
"  c #190201",
". c #1D0201",
"X c #1E0201",
"o c #200201",
"O c #240301",
"+ c #250302",
"@ c #290402",
"# c #2A0403",
"$ c #2B0403",
"% c #2C0503",
"& c #340604",
"* c #390705",
"= c #471007",
"- c #4D1107",
"; c #4E1107",
": c #58170D",
"> c #59170D",
", c #5E1B11",
"< c #601C11",
"1 c #641F15",
"2 c #661F15",
"3 c #652015",
"4 c #662016",
"5 c #6A2318",
"6 c #6C251A",
"7 c #46332D",
"8 c #752C20",
"9 c #772C21",
"0 c #7B2F24",
"q c #7D3327",
"w c #83352A",
"e c #873B2F",
"r c #88392E",
"t c #8E3F34",
"y c #944639",
"u c #9B483D",
"i c #9A4B3E",
"p c #9A4D41",
"a c #9E4F42",
"s c #9D5145",
"d c #AB5B4D",
"f c #AE5E50",
"g c #B36557",
"h c #B26F5E",
"j c #B9685A",
"k c #C46F63",
"l c #CF7D6E",
"z c #D9776A",
"x c #DB8D7E",
"c c #DC8E7E",
"v c #E29F8E",
"b c #E9A997",
"n c #EEAB9A",
"m c #F0A292",
"M c #FFAE9B",
"N c #FFC1AF",
"B c #FFC2B3",
"V c #FFCFBA",
"C c #FFD3C8",
"Z c #FFDDD0",
"A c #FFE9DF",
"S c #FFEDDE",
"D c #FFFAEE",
"F c white",
/* pixels */
"77777777777777777777777777777777",
"77777777777777777777777777777777",
"777777777777$$$&&&&**77777777777",
"777777777%$$xl000ZzMV**777777777",
"7777777#%xlu>2ZFZVVzMVS*77777777",
"777777#plw>5lZNNkMVzzzVD*7777777",
"77777@9i>>ijmNNkZVzMVSzMF*777777",
"7777@yw>lulummkZNMzzzMVVVS*77777",
"777+yi>luCmNukuNmzSSFzMzzVz*7777",
"77@9e>ilxujmNuNmkNMzVSzVDMz*7777",
"77@y:dujjluuuZmkkmzVzFzMVzVS*777",
"7@yy:wlnuulZuuujNkMVzDzzzDzV*777",
"7@9:pdjujNZkmlZujNkzVSzMVSzVS&77",
"7Oy:eiujNuuuNuNZujNVSzMzzVSzN&77",
"7Oq:99ilulxujujkZuukzMVVSzVkN&77",
"7.4-epwjnuuNuuulNZAZNkNZkmNZkN&7",
"7O3-9y9iuBZmNj9jukkNkmNkmNZkkk&7",
"77o,-ep9pclucte9jNNmummuNNkZZN&7",
"77o3-6y9hyarfe:2wjuuNkjjmkZNum&7",
"777 3-696e9ye>xljulZkAuukNlujd&7",
"7777 3-6<<66:eyjiwNmvluZujj>>i&7",
"77777   X===y>eewbjuuuZNj>>di$77",
"777777777 ,69g1yhiuljnNj>diwi@77",
"7777777777o33ey::9eiwii>swde+777",
"77777777777+@;:eg::::::y9ye@7777",
"7777777777777o3:eg9y:886e+@77777",
"77777777777777 3:ee68:+++7777777",
"777777777777777 3::69+7777777777",
"7777777777777777X 3:8@7777777777",
"777777777777777777X++77777777777",
"77777777777777777777777777777777",
"77777777777777777777777777777777"
};
