/* XPM */
static char *result[] = {
/* columns rows colors chars-per-pixel */
"32 32 59 1 ",
"  c #050000",
". c #080000",
"X c #0B0400",
"o c #190200",
"O c #1E0000",
"+ c #1F0700",
"@ c #020817",
"# c #2D0000",
"$ c #2C0300",
"% c #3C0600",
"& c #352000",
"* c #030B22",
"= c #071536",
"- c #0A1834",
"; c #440600",
": c #460B06",
"> c #5B0D00",
", c #600800",
"< c #6A190C",
"1 c #622600",
"2 c #612800",
"3 c #623F00",
"4 c #713500",
"5 c #735200",
"6 c #1C2B47",
"7 c #13264A",
"8 c #172C4C",
"9 c #203B53",
"0 c #314565",
"q c #354D6D",
"w c #294975",
"e c #42597C",
"r c #801200",
"t c #96210D",
"y c #864300",
"u c #8A4A00",
"i c #884E00",
"p c #9F6600",
"a c #8F7011",
"s c #BD8100",
"d c #C1991C",
"f c #D8B300",
"g c #FBB700",
"h c #E3B733",
"j c #FDCF00",
"k c #FDD300",
"l c #FFFC00",
"z c #FFFD00",
"x c #FFE873",
"c c #496588",
"v c #6582A7",
"b c #6C83A0",
"n c #91A9C6",
"m c #94B9DD",
"M c #B6E0F4",
"N c #FFFED5",
"B c #D6E9FF",
"V c white",
"C c None",
/* pixels */
"CCCCCCCCCCCCCCCCCCCCCCCCCCCCCCCC",
"CCCCCCCCCCCCCCCCCCCCCCCCCCCCCCCC",
"CCCCCCCCCCCCCCCCCCCCCCCCCCCCCCCC",
"CCCCCCCCCCCCCCCCCCCCCCCCCCCCCCCC",
"CCCCCC@@.......CCCCCCCCCCCCCCCCC",
"CCCC@@v8>;##>;#..........@CCCCCC",
"CCC@mv8>;#&<;&<>;#>;#>>;8v@ .CCC",
"CC@M88t,#r&&&&r;#>;#<>;8v8O$O.CC",
"CC@8ww>;#>&d5&;#t,#tr;8m8$O%O% C",
"C=nBVVwwww&53&w#>;#>;8M8O%O%7-*C",
"C==wwwBBVVB&&BVwwwwwww8o#77706*C",
"CCC+y4wwwwwwwwwVVBBnnb777e0077*C",
"CC+gpg4y4y41414wwwwwwwee077741+C",
"C@88xpzpgpkpspg2y2y2y2777414u4+C",
"C@M8wwpNpjpNpgpxplpgisiy4upu7-=C",
"C@m8nBwwwwwwwwkpfpfpspspu77706=C",
"C@m8wwBBVVVVVBwwwwww88877e007-.C",
"C@v8;#wwwwwwwwVVBBnb8M8e0777#$.C",
"C@v8>#;;#;;#;;wwwwww8m877$O$O%.C",
"C@c8>#>;#>;#>;#;;#;;8m8$#%O%O:.C",
"C@c8<#<;#<;#>;#>;#>;8v8%O%O:#-*C",
"C@c8t#t,#t;#<;#>;#>;8v9%O:O776*C",
"C@c8wwwwww,#t,#<;#<;8c8:#7700**C",
"C@q8nBVV&Bw&wwwt,#t,8c877e0**CCC",
"C@@@==w&&&&&BVVwwwww8c8e0**CCCCC",
"CCCCCCXh&a5&&==VBBnb8q8**CCCCCCC",
"CCCCCXdaa5&3XCC=====@@@CCCCCCCCC",
"CCCCCX&&&&3XCCCCCCCCCCCCCCCCCCCC",
"CCCCCXXXXXXCCCCCCCCCCCCCCCCCCCCC",
"CCCCCCCCCCCCCCCCCCCCCCCCCCCCCCCC",
"CCCCCCCCCCCCCCCCCCCCCCCCCCCCCCCC",
"CCCCCCCCCCCCCCCCCCCCCCCCCCCCCCCC"
};
