/* XPM */
static char *result[] = {
/* columns rows colors chars-per-pixel */
"32 32 58 1 ",
"  c #100200",
". c #160300",
"X c #1D0500",
"o c #2D0500",
"O c #310000",
"+ c #3C0F00",
"@ c #460000",
"# c #421300",
"$ c #4E1300",
"% c #511800",
"& c #521800",
"* c #5D1B00",
"= c #5B1D00",
"- c #4F161D",
"; c #630000",
": c #691F00",
"> c #562300",
", c #432B1C",
"< c #6A2000",
"1 c #7E2D00",
"2 c #7F2B04",
"3 c #571C23",
"4 c #641D25",
"5 c #553724",
"6 c #792B35",
"7 c #604029",
"8 c #5D4F50",
"9 c #726263",
"0 c #756768",
"q c #830000",
"w c #BE0000",
"e c #893800",
"r c #933406",
"t c #E72727",
"y c #994007",
"u c #9F500E",
"i c #A74F0B",
"p c #B04D0C",
"a c #B35E13",
"s c #C36211",
"d c #C97515",
"f c #FF7006",
"g c #96424E",
"h c #857652",
"j c #8B7D7E",
"k c #FA7358",
"l c #FF8408",
"z c #E78D25",
"x c #FFB335",
"c c #A2A172",
"v c #908081",
"b c #AFA3A4",
"n c #C6C5A3",
"m c #D2C4C5",
"M c #ECE0E1",
"N c #FFFEE1",
"B c white",
"V c None",
/* pixels */
"VVVVVVVVVVVVVVVVVVVVVVVVVVVVVVVV",
"VVVVVVVVVXXXXXXXVVVVVVVVVVVVVVVV",
"VVVVVVVVXeiddzzxXVVVVVVVVVVVVVVV",
"VVVVVVVX1i>XXXXdzXVVVVVVVVVVVVVV",
"VVVVVVVX1iXVVVVXdXVVVVVVVVVVVVVV",
"VVVVVVVVX1iXXXXoooXXXVVVVVVVVVVV",
"VVVVVVVVVX1#oovvbmmmMXXVVVVVVVVV",
"VVVVVVVV.y#o0vvb,bbmmMMXVVVVVVVV",
"VVVVVVV.y#o0vvbj,5bbmggMXVVVVVVV",
"VVVVVVX1#o046bb9,7bb6mgmMXVVVVVV",
"VVVVVX1#o004b669,B76b6bmmMXVVVVV",
"VVVVX=&#o0vv6b9,hB7bb6bbmmMXVVVV",
"VVVV.1#o00vbb69,nNB7b6666mmXVVVV",
"VVVX*&#o0vvbb63,cnNB7bbbbgmbXVVV",
"VVVX+1#o0vv66v9,c@@@@bb6gmbbXVVV",
"VVV.$1#o044bbv9,@qwk@66bbmbvoXVV",
"VVV.$&#o0vv46669O;qt@b6bmbbvoXVV",
"VVV.+1y#o0vvbbv49Oqw@bb6bbvvoXVV",
"VVV.$1&#o00vvb4vv9Oq@6bb6vvo#.VV",
"VVV.$+11#o00v6bb6-O;@b6644vos.VV",
"VVVV.*y&:#o04466bv9O@bbv00o#yXVV",
"VVVV.$+12%#o000vvb9O@vv00o#&1XVV",
"VVVVV *y&::#oo000vv9Ov00o#s&1.VV",
"VVVVV.$+1a&1##oo0000800o#:y#.VVV",
"VVVVVV.$*&u2%%##ooooooo#s&f1.VVV",
"VVVVVVV.+$1&fr&p#######:l&1.VVVV",
"VVVVVVVV..+<1&ul&:p&:s&f1&.VVVVV",
"VVVVVVVVVV..$&<1&ul&ul&<..VVVVVV",
"VVVVVVVVVVVV...&<<1&<1..VVVVVVVV",
"VVVVVVVVVVVVVVV.......VVVVVVVVVV",
"VVVVVVVVVVVVVVVVVVVVVVVVVVVVVVVV",
"VVVVVVVVVVVVVVVVVVVVVVVVVVVVVVVV"
};
