/* XPM */
static char *result[] = {
/* columns rows colors chars-per-pixel */
"32 32 32 1 ",
"  c #150E01",
". c #1F1502",
"X c #1F1602",
"o c #370000",
"O c #3E310D",
"+ c #3E3212",
"@ c #580400",
"# c #6D0700",
"$ c #483A15",
"% c #46332D",
"& c #584A1E",
"* c #5B4C21",
"= c #5C4C21",
"- c #645427",
"; c #6D5D2A",
": c #6C5C2C",
"> c #6F5E2E",
", c #7B6A35",
"< c #786836",
"1 c #911000",
"2 c #B92400",
"3 c #FF4700",
"4 c #FF7400",
"5 c #928248",
"6 c #AD9C61",
"7 c #B0A064",
"8 c #C4B26D",
"9 c #DECD8F",
"0 c #F7E49B",
"q c #FFFFBF",
"w c #FFFFFB",
"e c white",
/* pixels */
"%%%%%%%%%%%%%%%%%%%%%%%%%%%%%%%%",
"%%%%%%%%%%%%%%%%%%%%%%%%%%%%%%%%",
"%%%%%%%%%%%%%%%%%%%%%%%%%%%%%%%%",
"%%%%%%%%%%%%%%%%%%%%%%%%%%%%%%%%",
"%%%%%%%%%%%%%%%%%%%%%%%%%%%%%%%%",
"%%%%%%%%%%%%%%%%%%%%%%%%%%%%%%%%",
"%%%%%%%%%%%%%%%%%%%%%%%%%%%%%%%%",
"% .......%%%%%%%%%%%%%%%%%%%%%%%",
"% O55990q.......%%%%%%%%%%%%%%%%",
"% +O55999qqewwww.......%%%%%%%%%",
"% $=O57790qqqqewwwwwwwq..XX.%%%%",
"% $;=O577990qqqqeeeeqqqq999.%%%%",
"% $&,=O57799990qqqqqqq0997O.%%%%",
"%% $,5>OO7777999000009997O:X%%%%",
"%% $,,5>=OO7777999999997O:9X%%%%",
"%% $;,577>=OO777ooo777OO:99X%%%%",
"%% $;,57876:*OOo234oOO>:99qX%%%%",
"%% $;,5778999:*o1@2o>:999qqX%%%%",
"%% $&,57789q996o#11o699qqwqqX%%%",
"%%% $,55779qqe96ooo699qqwqq9X%%%",
"%%% $;,57799qqq966699qqqq999X%%%",
"%%% $&,57779990q090qq09997777X%%",
"%%%% $;,577777999999997777777X%%",
"%%%% $&;,577777777777<<<-----5X%",
"%%%%% $;;,5-----------         %",
"%%%%% $&&&&&          %%%%%%%%%%",
"%%%%%%      %%%%%%%%%%%%%%%%%%%%",
"%%%%%%%%%%%%%%%%%%%%%%%%%%%%%%%%",
"%%%%%%%%%%%%%%%%%%%%%%%%%%%%%%%%",
"%%%%%%%%%%%%%%%%%%%%%%%%%%%%%%%%",
"%%%%%%%%%%%%%%%%%%%%%%%%%%%%%%%%",
"%%%%%%%%%%%%%%%%%%%%%%%%%%%%%%%%"
};
