/* XPM */
static char *result[] = {
/* columns rows colors chars-per-pixel */
"32 32 30 1 ",
"  c #120500",
". c #160800",
"X c #1B0A00",
"o c #321100",
"O c #3F1E00",
"+ c #3F2B19",
"@ c #401D00",
"# c #462400",
"$ c #512E00",
"% c #583500",
"& c #643F00",
"* c #4C3725",
"= c #46332D",
"- c #513B28",
"; c #654200",
": c #6C4800",
"> c #6F4B00",
", c #7C590D",
"< c #7B5812",
"1 c #5B432F",
"2 c #604832",
"3 c #684E37",
"4 c #7A5D41",
"5 c #977527",
"6 c #846546",
"7 c #AA893A",
"8 c #C3A352",
"9 c #E9C261",
"0 c #F7CE67",
"q c #FFF479",
/* pixels */
"================================",
"======..................========",
"=====.00qqqqqqqqqqq0088<   =====",
"====.88000qqqqqqq000887oOOO ====",
"====.788800000000088875oOoOO ===",
"====.577888888888888755oo#o$ ===",
"=====.,557777777777555,ooOo$ ===",
"=====.,,,55555555555,,,o#Oo$ ===",
"======.@@@@@@@@@@@,,,>>>oo%$ ===",
"=======.;;<<<<<<;;@@@@@@%%:$ ===",
"========.588888855<<<<;;;,:% ===",
"========.8923838888885555,,:.===",
"=========.99999338-8*+5++5,&.===",
"=========X96q6qqq99888855,,.====",
"=========Xqqqq66q492-+8+5,>.====",
"========Xqq66qqqqq9998885,>.====",
"=======X9qqqqq6q649218+55,>.====",
"======.9qq66qqqqq9999885,>.=====",
"=====.89qqqq6q6q3219*+85,>.=====",
"====.88936qqqqq999988855,>.=====",
"====.8899993392919*+8+5,,.======",
"===.558*889999998888555,>.======",
"===.55558*8*819**+8++5,,.=======",
"===.55+*55858888555555,o# ======",
"===.,5555*5*5*+5++5+5,o#o# =====",
"===.,,,5555555555555,,oo#O =====",
"====.:,,,,,,,,,++++,,:oooO =====",
"=====.....::::,,,,,,,oOoOO =====",
"==========....::::,,:oOOO ======",
"==============...:::&&o..=======",
"=================......=========",
"================================"
};
