/* XPM */
static char *result[] = {
/* columns rows colors chars-per-pixel */
"32 32 73 1 ",
"  c #040200",
". c #060300",
"X c #070300",
"o c #0E0800",
"O c #130B01",
"+ c #140C01",
"@ c #190F01",
"# c #180F06",
"$ c #1A1001",
"% c #1B1101",
"& c #1C1307",
"* c #231702",
"= c #241909",
"- c #241B0D",
"; c #291C0B",
": c #2C1F0B",
"> c #291D0C",
", c #2A1D0C",
"< c #2D200E",
"1 c #35270D",
"2 c #35270F",
"3 c #2F2312",
"4 c #332511",
"5 c #392B12",
"6 c #382914",
"7 c #3F311A",
"8 c #433314",
"9 c #423316",
"0 c #433414",
"q c #41311B",
"w c #4A3A1A",
"e c #48391C",
"r c #53421F",
"t c #554420",
"y c #5D4C26",
"u c #52412A",
"i c #56462A",
"p c #5A4A2A",
"a c #574830",
"s c #5F4F32",
"d c #6A582F",
"f c #685730",
"g c #6B5A32",
"h c #685837",
"j c #705D36",
"k c #736239",
"l c #76653C",
"z c #736341",
"x c #796841",
"c c #78694D",
"v c #7F7053",
"b c #827242",
"n c #817147",
"m c #85744B",
"M c #86734D",
"N c #847655",
"B c #8D7F50",
"V c #928258",
"C c #95865D",
"Z c #9F8D5C",
"A c #928364",
"S c #9A8A64",
"D c #A0926A",
"F c #A39669",
"G c #B3A97C",
"H c #B7AE82",
"J c #B9AD89",
"K c #C9BB8F",
"L c #CEC8A3",
"P c #E3E0C0",
"I c #FFF9DE",
"U c white",
"Y c None",
/* pixels */
"YYYYYYYYYYYYYYYYYYYYYYYYYYYYYYYY",
"YYYYYYYYYYY##########YYYYYYYYYYY",
"YYYYYYYYY##JPPIIIIIIP##YYYYYYYYY",
"YYYYYYYY#VJPPIIIUUUUIII#YYYYYYYY",
"YYYYYYY#VJPPIIIUUUUUUIIP#YYYYYYY",
"YYYYYY#VJJPPIIIUUUUUUUIIP#YYYYYY",
"YYYYY#VVJPPPPIIIUUUUUIIIPP#YYYYY",
"YYYY#mVJJJPPPIIIIIUUIIIIPL#YYYYY",
"YYYY#VVJJJPPPPIIIIIIIIIPLLP#YYYY",
"YYY#kVVVJJDPPPPPIIIIIPPLLII#YYYY",
"YYY#kkVVJJJDAPLIIIPLLPPIIUU#YYYY",
"YYY#kkVVVJJJCNIIIUUIPLIPPPPP#YYY",
"YYY#rkVVVVVCnzIPPGGIIPPJoooJ#YYY",
"YYY#rkkVVVVllpPVooooHPHo&== YYYY",
"YYY#rrkkVVllpJVo&==3*PIo=37.YYYY",
"YYYY#rkkkylyePo&=37a*IUo37aXYYYY",
"YYYY#rrkyyyw5Po&37a*PIIUoO%I#YYY",
"YYYY#0rrrye5JPVoO**JPIJ%@PIU#YYY",
"YYYY#009r8kVPPPVVJPPPC+7*IUI#YYY",
"YYYYY#102:<VGIIUUUIPCo-+$PII#YYY",
"YYYYY#100;0,,cKIIIIIGloV+PI#YYYY",
"YYYYYY#10;ydb>44scAPPJlHJPP#YYYY",
"YYYYYYY#10<yG;rr6MPvPPJPPSL#YYYY",
"YYYYYYYY##<yF4dbi6GjPGPSPM#YYYYY",
"YYYYYYYYYY#ymGqVuJ66GjGxG6G#YYYY",
"YYYYYYYYYY#ygVGiLPMJ66666GP#YYYY",
"YYYYYYYYYYY#tkVGhGPPMJxPMPP#YYYY",
"YYYYYYYYYYYY##ykkmGGPPPPPPI#YYYY",
"YYYYYYYYYYYYYY###fkkGGGLPII#YYYY",
"YYYYYYYYYYYYYYYYY###kBZZ###YYYYY",
"YYYYYYYYYYYYYYYYYYYY####YYYYYYYY",
"YYYYYYYYYYYYYYYYYYYYYYYYYYYYYYYY"
};
