/* XPM */
static char *result[] = {
/* columns rows colors chars-per-pixel */
"32 32 11 1 ",
"  c #282115",
". c #494031",
"X c #843F00",
"o c #8B3535",
"O c #85490A",
"+ c #B98129",
"@ c #CBA415",
"# c #E3B200",
"$ c #B58046",
"% c #D4A966",
"& c None",
/* pixels */
"&&&&&&&&&&&&&&##&&+&&&&&&&&&&&&&",
"&&&&&&&&&&&$+###$$+&&$&&+&&&&&&&",
"&&&&&&&&&+#$++%#%$#&$$#X##&&#&&&",
"&&&&&&&&$#$$%+@@+%##&#XX&X++$$&&",
"&&&&&++#$$%$$@@@@%+#&#&$%X+%%$X&",
"&&&&&&+@@+$$$@%$$#+#$#$$%X%%++&&",
"&&&&++@@@@@#$@+#%%%#$$X$XX%++&&&",
"&&&&&&#+@@@$$%##$%%%#@@@@XXX$&&&",
"&&&&&+&@@X@%###X%#$$$@#@@XXX#XX&",
"&&&+#&X#XX###$$#%#+$X@X$@@XX$++&",
"&&&&#&XX%XXX#O$XX#$$$$@@@@X+XXX&",
"&&+&##$XX%XX%OX+++++%XX@@@$$#&&&",
"&&##XXX##+XX#$$$#%$++$#X$X$$X+X+",
"&&#++$X+$XX#XXX%##$+XXoX+X$#X+&X",
"&+X+#XXXX%+#%$$##%$$X$X$XX$$%%+&",
"&XX%X%$X$+++X%$#.%%$$$XX#XXXXX&&",
"&&#+XX#X$XX+X%#..$@#++$@@@@@@@X#",
"&&+%@$@%$$X..@@.@@@$XXX%$@@@$@@$",
"&X@@@@@@$$$X..+X++@$XXX$%XX$XXX&",
"&X@@@@@%%$$%X@%++@#.#XXXX+$$%$$$",
"&+@XXXX%XX%$$$# $$.$##$X$+%#X%&&",
"XX+%XXX$++####  $..++X%X$+++X$%&",
"&X%+XX$XXX#$%%   ##+X$@@@$%++$&&",
"XXXX$+$%%%#$%# . ##@@@@@@+%XXX+&",
"&@@@@@+X&%%&&# . &&@+#@@@@%%X$$+",
"X@@@@++X&&%$$& .$$&&&%+##+%%%$+&",
"&&++&%%&&&&$&&  .&&&XX%+#&+%%&&&",
"&+%&&+XXX&&&&&  . &&&$$%+&&&%&&&",
"&&&$$&&X&&&&&&    &&&&&%&&&&&&&&",
"&&&&&&&&&&&&&   . &&&&&&&&&&&&&&",
"&&&&&&&&&&&&& . .. &&&&&&&&&&&&&",
"&&&&&&&&&&&& .   . &&&&&&&&&&&&&"
};
