/* XPM */
static char *result[] = {
/* columns rows colors chars-per-pixel */
"32 32 11 1 ",
"  c #1F3736",
". c #3D253B",
"X c #2A5A39",
"o c #427F3B",
"O c #523B40",
"+ c #895A45",
"@ c #9B4C51",
"# c #D1851E",
"$ c #5880CC",
"% c #9BF0FD",
"& c None",
/* pixels */
"&&&&&&&&&&&&&&&&&&&&&&&&&&&&&&&&",
"&&&&&&&&&&&&&&&&&&&&&&&&&&&&&&&&",
"&&&&&&&&&&&&&&&&&&&&&&&&&&&&&&&&",
"&&&&&&&&&&&&&&&&&&&&&&&&&&&&&&&&",
"&&&&&&&&&&XXXXXXXXX&&&&&&&&&&&&&",
"&&&&&&&    XXXXXXXXoooo&&&&&&&&&",
"&&&&&&X    XXXXXXXoooooo&&&&&&&&",
"&&&&&X.         X...Xooo&&&&&&&&",
"&&&&X .         X...Xoooo&&&&&&&",
"&&&&X      XXXXXXXXoooooo&&&&&&&",
"&&&X      XXXooooooooooooo&&&&&&",
"&&&X      oooooooooooooooo&&&&&&",
"&&&  ++++++++ooooooooooooo&&&&&&",
"&&&X++++++########++oooooo&&&&&&",
"&&&++++++##############oooo&&&&&",
"&&&++++++##############oooo&&&&&",
"&&&++++++###############ooo@&&&&",
"&&&&+++++###############ooo@@o&&",
"&&&&+++++###############oo@@@oo&",
"&&&OO++++###############o@@@ooo&",
"&& OO+++++##############@@@oooo&",
"&   OO+++++############@@@ooooo&",
"&   OOO++++++#########@@@oooooo&",
"&    OOO++++++++++++@@@@Xoooooo&",
"&     OOO+++++++++@@@@@XXoooooo&",
"&    ++OOO+++##@@@@@@##+XXooooo&",
"&    +++OOOOOOO@@@######XXooooo&",
"&    +++#OOOOOOO########XXXoooo&",
"&    +++###OO###########XXXoooo&",
"&    +++##$$%$##########XXXoooo&",
"&    +++##$$%%##########XXXoooo&",
"&&&&&&&&&&&&&&&&&&&&&&&&&&&&&&&&"
};
