/* XPM */
static char *result[] = {
/* columns rows colors chars-per-pixel */
"32 32 9 1 ",
"  c #1F3736",
". c #3D253B",
"X c #2A5A39",
"o c #427F3B",
"O c #523B40",
"+ c #80A53F",
"@ c #A7ACBA",
"# c #CAE6F5",
"$ c None",
/* pixels */
"$$$$$$$$$$$$$$$$$$$$$$$$$$$$$$$$",
"$$$$$$$$$$$$$$$$$$$$$$$$$$$$$$$$",
"$$$$$$$$$$$$$$$$$$$$$$$$$$$$$$$$",
"$$$$$$$$$$  $$$$$$$$$$$$$$$$$$$$",
"$$$$$$$$$   $$$$$$$$$$$$$$$$$$$$",
"$$$$$$$$$   $$$$$$$$$oooo$$$$$$$",
"$$$$$$$$XoooooooX$$ooXXoo$$$$$$$",
"$$$$$$$Xoooo++++oXoXXoo$$$$$$$$$",
"$$$$$$$Xooo+++++ooXXoo$$$$$$$$$$",
"$$$$$$$Xooo+++++ooXXoo$$$$$$$$$$",
"$$$$$$$Xooo++++oooXoo$$$$$$$$$$$",
"$$$$$$$X.XoooX..ooXoo$$$$$$$$$$$",
"$$$$$$$X.ooooo..ooooo$$$$$$$$$$$",
"$$$$$$$ooooooooooooo$$$$$$$$$$$$",
"$$$$$ooo+++ooo+++oXo$$$$$$$$$$$$",
"$$$$$ooo+++Xo+++oXX$$$$$$$$$$$$$",
"$$$$$$$XXXXXX#oooXX$$$$$$$$$$$$$",
"$$$$$$$X@XXXX#oooXX$$$$$$$$$$$$$",
"$$$$$$$$@oooooooXXX$$$$$$$$$$$$$",
"$$$$$$$$XoooooXXXXX$$$$$$$$$$$$$",
"$$$$$$$$$XXXXXXXoXX$$$$$$$$$$$$$",
"$$$$$$$$$$$XXXXXoXX@@###$$$$$$$$",
"$$$$$$$$$$$XXXXooX@@#######$$$$$",
"$$$$$$$$$$$XXXXooX@@##########$$",
"$$$$$$$$$$XXXXXooX@@###########$",
"$$$$$$$$XXXXXXXooX@@###########$",
"$$$$$$XXXXXXXooooXX@@##########$",
"$$$$$XXXXXXXXooooOO@@@@########$",
"$$$$$XXXXXXXXoooXOOO@@@@@@@@@@@$",
"$$$$XXXXXXXXXoooOOOOXX@@@@@@@@X$",
"$$$$XXXXXXXXXXOOOOOXXXXXXXXXXXX$",
"$$$$$$$$$$$$$$$$$$$$$$$$$$$$$$$$"
};
