/* XPM */
static char *result[] = {
/* columns rows colors chars-per-pixel */
"32 32 6 1 ",
"  c #523B40",
". c #606060",
"X c #9A8571",
"o c #A7ACBA",
"O c #E6DECA",
"+ c None",
/* pixels */
"++++++++++++++++++++++++++++++++",
"++++++++++++++++++++++++++++++++",
"++++++++++++++++++++++++++++++++",
"++++++++++++++++++++++++++++++++",
"++++++++++++++++++++++++++++++++",
"++++++++++++++++++++++++++++++++",
"+++++++++++..........+++++++++++",
"++++++++++.............+++++++++",
"+++++++++  .............++++++++",
"++++++++  O .....   ....++++++++",
"++++++++  O ....  OO ....+++++++",
"+++++++.    ....  OO ....+++++++",
"+++++++..  .....     ....+++++++",
"+++++++..........   .....+++++++",
"+++++++. . O............. ++++++",
"+++++++. .  . O.. O...... ++++++",
"++++++++.....  ..  ...... ++++++",
"+++++++X................  .+++++",
"++++++XXX......ooo.....   ....++",
"+++++XXXX.....oooo....   ......+",
"+++++XXXX  ...ooooo      ......+",
"+++++XXXX     ooooo     .......+",
"+++++XXX+      oooo   .........+",
"+++++XXX++     oooo............+",
"++++++XX++.....ooo.............+",
"++++++XXX+....oooo...  ........+",
"+++++++XXX...oooo...    .......+",
"++++++++XX .oooo....    .......+",
"+++++++++  .oo......     ...  .+",
"+++++++++   .........    ...   +",
"+++++++++   +........    ...   +",
"++++++++++++++++++++++++++++++++"
};
