/* XPM */
static char *result[] = {
/* columns rows colors chars-per-pixel */
"32 32 9 1 ",
"  c #3D253B",
". c #523B40",
"X c #56587B",
"o c #D01946",
"O c #895A45",
"+ c #E84444",
"@ c #A7ACBA",
"# c #CAE6F5",
"$ c None",
/* pixels */
"$$$$$$$$$$$$$$$$$$$$$$$$$$$$$$$$",
"$$$$$$$$$$$$$$$$$$$$$$$$$$$$$$$$",
"$$$$$$$$$$$$$$$$$$$$$$$$$$$$$$$$",
"$$$$$$$$$$$$$$$$$$$$$$$$$$$$$$$$",
"$$$$$$$$$$$$$$$$$$$$$$$$$$$$$$$$",
"$$$$$$$$$$$$$$$$$$$$$$$$$$$$$$$$",
"$$$$$$$$$$$$$$$$$$$$$$$$$$$$$$$$",
"$$$$$$$$$$$$$$$$$$$$$$$$$$$$$$$$",
"$$$$$$$$$$$$$$$$$$$$$$$$$$$$$$$$",
"$$$$$$$$$$$$$$$$$$$$$$$$$$$$$$$$",
"$$$$$$$$$$$@@@XX$$$$$$$@@@@XX$$$",
"$$$$$$$$$###@OOOOOOOOO###@OOO..$",
"$$$$$$$O###@OOOOOOOOO###@OOO...$",
"$$$$$$O###@OOOOOOOOOO##@OOO....$",
"$$$$$OO@@XOOOOOOOOOO###@OO.....$",
"$$$$$O@@@XOOO@@XOOOO@@XOOO.....$",
"$$$$OO@@XOOO@X@XOOOO@@XOO......$",
"$$$$OO@@XOOO@X@XOOOO@@XOO......$",
"$$$$OO@@XOOO@X@X         ......$",
"$$$$$.......@@X           .....$",
"$$$$$$......               ....$",
"$$$$$$#@...+++++oo          ...$",
"$$$$$##@..+++++++ooo         ..$",
"$$$OO##XOO+++++++ooo#@o       .$",
"$$$OO@@XOO++++++OOoo#@oooo     $",
"$$$OO@@XOO+++++OOOOO@#@OO......$",
"$$$OO@@XOOO++++OOOOO@@XOO......$",
"$$$OO+@XOOO+++OOOOOO@@XOO......$",
"$$$OO+++OO++++OOOOOO@@XOO......$",
"$$$OO@++++++++OOOOOO@@XOO......$",
"$$$OO@@++++++OOOOOOO@@XOO......$",
"$$$$$$$$$$$$$$$$$$$$$$$$$$$$$$$$"
};
