/* XPM */
static char *result[] = {
/* columns rows colors chars-per-pixel */
"32 32 8 1 ",
"  c #3D253B",
". c #523B40",
"X c #895A45",
"o c #D1851E",
"O c #FFD569",
"+ c #A7ACBA",
"@ c #CAE6F5",
"# c None",
/* pixels */
"################################",
"################################",
"################################",
"################XXXXXXXX########",
"###########..#XXX#####XXXX######",
"###########..##########XXX######",
"##########....########XXX#######",
"##########.#..#######XXX########",
"#########..##..#####XXX#########",
"#########.####.#XoOOOOOOooX#####",
"########..###XooOOOOO   OOOo####",
"########.#XoooooOOOO      OOo###",
"#########XooooooOOOO    .@ OOX##",
"#########o  ooooOOOO     @@ Oo##",
"########X. +oOOoOOOO.    @@.Oo##",
"########o  +oOOoOOOO.     @..O##",
"########o  .oOOoOOOO.     ...O##",
"########o ..oooooOOOO.    ...O.#",
"########o..o+++@@oOOO.   ....O.#",
"########Xoo+++@@@@oOOO......Oo.#",
"#########o+++@@@@@oOOOO....OOo.#",
"#########+++@@@@@@oOOOOOOOOOoX.#",
"########+++@@@@@@+oO@@@OOOOoX..#",
"#######+++@@@@@@+ooo@@@@ooX....#",
"######++@@@@@@+XoooX@@@@.......#",
"#####++@@@@@+#####...@@@.......#",
"####++@@@@+#######...@@@.......#",
"###++@@@+##########.@@@@.......#",
"##+@@@+############@@@@.......o#",
"#+@@+################.......ooo#",
"#@+##################....oooooo#",
"################################"
};
