/* XPM */
static char *result[] = {
/* columns rows colors chars-per-pixel */
"32 32 9 1 ",
"  c #1F3736",
". c #2A5A39",
"X c #523B40",
"o c #606060",
"O c #895A45",
"+ c #BF704D",
"@ c #9A8571",
"# c #E1A171",
"$ c None",
/* pixels */
"$$$$$$$$$$$$$$$$$$$$$$$$$$$$$$$$",
"$$$$$$$$$$$$$$$$$$$$$$$$$$$$$$$$",
"$$$$$$$$$$$$$$$$$$$$$$$$$$$$$$$$",
"$$$$$$$$$$XXXXXXXXXX$$$$$$$$$$$$",
"$$$$$$$$$XXXXXXXXXXXX$$$$$$$$$$$",
"$$$$$$$$XXXXXXXXXXXXXX$$$$$$$$$$",
"$$$$$$$$XXXXXXXXXXXXXX$$$$$$$$$$",
"$$$$$$$$XX++++++++XXXXX$$$$$$$$$",
"$$$$$$$$X++++######+XXX$$$$$$$$$",
"$$$$$$$$$XX####XXX##XXX$$$$$$$$$",
"$$$$$$$$$XXX##XXXX##+XXX$$$$$$$$",
"$$$$$$$$$+XX##XX++####XX$$$$$$$$",
"$$$$$$$$$XO+##+OXO####XX$$$$$$$$",
"$$$$$$$$$X++###+XO####XX$$$$$$$$",
"$$$$$$$$$##+########+XXX$$$$$$$$",
"$$$$$$$$$##+++###++++XX$$$$$$$$$",
"$$$$$$$$$++#####++#++$$$$$$$$$$$",
"$$$$$$$$$++#####+##++$$$$$$$$$$$",
"$$$$$$$$$$+#####+#+++$$$$$$$$$$$",
"$$$$$$$$$$+#####++O++$$$$$$$$$$$",
"$$$$$$$$$$$++++OOO++OX$$$$$$$$$$",
"$$$$$$$$$$$XXOOO++OOOXX$$$$$$$$$",
"$$$$$$$$$XXXXXXXOOOOOOXX$$$$$$$$",
"$$$$$$$ooXXXXXXXXOOOOOOX@o$$$$$$",
"$$$$$ooooXXXXXXXXOOOOOO@@@@@o$$$",
"$$$ ooooooXXXXXXXOOOO@@@@@@...$$",
"$$  oooooooXXXXXXX@@@@@@@@.....$",
"$  ooooooooooooooo@@@@@@@......$",
"$  oooooooooooooooooo@@@@......$",
"$  oooooooooooooooooooooo......$",
"$  oooooooooooooooooooooo......$",
"$$$$$$$$$$$$$$$$$$$$$$$$$$$$$$$$"
};
