/* XPM */
static char *result[] = {
/* columns rows colors chars-per-pixel */
"32 32 7 1 ",
"  c #3D253B",
". c #523B40",
"X c #802954",
"o c #9B4C51",
"O c #9A8571",
"+ c #A7ACBA",
"@ c None",
/* pixels */
"@@@@@@@@@@@@@@@@@@@@@@@@@@@@@@@@",
"@@@@@@@@@@@@@@@@@@@@@@@@@@@@@@@@",
"@@@@@@@@@@@@@@@@@@@@@@@@@@@@@@@@",
"@@@@@@@@@@@@@@@@@@@@@@@@@@@@@@@@",
"@@@@@@@@@@@@@@@@@@@@@@@@@@@@@@@@",
"@@@@@@@@@@@@@@@@@@@@@@@@@@@@@@@@",
"@@@@@@@@@@++@..@@@@@@@@@XX@@@@@@",
"@@@@@@@@@+++@..@@@@@@@@@XX@@@@@@",
"@@@@@@@@O++@@...@@@@@@@XXX@@@@@@",
"@@@@@@@@+++@@....@@@@@XXXX@@@@@@",
"@@@@@@@O++O@@..XXXXXXXXXXX@@@@@@",
"@@@@@@@O++@@@XXXXXXXXXXXX@@@@@@@",
"@@@@@@@+++@@XXXXXXXXooooX@@@@@@@",
"@@@@@@@++++XXXXooXoooooooX@@@@@@",
"@@@@@@O+++++XXXooooooooooo@@@@@@",
"@@@@@@O+++XX..XXXoooooooooX@@@@@",
"@@@@@@O++XXXXX.XXoooooooooX@@@@@",
"@@@@@@X++XXXooX.XXooooooooX.@@@@",
"@@@@@@X++XXXooX.XXooooXXXXX.X@@@",
"@@@@@@XXXXXXXXX.XXXXXXXXXXX.XX@@",
"@@@@@@. XXXXX.  XXXXXX......XX@@",
"@@@@@@. ......  .... .......XX@@",
"@@@@@@@............. .......XXX@",
"@@@@@@@OO..++....... ..... ..XX@",
"@@@@@@@OO.+++......  ...  ...XX@",
"@@@@@@@@O@++....        ......X@",
"@@@@@@@@@@@         ..........X@",
"@@@@@@@@@@@...................X@",
"@@@@@@@@@@@@...................@",
"@@@@@@@@@@@@...................@",
"@@@@@@@@@@@@@..................@",
"@@@@@@@@@@@@@@@@@@@@@@@@@@@@@@@@"
};
