/* XPM */
static char *result[] = {
/* columns rows colors chars-per-pixel */
"32 32 5 1 ",
"  c #3D253B",
". c #523B40",
"X c #895A45",
"o c #BF704D",
"O c None",
/* pixels */
"OOOOOOOOOOOOOOOOOOOOOOOOOOOOOOOO",
"OOOOOO..OOOOOOOOOOOOOOOOOOOOOOOO",
"OOOOO....OOOOOOOOOOOOO....OOOOOO",
"OOOOO.....O.XXXXXXXOO......OOOOO",
"OOOOO......XXXXXXXXX.......OOOOO",
"OOOOO......XXXoooooo.......OOOOO",
"OOOOOO....XXXooooooo.......OOOOO",
"OOOOOO....XXXoooooooX......OOOOO",
"OOOOOO....XXXooooooooX....OOOOOO",
"OOOOO....XXXXXooooooooX...XOOOOO",
"OOOOO....XXXXXoooooooooX..XXOOOO",
"OOOO.....XXXXXooooooooooXXXXOOOO",
"OOOO.....XXXXXXXooooooooXXXXXOOO",
"OOOO.....XXXXXXXXXoooooXXXXXXOOO",
"OOOO.....XXXXXXXXXXXXXXXXXXXXOOO",
"OOOO. ...XXXXX.   .XXXXXXXXXXXOO",
"OOO..  .XXXXXX    .XXXXXXXXXXXOO",
"OOO..  .XXXXXX    .XXXXXXXXXXXOO",
"OOO....XooooooX....XXXXXXXXXXX.O",
"OOO...XooooooXXXXXXXXXXXXXXXXX.O",
"OOOO..XooooooXXXXXXXXXXXXXX.X..O",
"OOOO.XooooooXXXXXXXXXXXXXX.XX..O",
"OOOO.XoooooXXXXXXXXXXXXXXX.X...O",
"OOOO.XooooXXXXXXXXXXXXXXX......O",
"OOOOX   XXXXXXXXXXXXXXXXX.....XO",
"OOOOX   XXXXXXXXXXXXXXXX....XXXO",
"OOOOOXXXXXXXXXXXXXXXXXX...XXXXXO",
"OOOOOXXXXXXXXXXXXXXXXX...XXXXXXO",
"OOOOO.XXXXXXXXXXXXXXX....XXXXXXO",
"OOOOO...XXXXXXXXXX......XXXXXXXO",
"OOOO....................XXXXXXXO",
"OOOOOOOOOOOOOOOOOOOOOOOOOOOOOOOO"
};
