/* XPM */
static char *result[] = {
/* columns rows colors chars-per-pixel */
"32 32 9 1 ",
"  c #2A5A39",
". c #427F3B",
"X c #523B40",
"o c #895A45",
"O c #80A53F",
"+ c #D1851E",
"@ c #CCF61F",
"# c #FFD569",
"$ c None",
/* pixels */
"$$$$$$$$$$$$$$$$$$$$$$$$$$$$$$$$",
"$$$$$$$$$$$$$$$$$$$$$$$$$$$$$$$$",
"$$$$$$$$$$$$$$$$$$$$$$$$$$$$$$$$",
"$$$$$$$$$$$$$$$$$$$$$$$$$$$$$$$$",
"$$$$$$$  $$$$$$$$$$$$$$$$$$$$$$$",
"$$$$$$O      $$$$.OOOOO$$$$$$$$$",
"$$$$$$O        .OOOOOOOO$$$$$$$$",
"$$$$$$O      .OOOOOX@@OO$$$$$$$$",
"$$$$$$.    ..OOOOO@X@@OOO$$$$$$$",
"$$$$$.    ..OOOOOO@X@OOOO$$$$$$$",
"$$$$.     ..OOOOOOOOOOOOOO$$$$$$",
"$$$$.    ...OOOOOOOOOOOOOO$$$$$$",
"$$$$   ++++++++OOOOOOOOOOOO$$$$$",
"$$$$$.++++++######++OOOOOOO$$$$$",
"$$$$$++++++############OOOO$$$$$",
"$$$$$++++++############OOOO$$$$$",
"$$$$$++++++#############OOO$$$$$",
"$$$$$$+++++#############OOOO$$$$",
"$$$$$$+++++#############OOOO$$$$",
"$$$$$$$++++#############OOOO$$$$",
"$$$$$$$$++++############OOOOO$$$",
"$$$$$$$$$++++##########+OOOOO$$$",
"$$$$$$$$$$$++++########.OOOOOO$$",
"$$$$$$$$$$$ ooooo+++++o.OOOOOOO$",
"$$$$$$$$$$  oooooooooo+..OOOOOO$",
"$$$$$$$$$   ooo++++++++..OOOOOO$",
"$$$$$$$$$  ooo++++++++++..OOOOO$",
"$$$$$$$$   ooo++++++++++...OOOO$",
"$$$$$$$$   ooo++++++++++...OOOO$",
"$$$$$$$$   ooo++++++++++...OOOO$",
"$$$$$$$$   ooo++++++++++...OOOO$",
"$$$$$$$$$$$$$$$$$$$$$$$$$$$$$$$$"
};
