/* XPM */
static char *result[] = {
/* columns rows colors chars-per-pixel */
"32 32 6 1 ",
"  c #606060",
". c #895A45",
"X c #BF704D",
"o c #9A8571",
"O c #E1A171",
"+ c None",
/* pixels */
"++++++++++++++++++++++++++++++++",
"++++++++++++++++++++++++++++++++",
"++++++++++++++++++++++++++++++++",
"++++++++++++++++++++++++++++++++",
"+++++++++++..........+++++++++++",
"++++++++++............++++++++++",
"+++++++++.............++++++++++",
"+++++++++..............+++++++++",
"+++++++++XXXXOOOOOOX...+++++++++",
"+++++++++..OOOO...OO...+++++++++",
"+++++++++OOOOOOOOOOOX...++++++++",
"+++++++++.XXOOOX..OOX...++++++++",
"+++++++++.XXOOOX..OOO...++++++++",
"+++++++++XXXOOOOOOOOOO..++++++++",
"+++++++++OOXOOOOOOOOXO..++++++++",
"+++++++++OOXXXOOOOOXX..+++++++++",
"+++++++++XOOOOOOOOOXX+++++++++++",
"+++++++++XOOOOOOOOOXX+++++++++++",
"++++++++++OOOOOOOOXXX+++++++++++",
"++++++++++XOOOOOXX.XX+++++++++++",
"+++++++++++XXXX...XXX+++++++++++",
"++++++++++++....XXXXX+++++++++++",
"+++++++++    X..XXXXXooo++++++++",
"++++++       X..XXXXXoooooo+++++",
"+++           ..XXXXoooooooooo++",
"++            ooooooooooooooooo+",
"+             ooooooooooooooooo+",
"+             ooooooooooooooooo+",
"+             ooooooooooooooooo+",
"+              oooooooooooooooo+",
"+              oooooooooooooooo+",
"++++++++++++++++++++++++++++++++"
};
