/* XPM */
static char *result[] = {
/* columns rows colors chars-per-pixel */
"32 32 10 1 ",
"  c #3D253B",
". c #523B40",
"X c #56587B",
"o c #D01946",
"O c #895A45",
"+ c #BF704D",
"@ c #E1A171",
"# c #5880CC",
"$ c #62ABD4",
"% c None",
/* pixels */
"%%%%%%%%%%%%%%%%%%%%%%%%%%%%%%%%",
"%%%%%%%%%%%%%%%%%%%%%%%%%%%%%%%%",
"%%%%%%%%%%%%%%OO+++%%%%%%%%%%%%%",
"%%%%%%%%%%%%OOOO++++O%%%%%%%%%%%",
"%%%%%%%%%%%OOOOO+++++O%%%%%%%%%%",
"%%%%%%%%%%%OOOOO+++++OO%%%%%%%%%",
"%......%%%OOOOOOO+++++O%%%%%%%%%",
"%................+++++OO%%%%%%%%",
"%........        .OOOOOO%%%%%%%%",
"%....... ..+++...   ...OOOO%%%%%",
"%......  ++@@+++++    .....OOO%%",
"%......  O.@@@..O@     .......O%",
"%......  ++@@@@@@@     ........%",
"%......  @+@@@@@@@      .......%",
"%%.....  @+@@+@@@@      .......%",
"%%...... +++++@@@@      .......%",
"%%%..... +oooo@@@@       ......%",
"%%%%.... ++oo@@@@@       ......%",
"%%%%.....+@@@@@@@+       ......%",
"%%%%%.... +@@@@+++       ......%",
"%%%%%%...  ++++++++      ......%",
"%%%%%%%..    ++++++      ......%",
"%%%%%%%%%   $++++@@$$   .......%",
"%%%%%%%%%  $$@@@@@$$$   ......%%",
"%%%%%%%%%.#$$#@@$$$$$#  ...%%%%%",
"%%%%%%%#.###$#$$$$$$####%%%%%%%%",
"%%%%%%#X.####X$$$$##$$$$##%%%%%%",
"%%%%%#XX..###X######$$$$$$#%%%%%",
"%%%%#XX##.##X#######$$$$$$$#%%%%",
"%%%%#####..#X########$$$$$$$#%%%",
"%%%#X#####..X##########$$$$$#%%%",
"%%%%%%%%%%%%%%%%%%%%%%%%%%%%%%%%"
};
