/* XPM */
static char *result[] = {
/* columns rows colors chars-per-pixel */
"32 32 6 1 ",
"  c #3D253B",
". c #523B40",
"X c #802954",
"o c #9B4C51",
"O c #A7ACBA",
"+ c None",
/* pixels */
"++++++++++++++++++++++++++++++++",
"++++++++++++++++++++++++++++++++",
"+++++...++++++++++++++...+++++++",
"++++.....++++++++++++.  ..++++++",
"++++.  .o.++++++++++..  oo.+++++",
"+++..   ...++++++++..   ooo+++++",
"+++..   .oo.+++++++..   .oo+++++",
"+++.    .oo.+++++++.     oo.++++",
"+++.     .oo.+++++..     ooo++++",
"+++.     .oo.ooooo..     ooo++++",
"+++.     ...oooooo..     .oo++++",
"+++.  .. ...ooooooo. ..  .oo++++",
"++++. ......oooooooo...  ...++++",
"++++........ooooooooo....oo.++++",
"++++......XXX.ooooooooo..oo.++++",
"++++.. ..XXXXX.oooo   oooo.+++++",
"++++.. ..XXXXXXoooo   ooooo+++++",
"+++++...X XX  X.ooooooooooo+++++",
"+++++...X XX  XXooooooooooo+++++",
"+++++...X XX  XX.oooooooooo.++++",
"+++++...XXXXXXXXXoooooooooo..+++",
"+++++...XXXXXXXXXoooooooooo ...+",
"+++++...XX...XXXXoooooooooo ...+",
"++++++...X...XXX.ooooooooo. ...+",
"++++++....   ....ooooooooo  ...+",
"+++++++.O     OO.oooooooo. ....+",
"++++++++O .... O..oooooo.  ....+",
"++++++++O......O....oo.   .....+",
"++++++++++..........     ......+",
"+++++++++++.          .........+",
"++++++++++++...................+",
"++++++++++++++++++++++++++++++++"
};
