/* XPM */
static char *result[] = {
/* columns rows colors chars-per-pixel */
"32 32 5 1 ",
"  c #3D253B",
". c #523B40",
"X c #606060",
"o c #A7ACBA",
"O c None",
/* pixels */
"OOOOOOOOOOOOOOOOOOOOOOOOOOOOOOOO",
"OOOOOOOOOOOOOOOOOOOOOOOOOOOOOOOO",
"OOOOOOOOOOOOOOOOOOOOOOOOOOOOOOOO",
"OOOOOOOOOOOOOOOOOOOOOOOOOOOOOOOO",
"OOOOOOOOOOOOOOOOOOOOOOOOOOOOOOOO",
"OOOOOOOOOOOOOOOOOOOOOOOOOOOOOOOO",
"OOOOOOOOOOOOOO..XXXX.OOOOOOOOOOO",
"OOOOOOOOOOOO...XXXXXXX.OOOOOOOOO",
"OOOOOOOOOOXooo.XXXXXXXX.OOOOOOOO",
"OOOOOOOOoooooooXX. oXXXXOOOOOOOO",
"OOOOOOOooooo  X...  XXXX.OOOOOOO",
"OOOOOOooooXXXXX....XXXXXXOOOOOOO",
"OOOOOOXXXXXXXXX.XXXXXXXXX.OOOOOO",
"OOOOOOOOXXXXX...XX.XXXXXX.OOOOOO",
"OOOOOOOOOO.........XXXXXXXOOOOOO",
"OOOOOOOOOOO ......XXXXXXXX.OOOOO",
"OOOOOOOOOOO      .XXXXXXXXXOOOOO",
"OOOOOOOOOO.    ...XXXXXXXXX.OOOO",
"OOOOOOOOOO.   .....XXXXXXXX.OOOO",
"OOOOOOOOOO.    ....XXXXXXXX.OOOO",
"OOOOOOOOOO.  ......XXXXXXXX..OOO",
"OOOOOOOOO.   .XX..XXXXXXXXXX.OOO",
"OOOOOOOOO.   .XX...XXXXXXXXX.OOO",
"OOOOOOOO.    .XXX..XXXXXXXXX.OOO",
"OOOOOOOO.   ..XXXXX.XXXXXXXX.OOO",
"OOOOOOO.    ...XXXXXXXXXXXX..OOO",
"OOOOO .      ...XXXXXXXXXXX.OOOO",
"OOOOOO.   .  .XXXXXXXXXXXXX.OOOO",
"OOOOO.    ....XXXXXXXXXXXXX.OOOO",
"OOOOO.  ....XX.XXXXXXXXXXX..OOOO",
"OOOO.....X..XX..XXXXXXXXXX..OOOO",
"OOOOOOOOOOOOOOOOOOOOOOOOOOOOOOOO"
};
