/* XPM */
static char *result[] = {
/* columns rows colors chars-per-pixel */
"32 32 8 1 ",
"  c #3D253B",
". c #523B40",
"X c #802954",
"o c #D01946",
"O c #9B4C51",
"+ c #A7ACBA",
"@ c #CAE6F5",
"# c None",
/* pixels */
"################################",
"################################",
"####.XX.#############.OO.#######",
"####.  XX.#+.XXXXX@X.  .O#######",
"####.    X.++XXOO@@.    O#######",
"####.    X..XXOOOO.     O###+###",
"####.     .XXXOOOOX.    O###++##",
"#####   +..XXOOOOO@X.   O###++##",
"#####. ++..XXOOOOO@@.   .##+++##",
"#####. +++.XXOOOO@@@X  X..++++##",
"######. ++.XXOOOO@@OX. X...++###",
"######.....XOOOOOOOOOOXXXXXXX###",
"#######. o XOOOO oo.OOXOOXXXX.##",
"########.o@XOOOO ooOOOXOOXOOOX##",
"########..@@OOOOOOOOOXXOOXOOOO.#",
"#####++#.X@@O@@OOOOOOXXXXXOO@O.#",
"####+++..XOOO@@@OOOOOOX.XXO@@OX#",
"####++#.XXOOOX@@@OOOOOX XXO@@OX#",
"###+++..XXXXXX@@@OOOOOX .XOOOOX#",
"###+++.OOOOOX@@@@OOOOO. .XOOOOX#",
"###+++O.OO..O@@@@OOOOO. .OOOOOX#",
"###+++O.OO..O@@@@OOOO.. .OOOOOX#",
"####++OOOOOOO@@@XXX...  XOOOOOX#",
"#####.XOOOOOXXX.....   .XOOOOOX#",
"######...........      .XOOOOOX#",
"######## ...          .XXOOOOOX#",
"########             ..XXOOOOOX#",
"########            ..OOXOOOOOX#",
"########.         ...XOOOXOOOOX#",
"#########...........XOOOOXXXOOX#",
"##########....XX.XXXXOOOOXXOOXX#",
"################################"
};
