/* XPM */
static char *result[] = {
/* columns rows colors chars-per-pixel */
"32 32 6 1 ",
"  c #3D253B",
". c #523B40",
"X c #56587B",
"o c #D01946",
"O c #A7ACBA",
"+ c None",
/* pixels */
"++++++++++++++++++++++++++++++++",
"++++XXXXXXXX++++++++++++++++++++",
"++++XXXOOOOOOXXXXX++++++++++++++",
"++++XXXOOOOOOOOOOOOXXXXX++++++++",
"+++XXXXOOOOOOOOOOOOOOOOOOXXXXX++",
"+++XOOXOOOOOOOOOOOOOOOOOOOOOOXX+",
"+++XOOXXOOOOOOOOOOOOOOOOOOOOOOX+",
"+++XXXXXXXXXXXOOOOOOOOOOOOOOOOX+",
"+++...X.XXXXXXXXXXXXXOOOOOOOOXX+",
"+XXXXXXXXOOOOOOOOOXXXXXX.....XX+",
"+XOOOOOOOOOOOOOOOOXOOOX......XX+",
"+XOOOOOOOOOOOOOOOOXOOOX......XX+",
"+XOOOOOOOOOOOOOOOOOOOOX......XX+",
"+XOOOOOOOOOOOOOOOOOXXXX.......X+",
"+XXOOOOOOOOOOOOOOOOXXXXX......X+",
"+XXOOOOOOOOOOOOOOOXXXXXX......X+",
"+XXOOOOOOOOXXXXXXXXXXXXX......X+",
"+.XXXXXXXXXXXXXXXXX..........X++",
"++++XXXXXXXXXX..    .....XXXX+++",
"++++.XX  .......oo  .......+++++",
"+++++.. o.......oo  .....XXXXX++",
"++++... o...............XXOOOXX+",
"+++.........XXX.XXXXXXXXXOOOOOX+",
"+++.XXXXX..XXX......XXXXXOOOOOX+",
"++..XOOOOX.............XXXOOOOO+",
"++.XXOOOOXOOOOXX........XXOOOOO+",
"++.XXOOOOOOOOOOOOXXX....XXXOOOX+",
"+..XOOOOXOOOOOOOOOOOOX...XXXXXX+",
"+..XOOOOXOOOOOOOOOOOOXX..XXXXXX+",
"+..XOOOXXOOOOOOOOOOOOXX.+.XXXX.+",
"+...XXXXXXXXOOOOOOOOOXX.++.....+",
"++++++++++++++++++++++++++++++++"
};
