/* XPM */
static char *result[] = {
/* columns rows colors chars-per-pixel */
"32 32 5 1 ",
"  c #523B40",
". c #895A45",
"X c #BF704D",
"o c #E1A171",
"O c None",
/* pixels */
"OOOOOOOOOOOOOOOOOOOOOOOOOOOOOOOO",
"OOOOOOOOOOOOOOOOOOOOOOOOOOOOOOOO",
"OOOOOOOOOOOOOOOOOOOOOOOOOOOOOOOO",
"OOOOOOOOOO         OOOOOOOOOOOOO",
"OOOOOOOOO            OOOOOOOOOOO",
"OOOOOOOO              OOOOOOOOOO",
"OOOOOOOO              OOOOOOOOOO",
"OOOOOOOO  XXXXXXXX    OOOOOOOOOO",
"OOOOOOOO XXXXooooooX   OOOOOOOOO",
"OOOOOOOO    oo    oo   OOOOOOOOO",
"OOOOOOOO oooooooooooX  OOOOOOOOO",
"OOOOOOOO ..Xooo...ooX   OOOOOOOO",
"OOOOOOOO .XXoooX..ooo   OOOOOOOO",
"OOOOOOOOOXXXoooooooooo  OOOOOOOO",
"OOOOOOOOOooXooooooooXo  OOOOOOOO",
"OOOOOOOOOooXoooooooXX    OOOOOOO",
"OOOOOOOOOXoXXXoooooXX    OOOOOOO",
"OOOOOOOO XoooooooooXX    OOOOOOO",
"OOOOOOOO  ooooooooXX     OOOOOOO",
"OOOOOOOO  XoooooXX.X     OOOOOOO",
"OOOOOOOO   XXXX...XX     OOOOOOO",
"OOOOOOOO    ....XXXX     OOOOOOO",
"OOOOOOOOO    XXXXXXX     OOOOOOO",
"OOOOOOOOO    XXXXXXXX   OOOOOOOO",
"OOOOO         XXXXXX......OOOOOO",
"OO            ..............OOOO",
"O             ................OO",
"O            ..................O",
"O            ..................O",
"O            ..................O",
"O            ..................O",
"OOOOOOOOOOOOOOOOOOOOOOOOOOOOOOOO"
};
