/* XPM */
static char *result[] = {
/* columns rows colors chars-per-pixel */
"32 32 7 1 ",
"  c #895A45",
". c #D1851E",
"X c #FFD569",
"o c #5880CC",
"O c #9BF0FD",
"+ c white",
"@ c None",
/* pixels */
"@@@@@@@@@@@@@@@@@@@@@@@@@@@@@@@@",
"@@@@@@@@@@@@@@@@@@@@@@@@@@@@@@@@",
"@@oooooo@@@@@@@@@@@@@@@@@OOOOO@@",
"@oooooooo@@@@@@@@@@@@@@@OOOOOOO@",
"@oooooooo@@@@@@@@@@@@@@@OOOOOOO@",
"@oooooooo@@@@@@@@@@@@@@@OOOOOOO@",
"@oooooooo@@@.......@@@@@OOOOOOO@",
"@ooooooo@@.XXXXXXXXX.@@@OOOOOOO@",
"@ooooooo..XXXXXXXXXXXX.OOOOOOOO@",
"@oooooo..XXXXXXXXXXXXXXOOOOOOOO@",
"@@oooo...XXXXXXXX++++XXOOOOOOOO@",
"@@ooo....XXXXXXXX+++++XOOOOOOO@@",
"@@ooo....XXXXXXXX+++++XOOOOOOO@@",
"@@oo.....XXXXXXXX+++++XOOOOOO@@@",
"@@@o. ....XXXXXXXX++++OOOOOO@@@@",
"@@@.  ....XXXXXXXXXXXOOOOOO.@@@@",
"@@@.  ....XXXXXXXXXXXOOOOXX.@@@@",
"@@@.  .....XXXXXXXXXX+++XXX.@@@@",
"@@@.   ....XXXXXXXXXX+++XXX.@@@@",
"@@@.   .....XXXXXXXXX+++XXX.@@@@",
"@@@.   ......XXXXXXXX+++XXX.@@@@",
"@@@..   ......XXXXXXXXXXXXX.@@@@",
"@@@@.    ......XXXXXXXXXXXX@@@@@",
"@@@@.     ......XXXXXXXXXX.@@@@@",
"@@@@@.       ....XXXXXXXXX@@@@@@",
"@@@@@.        ....XXXXXXX.@@@@@@",
"@@@@@@.       ....XXXXXX.@@@@@@@",
"@@@@@@@.      ....XXXXX.@@@@@@@@",
"@@@@@@@@.    ....XXXX..@@@@@@@@@",
"@@@@@@@@@@.....XXXX..@@@@@@@@@@@",
"@@@@@@@@@@@@.......@@@@@@@@@@@@@",
"@@@@@@@@@@@@@@@@@@@@@@@@@@@@@@@@"
};
