/* XPM */
static char *result[] = {
/* columns rows colors chars-per-pixel */
"32 32 9 1 ",
"  c #1F3736",
". c #2A5A39",
"X c #427F3B",
"o c #D01946",
"O c #895A45",
"+ c #BF704D",
"@ c #E84444",
"# c #E1A171",
"$ c None",
/* pixels */
"$$$$$$$$$$$$$$$$$$$$$$$$$$$$$$$$",
"$$$$$$$$$$$$$$$$$$$$$$$$$$$$$$$$",
"$$$$$$$$$$$$$$$$$$$$$$$$$$$$$$$$",
"$$$$$$$$$$$$$$$$$$$$$$$$$$$$$$$$",
"$$$$$$$$$$$oo@@o@@@@@$$$$$$$$$$$",
"$$$$$$$$$$oooooo@@@@@@$$$$$$$$$$",
"$$$$$$$$$$oooooo@@@@@@$$$$$$$$$$",
"$$$$$$$$$$ooo@@@@@@@@@$$$$$$$$$$",
"$$$$$$$$$$+++######+@@$$$$$$$$$$",
"$$$$$$$$$oo###@@@@##@@$$$$$$$$$$",
"$$$$$$$$$ooo#@@@@###+@$$$$$$$$$$",
"$$$$$$$$$OO+#OOO+###+##$$$$$$$$$",
"$$$$$$$$$+O##+OO#######$$$$$$$$$",
"$$$$$$$$$++############$$$$$$$$$",
"$$$$$$$$$++oo#######+#$$$$$$$$$$",
"$$$$$$$$$+ooo@@@###@+$$$$$$$$$$$",
"$$$$$$$$$o++###@@@@@+$$$$$$$$$$$",
"$$$$$$$$$o+oo##@@@@@+$$$$$$$$$$$",
"$$$$$$$$$ooo@@@@@@@++$$$$$$$$$$$",
"$$$$$$$$$oo@@@@@@@+++.$$$$$$$$$$",
"$$$$$$$$ oo@@@@@@@++.....$$$$$$$",
"$$$$$$    o@@@@@@ ...XXXXX..$$$$",
"$$$$      o@@@@@@...XXXXXXXX..$$",
"$$$       o@@@@@@...XXXXXXXXXX.$",
"$$         @@@@@ .    .XXXXXXXX$",
"$               .....    .XXXXX$",
"$             .................$",
"$             .................$",
"$            ................XX$",
"$            ................XX$",
"$            ...............XXX$",
"$$$$$$$$$$$$$$$$$$$$$$$$$$$$$$$$"
};
