/* XPM */
static char *result[] = {
/* columns rows colors chars-per-pixel */
"32 32 10 1 ",
"  c #523B40",
". c #56587B",
"X c #D01946",
"o c #895A45",
"O c #BF704D",
"+ c #E84444",
"@ c #E1A171",
"# c #5880CC",
"$ c #A7ACBA",
"% c None",
/* pixels */
"%%%%%%%%%%%%%%%%%%%%%%%%%%%%%%%%",
"%%%%%%%%%%%%%%%%%%%%%%%%%%%%%%%%",
"%%%%%%%%%%%%%%%%%%%%%%%%%%%%%%%%",
"%%%%%%%%%%%%%%%%%%%%%%%%%%%%%%%%",
"%%%%%%%%%%%XX++++%%%%%%%%%%%%%%%",
"%%%%%%%%%XXX+++++++%%%%%%%%%%%%%",
"%%%%%%%%XXXX++++++++%%%%%%%%%%%%",
"%%%%%%%%XXXX++++++++%%%%%%%%%%%%",
"%%%%%%%XXOOO@@@@+++++%%%%%%%%%%%",
"%%%%%%%XXXXO@@+++++++%%%%%%%%%%%",
"%%%%%%%XXOO@@@@@@++++%%%%%%%%%%%",
"%%%%%%%XXO @@@  @++++%%%%%%%%%%%",
"%%%%%%%XXo @@@  o+++++%%%%%%%%%%",
"%%%%%%%XX@O@@@@@@+++++%%%%%%%%%%",
"%%%%%%%XX@O@@@@@@@++++%%%%%%%%%%",
"%%%%%%%%XOO@@O@@@@++++%%%%%%%%%%",
"%%%%%%%%XOOOOO@@@@++++%%%%%%%%%%",
"%%%%%%%%XO@@@@@@@@+++++%%%%%%%%%",
"%%%%%%%%%O@@@@@@@O+++++%%%%%%%%%",
"%%%%%%%%%XO@@@@OOO+++++%%%%%%%%%",
"%%%%%%%%%XXOOOOOOOO++++%%%%%%%%%",
"%%%%%%%%%XXXXOOOOOO+++++%%%%%%%%",
"%%%%%%%%%XXX$OOOO@@$++++%%%%%%%%",
"%%%%%%%%%XX$$@@@@@$$++++%%%%%%%%",
"%%%%%%%%% .$$$@@$$$$..++%%%%%%%%",
"%%%%%%%....$$$$$$$$.###.%%%%%%%%",
"%%%%%%.....$$$$$$$..#####.%%%%%%",
"%%%%%.......$$$$$...######.%%%%%",
"%%%%........$$$$$...#######.%%%%",
"%%%%........$$$$.....#######.%%%",
"%%%..........$$$.......####..%%%",
"%%%%%%%%%%%%%%%%%%%%%%%%%%%%%%%%"
};
