/* XPM */
static char *result[] = {
/* columns rows colors chars-per-pixel */
"32 32 12 1 ",
"  c #523B40",
". c #606060",
"X c #802954",
"o c #D01946",
"O c #895A45",
"+ c #9B4C51",
"@ c #BF704D",
"# c #9A8571",
"$ c #E1A171",
"% c #A7ACBA",
"& c #E6DECA",
"* c None",
/* pixels */
"********************************",
"********************************",
"********************************",
"********************************",
"********************************",
"*************       ************",
"***********    +++++   *********",
"**********    +++++++++  *******",
"*********     ++++++++++  ******",
"*********   +++++++++++++  *****",
"********    ++ ++++++++++  *****",
"********          +++++++  *****",
"********  @@@@@@@&&  +++   *****",
"******** @##@###@@&&&&&   ******",
"******** OO@@@OOO$@&&&&&&*******",
"*********O $$$  O$$&&&&&&&******",
"*********$@$$$$$$$$&&$$&&&******",
"*********$@$$$$$$$$$&$$&&&******",
"*********@@###&$$$$$#$&&&*******",
"*********@###&&&$$$&&#&*********",
"*********##@$$&&&&&&&&XX********",
"*********##@$$&&&&&&&XXX********",
"*********##&&&&&&&&&XoooooX*****",
"********X##&&&&&&&&XoooooooooX**",
"******XXX##&&&&&&&Xoooooooooo%%*",
"****XXXXXX#&&&&&&&oooooooooo%%%*",
"***.XXXXXX#&&&&&&Xoooooooooo%%%*",
"***..XXXXX#&&&&&&Xooooooooo%%%%*",
"**....XXXXX&&&&&&Xooooooooo%%%%*",
"**....XXXXX#&&&&XXXoooooooo%%%%*",
"**....XXXXXXXXXXXXXXXXooooo%%%%*",
"********************************"
};
