/* XPM */
static char *result[] = {
/* columns rows colors chars-per-pixel */
"32 32 12 1 ",
"  c #3D253B",
". c #2A5A39",
"X c #427F3B",
"o c #523B40",
"O c #895A45",
"+ c #8A961F",
"@ c #D1851E",
"# c #BBC44E",
"$ c #FFD569",
"% c #A7ACBA",
"& c #CAE6F5",
"* c None",
/* pixels */
"********************************",
"********************************",
"********************************",
"**********..********************",
"*********...********************",
"*********...*********++++*******",
"********X+++++++X**++XX++*******",
"*******X++++####+X+XX+@*********",
"*******X+++#####++XX++$$********",
"*******X+++#####++XX++@@********",
"*******X+++####+++X++**@********",
"*******X X+++X  ++X++***********",
"*******X +++++  +++++***********",
"*******+++++++++++++************",
"*****+++###+++###+X+************",
"*****+++###X+###+XX*************",
"*******XXXXXX&+++XX*************",
"*******X%XXXX&+++XX%**%%********",
"********%+++++++XXX%oo%%%**%%***",
"********X+++++XXXXX%oo%%%oo%%***",
"*********XXXXXXX+XX%oo%%%oo%%***",
"***********XXXXX+XX*oo**%oo%****",
"***********XXXX++XXoOOO**oo*****",
"***********XXXX++XXoOOOOOOo*****",
"**********XXXXX++XXoOOOOOOoo****",
"********XXXXXXX++XXoooXXXOoo****",
"******XXXXXXX++++XXoooXXXXXX****",
"*****XXXXXXXX++++XooooXXXXXXXX**",
"*****XXXXXXXX+++XXoooXXXXXXXXXX*",
"****XXXXXXXXX+++XooooXXXXXXXXXX*",
"****XXXXXXXXXXXoooooXXXXXXXXXXX*",
"********************************"
};
