/* XPM */
static char *result[] = {
/* columns rows colors chars-per-pixel */
"32 32 5 1 ",
"  c #1F3736",
". c #2A5A39",
"X c #427F3B",
"o c #8A961F",
"O c None",
/* pixels */
"OOOOOOOOOOOOOOOOOOOOOOOOOOOOOOOO",
"OOOOOOOOOOOOOOOOOOOOOOOOOOOOOOOO",
"OOOOOOOOOOOOOOOOOOOOOOOOOOOOOOOO",
"OOOOOOOOOOOOOOOOOOOOOOOOOOOOOOOO",
"OOOOOOOOOOOOOOOOOOOOXXXXXXXXXXOO",
"OOOOOOOOOOOOOOOOOXXXXXXXXXXXXXXO",
"OOOOOOOOOOOOOOOXXXX.........XooO",
"OOOOOOOOOOOOOOXX.........XXooooO",
"OOOOOOOOOOOOOXX.........XooooXXO",
"OOOOOOOOOOOOXX...... ..X...ooXXO",
"OOOOOOOOOOXXXX........X.....oXXO",
"OOOOOOOOOXX..X...X..........oooO",
"OOOOOOOOX.....XX......XX....oooO",
"OOOOOOOXX...  ........XX....oooO",
"OOOOOOOX...   .......... ...oooO",
"OOOOOOX....   ......    ...XoooO",
"OOOOOX.....  .......     XoooooO",
"OOOOX..............X     ooooooO",
"OOOOX...... .....Xooo    ooooooO",
"OOOXX..XX......XXXoooX XXooooooO",
"OOOX...XX......XX..oXX XXooooooO",
"OOOX...............oXXXXXooooooO",
"OOX......    ..   ooX    XoooooO",
"OOX.....     .     oo     XooooO",
"OOX....X    .      .       XoooO",
"OOX...  X          .     XXXXXXO",
"OOX...  XX..       .  .XXX  XX.O",
"OOXX........       ....X..  XX.O",
"OOOXX.................X......X.O",
"OOOXXX....X....................O",
"OOOOXXXXXXXX..XX..........XXXXXO",
"OOOOOOOOOOOOOOOOOOOOOOOOOOOOOOOO"
};
