/* XPM */
static char *result[] = {
/* columns rows colors chars-per-pixel */
"32 32 5 1 ",
"  c #523B40",
". c #56587B",
"X c #D01946",
"o c #A7ACBA",
"O c None",
/* pixels */
"OOOOOOOOOOOOOOOOOOOOOOOOOOOOOOOO",
"OOOOO..OOOOOOOOOOOOOOOOOooOOOOOO",
"OOOOO...OOOOOOOOOOOOOOOoo.OOOOOO",
"OOOOO....OOOOOOOOOOOOOooo.OOOOOO",
"OOOOOO....OOOOOOOOOOOooo..OOOOOO",
"OOOOOO.....ooooooOOOoooo.OOOOOOO",
"OOOOOO..oooooooooooo.oo..OOOOOOO",
"OOOOOOoooooooooo.oooo.o..OOOOOOO",
"OOOOOooooooooooo ooooo...OOOOOOO",
"OOOOOoooooooooo..oooo... OOOOOOO",
"OOOOOoooooooooo.oooo.o.. OOOOOOO",
"OOOOOO. oooooo. ooo..o...OOOOOOO",
"OOOOOO.X.ooooo.    .ooo.. OOOOOO",
"OOOOoo.X.ooooo.XX  .ooo.. OOOOOO",
"OOOOoo..oooooo.XX  oo.o.   OOOOO",
"OOO.oooooooooo  ooooo...   OOOOO",
"OOO..oooooooo.  ooooo.     OOOOO",
"OOO...ooooooo   ooooo.      OOOO",
"OOO.  ...ooo.  .ooo.o.      OOOO",
"OOOO  oooo...   ..o....     OOOO",
"OOOO..oooooo..   ......    OOOOO",
"OOOOO..ooooo..    .... .o. OOOOO",
"OOOOO....          ..  .oo.OOOOO",
"OOO  O....              .oOOOOOO",
"OO...OOO.......         .OoooOOO",
"OO....OOOOO....      ..OOoooo.OO",
"O .... OOOOO....  ..OOOO.oooooOO",
"O  ... OOOOOOOOOOOOOOOOO.oooooOO",
"O  ....OOOOOOO         O..ooooOO",
"O   ...OOOO.....       OO....OOO",
"O     .OOOO...........OOOOOOOOOO",
"OOOOOOOOOOOOOOOOOOOOOOOOOOOOOOOO"
};
