/* XPM */
static char *result[] = {
/* columns rows colors chars-per-pixel */
"32 32 8 1 ",
"  c #1F3736",
". c #3D253B",
"X c #523B40",
"o c #56587B",
"O c #895A45",
"+ c #8A961F",
"@ c #A7ACBA",
"# c None",
/* pixels */
"################################",
"############################XXX#",
"#####################XXXXXXXXXX#",
"#################XXXXXXXXXXXXXX#",
"##############XXXXXXXXXXXXXXXXX#",
"############XXXXXXXXXXXXXXXXXXX#",
"###########X+++++++OOXXXXXXXXXX#",
"##########++++++++++++OOXXXXXXX#",
"########+++++++++++++++OOXXXXXX#",
"#######++++++++++++++++OOXXXXXX#",
"######++++++++++++++++++OXXXXXX#",
"#####+.+++++++++++++++++OOXXXXX#",
"#####.@+++++++++++...+++OOXXXXX#",
"####+..++++++++++..@@.++OOOXXXX#",
"####+.+++++++++++..@@.++OOOOXXX#",
"####+++++++++++++.....++OOOOOOO#",
"####+@@@@@@@++++++...+++XOOOOOO#",
"####@o@@@@@@@@++++++++++XXXOOOO#",
"####@o@@@@@@oo@++++++++XXXXXXXX#",
"####@@@@@@@@oo@@+++++++XXXX++++#",
"####@@@@@@@@@@@@++++++XXXX+++++#",
"####o@@@@@@@@@@o+++++XXXXX+++++#",
"#####o@@@@@@oooo+++   XXX++++++#",
"######ooooooooo##      #X++++++#",
"#################      ##++++++#",
"#################      ##++++++#",
"################       ##++++++#",
"################      ##+++++++#",
"################o     ##@@+++++#",
"################o oo  ##@@@+@@+#",
"################o oo  ##@@@+@@+#",
"################################"
};
