/* XPM */
static char *result[] = {
/* columns rows colors chars-per-pixel */
"32 32 9 1 ",
"  c #1F3736",
". c #3D253B",
"X c #2A5A39",
"o c #427F3B",
"O c #523B40",
"+ c #80A53F",
"@ c #A7ACBA",
"# c #CAE6F5",
"$ c None",
/* pixels */
"$$$$$$$$$$$$$$$$$$$$$$$$$$$$$$$$",
"$$$$$$$$$$$$$$$$$$$$$$$$$$$$$$$$",
"$$$$$$$$$$$$$$$$$$$$$$$$$$$$$$$$",
"$$$$$$$$$$$  $$$$$$$oo$$$$$$$$$$",
"$$$$$$$$$$   $$$$$$oXo$$$$$$$$$$",
"$$$$$$$$$$   $$$$$$XXo$$$$$$$$$$",
"$$$$$$$$$XXooooooXoXXo$$$$$$$$$$",
"$$$$$$$$XXooo++++oXXoo$$$$$$$$$$",
"$$$$$$$$XXoo+++++oXXoo$$$$$$$$$$",
"$$$$$$$$XXoo+++++oXXoo$$$$$$$$$$",
"$$$$$$$$XXoo++++ooXXoo$$$$$$$$$$",
"$$$$$$$$X.XoooX..ooXo$$$$$$$$$$$",
"$$$$$$$$X.Xo+oX..oooo$$$$$$$$$$$",
"$$$$$$$$XXoo++oXooooo$$$$$$$$$$$",
"$$$$$$$XXXoo++oo+++oo$$$$$$$$$$$",
"$$$$$$$XXXXoooX+++oX$$$$$$$$$$$$",
"$$$$$$$X@XXXXXX#ooXX$$$$$$$$$$$$",
"$$$$$$$X@@....##ooXX$$$$$$$$$$$$",
"$$$$$$$$@@....##oXXX####$$$$$$$$",
"$$$$$$$$XXooooXXXXX#######$$$$$$",
"$$$$$$$$$XXXXXXXXo##########$$$$",
"$$$$$$$$   XXXX   ###########$$$",
"$$$$$             ###########$$$",
"$$      XXX      X@##########$$$",
"$      XXXXXXXXXXXX@@#######@$$$",
"$      XXXXXoooooooXO@@####@XX$$",
"$      XXXXooooooooXOOX@@@@XXX$$",
"$     XXXXXooooooooXOOXXXXoooXX$",
"$     XXXXoooooooooOOOXXXoooooX$",
"$     XXXXooooooooXOO XXXoooooX$",
"$     XXXXooooooooOOO XXXXooooX$",
"$$$$$$$$$$$$$$$$$$$$$$$$$$$$$$$$"
};
