/* XPM */
static char *result[] = {
/* columns rows colors chars-per-pixel */
"32 32 9 1 ",
"  c #523B40",
". c #56587B",
"X c #895A45",
"o c #BF704D",
"O c #9A8571",
"+ c #E1A171",
"@ c #5880CC",
"# c #A7ACBA",
"$ c None",
/* pixels */
"$$$$$$$$$$$$$$$$$$$$$$$$$$$$$$$$",
"$$$$$$$$$$$$$$$$$$$$$$$$$$$$$$$$",
"$$$$$$$$$$$$$$$$$$$$$$$$$$$$$$$$",
"$$$$$$$$$$$$$$$$$$$$$$$$$$$$$$$$",
"$$$$$$$$$$$$$$$$$$$$$$$$$$$$$$$$",
"$$$$$$$$$$$$$$$$$$$$$$$$$$$$$$$$",
"$$$$$$$$$$$$$$$$$$$$$$$$$$$$$$$$",
"$$$$$$$$$$OOO######$$$$$$$$$$$$$",
"$$$$$$$$$OOO########$$$$$$$$$$$$",
"$$$$$$$$$OOO########$$$$$$$$$$$$",
"$$$$$$$$OOOO#########$$$$$$$$$$$",
"$$$$$$$$Ooooooooo####$$$$$$$$$$$",
"$$$$$$$$OOO++oOOOo###$$$$$$$$$$$",
"$$$$$$$$OX +++  X+###$$$$$$$$$$$",
"$$$$$$$$Ooo+++++++###$$$$$$$$$$$",
"$$$$$$$$O+o++o++++###$$$$$$$$$$$",
"$$$$$$$$O+ooooo+++###$$$$$$$$$$$",
"$$$$$$$$Oo+++++o++###$$$$$$$$$$$",
"$$$$$$$$Oo+++++o++###$$$$$$$$$$$",
"$$$$$$$$Ooo++++++o###$$$$$$$$$$$",
"$$$$$$$$OOooooooo####$$$$$$$$$$$",
"$$$$$$$$$OOoooo######$$$$$$$$$$$",
"$$$$$$$$$OOOO#######$$$$$$$$$$$$",
"$$$$$$$$O###########.$$$$$$$$$$$",
"$$$$$$$OO##########...$$$$$$$$$$",
"$$$$$$$OOOO#######.@@@@.$$$$$$$$",
"$$$$$$...O######..@@@@@@@.$$$$$$",
"$$$$$.............@@@@@@@@.$$$$$",
"$$$$..............@@@@@@@@@.$$$$",
"$$$$...............@@@@@@@@@.$$$",
"$$$..................@@@@@@@.$$$",
"$$$$$$$$$$$$$$$$$$$$$$$$$$$$$$$$"
};
