/* XPM */
static char *result[] = {
/* columns rows colors chars-per-pixel */
"32 32 6 1 ",
"  c #3D253B",
". c #523B40",
"X c #606060",
"o c #895A45",
"O c #9A8571",
"+ c None",
/* pixels */
"++++++++++++++++++++++++++++++++",
"++++++++++++X.     OOOOOOOOOOOO+",
"++++++++++++X.    OOOOOOOOOOOOO+",
"+++++++++++XX.    OOOOOOOOOOOOO+",
"+++++++++++XX.   OOOOOOOOOOOOOO+",
"+++++++++++XXX.  OOOOOOOOOO. OX+",
"++++++++++XXXXXXOOOOOOOOOOO. OX+",
"++++++++++XXXXXXOOO..OOOOOOOOO++",
"+++++++++XXXXXXXOOO.  OOOOOOOX++",
"+++++++++X XXXXXOO.   OOOOOOO+++",
"++++++++X. XXXXXOO.   OOOOOOX+++",
"++++++++X  XXXXXOOO. OOOOOOO++++",
"++++++++X  XXXXXXOOOOOOOOOOX++++",
"++++ooo.X XXXXoooOOOOOoooOX+++++",
"+++ooooooXXXXoooooOOOOooooX+ooo+",
"+++ooooooooX.oooooXXXoooooooooo+",
"+++oooooooo..oooooXOOoooooooooo+",
"++ooooooooo.ooooooXOOoooooooooo+",
"++ooo+.oooo.oooooooOOoooooooooo+",
"++ooo......XoooooooXooooooooooo+",
"+oooo.....XXoooooooXoooooooo++o+",
"+ooo+....XXXooooooo.oooooo..++++",
"+ooo+....XXoooo.oo..ooooooo..+++",
"+oo+.....XXoooo......oo.ooo..+++",
"+oo+....++Xooo...XX....Xooo...++",
"+oo+....++XoooXXXXXXXXX.ooo...++",
"+o++....++XoooXXOOOOXXX.+oo....+",
"+o++...+++ooooXOOOOOXX...ooo...+",
"++++...+++oooXXOOOOX+....ooo...+",
"++++...+++oooXXXXXXX++...ooo+..+",
"++++...+++ooo++...++++...ooo++.+",
"++++++++++++++++++++++++++++++++"
};
