/* XPM */
static char *result[] = {
/* columns rows colors chars-per-pixel */
"32 32 8 1 ",
"  c #3D253B",
". c #606060",
"X c #802954",
"o c #D01946",
"O c #9B4C51",
"+ c #E84444",
"@ c #DFBBB3",
"# c None",
/* pixels */
"################################",
"###################XXXXXXX######",
"#################XXXXXOOOOO#####",
"###############XXXXXOOOOOOOX####",
"##############XXXXXOOOOOOOOX#@@#",
"#############XXXXXOOOOOOOOOO.@@#",
"############XXXXXOOOOOOOOOOOX@@#",
"############ XXXXOOOOOOOOOOOX@@#",
"###########X XXXOOOOOOOOOOOOO@@#",
"###########XXXXXOOOOOOOOOOOOO@@#",
"##########XXXXXOOOOOOOOOOOOOO@@#",
"##########XXXXXOOOOOOOX   OO.@@#",
"#########XXXXXXOOOOOOOX   OO.@@#",
"#########XXXXXXOOOOOOOOOOOOO.@@#",
"#########XXXXXOOOOOOOOOOOOO..@@#",
"######oooXXXXXOOOOOOOOOOOOX.@@@#",
"####oooooXXXXXOOOOOOOOOOOX..@@@#",
"###ooooooXXXXXOOOOOOOOOOX...@@@#",
"##ooooooooXXXXXOOOOOOXXX....@@@#",
"##ooooooooXXXXX++++++XX....@@@@#",
"#ooooooooooXXX++++++++.....@@@@#",
"#oooooo######X++++++++.....@@@@#",
"#oooooo#####++++++++++.....@@@@#",
"#ooooooo#+++++++++++++.....@@@@#",
"#ooooooo#+++++++++++++.....@@@@#",
"##ooo####++++++++++++#......@@@#",
"###oo#####+++++++++++#.........#",
"######++++++++++++++###........#",
"######+++++++++++++#######.....#",
"######+++++++++++###############",
"#######++++++###################",
"################################"
};
