/* XPM */
static char *result[] = {
/* columns rows colors chars-per-pixel */
"32 32 9 1 ",
"  c #523B40",
". c #606060",
"X c #D01946",
"o c #895A45",
"O c #BF704D",
"+ c #E84444",
"@ c #E1A171",
"# c #A7ACBA",
"$ c None",
/* pixels */
"$$$$$$$$$$$$$$$$$$$$$$$$$$$$$$$$",
"$$$$$$$$$$$$$$$$$$$$$$$$$$$$$$$$",
"$$$$$$$$$$$OO@@@@@O$$$$$$$$$$$$$",
"$$$$$$$$$$OO@@@@@@@O$$$$$$$$$$$$",
"$$$$$$$$$$OO@@@@@@@@$$$$$$$$$$$$",
"$$$$$$$$$XXX@@++++@@O$$$$$$$$$$$",
"$$$$$$$$$XXX@@++++@@O$$$$$$$$$$$",
"$$$$$$$$$OO@@@OOOO@@O$$$$$$$$$$$",
"$$$$$$$$$o @@@  oO@@O@@$$$$$$$$$",
"$$$$$$$$$o @@@  o@@@@@@$$$$$$$$$",
"$$$$$$$$$Oo@@@OO@@@@@@@$$$$$$$$$",
"$$$$$$$$$OOXX@@@@@@@O@$$$$$$$$$$",
"$$$$$$$$$OXXX+++@@@+O$$$$$$$$$$$",
"$$$$$$$$$XOO@@@+++++O$$.###.$$$$",
"$$$$$$$$$XOXX@@+++++O$.#####$$$$",
"$$$$$$$$$XXX+++++++@OO.#####.$$$",
"$$$$$$$$oXXX++++++@@OO####.....$",
"$$$$$$$$oXX++++++O@@O.###..####$",
"$$$$$$$$XXX++++++O@@O.###.#####$",
"$$$$$$ooXX++++++OOO@O.###.#####$",
"$$$oooooXX++++++@@@OO.###.#####$",
"$$ooooooXX+++++O@@@@@.###.#####$",
"$oooooooX+++++OOOO@@@...#..####$",
"$ooooOOOX+++++OOOOOOO........##$",
"$ooOOOOOX++++O@@@@@@@@O........$",
"$ooOOOOOX++++O@@@@@@@@@@O......$",
"$ooOOOOOOX+++@@@@@@@@@@@@OOOOOO$",
"$ooOOOOOOX++O@@@@@@@@@@@@OOOOOO$",
"$ooOOOOOOX++O@@@@@@@@@@@@OOOOOO$",
"$oooOOOOOX++O@@@@@@@@@@@@OOOOOO$",
"$ooooooooX++OO@@@@@@@@@@OO$OOOO$",
"$$$$$$$$$$$$$$$$$$$$$$$$$$$$$$$$"
};
