/* XPM */
static char *result[] = {
/* columns rows colors chars-per-pixel */
"32 32 10 1 ",
"  c #3D253B",
". c #523B40",
"X c #895A45",
"o c #BF704D",
"O c #D1851E",
"+ c #E1A171",
"@ c #FFD569",
"# c #A7ACBA",
"$ c #CAE6F5",
"% c None",
/* pixels */
"%%%%%%%%%%%%%%%%%%%%%%%%%%%%%%%%",
"%%%%%%%%%%%......%%%%%%%%%%%%%%%",
"%%%%%%%%%%.  .......%%%%%%%%%%%%",
"%%%%%%%%%%.    ......%%%%%%%%%%%",
"%%%%%%%%%%.    ......%%%%%%%%%%%",
"%%%%%%%%%%.    ......%%%%%%%%%%%",
"%%%%%%%%%%.    ......%%%%%%%%%%%",
"%%%%%%%%%#.    .....$#%%%%%%%%%%",
"%%%%%..%%######$$$$$$#%%%%%%%%%%",
"%%%%%.....#####$$$$$$....%%%%%%%",
"%%%%%%..        .........%%%%%%%",
"%%%%%%%..         .......%%%%%%%",
"%%%%%%%%%XXXXX.   ......%%%%%%%%",
"%%%%%%%%%Xooo+++++ooX%%%%%%%%%%%",
"%%%%%%%%%Xooo+++++ooX%%%%%%%%%%%",
"%%%%%%%%%..XooX..oooXoo%%%%%%%%%",
"%%%%%%%%%..Xooo..oooooo%%%%%%%%%",
"%%%%%%%%%XXXooooooooooo%%%%%%%%%",
"%%%%%%%%%ooXooo++++oXo%%%%%%%%%%",
"%%%%%%%%%ooXooo+++oXX%%%%%%%%%%%",
"%%%%%%%%%XXXXXoooooXX%%%%%%%%%%%",
"%%%%%%%%%XXooooooooXX%%%%%%%%%%%",
"%%%%%%%%%%XoooooooXXX$%%%%%%%%%%",
"%%%%%%%%%%XXXXXXXXXXX$$%%%%%%%%%",
"%%%%%%%%%%%XXXXXXXXX$$$..%%%%%%%",
"%%%%%%%%...##XXXXXXX$$...OO@@@%%",
"%%%%%......##XXXXXX$$$..OO@@@@O%",
"%%XX........##XXX$$$$...OO@@@@@%",
"%%XX........###X$$$$....OO@@@@@%",
"%XXX.........###$$$$....OO@@@@@%",
"%XX..........###$$$......OO@@@@%",
"%%%%%%%%%%%%%%%%%%%%%%%%%%%%%%%%"
};
