/* XPM */
static char *result[] = {
/* columns rows colors chars-per-pixel */
"32 32 11 1 ",
"  c #2A5A39",
". c #427F3B",
"X c #523B40",
"o c #8A961F",
"O c #80A53F",
"+ c #D1851E",
"@ c #CCF61F",
"# c #FFD569",
"$ c #A7ACBA",
"% c #E6DECA",
"& c None",
/* pixels */
"&&&&&&&&&&&&&&&&&&&&&&&&&&&&&&&&",
"&&&&&&&&&&&&&&&&&+#&&&&&&&&&&&&&",
"&&&&&&&&&&&&&&&&&+#&##&&++&&&&&&",
"&&&&&&&&&&&&&&&&+##&##&+++&&&&&&",
"&&&&&&&&&&&&&&&&+######+++&&&&&&",
"&&&&&&&&&&&&O ..+###OOOO+&&&&&&&",
"&&&&&&&&&&&OO    ##O@@X@O&&&&&&&",
"&&&&&&&&&&.       OO@.X.OO&&&&&&",
"&&&&&&&&&.        OO@@X@OO&&&&&&",
"&&&&&&&&.      O OOOOOOOOO&&&&&&",
"&&&&&&&.     OOOOOOOOOOOOOO&&&&&",
"&&&&&&&.    OOOOOOOOOOOOOOO&&&&&",
"&&&&&&&.   OOOOOOOOOOOOOooO&&&&&",
"&&&&&&.    OOOOOOOOOOOOOoo.O&&&&",
"&&&&&&.$$$$$$OOOOOOOOOOOO..ooo&&",
"&&&&&.$$$$$$$$$$OOOOOOOOOOoo@@o&",
"&&&&& $$$$$%%%%%%$OOOOOOOOoo@@o&",
"&&&&& $$$$%%%%%%%%%%OOOOOOooooo&",
"&&&&&$$$$$%%%%%%%%%%%OOOOO.ooo.&",
"&&&&&$$$$$%%%%%%%%%%%%OOOOO....&",
"&&&&&$$$$$%%%%%%%%%%%%OOOOOO..O&",
"&&&&&$$$$$%%%%%%%%%%%%%OOOOOOOO&",
"&&&&&$$$$$%%%%%%%%%%%%%OOOOOOOO&",
"&&&&&&$$$$%%%%%%%%%%%%%OOOOOOOO&",
"&&&&&&$$$$%%%%%%%%%%%%%%OOOOOOO&",
"&&&&&&$$$$$%%%%%%%%%%%%%OOOOOOO&",
"&&&&&&&$$$$%%%%%%%%%%%%%OOOOOOO&",
"&&&&&&&$$$$%%%%%%%%%%%%%O..OOOO&",
"&&&&&&& $$$%%%%%%%%%%%%%....OOO&",
"&&&&&&&  $$$%%%%%%%%%%%$....OOO&",
"&&&&&&  $$$$$$%%%%%%%%%.....OOO&",
"&&&&&&&&&&&&&&&&&&&&&&&&&&&&&&&&"
};
