/* XPM */
static char *result[] = {
/* columns rows colors chars-per-pixel */
"32 32 9 1 ",
"  c #523B40",
". c #56587B",
"X c #802954",
"o c #D01946",
"O c #895A45",
"+ c #D1851E",
"@ c #FFD569",
"# c #A7ACBA",
"$ c None",
/* pixels */
"$$$$$$$$$$$$$$$$$$$$$$$$$$$$$$$$",
"$oXX$@@@+$$$$$$$$@@++$$$$$$$$$$$",
"$XXXX@@@@+$$$$$$@@@++....$$$$$$$",
"$  XX@@@@@+$$$$@@@@++.###..$$$o$",
"$   X@@@@@@++@@@@@@++.#####.ooo$",
"$   @@@@@@@++@@@@@@@++.####oooo$",
"$$  @@@@@@@++@@@@@@@++.####oooo$",
"$$$ @@@@@@@@@@@@@@@@++.####oooo$",
"$$$ @@@@@@@@@@@@@@@@++.###.oooX$",
"$@+$@@@@@@@@@@@@@@@@++@+##..oXX$",
"$@@+@@@@@@@++@@@@@@@+@@+..##.XX$",
"$@@@@@@@@@@++@@@@@@@@@@++.##.XX$",
"$@@@@@@@@@@++@@@@@@@@@@++...  $$",
"$@@@@@@@@++OO++@@@@@@@@++..   $$",
"$@@@@++++++OO+++++++@@@++.     $",
"$$++++++++++++++++++++++   ..  $",
"$$$.    ++OOOO++++        .... $",
"$$$.  oo OOOOOOOO   ooo   .... $",
"$$$   oo O++++OOO   ooo    ..  $",
"$$$ .  @@@@@@@@@@++     ..     $",
"$$$$..@@@@@@@@@@@@++   ...    $$",
"$$$$ .@+@@@@@@+++@++   ..     $$",
"$$$$  @+@@@@@@+++@++         $$$",
"$$$$$..@@@@@@@@@@++...      $$$$",
"$$$$$..@@@@@@@@@@++.##..   $$$$$",
"$$$$$$.@@@@@@@@@@++.####..$$$$$$",
"$$$$$ .@@@@@@@@@@++.####..$$$$$$",
"$$$$$ .@@@@@@@@@@+.#####.. $$$$$",
"$$$$$  .@@@@@@@@++.#####.  $$$$$",
"$$$$$  .@@@@@@@@++......   $$$$$",
"$$$$$  $$@@@@@@++$$$...    $$$$$",
"$$$$$$$$$$$$$$$$$$$$$$$$$$$$$$$$"
};
