/* XPM */
static char *result[] = {
/* columns rows colors chars-per-pixel */
"32 32 5 1 ",
"  c #523B40",
". c #606060",
"X c #A7ACBA",
"o c #E6DECA",
"O c None",
/* pixels */
"OOOOOOOOOOOOOOOOOOOOOOOOOOOOOOOO",
"OOOOOOOOOOOOOOOOOOOOO..OOOOOOOOO",
"OOOOOOOOOO  OOOOOOOO.o.OOOOOOOOO",
"OOOOOOOOOOX  OOOOOO..o.OOOOOOOOO",
"OOOOOOOOOOX   OOOOO.oo.OOOOOOOOO",
"OOOOOOOOOOXX  OOOOO.oo..OOOOOOOO",
"OOOOOOOOOOXX   OOOO.ooo.OOOOOOOO",
"OOOOOOOOO XX  ......ooo.OOOOOOOO",
"OOOOOOOOO  X ........oo.OOOOOOOO",
"OOOOOOOOO   .............OOOOOOO",
"OOOOOOOO    .............OOOOOOO",
"OOOOOOOO    .............OOOOOOO",
"OOOOOOO  XX.......ooo....OOOOOOO",
"OOOOOOO   X......ooooo...OOOOOOO",
"OOOOOOO X  .....oo   o....OOOOOO",
"OOOOOOO XXX.....o   oo....OOOOOO",
"OOOOOOOO X.....ooooooo....OOOOOO",
"OOOOOOOO ......oooooo......OOOOO",
"OOOOOOOO .....oooooo........OOOO",
"OOOOOOOO......oooooX..........OO",
"OOOOOOOO.....oooooX............O",
"OOOOOOOO    ooooooX............O",
"OOOOOOOO    ooooo.X............O",
"OOOOOOOOX  oooo..XXX...........O",
"OOOOOOOO    o..XXXXX...........O",
"OOOOOOOOOOO  XXXXXXX...........O",
"OOOOOOOOOOOO XXXXXXX...........O",
"OOOOOOOOOOOO XXXXXXX...........O",
"OOOOOOOOOOO  XXXXXX............O",
"OOOOOOOOOOO   XXXXX............O",
"OOOOOOOOOOO   XXXX.............O",
"OOOOOOOOOOOOOOOOOOOOOOOOOOOOOOOO"
};
