/* XPM */
static char *result[] = {
/* columns rows colors chars-per-pixel */
"32 32 9 1 ",
"  c #1F3736",
". c #2A5A39",
"X c #427F3B",
"o c #523B40",
"O c #895A45",
"+ c #9B4C51",
"@ c #BF704D",
"# c #E1A171",
"$ c None",
/* pixels */
"$$$$$$$$$$$$$$$$$$$$$$$$$$$$$$$$",
"$$$$$$$$$$$$$$$$$$$$$$$$$$$$$$$$",
"$$$$$$$$$$$$$$$$$$$$$$$$$$$$$$$$",
"$$$$$$$$$$     .....$$$$$$$$$$$$",
"$$$$$$$$$     ........$$$$$$$$$$",
"$$$$$$$$$    ..........$$$$$$$$$",
"$$$$$$$$     ...........$$$$$$$$",
"$$$$$$$$  O@@@@O........ $$$$$$$",
"$$$$$$$$ O@@@@@@@@.......$$$$$$$",
"$$$$$$$$ ooo@@oooo@......$$$$$$$",
"$$$$$$$$ ooo##oooo@......$$$$$$$",
"$$$$$$$$ O@@##@@@@@O.....$$$$$$$",
"$$$$$$$$ oO@##OOoo#@.... $$$$$$$",
"$$$$$$$$$o@@###Ooo#@....$$$$$$$$",
"$$$$$$$$$##@#######@... $$$$$$$$",
"$$$$$$$$$##@##@###@@...$$$$$$$$$",
"$$$$$$$$$@#@@@####@@...$$$$$$$$$",
"$$$$$$$$$@########@..  $$$$$$$$$",
"$$$$$$$$$ @######@@    $$$$$$$$$",
"$$$$$$$$$ @######@O  ...$$$$$$$$",
"$$$$$$$$$  O@@@OOO.......$$$$$$$",
"$$$$$$$$    OOOO.........$$$$$$$",
"$$$$$$$$       ..........$$$$$$$",
"$$$$$$$.       ......... .$$$$$$",
"$$$$$...       ....... XXXX..$$$",
"$$$o.....       ...  XXXXXX+++$$",
"$$oo.......       XXXXXXXX+++++$",
"$oo............XXXXXXXXXXX+++++$",
"$oo...........XXXXXXXXXXX++++++$",
"$oo...........XXXXXXXXXXX++++++$",
"$oo...........XXXXXXXXXXX++++++$",
"$$$$$$$$$$$$$$$$$$$$$$$$$$$$$$$$"
};
