/* XPM */
static char *result[] = {
/* columns rows colors chars-per-pixel */
"32 32 6 1 ",
"  c #3D253B",
". c #523B40",
"X c #895A45",
"o c #A7ACBA",
"O c #CAE6F5",
"+ c None",
/* pixels */
"++++++++++++++++++++++++++++++++",
"++++++++++++++++++++++++++++++++",
"++++...++++++++++++++.XX.+++++++",
"++++.  ..+++.........  .X+++++++",
"++++.    ......XXX..    X+++++++",
"++++.    .....XXXX.     X+++++++",
"++++.     ....XXXX..    X+++++++",
"+++++    ....XXXXX...   X+++++++",
"+++++.  .....XXXXXX..   .+++++++",
"+++++.  .....XXXXXX..  ...++++++",
"++++++. .....XXXXXXX.. ....+++++",
"++++++.......XXXXXXXXX.......+++",
"+++++++..  ..XXX.  .XX.XX.....++",
"++++++++. ..XXXX.  XXX.XX.XXX.++",
"++++++++...XXXXXXXXXX..XX.XXXX.+",
"++++++++..XXXXXXXXXXX.....XXXX.+",
"+++++o+...XXXXOXXXXXXX....XXXX.+",
"++++oo+...XXX.OOXXXXXX. ..XXXX.+",
"++++oo........OOXXXXXX. ..XXXX.+",
"++++oo.XXXXX.OOOXXXXXX. ..XXXX.+",
"++++ooX.XX..XOOOXXXXXX. .XXXXX.+",
"++++.oX.XX..XOO.XXXXX.. .XXXXX.+",
"+++++.XXXXXXX.........  .XXXXX.+",
"+++++..XXXXX........   ..XXXXX.+",
"++++++...........      ..XXXXX.+",
"++++++++ ...          ...XXXXX.+",
"++++++++             ....XXXXX.+",
"++++++++            ..XX.XXXXX.+",
"++++++++.         ....XXX.XXXX.+",
"+++++++++............XXXX...XX.+",
"++++++++++...........XXXX..XX..+",
"++++++++++++++++++++++++++++++++"
};
