/* XPM */
static char *result[] = {
/* columns rows colors chars-per-pixel */
"32 32 9 1 ",
"  c #523B40",
". c #56587B",
"X c #D01946",
"o c #40369F",
"O c #5880CC",
"+ c #A7ACBA",
"@ c #9BF0FD",
"# c #E6DECA",
"$ c None",
/* pixels */
"$$$$$$$$$$$$$$$$$$$$$$$$$$$$$$$$",
"$$$$$$$$$$$$$$$$$$$$$$$$$$$$$$$$",
"$$$$$$$$$$$$$$$$$$$$$$$$$$$$$$$$",
"$$$$$$$++++$$$$$+++++$$$$$$$$$$$",
"$$$$$$$ ++++++++######+$$$$$$$$$",
"$$$$$$$  ++++++######+++$$$$$$$$",
"$$$$$$ X +++++####    +++$$$$$$$",
"$$$$$$ X +++++###      ++$$$$$$$",
"$$$$$$  +++++###  XX   +++$$$$$$",
"$$$$$++++++#####  XX  ++++$$$$$$",
"$$$$+++++#######+   ++++++$$$$$$",
"$$$++++##########++++#######$$$$",
"$$$ ++######################$$$$",
"$$+ ++###   ################$$$$",
"$$++++### +################$$$$$",
"$$++++###################..$$$$$",
"$$++++###############O#O...$$$$$",
"$$$++++########O##OOOOOO..OO$$$$",
"$$$++$..##.O##OOO#OOOO@@OOOO$$$$",
"$$$++$$.##.OO#OO@@@@@@@@OOOO$$$$",
"$$$$+$$$#OOO@@@@@@@@@@@@OOOOO$$$",
"$$$$$$$$$OOOO@@@@@@@@@@OOOOOO$$$",
"$$$$$$$$$$$OOOO@@@@@@@@.OOOOOO$$",
"$$$$$$$$$$$o.....OOOOO..OOOOOOO$",
"$$$$$$$$$$oo..........O..OOOOOO$",
"$$$$$$$$$ooo...OOOOOOOO..OOOOOO$",
"$$$$$$$$$oo...OOOOOOOOOO..OOOOO$",
"$$$$$$$$ooo...OOOOOOOOOO...OOOO$",
"$$$$$$$$ooo...OOOOOOOOOO...OOOO$",
"$$$$$$$$ooo...OOOOOOOOOO...OOOO$",
"$$$$$$$$ooo...OOOOOOOOOO...OOOO$",
"$$$$$$$$$$$$$$$$$$$$$$$$$$$$$$$$"
};
