/* XPM */
static char *result[] = {
/* columns rows colors chars-per-pixel */
"32 32 4 1 ",
"  c #523B40",
". c #802954",
"X c #A7ACBA",
"o c None",
/* pixels */
"oooooooooooooooooooooooooooooooo",
"ooooooo  oooooooooo..ooooooooooo",
"ooooooo   ooooooooo...oooooooooo",
"ooooooo    oooooooo....ooooooooo",
"oooooooo    oooooooo....oooooooo",
"oooooooo     ooooooo.....ooooooo",
"ooooooooo     ooooooo.....oooooo",
"ooooooooo      oooooo......ooooo",
"ooooooooo        ..........ooooo",
"oooooooooo    .. ..........ooooo",
"oooooooooo    .. ..........ooooo",
"oooooooooo       .......... oooo",
"oooooooooo    .. ..........  ..o",
"oooooooooo    .. .......... ...o",
"oooooooooo    .. .......... ...o",
"oooooooooo    .. .......... ...o",
"oooooooooo   ... .........  ...o",
"oooooooooo   .. .......... ....o",
"oooooooooo   .. .......... ....o",
"oooooooooo   .. .........  ....o",
"oooXooooo    . ..........  ....o",
"oooXooooo   .. .........    ...o",
"oooXXoooo   . ..........       o",
"oooXXoooo    ..........   .....o",
"oooXXXoo  XX..........   ......o",
"oooXXXXXXXXX.XX......          o",
"oooXXXXXXXXX.XX.....           o",
"ooooXXXXXXX....XX.             o",
"ooooXXXX...XXX.Xoo             o",
"oooooXXX..XXXX.oooo            o",
"ooooooooX.XXXooooooo           o",
"oooooooooooooooooooooooooooooooo"
};
