/* XPM */
static char *result[] = {
/* columns rows colors chars-per-pixel */
"32 32 5 1 ",
"  c #5C6B53",
". c #895A45",
"X c #8A961F",
"o c #CCF61F",
"O c None",
/* pixels */
"OOOOOOOOOOOOOOOOOOOOOOOOOOOOOOOO",
"OOOOOOOOOOXXXXXXXXOOOOOOOOOO...O",
"OOOOOOXXXXooooooooXXXXXOOOO....O",
"OOOOXXXXXoooooooooooXXooXO.....O",
"OOOXXXXXXoooooooooooooooX ....OO",
"OOOXooooXoooooooooooooXX   ..OOO",
"OOXoooooooooooooooooooX     OOOO",
"OOXooooooooooooooooooo     XOOOO",
"OOX ooooX   XooooooooX    XXOOOO",
"OOX XooXX   XXXooooXX    XXXOOOO",
"OOX XooXX   XXXXXXX    XoooXXOOO",
"OOXooooooooXXXXXXXX   XooooXXOOO",
"OOXXooooooXOOOOXXXX   ooooooXOOO",
"OOOXXooXXXXOOOOOX  XXoooooooXOOO",
"OOOOOooOOXXOOOOOX  XooooooooXOOO",
"OOOOOoXOOXXOOOOXXXXoooooooooXOOO",
"OOOOOXoOOOOOOOXXXXXoooooooooXOOO",
"OOOOOooOOOOOOXXXXXoooooooooXOOOO",
"OOOOOoXOOOOOOX  XXooooooooXXOOOO",
"OOOOOXXOOOOOXX  XXXooooooXXOOOOO",
"OOOOOOOOOOOOXXXXXXXXooXXXXOOOOOO",
"OOOOOOOOOOOOX  XXooooooXXOOOOOOO",
"OOOOOOOOOOOOX  XooooooooXOOOOOOO",
"OOOOOOOOOOOO   XooooooooXOOOOOOO",
"OOOOOOOOOOOO    ooooooooXOOOOOOO",
"OOOOOOOOOOOX    ooooooooXXOOOOOO",
"OOOOOOOOOOOX    XooooooooXOOOOOO",
"OOOOOOOOOOOX    XooooooooXXOOOOO",
"OOOOOOOOOOXX   XXooooooooooXOOOO",
"OOOOOOXXXX     XXXooooooXooXXXOO",
"OOOOOXX       XXXXXXXXXXXXXXXXXO",
"OOOOOOOOOOOOOOOOOOOOOOOOOOOOOOOO"
};
